G04 #@! TF.GenerationSoftware,KiCad,Pcbnew,8.0.4*
G04 #@! TF.CreationDate,2024-08-16T23:51:58-05:00*
G04 #@! TF.ProjectId,BatteryCo,42617474-6572-4794-936f-2e6b69636164,rev?*
G04 #@! TF.SameCoordinates,Original*
G04 #@! TF.FileFunction,Legend,Top*
G04 #@! TF.FilePolarity,Positive*
%FSLAX46Y46*%
G04 Gerber Fmt 4.6, Leading zero omitted, Abs format (unit mm)*
G04 Created by KiCad (PCBNEW 8.0.4) date 2024-08-16 23:51:58*
%MOMM*%
%LPD*%
G01*
G04 APERTURE LIST*
G04 Aperture macros list*
%AMRoundRect*
0 Rectangle with rounded corners*
0 $1 Rounding radius*
0 $2 $3 $4 $5 $6 $7 $8 $9 X,Y pos of 4 corners*
0 Add a 4 corners polygon primitive as box body*
4,1,4,$2,$3,$4,$5,$6,$7,$8,$9,$2,$3,0*
0 Add four circle primitives for the rounded corners*
1,1,$1+$1,$2,$3*
1,1,$1+$1,$4,$5*
1,1,$1+$1,$6,$7*
1,1,$1+$1,$8,$9*
0 Add four rect primitives between the rounded corners*
20,1,$1+$1,$2,$3,$4,$5,0*
20,1,$1+$1,$4,$5,$6,$7,0*
20,1,$1+$1,$6,$7,$8,$9,0*
20,1,$1+$1,$8,$9,$2,$3,0*%
%AMFreePoly0*
4,1,6,1.000000,0.000000,0.500000,-0.750000,-0.500000,-0.750000,-0.500000,0.750000,0.500000,0.750000,1.000000,0.000000,1.000000,0.000000,$1*%
%AMFreePoly1*
4,1,6,0.500000,-0.750000,-0.650000,-0.750000,-0.150000,0.000000,-0.650000,0.750000,0.500000,0.750000,0.500000,-0.750000,0.500000,-0.750000,$1*%
G04 Aperture macros list end*
%ADD10C,0.150000*%
%ADD11C,0.120000*%
%ADD12RoundRect,0.250000X0.337500X0.475000X-0.337500X0.475000X-0.337500X-0.475000X0.337500X-0.475000X0*%
%ADD13R,1.700000X1.700000*%
%ADD14O,1.700000X1.700000*%
%ADD15FreePoly0,270.000000*%
%ADD16FreePoly1,270.000000*%
%ADD17FreePoly1,180.000000*%
%ADD18FreePoly0,180.000000*%
%ADD19RoundRect,0.250000X-0.350000X-0.450000X0.350000X-0.450000X0.350000X0.450000X-0.350000X0.450000X0*%
%ADD20FreePoly0,90.000000*%
%ADD21FreePoly1,90.000000*%
%ADD22R,1.000000X0.750000*%
%ADD23RoundRect,0.250000X-0.475000X0.337500X-0.475000X-0.337500X0.475000X-0.337500X0.475000X0.337500X0*%
%ADD24RoundRect,0.250000X0.350000X0.450000X-0.350000X0.450000X-0.350000X-0.450000X0.350000X-0.450000X0*%
%ADD25RoundRect,0.250000X-0.450000X0.350000X-0.450000X-0.350000X0.450000X-0.350000X0.450000X0.350000X0*%
%ADD26RoundRect,0.249999X1.950001X1.950001X-1.950001X1.950001X-1.950001X-1.950001X1.950001X-1.950001X0*%
%ADD27RoundRect,0.150000X0.825000X0.150000X-0.825000X0.150000X-0.825000X-0.150000X0.825000X-0.150000X0*%
%ADD28RoundRect,0.125000X0.125000X0.225000X-0.125000X0.225000X-0.125000X-0.225000X0.125000X-0.225000X0*%
%ADD29RoundRect,0.249999X-0.450001X-1.425001X0.450001X-1.425001X0.450001X1.425001X-0.450001X1.425001X0*%
%ADD30RoundRect,0.250000X0.300000X-2.050000X0.300000X2.050000X-0.300000X2.050000X-0.300000X-2.050000X0*%
%ADD31RoundRect,0.250002X5.149998X-4.449998X5.149998X4.449998X-5.149998X4.449998X-5.149998X-4.449998X0*%
%ADD32RoundRect,0.150000X0.150000X-0.587500X0.150000X0.587500X-0.150000X0.587500X-0.150000X-0.587500X0*%
%ADD33RoundRect,0.087500X-0.725000X-0.087500X0.725000X-0.087500X0.725000X0.087500X-0.725000X0.087500X0*%
%ADD34RoundRect,0.250000X-0.537500X-0.425000X0.537500X-0.425000X0.537500X0.425000X-0.537500X0.425000X0*%
%ADD35RoundRect,0.249999X-1.950001X-1.950001X1.950001X-1.950001X1.950001X1.950001X-1.950001X1.950001X0*%
%ADD36RoundRect,0.250000X0.475000X-0.337500X0.475000X0.337500X-0.475000X0.337500X-0.475000X-0.337500X0*%
%ADD37RoundRect,0.250000X-0.337500X-0.475000X0.337500X-0.475000X0.337500X0.475000X-0.337500X0.475000X0*%
%ADD38R,0.650000X0.500000*%
%ADD39R,4.120000X4.600000*%
%ADD40R,0.550000X0.500000*%
%ADD41RoundRect,0.250000X0.450000X-0.350000X0.450000X0.350000X-0.450000X0.350000X-0.450000X-0.350000X0*%
%ADD42C,1.000000*%
%ADD43R,1.600000X0.700000*%
%ADD44R,1.500000X1.200000*%
%ADD45R,2.200000X1.200000*%
%ADD46R,1.500000X1.600000*%
%ADD47RoundRect,0.250000X0.325000X0.450000X-0.325000X0.450000X-0.325000X-0.450000X0.325000X-0.450000X0*%
%ADD48C,3.250000*%
%ADD49R,1.500000X1.500000*%
%ADD50C,1.500000*%
%ADD51C,2.300000*%
%ADD52RoundRect,0.075000X-0.075000X0.650000X-0.075000X-0.650000X0.075000X-0.650000X0.075000X0.650000X0*%
%ADD53RoundRect,0.250000X-0.600000X0.600000X-0.600000X-0.600000X0.600000X-0.600000X0.600000X0.600000X0*%
%ADD54C,1.700000*%
%ADD55RoundRect,0.150000X0.200000X-0.150000X0.200000X0.150000X-0.200000X0.150000X-0.200000X-0.150000X0*%
%ADD56RoundRect,0.250000X-0.325000X-0.450000X0.325000X-0.450000X0.325000X0.450000X-0.325000X0.450000X0*%
%ADD57RoundRect,0.150000X-0.200000X0.150000X-0.200000X-0.150000X0.200000X-0.150000X0.200000X0.150000X0*%
%ADD58RoundRect,0.150000X0.587500X0.150000X-0.587500X0.150000X-0.587500X-0.150000X0.587500X-0.150000X0*%
%ADD59RoundRect,0.250000X-0.350000X0.850000X-0.350000X-0.850000X0.350000X-0.850000X0.350000X0.850000X0*%
%ADD60RoundRect,0.249997X-2.650003X2.950003X-2.650003X-2.950003X2.650003X-2.950003X2.650003X2.950003X0*%
%ADD61R,0.900000X1.500000*%
%ADD62R,1.500000X0.900000*%
%ADD63R,0.900000X0.900000*%
%ADD64C,0.650000*%
%ADD65R,1.450000X0.600000*%
%ADD66R,1.450000X0.300000*%
%ADD67O,2.100000X1.000000*%
%ADD68O,1.600000X1.000000*%
%ADD69RoundRect,0.112500X0.112500X-0.187500X0.112500X0.187500X-0.112500X0.187500X-0.112500X-0.187500X0*%
%ADD70RoundRect,0.150000X0.150000X0.200000X-0.150000X0.200000X-0.150000X-0.200000X0.150000X-0.200000X0*%
%ADD71RoundRect,0.375000X0.625000X0.375000X-0.625000X0.375000X-0.625000X-0.375000X0.625000X-0.375000X0*%
%ADD72RoundRect,0.500000X0.500000X1.400000X-0.500000X1.400000X-0.500000X-1.400000X0.500000X-1.400000X0*%
G04 APERTURE END LIST*
D10*
X128564467Y-54123904D02*
X128526371Y-54162000D01*
X128526371Y-54162000D02*
X128412086Y-54200095D01*
X128412086Y-54200095D02*
X128335895Y-54200095D01*
X128335895Y-54200095D02*
X128221609Y-54162000D01*
X128221609Y-54162000D02*
X128145419Y-54085809D01*
X128145419Y-54085809D02*
X128107324Y-54009619D01*
X128107324Y-54009619D02*
X128069228Y-53857238D01*
X128069228Y-53857238D02*
X128069228Y-53742952D01*
X128069228Y-53742952D02*
X128107324Y-53590571D01*
X128107324Y-53590571D02*
X128145419Y-53514380D01*
X128145419Y-53514380D02*
X128221609Y-53438190D01*
X128221609Y-53438190D02*
X128335895Y-53400095D01*
X128335895Y-53400095D02*
X128412086Y-53400095D01*
X128412086Y-53400095D02*
X128526371Y-53438190D01*
X128526371Y-53438190D02*
X128564467Y-53476285D01*
X129326371Y-54200095D02*
X128869228Y-54200095D01*
X129097800Y-54200095D02*
X129097800Y-53400095D01*
X129097800Y-53400095D02*
X129021609Y-53514380D01*
X129021609Y-53514380D02*
X128945419Y-53590571D01*
X128945419Y-53590571D02*
X128869228Y-53628666D01*
X128564467Y-51861504D02*
X128526371Y-51899600D01*
X128526371Y-51899600D02*
X128412086Y-51937695D01*
X128412086Y-51937695D02*
X128335895Y-51937695D01*
X128335895Y-51937695D02*
X128221609Y-51899600D01*
X128221609Y-51899600D02*
X128145419Y-51823409D01*
X128145419Y-51823409D02*
X128107324Y-51747219D01*
X128107324Y-51747219D02*
X128069228Y-51594838D01*
X128069228Y-51594838D02*
X128069228Y-51480552D01*
X128069228Y-51480552D02*
X128107324Y-51328171D01*
X128107324Y-51328171D02*
X128145419Y-51251980D01*
X128145419Y-51251980D02*
X128221609Y-51175790D01*
X128221609Y-51175790D02*
X128335895Y-51137695D01*
X128335895Y-51137695D02*
X128412086Y-51137695D01*
X128412086Y-51137695D02*
X128526371Y-51175790D01*
X128526371Y-51175790D02*
X128564467Y-51213885D01*
X128869228Y-51213885D02*
X128907324Y-51175790D01*
X128907324Y-51175790D02*
X128983514Y-51137695D01*
X128983514Y-51137695D02*
X129173990Y-51137695D01*
X129173990Y-51137695D02*
X129250181Y-51175790D01*
X129250181Y-51175790D02*
X129288276Y-51213885D01*
X129288276Y-51213885D02*
X129326371Y-51290076D01*
X129326371Y-51290076D02*
X129326371Y-51366266D01*
X129326371Y-51366266D02*
X129288276Y-51480552D01*
X129288276Y-51480552D02*
X128831133Y-51937695D01*
X128831133Y-51937695D02*
X129326371Y-51937695D01*
X85586295Y-53667219D02*
X86157723Y-53667219D01*
X86157723Y-53667219D02*
X86272009Y-53705314D01*
X86272009Y-53705314D02*
X86348200Y-53781505D01*
X86348200Y-53781505D02*
X86386295Y-53895790D01*
X86386295Y-53895790D02*
X86386295Y-53971981D01*
X85662485Y-53324362D02*
X85624390Y-53286266D01*
X85624390Y-53286266D02*
X85586295Y-53210076D01*
X85586295Y-53210076D02*
X85586295Y-53019600D01*
X85586295Y-53019600D02*
X85624390Y-52943409D01*
X85624390Y-52943409D02*
X85662485Y-52905314D01*
X85662485Y-52905314D02*
X85738676Y-52867219D01*
X85738676Y-52867219D02*
X85814866Y-52867219D01*
X85814866Y-52867219D02*
X85929152Y-52905314D01*
X85929152Y-52905314D02*
X86386295Y-53362457D01*
X86386295Y-53362457D02*
X86386295Y-52867219D01*
X85662485Y-52562457D02*
X85624390Y-52524361D01*
X85624390Y-52524361D02*
X85586295Y-52448171D01*
X85586295Y-52448171D02*
X85586295Y-52257695D01*
X85586295Y-52257695D02*
X85624390Y-52181504D01*
X85624390Y-52181504D02*
X85662485Y-52143409D01*
X85662485Y-52143409D02*
X85738676Y-52105314D01*
X85738676Y-52105314D02*
X85814866Y-52105314D01*
X85814866Y-52105314D02*
X85929152Y-52143409D01*
X85929152Y-52143409D02*
X86386295Y-52600552D01*
X86386295Y-52600552D02*
X86386295Y-52105314D01*
X68812095Y-112651266D02*
X69383523Y-112651266D01*
X69383523Y-112651266D02*
X69497809Y-112689361D01*
X69497809Y-112689361D02*
X69574000Y-112765552D01*
X69574000Y-112765552D02*
X69612095Y-112879837D01*
X69612095Y-112879837D02*
X69612095Y-112956028D01*
X69612095Y-112270313D02*
X68812095Y-112270313D01*
X68812095Y-112270313D02*
X68812095Y-111965551D01*
X68812095Y-111965551D02*
X68850190Y-111889361D01*
X68850190Y-111889361D02*
X68888285Y-111851266D01*
X68888285Y-111851266D02*
X68964476Y-111813170D01*
X68964476Y-111813170D02*
X69078761Y-111813170D01*
X69078761Y-111813170D02*
X69154952Y-111851266D01*
X69154952Y-111851266D02*
X69193047Y-111889361D01*
X69193047Y-111889361D02*
X69231142Y-111965551D01*
X69231142Y-111965551D02*
X69231142Y-112270313D01*
X69078761Y-111127456D02*
X69612095Y-111127456D01*
X68774000Y-111317932D02*
X69345428Y-111508409D01*
X69345428Y-111508409D02*
X69345428Y-111013170D01*
X78349533Y-119561695D02*
X78349533Y-120133123D01*
X78349533Y-120133123D02*
X78311438Y-120247409D01*
X78311438Y-120247409D02*
X78235247Y-120323600D01*
X78235247Y-120323600D02*
X78120962Y-120361695D01*
X78120962Y-120361695D02*
X78044771Y-120361695D01*
X78730486Y-120361695D02*
X78730486Y-119561695D01*
X78730486Y-119561695D02*
X79035248Y-119561695D01*
X79035248Y-119561695D02*
X79111438Y-119599790D01*
X79111438Y-119599790D02*
X79149533Y-119637885D01*
X79149533Y-119637885D02*
X79187629Y-119714076D01*
X79187629Y-119714076D02*
X79187629Y-119828361D01*
X79187629Y-119828361D02*
X79149533Y-119904552D01*
X79149533Y-119904552D02*
X79111438Y-119942647D01*
X79111438Y-119942647D02*
X79035248Y-119980742D01*
X79035248Y-119980742D02*
X78730486Y-119980742D01*
X79454295Y-119561695D02*
X79949533Y-119561695D01*
X79949533Y-119561695D02*
X79682867Y-119866457D01*
X79682867Y-119866457D02*
X79797152Y-119866457D01*
X79797152Y-119866457D02*
X79873343Y-119904552D01*
X79873343Y-119904552D02*
X79911438Y-119942647D01*
X79911438Y-119942647D02*
X79949533Y-120018838D01*
X79949533Y-120018838D02*
X79949533Y-120209314D01*
X79949533Y-120209314D02*
X79911438Y-120285504D01*
X79911438Y-120285504D02*
X79873343Y-120323600D01*
X79873343Y-120323600D02*
X79797152Y-120361695D01*
X79797152Y-120361695D02*
X79568581Y-120361695D01*
X79568581Y-120361695D02*
X79492390Y-120323600D01*
X79492390Y-120323600D02*
X79454295Y-120285504D01*
X68849914Y-120387095D02*
X68583247Y-120006142D01*
X68392771Y-120387095D02*
X68392771Y-119587095D01*
X68392771Y-119587095D02*
X68697533Y-119587095D01*
X68697533Y-119587095D02*
X68773723Y-119625190D01*
X68773723Y-119625190D02*
X68811818Y-119663285D01*
X68811818Y-119663285D02*
X68849914Y-119739476D01*
X68849914Y-119739476D02*
X68849914Y-119853761D01*
X68849914Y-119853761D02*
X68811818Y-119929952D01*
X68811818Y-119929952D02*
X68773723Y-119968047D01*
X68773723Y-119968047D02*
X68697533Y-120006142D01*
X68697533Y-120006142D02*
X68392771Y-120006142D01*
X69535628Y-119853761D02*
X69535628Y-120387095D01*
X69345152Y-119549000D02*
X69154675Y-120120428D01*
X69154675Y-120120428D02*
X69649914Y-120120428D01*
X70297533Y-119853761D02*
X70297533Y-120387095D01*
X70107057Y-119549000D02*
X69916580Y-120120428D01*
X69916580Y-120120428D02*
X70411819Y-120120428D01*
X66859333Y-108866095D02*
X66859333Y-109437523D01*
X66859333Y-109437523D02*
X66821238Y-109551809D01*
X66821238Y-109551809D02*
X66745047Y-109628000D01*
X66745047Y-109628000D02*
X66630762Y-109666095D01*
X66630762Y-109666095D02*
X66554571Y-109666095D01*
X67240286Y-109666095D02*
X67240286Y-108866095D01*
X67240286Y-108866095D02*
X67545048Y-108866095D01*
X67545048Y-108866095D02*
X67621238Y-108904190D01*
X67621238Y-108904190D02*
X67659333Y-108942285D01*
X67659333Y-108942285D02*
X67697429Y-109018476D01*
X67697429Y-109018476D02*
X67697429Y-109132761D01*
X67697429Y-109132761D02*
X67659333Y-109208952D01*
X67659333Y-109208952D02*
X67621238Y-109247047D01*
X67621238Y-109247047D02*
X67545048Y-109285142D01*
X67545048Y-109285142D02*
X67240286Y-109285142D01*
X68002190Y-108942285D02*
X68040286Y-108904190D01*
X68040286Y-108904190D02*
X68116476Y-108866095D01*
X68116476Y-108866095D02*
X68306952Y-108866095D01*
X68306952Y-108866095D02*
X68383143Y-108904190D01*
X68383143Y-108904190D02*
X68421238Y-108942285D01*
X68421238Y-108942285D02*
X68459333Y-109018476D01*
X68459333Y-109018476D02*
X68459333Y-109094666D01*
X68459333Y-109094666D02*
X68421238Y-109208952D01*
X68421238Y-109208952D02*
X67964095Y-109666095D01*
X67964095Y-109666095D02*
X68459333Y-109666095D01*
X54810667Y-55828200D02*
X54953524Y-55875819D01*
X54953524Y-55875819D02*
X55191619Y-55875819D01*
X55191619Y-55875819D02*
X55286857Y-55828200D01*
X55286857Y-55828200D02*
X55334476Y-55780580D01*
X55334476Y-55780580D02*
X55382095Y-55685342D01*
X55382095Y-55685342D02*
X55382095Y-55590104D01*
X55382095Y-55590104D02*
X55334476Y-55494866D01*
X55334476Y-55494866D02*
X55286857Y-55447247D01*
X55286857Y-55447247D02*
X55191619Y-55399628D01*
X55191619Y-55399628D02*
X55001143Y-55352009D01*
X55001143Y-55352009D02*
X54905905Y-55304390D01*
X54905905Y-55304390D02*
X54858286Y-55256771D01*
X54858286Y-55256771D02*
X54810667Y-55161533D01*
X54810667Y-55161533D02*
X54810667Y-55066295D01*
X54810667Y-55066295D02*
X54858286Y-54971057D01*
X54858286Y-54971057D02*
X54905905Y-54923438D01*
X54905905Y-54923438D02*
X55001143Y-54875819D01*
X55001143Y-54875819D02*
X55239238Y-54875819D01*
X55239238Y-54875819D02*
X55382095Y-54923438D01*
X55715429Y-54875819D02*
X55953524Y-55875819D01*
X55953524Y-55875819D02*
X56144000Y-55161533D01*
X56144000Y-55161533D02*
X56334476Y-55875819D01*
X56334476Y-55875819D02*
X56572572Y-54875819D01*
X56905905Y-54971057D02*
X56953524Y-54923438D01*
X56953524Y-54923438D02*
X57048762Y-54875819D01*
X57048762Y-54875819D02*
X57286857Y-54875819D01*
X57286857Y-54875819D02*
X57382095Y-54923438D01*
X57382095Y-54923438D02*
X57429714Y-54971057D01*
X57429714Y-54971057D02*
X57477333Y-55066295D01*
X57477333Y-55066295D02*
X57477333Y-55161533D01*
X57477333Y-55161533D02*
X57429714Y-55304390D01*
X57429714Y-55304390D02*
X56858286Y-55875819D01*
X56858286Y-55875819D02*
X57477333Y-55875819D01*
X73098667Y-64464200D02*
X73241524Y-64511819D01*
X73241524Y-64511819D02*
X73479619Y-64511819D01*
X73479619Y-64511819D02*
X73574857Y-64464200D01*
X73574857Y-64464200D02*
X73622476Y-64416580D01*
X73622476Y-64416580D02*
X73670095Y-64321342D01*
X73670095Y-64321342D02*
X73670095Y-64226104D01*
X73670095Y-64226104D02*
X73622476Y-64130866D01*
X73622476Y-64130866D02*
X73574857Y-64083247D01*
X73574857Y-64083247D02*
X73479619Y-64035628D01*
X73479619Y-64035628D02*
X73289143Y-63988009D01*
X73289143Y-63988009D02*
X73193905Y-63940390D01*
X73193905Y-63940390D02*
X73146286Y-63892771D01*
X73146286Y-63892771D02*
X73098667Y-63797533D01*
X73098667Y-63797533D02*
X73098667Y-63702295D01*
X73098667Y-63702295D02*
X73146286Y-63607057D01*
X73146286Y-63607057D02*
X73193905Y-63559438D01*
X73193905Y-63559438D02*
X73289143Y-63511819D01*
X73289143Y-63511819D02*
X73527238Y-63511819D01*
X73527238Y-63511819D02*
X73670095Y-63559438D01*
X74003429Y-63511819D02*
X74241524Y-64511819D01*
X74241524Y-64511819D02*
X74432000Y-63797533D01*
X74432000Y-63797533D02*
X74622476Y-64511819D01*
X74622476Y-64511819D02*
X74860572Y-63511819D01*
X75765333Y-64511819D02*
X75193905Y-64511819D01*
X75479619Y-64511819D02*
X75479619Y-63511819D01*
X75479619Y-63511819D02*
X75384381Y-63654676D01*
X75384381Y-63654676D02*
X75289143Y-63749914D01*
X75289143Y-63749914D02*
X75193905Y-63797533D01*
X59517142Y-50737580D02*
X59469523Y-50785200D01*
X59469523Y-50785200D02*
X59326666Y-50832819D01*
X59326666Y-50832819D02*
X59231428Y-50832819D01*
X59231428Y-50832819D02*
X59088571Y-50785200D01*
X59088571Y-50785200D02*
X58993333Y-50689961D01*
X58993333Y-50689961D02*
X58945714Y-50594723D01*
X58945714Y-50594723D02*
X58898095Y-50404247D01*
X58898095Y-50404247D02*
X58898095Y-50261390D01*
X58898095Y-50261390D02*
X58945714Y-50070914D01*
X58945714Y-50070914D02*
X58993333Y-49975676D01*
X58993333Y-49975676D02*
X59088571Y-49880438D01*
X59088571Y-49880438D02*
X59231428Y-49832819D01*
X59231428Y-49832819D02*
X59326666Y-49832819D01*
X59326666Y-49832819D02*
X59469523Y-49880438D01*
X59469523Y-49880438D02*
X59517142Y-49928057D01*
X60469523Y-50832819D02*
X59898095Y-50832819D01*
X60183809Y-50832819D02*
X60183809Y-49832819D01*
X60183809Y-49832819D02*
X60088571Y-49975676D01*
X60088571Y-49975676D02*
X59993333Y-50070914D01*
X59993333Y-50070914D02*
X59898095Y-50118533D01*
X61040952Y-50261390D02*
X60945714Y-50213771D01*
X60945714Y-50213771D02*
X60898095Y-50166152D01*
X60898095Y-50166152D02*
X60850476Y-50070914D01*
X60850476Y-50070914D02*
X60850476Y-50023295D01*
X60850476Y-50023295D02*
X60898095Y-49928057D01*
X60898095Y-49928057D02*
X60945714Y-49880438D01*
X60945714Y-49880438D02*
X61040952Y-49832819D01*
X61040952Y-49832819D02*
X61231428Y-49832819D01*
X61231428Y-49832819D02*
X61326666Y-49880438D01*
X61326666Y-49880438D02*
X61374285Y-49928057D01*
X61374285Y-49928057D02*
X61421904Y-50023295D01*
X61421904Y-50023295D02*
X61421904Y-50070914D01*
X61421904Y-50070914D02*
X61374285Y-50166152D01*
X61374285Y-50166152D02*
X61326666Y-50213771D01*
X61326666Y-50213771D02*
X61231428Y-50261390D01*
X61231428Y-50261390D02*
X61040952Y-50261390D01*
X61040952Y-50261390D02*
X60945714Y-50309009D01*
X60945714Y-50309009D02*
X60898095Y-50356628D01*
X60898095Y-50356628D02*
X60850476Y-50451866D01*
X60850476Y-50451866D02*
X60850476Y-50642342D01*
X60850476Y-50642342D02*
X60898095Y-50737580D01*
X60898095Y-50737580D02*
X60945714Y-50785200D01*
X60945714Y-50785200D02*
X61040952Y-50832819D01*
X61040952Y-50832819D02*
X61231428Y-50832819D01*
X61231428Y-50832819D02*
X61326666Y-50785200D01*
X61326666Y-50785200D02*
X61374285Y-50737580D01*
X61374285Y-50737580D02*
X61421904Y-50642342D01*
X61421904Y-50642342D02*
X61421904Y-50451866D01*
X61421904Y-50451866D02*
X61374285Y-50356628D01*
X61374285Y-50356628D02*
X61326666Y-50309009D01*
X61326666Y-50309009D02*
X61231428Y-50261390D01*
X81601580Y-66768857D02*
X81649200Y-66816476D01*
X81649200Y-66816476D02*
X81696819Y-66959333D01*
X81696819Y-66959333D02*
X81696819Y-67054571D01*
X81696819Y-67054571D02*
X81649200Y-67197428D01*
X81649200Y-67197428D02*
X81553961Y-67292666D01*
X81553961Y-67292666D02*
X81458723Y-67340285D01*
X81458723Y-67340285D02*
X81268247Y-67387904D01*
X81268247Y-67387904D02*
X81125390Y-67387904D01*
X81125390Y-67387904D02*
X80934914Y-67340285D01*
X80934914Y-67340285D02*
X80839676Y-67292666D01*
X80839676Y-67292666D02*
X80744438Y-67197428D01*
X80744438Y-67197428D02*
X80696819Y-67054571D01*
X80696819Y-67054571D02*
X80696819Y-66959333D01*
X80696819Y-66959333D02*
X80744438Y-66816476D01*
X80744438Y-66816476D02*
X80792057Y-66768857D01*
X81696819Y-65816476D02*
X81696819Y-66387904D01*
X81696819Y-66102190D02*
X80696819Y-66102190D01*
X80696819Y-66102190D02*
X80839676Y-66197428D01*
X80839676Y-66197428D02*
X80934914Y-66292666D01*
X80934914Y-66292666D02*
X80982533Y-66387904D01*
X80696819Y-65483142D02*
X80696819Y-64816476D01*
X80696819Y-64816476D02*
X81696819Y-65245047D01*
X84526667Y-98822295D02*
X84260000Y-98441342D01*
X84069524Y-98822295D02*
X84069524Y-98022295D01*
X84069524Y-98022295D02*
X84374286Y-98022295D01*
X84374286Y-98022295D02*
X84450476Y-98060390D01*
X84450476Y-98060390D02*
X84488571Y-98098485D01*
X84488571Y-98098485D02*
X84526667Y-98174676D01*
X84526667Y-98174676D02*
X84526667Y-98288961D01*
X84526667Y-98288961D02*
X84488571Y-98365152D01*
X84488571Y-98365152D02*
X84450476Y-98403247D01*
X84450476Y-98403247D02*
X84374286Y-98441342D01*
X84374286Y-98441342D02*
X84069524Y-98441342D01*
X84793333Y-98022295D02*
X85288571Y-98022295D01*
X85288571Y-98022295D02*
X85021905Y-98327057D01*
X85021905Y-98327057D02*
X85136190Y-98327057D01*
X85136190Y-98327057D02*
X85212381Y-98365152D01*
X85212381Y-98365152D02*
X85250476Y-98403247D01*
X85250476Y-98403247D02*
X85288571Y-98479438D01*
X85288571Y-98479438D02*
X85288571Y-98669914D01*
X85288571Y-98669914D02*
X85250476Y-98746104D01*
X85250476Y-98746104D02*
X85212381Y-98784200D01*
X85212381Y-98784200D02*
X85136190Y-98822295D01*
X85136190Y-98822295D02*
X84907619Y-98822295D01*
X84907619Y-98822295D02*
X84831428Y-98784200D01*
X84831428Y-98784200D02*
X84793333Y-98746104D01*
X95307285Y-121679619D02*
X95040618Y-121298666D01*
X94850142Y-121679619D02*
X94850142Y-120879619D01*
X94850142Y-120879619D02*
X95154904Y-120879619D01*
X95154904Y-120879619D02*
X95231094Y-120917714D01*
X95231094Y-120917714D02*
X95269189Y-120955809D01*
X95269189Y-120955809D02*
X95307285Y-121032000D01*
X95307285Y-121032000D02*
X95307285Y-121146285D01*
X95307285Y-121146285D02*
X95269189Y-121222476D01*
X95269189Y-121222476D02*
X95231094Y-121260571D01*
X95231094Y-121260571D02*
X95154904Y-121298666D01*
X95154904Y-121298666D02*
X94850142Y-121298666D01*
X95992999Y-121146285D02*
X95992999Y-121679619D01*
X95802523Y-120841524D02*
X95612046Y-121412952D01*
X95612046Y-121412952D02*
X96107285Y-121412952D01*
X96335856Y-120879619D02*
X96869190Y-120879619D01*
X96869190Y-120879619D02*
X96526332Y-121679619D01*
X125425333Y-124206295D02*
X125425333Y-124777723D01*
X125425333Y-124777723D02*
X125387238Y-124892009D01*
X125387238Y-124892009D02*
X125311047Y-124968200D01*
X125311047Y-124968200D02*
X125196762Y-125006295D01*
X125196762Y-125006295D02*
X125120571Y-125006295D01*
X125844381Y-125006295D02*
X125996762Y-125006295D01*
X125996762Y-125006295D02*
X126072952Y-124968200D01*
X126072952Y-124968200D02*
X126111048Y-124930104D01*
X126111048Y-124930104D02*
X126187238Y-124815819D01*
X126187238Y-124815819D02*
X126225333Y-124663438D01*
X126225333Y-124663438D02*
X126225333Y-124358676D01*
X126225333Y-124358676D02*
X126187238Y-124282485D01*
X126187238Y-124282485D02*
X126149143Y-124244390D01*
X126149143Y-124244390D02*
X126072952Y-124206295D01*
X126072952Y-124206295D02*
X125920571Y-124206295D01*
X125920571Y-124206295D02*
X125844381Y-124244390D01*
X125844381Y-124244390D02*
X125806286Y-124282485D01*
X125806286Y-124282485D02*
X125768190Y-124358676D01*
X125768190Y-124358676D02*
X125768190Y-124549152D01*
X125768190Y-124549152D02*
X125806286Y-124625342D01*
X125806286Y-124625342D02*
X125844381Y-124663438D01*
X125844381Y-124663438D02*
X125920571Y-124701533D01*
X125920571Y-124701533D02*
X126072952Y-124701533D01*
X126072952Y-124701533D02*
X126149143Y-124663438D01*
X126149143Y-124663438D02*
X126187238Y-124625342D01*
X126187238Y-124625342D02*
X126225333Y-124549152D01*
X84283714Y-103046104D02*
X84245618Y-103084200D01*
X84245618Y-103084200D02*
X84131333Y-103122295D01*
X84131333Y-103122295D02*
X84055142Y-103122295D01*
X84055142Y-103122295D02*
X83940856Y-103084200D01*
X83940856Y-103084200D02*
X83864666Y-103008009D01*
X83864666Y-103008009D02*
X83826571Y-102931819D01*
X83826571Y-102931819D02*
X83788475Y-102779438D01*
X83788475Y-102779438D02*
X83788475Y-102665152D01*
X83788475Y-102665152D02*
X83826571Y-102512771D01*
X83826571Y-102512771D02*
X83864666Y-102436580D01*
X83864666Y-102436580D02*
X83940856Y-102360390D01*
X83940856Y-102360390D02*
X84055142Y-102322295D01*
X84055142Y-102322295D02*
X84131333Y-102322295D01*
X84131333Y-102322295D02*
X84245618Y-102360390D01*
X84245618Y-102360390D02*
X84283714Y-102398485D01*
X85045618Y-103122295D02*
X84588475Y-103122295D01*
X84817047Y-103122295D02*
X84817047Y-102322295D01*
X84817047Y-102322295D02*
X84740856Y-102436580D01*
X84740856Y-102436580D02*
X84664666Y-102512771D01*
X84664666Y-102512771D02*
X84588475Y-102550866D01*
X85350380Y-102398485D02*
X85388476Y-102360390D01*
X85388476Y-102360390D02*
X85464666Y-102322295D01*
X85464666Y-102322295D02*
X85655142Y-102322295D01*
X85655142Y-102322295D02*
X85731333Y-102360390D01*
X85731333Y-102360390D02*
X85769428Y-102398485D01*
X85769428Y-102398485D02*
X85807523Y-102474676D01*
X85807523Y-102474676D02*
X85807523Y-102550866D01*
X85807523Y-102550866D02*
X85769428Y-102665152D01*
X85769428Y-102665152D02*
X85312285Y-103122295D01*
X85312285Y-103122295D02*
X85807523Y-103122295D01*
X74895476Y-117487295D02*
X74895476Y-118134914D01*
X74895476Y-118134914D02*
X74933571Y-118211104D01*
X74933571Y-118211104D02*
X74971666Y-118249200D01*
X74971666Y-118249200D02*
X75047857Y-118287295D01*
X75047857Y-118287295D02*
X75200238Y-118287295D01*
X75200238Y-118287295D02*
X75276428Y-118249200D01*
X75276428Y-118249200D02*
X75314523Y-118211104D01*
X75314523Y-118211104D02*
X75352619Y-118134914D01*
X75352619Y-118134914D02*
X75352619Y-117487295D01*
X75847856Y-117830152D02*
X75771666Y-117792057D01*
X75771666Y-117792057D02*
X75733571Y-117753961D01*
X75733571Y-117753961D02*
X75695475Y-117677771D01*
X75695475Y-117677771D02*
X75695475Y-117639676D01*
X75695475Y-117639676D02*
X75733571Y-117563485D01*
X75733571Y-117563485D02*
X75771666Y-117525390D01*
X75771666Y-117525390D02*
X75847856Y-117487295D01*
X75847856Y-117487295D02*
X76000237Y-117487295D01*
X76000237Y-117487295D02*
X76076428Y-117525390D01*
X76076428Y-117525390D02*
X76114523Y-117563485D01*
X76114523Y-117563485D02*
X76152618Y-117639676D01*
X76152618Y-117639676D02*
X76152618Y-117677771D01*
X76152618Y-117677771D02*
X76114523Y-117753961D01*
X76114523Y-117753961D02*
X76076428Y-117792057D01*
X76076428Y-117792057D02*
X76000237Y-117830152D01*
X76000237Y-117830152D02*
X75847856Y-117830152D01*
X75847856Y-117830152D02*
X75771666Y-117868247D01*
X75771666Y-117868247D02*
X75733571Y-117906342D01*
X75733571Y-117906342D02*
X75695475Y-117982533D01*
X75695475Y-117982533D02*
X75695475Y-118134914D01*
X75695475Y-118134914D02*
X75733571Y-118211104D01*
X75733571Y-118211104D02*
X75771666Y-118249200D01*
X75771666Y-118249200D02*
X75847856Y-118287295D01*
X75847856Y-118287295D02*
X76000237Y-118287295D01*
X76000237Y-118287295D02*
X76076428Y-118249200D01*
X76076428Y-118249200D02*
X76114523Y-118211104D01*
X76114523Y-118211104D02*
X76152618Y-118134914D01*
X76152618Y-118134914D02*
X76152618Y-117982533D01*
X76152618Y-117982533D02*
X76114523Y-117906342D01*
X76114523Y-117906342D02*
X76076428Y-117868247D01*
X76076428Y-117868247D02*
X76000237Y-117830152D01*
X131642295Y-67038775D02*
X130842295Y-67038775D01*
X130842295Y-67038775D02*
X130842295Y-66848299D01*
X130842295Y-66848299D02*
X130880390Y-66734013D01*
X130880390Y-66734013D02*
X130956580Y-66657823D01*
X130956580Y-66657823D02*
X131032771Y-66619728D01*
X131032771Y-66619728D02*
X131185152Y-66581632D01*
X131185152Y-66581632D02*
X131299438Y-66581632D01*
X131299438Y-66581632D02*
X131451819Y-66619728D01*
X131451819Y-66619728D02*
X131528009Y-66657823D01*
X131528009Y-66657823D02*
X131604200Y-66734013D01*
X131604200Y-66734013D02*
X131642295Y-66848299D01*
X131642295Y-66848299D02*
X131642295Y-67038775D01*
X130918485Y-66276871D02*
X130880390Y-66238775D01*
X130880390Y-66238775D02*
X130842295Y-66162585D01*
X130842295Y-66162585D02*
X130842295Y-65972109D01*
X130842295Y-65972109D02*
X130880390Y-65895918D01*
X130880390Y-65895918D02*
X130918485Y-65857823D01*
X130918485Y-65857823D02*
X130994676Y-65819728D01*
X130994676Y-65819728D02*
X131070866Y-65819728D01*
X131070866Y-65819728D02*
X131185152Y-65857823D01*
X131185152Y-65857823D02*
X131642295Y-66314966D01*
X131642295Y-66314966D02*
X131642295Y-65819728D01*
X133135714Y-110242295D02*
X132869047Y-109861342D01*
X132678571Y-110242295D02*
X132678571Y-109442295D01*
X132678571Y-109442295D02*
X132983333Y-109442295D01*
X132983333Y-109442295D02*
X133059523Y-109480390D01*
X133059523Y-109480390D02*
X133097618Y-109518485D01*
X133097618Y-109518485D02*
X133135714Y-109594676D01*
X133135714Y-109594676D02*
X133135714Y-109708961D01*
X133135714Y-109708961D02*
X133097618Y-109785152D01*
X133097618Y-109785152D02*
X133059523Y-109823247D01*
X133059523Y-109823247D02*
X132983333Y-109861342D01*
X132983333Y-109861342D02*
X132678571Y-109861342D01*
X133821428Y-109708961D02*
X133821428Y-110242295D01*
X133630952Y-109404200D02*
X133440475Y-109975628D01*
X133440475Y-109975628D02*
X133935714Y-109975628D01*
X134392857Y-109442295D02*
X134469047Y-109442295D01*
X134469047Y-109442295D02*
X134545238Y-109480390D01*
X134545238Y-109480390D02*
X134583333Y-109518485D01*
X134583333Y-109518485D02*
X134621428Y-109594676D01*
X134621428Y-109594676D02*
X134659523Y-109747057D01*
X134659523Y-109747057D02*
X134659523Y-109937533D01*
X134659523Y-109937533D02*
X134621428Y-110089914D01*
X134621428Y-110089914D02*
X134583333Y-110166104D01*
X134583333Y-110166104D02*
X134545238Y-110204200D01*
X134545238Y-110204200D02*
X134469047Y-110242295D01*
X134469047Y-110242295D02*
X134392857Y-110242295D01*
X134392857Y-110242295D02*
X134316666Y-110204200D01*
X134316666Y-110204200D02*
X134278571Y-110166104D01*
X134278571Y-110166104D02*
X134240476Y-110089914D01*
X134240476Y-110089914D02*
X134202380Y-109937533D01*
X134202380Y-109937533D02*
X134202380Y-109747057D01*
X134202380Y-109747057D02*
X134240476Y-109594676D01*
X134240476Y-109594676D02*
X134278571Y-109518485D01*
X134278571Y-109518485D02*
X134316666Y-109480390D01*
X134316666Y-109480390D02*
X134392857Y-109442295D01*
X113088485Y-97476190D02*
X113050390Y-97552380D01*
X113050390Y-97552380D02*
X112974200Y-97628571D01*
X112974200Y-97628571D02*
X112859914Y-97742857D01*
X112859914Y-97742857D02*
X112821819Y-97819047D01*
X112821819Y-97819047D02*
X112821819Y-97895238D01*
X113012295Y-97857142D02*
X112974200Y-97933333D01*
X112974200Y-97933333D02*
X112898009Y-98009523D01*
X112898009Y-98009523D02*
X112745628Y-98047619D01*
X112745628Y-98047619D02*
X112478961Y-98047619D01*
X112478961Y-98047619D02*
X112326580Y-98009523D01*
X112326580Y-98009523D02*
X112250390Y-97933333D01*
X112250390Y-97933333D02*
X112212295Y-97857142D01*
X112212295Y-97857142D02*
X112212295Y-97704761D01*
X112212295Y-97704761D02*
X112250390Y-97628571D01*
X112250390Y-97628571D02*
X112326580Y-97552380D01*
X112326580Y-97552380D02*
X112478961Y-97514285D01*
X112478961Y-97514285D02*
X112745628Y-97514285D01*
X112745628Y-97514285D02*
X112898009Y-97552380D01*
X112898009Y-97552380D02*
X112974200Y-97628571D01*
X112974200Y-97628571D02*
X113012295Y-97704761D01*
X113012295Y-97704761D02*
X113012295Y-97857142D01*
X113012295Y-96752381D02*
X113012295Y-97209524D01*
X113012295Y-96980952D02*
X112212295Y-96980952D01*
X112212295Y-96980952D02*
X112326580Y-97057143D01*
X112326580Y-97057143D02*
X112402771Y-97133333D01*
X112402771Y-97133333D02*
X112440866Y-97209524D01*
X98473809Y-108263485D02*
X98397619Y-108225390D01*
X98397619Y-108225390D02*
X98321428Y-108149200D01*
X98321428Y-108149200D02*
X98207142Y-108034914D01*
X98207142Y-108034914D02*
X98130952Y-107996819D01*
X98130952Y-107996819D02*
X98054761Y-107996819D01*
X98092857Y-108187295D02*
X98016666Y-108149200D01*
X98016666Y-108149200D02*
X97940476Y-108073009D01*
X97940476Y-108073009D02*
X97902380Y-107920628D01*
X97902380Y-107920628D02*
X97902380Y-107653961D01*
X97902380Y-107653961D02*
X97940476Y-107501580D01*
X97940476Y-107501580D02*
X98016666Y-107425390D01*
X98016666Y-107425390D02*
X98092857Y-107387295D01*
X98092857Y-107387295D02*
X98245238Y-107387295D01*
X98245238Y-107387295D02*
X98321428Y-107425390D01*
X98321428Y-107425390D02*
X98397619Y-107501580D01*
X98397619Y-107501580D02*
X98435714Y-107653961D01*
X98435714Y-107653961D02*
X98435714Y-107920628D01*
X98435714Y-107920628D02*
X98397619Y-108073009D01*
X98397619Y-108073009D02*
X98321428Y-108149200D01*
X98321428Y-108149200D02*
X98245238Y-108187295D01*
X98245238Y-108187295D02*
X98092857Y-108187295D01*
X98740475Y-107463485D02*
X98778571Y-107425390D01*
X98778571Y-107425390D02*
X98854761Y-107387295D01*
X98854761Y-107387295D02*
X99045237Y-107387295D01*
X99045237Y-107387295D02*
X99121428Y-107425390D01*
X99121428Y-107425390D02*
X99159523Y-107463485D01*
X99159523Y-107463485D02*
X99197618Y-107539676D01*
X99197618Y-107539676D02*
X99197618Y-107615866D01*
X99197618Y-107615866D02*
X99159523Y-107730152D01*
X99159523Y-107730152D02*
X98702380Y-108187295D01*
X98702380Y-108187295D02*
X99197618Y-108187295D01*
X101430476Y-90932295D02*
X101430476Y-91579914D01*
X101430476Y-91579914D02*
X101468571Y-91656104D01*
X101468571Y-91656104D02*
X101506666Y-91694200D01*
X101506666Y-91694200D02*
X101582857Y-91732295D01*
X101582857Y-91732295D02*
X101735238Y-91732295D01*
X101735238Y-91732295D02*
X101811428Y-91694200D01*
X101811428Y-91694200D02*
X101849523Y-91656104D01*
X101849523Y-91656104D02*
X101887619Y-91579914D01*
X101887619Y-91579914D02*
X101887619Y-90932295D01*
X102611428Y-90932295D02*
X102459047Y-90932295D01*
X102459047Y-90932295D02*
X102382856Y-90970390D01*
X102382856Y-90970390D02*
X102344761Y-91008485D01*
X102344761Y-91008485D02*
X102268571Y-91122771D01*
X102268571Y-91122771D02*
X102230475Y-91275152D01*
X102230475Y-91275152D02*
X102230475Y-91579914D01*
X102230475Y-91579914D02*
X102268571Y-91656104D01*
X102268571Y-91656104D02*
X102306666Y-91694200D01*
X102306666Y-91694200D02*
X102382856Y-91732295D01*
X102382856Y-91732295D02*
X102535237Y-91732295D01*
X102535237Y-91732295D02*
X102611428Y-91694200D01*
X102611428Y-91694200D02*
X102649523Y-91656104D01*
X102649523Y-91656104D02*
X102687618Y-91579914D01*
X102687618Y-91579914D02*
X102687618Y-91389438D01*
X102687618Y-91389438D02*
X102649523Y-91313247D01*
X102649523Y-91313247D02*
X102611428Y-91275152D01*
X102611428Y-91275152D02*
X102535237Y-91237057D01*
X102535237Y-91237057D02*
X102382856Y-91237057D01*
X102382856Y-91237057D02*
X102306666Y-91275152D01*
X102306666Y-91275152D02*
X102268571Y-91313247D01*
X102268571Y-91313247D02*
X102230475Y-91389438D01*
X101348214Y-99976104D02*
X101310118Y-100014200D01*
X101310118Y-100014200D02*
X101195833Y-100052295D01*
X101195833Y-100052295D02*
X101119642Y-100052295D01*
X101119642Y-100052295D02*
X101005356Y-100014200D01*
X101005356Y-100014200D02*
X100929166Y-99938009D01*
X100929166Y-99938009D02*
X100891071Y-99861819D01*
X100891071Y-99861819D02*
X100852975Y-99709438D01*
X100852975Y-99709438D02*
X100852975Y-99595152D01*
X100852975Y-99595152D02*
X100891071Y-99442771D01*
X100891071Y-99442771D02*
X100929166Y-99366580D01*
X100929166Y-99366580D02*
X101005356Y-99290390D01*
X101005356Y-99290390D02*
X101119642Y-99252295D01*
X101119642Y-99252295D02*
X101195833Y-99252295D01*
X101195833Y-99252295D02*
X101310118Y-99290390D01*
X101310118Y-99290390D02*
X101348214Y-99328485D01*
X102110118Y-100052295D02*
X101652975Y-100052295D01*
X101881547Y-100052295D02*
X101881547Y-99252295D01*
X101881547Y-99252295D02*
X101805356Y-99366580D01*
X101805356Y-99366580D02*
X101729166Y-99442771D01*
X101729166Y-99442771D02*
X101652975Y-99480866D01*
X102833928Y-99252295D02*
X102452976Y-99252295D01*
X102452976Y-99252295D02*
X102414880Y-99633247D01*
X102414880Y-99633247D02*
X102452976Y-99595152D01*
X102452976Y-99595152D02*
X102529166Y-99557057D01*
X102529166Y-99557057D02*
X102719642Y-99557057D01*
X102719642Y-99557057D02*
X102795833Y-99595152D01*
X102795833Y-99595152D02*
X102833928Y-99633247D01*
X102833928Y-99633247D02*
X102872023Y-99709438D01*
X102872023Y-99709438D02*
X102872023Y-99899914D01*
X102872023Y-99899914D02*
X102833928Y-99976104D01*
X102833928Y-99976104D02*
X102795833Y-100014200D01*
X102795833Y-100014200D02*
X102719642Y-100052295D01*
X102719642Y-100052295D02*
X102529166Y-100052295D01*
X102529166Y-100052295D02*
X102452976Y-100014200D01*
X102452976Y-100014200D02*
X102414880Y-99976104D01*
X85586295Y-60296666D02*
X86157723Y-60296666D01*
X86157723Y-60296666D02*
X86272009Y-60334761D01*
X86272009Y-60334761D02*
X86348200Y-60410952D01*
X86348200Y-60410952D02*
X86386295Y-60525237D01*
X86386295Y-60525237D02*
X86386295Y-60601428D01*
X85662485Y-59953809D02*
X85624390Y-59915713D01*
X85624390Y-59915713D02*
X85586295Y-59839523D01*
X85586295Y-59839523D02*
X85586295Y-59649047D01*
X85586295Y-59649047D02*
X85624390Y-59572856D01*
X85624390Y-59572856D02*
X85662485Y-59534761D01*
X85662485Y-59534761D02*
X85738676Y-59496666D01*
X85738676Y-59496666D02*
X85814866Y-59496666D01*
X85814866Y-59496666D02*
X85929152Y-59534761D01*
X85929152Y-59534761D02*
X86386295Y-59991904D01*
X86386295Y-59991904D02*
X86386295Y-59496666D01*
X81966667Y-95086104D02*
X81928571Y-95124200D01*
X81928571Y-95124200D02*
X81814286Y-95162295D01*
X81814286Y-95162295D02*
X81738095Y-95162295D01*
X81738095Y-95162295D02*
X81623809Y-95124200D01*
X81623809Y-95124200D02*
X81547619Y-95048009D01*
X81547619Y-95048009D02*
X81509524Y-94971819D01*
X81509524Y-94971819D02*
X81471428Y-94819438D01*
X81471428Y-94819438D02*
X81471428Y-94705152D01*
X81471428Y-94705152D02*
X81509524Y-94552771D01*
X81509524Y-94552771D02*
X81547619Y-94476580D01*
X81547619Y-94476580D02*
X81623809Y-94400390D01*
X81623809Y-94400390D02*
X81738095Y-94362295D01*
X81738095Y-94362295D02*
X81814286Y-94362295D01*
X81814286Y-94362295D02*
X81928571Y-94400390D01*
X81928571Y-94400390D02*
X81966667Y-94438485D01*
X82233333Y-94362295D02*
X82728571Y-94362295D01*
X82728571Y-94362295D02*
X82461905Y-94667057D01*
X82461905Y-94667057D02*
X82576190Y-94667057D01*
X82576190Y-94667057D02*
X82652381Y-94705152D01*
X82652381Y-94705152D02*
X82690476Y-94743247D01*
X82690476Y-94743247D02*
X82728571Y-94819438D01*
X82728571Y-94819438D02*
X82728571Y-95009914D01*
X82728571Y-95009914D02*
X82690476Y-95086104D01*
X82690476Y-95086104D02*
X82652381Y-95124200D01*
X82652381Y-95124200D02*
X82576190Y-95162295D01*
X82576190Y-95162295D02*
X82347619Y-95162295D01*
X82347619Y-95162295D02*
X82271428Y-95124200D01*
X82271428Y-95124200D02*
X82233333Y-95086104D01*
X86592380Y-122052295D02*
X86592380Y-122623723D01*
X86592380Y-122623723D02*
X86554285Y-122738009D01*
X86554285Y-122738009D02*
X86478094Y-122814200D01*
X86478094Y-122814200D02*
X86363809Y-122852295D01*
X86363809Y-122852295D02*
X86287618Y-122852295D01*
X86935237Y-122128485D02*
X86973333Y-122090390D01*
X86973333Y-122090390D02*
X87049523Y-122052295D01*
X87049523Y-122052295D02*
X87239999Y-122052295D01*
X87239999Y-122052295D02*
X87316190Y-122090390D01*
X87316190Y-122090390D02*
X87354285Y-122128485D01*
X87354285Y-122128485D02*
X87392380Y-122204676D01*
X87392380Y-122204676D02*
X87392380Y-122280866D01*
X87392380Y-122280866D02*
X87354285Y-122395152D01*
X87354285Y-122395152D02*
X86897142Y-122852295D01*
X86897142Y-122852295D02*
X87392380Y-122852295D01*
X88154285Y-122852295D02*
X87697142Y-122852295D01*
X87925714Y-122852295D02*
X87925714Y-122052295D01*
X87925714Y-122052295D02*
X87849523Y-122166580D01*
X87849523Y-122166580D02*
X87773333Y-122242771D01*
X87773333Y-122242771D02*
X87697142Y-122280866D01*
X120033333Y-83362295D02*
X120033333Y-83933723D01*
X120033333Y-83933723D02*
X119995238Y-84048009D01*
X119995238Y-84048009D02*
X119919047Y-84124200D01*
X119919047Y-84124200D02*
X119804762Y-84162295D01*
X119804762Y-84162295D02*
X119728571Y-84162295D01*
X120757143Y-83628961D02*
X120757143Y-84162295D01*
X120566667Y-83324200D02*
X120376190Y-83895628D01*
X120376190Y-83895628D02*
X120871429Y-83895628D01*
X97886104Y-93314285D02*
X97924200Y-93352381D01*
X97924200Y-93352381D02*
X97962295Y-93466666D01*
X97962295Y-93466666D02*
X97962295Y-93542857D01*
X97962295Y-93542857D02*
X97924200Y-93657143D01*
X97924200Y-93657143D02*
X97848009Y-93733333D01*
X97848009Y-93733333D02*
X97771819Y-93771428D01*
X97771819Y-93771428D02*
X97619438Y-93809524D01*
X97619438Y-93809524D02*
X97505152Y-93809524D01*
X97505152Y-93809524D02*
X97352771Y-93771428D01*
X97352771Y-93771428D02*
X97276580Y-93733333D01*
X97276580Y-93733333D02*
X97200390Y-93657143D01*
X97200390Y-93657143D02*
X97162295Y-93542857D01*
X97162295Y-93542857D02*
X97162295Y-93466666D01*
X97162295Y-93466666D02*
X97200390Y-93352381D01*
X97200390Y-93352381D02*
X97238485Y-93314285D01*
X97962295Y-92552381D02*
X97962295Y-93009524D01*
X97962295Y-92780952D02*
X97162295Y-92780952D01*
X97162295Y-92780952D02*
X97276580Y-92857143D01*
X97276580Y-92857143D02*
X97352771Y-92933333D01*
X97352771Y-92933333D02*
X97390866Y-93009524D01*
X97162295Y-92285714D02*
X97162295Y-91790476D01*
X97162295Y-91790476D02*
X97467057Y-92057142D01*
X97467057Y-92057142D02*
X97467057Y-91942857D01*
X97467057Y-91942857D02*
X97505152Y-91866666D01*
X97505152Y-91866666D02*
X97543247Y-91828571D01*
X97543247Y-91828571D02*
X97619438Y-91790476D01*
X97619438Y-91790476D02*
X97809914Y-91790476D01*
X97809914Y-91790476D02*
X97886104Y-91828571D01*
X97886104Y-91828571D02*
X97924200Y-91866666D01*
X97924200Y-91866666D02*
X97962295Y-91942857D01*
X97962295Y-91942857D02*
X97962295Y-92171428D01*
X97962295Y-92171428D02*
X97924200Y-92247619D01*
X97924200Y-92247619D02*
X97886104Y-92285714D01*
X127906104Y-107314285D02*
X127944200Y-107352381D01*
X127944200Y-107352381D02*
X127982295Y-107466666D01*
X127982295Y-107466666D02*
X127982295Y-107542857D01*
X127982295Y-107542857D02*
X127944200Y-107657143D01*
X127944200Y-107657143D02*
X127868009Y-107733333D01*
X127868009Y-107733333D02*
X127791819Y-107771428D01*
X127791819Y-107771428D02*
X127639438Y-107809524D01*
X127639438Y-107809524D02*
X127525152Y-107809524D01*
X127525152Y-107809524D02*
X127372771Y-107771428D01*
X127372771Y-107771428D02*
X127296580Y-107733333D01*
X127296580Y-107733333D02*
X127220390Y-107657143D01*
X127220390Y-107657143D02*
X127182295Y-107542857D01*
X127182295Y-107542857D02*
X127182295Y-107466666D01*
X127182295Y-107466666D02*
X127220390Y-107352381D01*
X127220390Y-107352381D02*
X127258485Y-107314285D01*
X127982295Y-106552381D02*
X127982295Y-107009524D01*
X127982295Y-106780952D02*
X127182295Y-106780952D01*
X127182295Y-106780952D02*
X127296580Y-106857143D01*
X127296580Y-106857143D02*
X127372771Y-106933333D01*
X127372771Y-106933333D02*
X127410866Y-107009524D01*
X127448961Y-105866666D02*
X127982295Y-105866666D01*
X127144200Y-106057142D02*
X127715628Y-106247619D01*
X127715628Y-106247619D02*
X127715628Y-105752380D01*
X101315714Y-97616104D02*
X101277618Y-97654200D01*
X101277618Y-97654200D02*
X101163333Y-97692295D01*
X101163333Y-97692295D02*
X101087142Y-97692295D01*
X101087142Y-97692295D02*
X100972856Y-97654200D01*
X100972856Y-97654200D02*
X100896666Y-97578009D01*
X100896666Y-97578009D02*
X100858571Y-97501819D01*
X100858571Y-97501819D02*
X100820475Y-97349438D01*
X100820475Y-97349438D02*
X100820475Y-97235152D01*
X100820475Y-97235152D02*
X100858571Y-97082771D01*
X100858571Y-97082771D02*
X100896666Y-97006580D01*
X100896666Y-97006580D02*
X100972856Y-96930390D01*
X100972856Y-96930390D02*
X101087142Y-96892295D01*
X101087142Y-96892295D02*
X101163333Y-96892295D01*
X101163333Y-96892295D02*
X101277618Y-96930390D01*
X101277618Y-96930390D02*
X101315714Y-96968485D01*
X102077618Y-97692295D02*
X101620475Y-97692295D01*
X101849047Y-97692295D02*
X101849047Y-96892295D01*
X101849047Y-96892295D02*
X101772856Y-97006580D01*
X101772856Y-97006580D02*
X101696666Y-97082771D01*
X101696666Y-97082771D02*
X101620475Y-97120866D01*
X102763333Y-96892295D02*
X102610952Y-96892295D01*
X102610952Y-96892295D02*
X102534761Y-96930390D01*
X102534761Y-96930390D02*
X102496666Y-96968485D01*
X102496666Y-96968485D02*
X102420476Y-97082771D01*
X102420476Y-97082771D02*
X102382380Y-97235152D01*
X102382380Y-97235152D02*
X102382380Y-97539914D01*
X102382380Y-97539914D02*
X102420476Y-97616104D01*
X102420476Y-97616104D02*
X102458571Y-97654200D01*
X102458571Y-97654200D02*
X102534761Y-97692295D01*
X102534761Y-97692295D02*
X102687142Y-97692295D01*
X102687142Y-97692295D02*
X102763333Y-97654200D01*
X102763333Y-97654200D02*
X102801428Y-97616104D01*
X102801428Y-97616104D02*
X102839523Y-97539914D01*
X102839523Y-97539914D02*
X102839523Y-97349438D01*
X102839523Y-97349438D02*
X102801428Y-97273247D01*
X102801428Y-97273247D02*
X102763333Y-97235152D01*
X102763333Y-97235152D02*
X102687142Y-97197057D01*
X102687142Y-97197057D02*
X102534761Y-97197057D01*
X102534761Y-97197057D02*
X102458571Y-97235152D01*
X102458571Y-97235152D02*
X102420476Y-97273247D01*
X102420476Y-97273247D02*
X102382380Y-97349438D01*
X131642295Y-69510475D02*
X130842295Y-69510475D01*
X130842295Y-69510475D02*
X130842295Y-69319999D01*
X130842295Y-69319999D02*
X130880390Y-69205713D01*
X130880390Y-69205713D02*
X130956580Y-69129523D01*
X130956580Y-69129523D02*
X131032771Y-69091428D01*
X131032771Y-69091428D02*
X131185152Y-69053332D01*
X131185152Y-69053332D02*
X131299438Y-69053332D01*
X131299438Y-69053332D02*
X131451819Y-69091428D01*
X131451819Y-69091428D02*
X131528009Y-69129523D01*
X131528009Y-69129523D02*
X131604200Y-69205713D01*
X131604200Y-69205713D02*
X131642295Y-69319999D01*
X131642295Y-69319999D02*
X131642295Y-69510475D01*
X131642295Y-68291428D02*
X131642295Y-68748571D01*
X131642295Y-68519999D02*
X130842295Y-68519999D01*
X130842295Y-68519999D02*
X130956580Y-68596190D01*
X130956580Y-68596190D02*
X131032771Y-68672380D01*
X131032771Y-68672380D02*
X131070866Y-68748571D01*
X71885714Y-95262295D02*
X71619047Y-94881342D01*
X71428571Y-95262295D02*
X71428571Y-94462295D01*
X71428571Y-94462295D02*
X71733333Y-94462295D01*
X71733333Y-94462295D02*
X71809523Y-94500390D01*
X71809523Y-94500390D02*
X71847618Y-94538485D01*
X71847618Y-94538485D02*
X71885714Y-94614676D01*
X71885714Y-94614676D02*
X71885714Y-94728961D01*
X71885714Y-94728961D02*
X71847618Y-94805152D01*
X71847618Y-94805152D02*
X71809523Y-94843247D01*
X71809523Y-94843247D02*
X71733333Y-94881342D01*
X71733333Y-94881342D02*
X71428571Y-94881342D01*
X72190475Y-94538485D02*
X72228571Y-94500390D01*
X72228571Y-94500390D02*
X72304761Y-94462295D01*
X72304761Y-94462295D02*
X72495237Y-94462295D01*
X72495237Y-94462295D02*
X72571428Y-94500390D01*
X72571428Y-94500390D02*
X72609523Y-94538485D01*
X72609523Y-94538485D02*
X72647618Y-94614676D01*
X72647618Y-94614676D02*
X72647618Y-94690866D01*
X72647618Y-94690866D02*
X72609523Y-94805152D01*
X72609523Y-94805152D02*
X72152380Y-95262295D01*
X72152380Y-95262295D02*
X72647618Y-95262295D01*
X73409523Y-95262295D02*
X72952380Y-95262295D01*
X73180952Y-95262295D02*
X73180952Y-94462295D01*
X73180952Y-94462295D02*
X73104761Y-94576580D01*
X73104761Y-94576580D02*
X73028571Y-94652771D01*
X73028571Y-94652771D02*
X72952380Y-94690866D01*
X92588238Y-121779619D02*
X92321571Y-121398666D01*
X92131095Y-121779619D02*
X92131095Y-120979619D01*
X92131095Y-120979619D02*
X92435857Y-120979619D01*
X92435857Y-120979619D02*
X92512047Y-121017714D01*
X92512047Y-121017714D02*
X92550142Y-121055809D01*
X92550142Y-121055809D02*
X92588238Y-121132000D01*
X92588238Y-121132000D02*
X92588238Y-121246285D01*
X92588238Y-121246285D02*
X92550142Y-121322476D01*
X92550142Y-121322476D02*
X92512047Y-121360571D01*
X92512047Y-121360571D02*
X92435857Y-121398666D01*
X92435857Y-121398666D02*
X92131095Y-121398666D01*
X92854904Y-120979619D02*
X93388238Y-120979619D01*
X93388238Y-120979619D02*
X93045380Y-121779619D01*
X81966667Y-92986104D02*
X81928571Y-93024200D01*
X81928571Y-93024200D02*
X81814286Y-93062295D01*
X81814286Y-93062295D02*
X81738095Y-93062295D01*
X81738095Y-93062295D02*
X81623809Y-93024200D01*
X81623809Y-93024200D02*
X81547619Y-92948009D01*
X81547619Y-92948009D02*
X81509524Y-92871819D01*
X81509524Y-92871819D02*
X81471428Y-92719438D01*
X81471428Y-92719438D02*
X81471428Y-92605152D01*
X81471428Y-92605152D02*
X81509524Y-92452771D01*
X81509524Y-92452771D02*
X81547619Y-92376580D01*
X81547619Y-92376580D02*
X81623809Y-92300390D01*
X81623809Y-92300390D02*
X81738095Y-92262295D01*
X81738095Y-92262295D02*
X81814286Y-92262295D01*
X81814286Y-92262295D02*
X81928571Y-92300390D01*
X81928571Y-92300390D02*
X81966667Y-92338485D01*
X82652381Y-92528961D02*
X82652381Y-93062295D01*
X82461905Y-92224200D02*
X82271428Y-92795628D01*
X82271428Y-92795628D02*
X82766667Y-92795628D01*
X97722380Y-81192295D02*
X97722380Y-81763723D01*
X97722380Y-81763723D02*
X97684285Y-81878009D01*
X97684285Y-81878009D02*
X97608094Y-81954200D01*
X97608094Y-81954200D02*
X97493809Y-81992295D01*
X97493809Y-81992295D02*
X97417618Y-81992295D01*
X98522380Y-81992295D02*
X98065237Y-81992295D01*
X98293809Y-81992295D02*
X98293809Y-81192295D01*
X98293809Y-81192295D02*
X98217618Y-81306580D01*
X98217618Y-81306580D02*
X98141428Y-81382771D01*
X98141428Y-81382771D02*
X98065237Y-81420866D01*
X98827142Y-81268485D02*
X98865238Y-81230390D01*
X98865238Y-81230390D02*
X98941428Y-81192295D01*
X98941428Y-81192295D02*
X99131904Y-81192295D01*
X99131904Y-81192295D02*
X99208095Y-81230390D01*
X99208095Y-81230390D02*
X99246190Y-81268485D01*
X99246190Y-81268485D02*
X99284285Y-81344676D01*
X99284285Y-81344676D02*
X99284285Y-81420866D01*
X99284285Y-81420866D02*
X99246190Y-81535152D01*
X99246190Y-81535152D02*
X98789047Y-81992295D01*
X98789047Y-81992295D02*
X99284285Y-81992295D01*
X112027230Y-83428485D02*
X111951040Y-83390390D01*
X111951040Y-83390390D02*
X111874849Y-83314200D01*
X111874849Y-83314200D02*
X111760563Y-83199914D01*
X111760563Y-83199914D02*
X111684373Y-83161819D01*
X111684373Y-83161819D02*
X111608182Y-83161819D01*
X111646278Y-83352295D02*
X111570087Y-83314200D01*
X111570087Y-83314200D02*
X111493897Y-83238009D01*
X111493897Y-83238009D02*
X111455801Y-83085628D01*
X111455801Y-83085628D02*
X111455801Y-82818961D01*
X111455801Y-82818961D02*
X111493897Y-82666580D01*
X111493897Y-82666580D02*
X111570087Y-82590390D01*
X111570087Y-82590390D02*
X111646278Y-82552295D01*
X111646278Y-82552295D02*
X111798659Y-82552295D01*
X111798659Y-82552295D02*
X111874849Y-82590390D01*
X111874849Y-82590390D02*
X111951040Y-82666580D01*
X111951040Y-82666580D02*
X111989135Y-82818961D01*
X111989135Y-82818961D02*
X111989135Y-83085628D01*
X111989135Y-83085628D02*
X111951040Y-83238009D01*
X111951040Y-83238009D02*
X111874849Y-83314200D01*
X111874849Y-83314200D02*
X111798659Y-83352295D01*
X111798659Y-83352295D02*
X111646278Y-83352295D01*
X112712944Y-82552295D02*
X112331992Y-82552295D01*
X112331992Y-82552295D02*
X112293896Y-82933247D01*
X112293896Y-82933247D02*
X112331992Y-82895152D01*
X112331992Y-82895152D02*
X112408182Y-82857057D01*
X112408182Y-82857057D02*
X112598658Y-82857057D01*
X112598658Y-82857057D02*
X112674849Y-82895152D01*
X112674849Y-82895152D02*
X112712944Y-82933247D01*
X112712944Y-82933247D02*
X112751039Y-83009438D01*
X112751039Y-83009438D02*
X112751039Y-83199914D01*
X112751039Y-83199914D02*
X112712944Y-83276104D01*
X112712944Y-83276104D02*
X112674849Y-83314200D01*
X112674849Y-83314200D02*
X112598658Y-83352295D01*
X112598658Y-83352295D02*
X112408182Y-83352295D01*
X112408182Y-83352295D02*
X112331992Y-83314200D01*
X112331992Y-83314200D02*
X112293896Y-83276104D01*
X124839296Y-64475510D02*
X124458343Y-64742177D01*
X124839296Y-64932653D02*
X124039296Y-64932653D01*
X124039296Y-64932653D02*
X124039296Y-64627891D01*
X124039296Y-64627891D02*
X124077391Y-64551701D01*
X124077391Y-64551701D02*
X124115486Y-64513606D01*
X124115486Y-64513606D02*
X124191677Y-64475510D01*
X124191677Y-64475510D02*
X124305962Y-64475510D01*
X124305962Y-64475510D02*
X124382153Y-64513606D01*
X124382153Y-64513606D02*
X124420248Y-64551701D01*
X124420248Y-64551701D02*
X124458343Y-64627891D01*
X124458343Y-64627891D02*
X124458343Y-64932653D01*
X124839296Y-63713606D02*
X124839296Y-64170749D01*
X124839296Y-63942177D02*
X124039296Y-63942177D01*
X124039296Y-63942177D02*
X124153581Y-64018368D01*
X124153581Y-64018368D02*
X124229772Y-64094558D01*
X124229772Y-64094558D02*
X124267867Y-64170749D01*
X124039296Y-63218367D02*
X124039296Y-63142177D01*
X124039296Y-63142177D02*
X124077391Y-63065986D01*
X124077391Y-63065986D02*
X124115486Y-63027891D01*
X124115486Y-63027891D02*
X124191677Y-62989796D01*
X124191677Y-62989796D02*
X124344058Y-62951701D01*
X124344058Y-62951701D02*
X124534534Y-62951701D01*
X124534534Y-62951701D02*
X124686915Y-62989796D01*
X124686915Y-62989796D02*
X124763105Y-63027891D01*
X124763105Y-63027891D02*
X124801201Y-63065986D01*
X124801201Y-63065986D02*
X124839296Y-63142177D01*
X124839296Y-63142177D02*
X124839296Y-63218367D01*
X124839296Y-63218367D02*
X124801201Y-63294558D01*
X124801201Y-63294558D02*
X124763105Y-63332653D01*
X124763105Y-63332653D02*
X124686915Y-63370748D01*
X124686915Y-63370748D02*
X124534534Y-63408844D01*
X124534534Y-63408844D02*
X124344058Y-63408844D01*
X124344058Y-63408844D02*
X124191677Y-63370748D01*
X124191677Y-63370748D02*
X124115486Y-63332653D01*
X124115486Y-63332653D02*
X124077391Y-63294558D01*
X124077391Y-63294558D02*
X124039296Y-63218367D01*
X99662380Y-111632295D02*
X99662380Y-112203723D01*
X99662380Y-112203723D02*
X99624285Y-112318009D01*
X99624285Y-112318009D02*
X99548094Y-112394200D01*
X99548094Y-112394200D02*
X99433809Y-112432295D01*
X99433809Y-112432295D02*
X99357618Y-112432295D01*
X100462380Y-112432295D02*
X100005237Y-112432295D01*
X100233809Y-112432295D02*
X100233809Y-111632295D01*
X100233809Y-111632295D02*
X100157618Y-111746580D01*
X100157618Y-111746580D02*
X100081428Y-111822771D01*
X100081428Y-111822771D02*
X100005237Y-111860866D01*
X100843333Y-112432295D02*
X100995714Y-112432295D01*
X100995714Y-112432295D02*
X101071904Y-112394200D01*
X101071904Y-112394200D02*
X101110000Y-112356104D01*
X101110000Y-112356104D02*
X101186190Y-112241819D01*
X101186190Y-112241819D02*
X101224285Y-112089438D01*
X101224285Y-112089438D02*
X101224285Y-111784676D01*
X101224285Y-111784676D02*
X101186190Y-111708485D01*
X101186190Y-111708485D02*
X101148095Y-111670390D01*
X101148095Y-111670390D02*
X101071904Y-111632295D01*
X101071904Y-111632295D02*
X100919523Y-111632295D01*
X100919523Y-111632295D02*
X100843333Y-111670390D01*
X100843333Y-111670390D02*
X100805238Y-111708485D01*
X100805238Y-111708485D02*
X100767142Y-111784676D01*
X100767142Y-111784676D02*
X100767142Y-111975152D01*
X100767142Y-111975152D02*
X100805238Y-112051342D01*
X100805238Y-112051342D02*
X100843333Y-112089438D01*
X100843333Y-112089438D02*
X100919523Y-112127533D01*
X100919523Y-112127533D02*
X101071904Y-112127533D01*
X101071904Y-112127533D02*
X101148095Y-112089438D01*
X101148095Y-112089438D02*
X101186190Y-112051342D01*
X101186190Y-112051342D02*
X101224285Y-111975152D01*
X136385714Y-73612295D02*
X136119047Y-73231342D01*
X135928571Y-73612295D02*
X135928571Y-72812295D01*
X135928571Y-72812295D02*
X136233333Y-72812295D01*
X136233333Y-72812295D02*
X136309523Y-72850390D01*
X136309523Y-72850390D02*
X136347618Y-72888485D01*
X136347618Y-72888485D02*
X136385714Y-72964676D01*
X136385714Y-72964676D02*
X136385714Y-73078961D01*
X136385714Y-73078961D02*
X136347618Y-73155152D01*
X136347618Y-73155152D02*
X136309523Y-73193247D01*
X136309523Y-73193247D02*
X136233333Y-73231342D01*
X136233333Y-73231342D02*
X135928571Y-73231342D01*
X137147618Y-73612295D02*
X136690475Y-73612295D01*
X136919047Y-73612295D02*
X136919047Y-72812295D01*
X136919047Y-72812295D02*
X136842856Y-72926580D01*
X136842856Y-72926580D02*
X136766666Y-73002771D01*
X136766666Y-73002771D02*
X136690475Y-73040866D01*
X137833333Y-72812295D02*
X137680952Y-72812295D01*
X137680952Y-72812295D02*
X137604761Y-72850390D01*
X137604761Y-72850390D02*
X137566666Y-72888485D01*
X137566666Y-72888485D02*
X137490476Y-73002771D01*
X137490476Y-73002771D02*
X137452380Y-73155152D01*
X137452380Y-73155152D02*
X137452380Y-73459914D01*
X137452380Y-73459914D02*
X137490476Y-73536104D01*
X137490476Y-73536104D02*
X137528571Y-73574200D01*
X137528571Y-73574200D02*
X137604761Y-73612295D01*
X137604761Y-73612295D02*
X137757142Y-73612295D01*
X137757142Y-73612295D02*
X137833333Y-73574200D01*
X137833333Y-73574200D02*
X137871428Y-73536104D01*
X137871428Y-73536104D02*
X137909523Y-73459914D01*
X137909523Y-73459914D02*
X137909523Y-73269438D01*
X137909523Y-73269438D02*
X137871428Y-73193247D01*
X137871428Y-73193247D02*
X137833333Y-73155152D01*
X137833333Y-73155152D02*
X137757142Y-73117057D01*
X137757142Y-73117057D02*
X137604761Y-73117057D01*
X137604761Y-73117057D02*
X137528571Y-73155152D01*
X137528571Y-73155152D02*
X137490476Y-73193247D01*
X137490476Y-73193247D02*
X137452380Y-73269438D01*
X71385714Y-93162295D02*
X71119047Y-92781342D01*
X70928571Y-93162295D02*
X70928571Y-92362295D01*
X70928571Y-92362295D02*
X71233333Y-92362295D01*
X71233333Y-92362295D02*
X71309523Y-92400390D01*
X71309523Y-92400390D02*
X71347618Y-92438485D01*
X71347618Y-92438485D02*
X71385714Y-92514676D01*
X71385714Y-92514676D02*
X71385714Y-92628961D01*
X71385714Y-92628961D02*
X71347618Y-92705152D01*
X71347618Y-92705152D02*
X71309523Y-92743247D01*
X71309523Y-92743247D02*
X71233333Y-92781342D01*
X71233333Y-92781342D02*
X70928571Y-92781342D01*
X71690475Y-92438485D02*
X71728571Y-92400390D01*
X71728571Y-92400390D02*
X71804761Y-92362295D01*
X71804761Y-92362295D02*
X71995237Y-92362295D01*
X71995237Y-92362295D02*
X72071428Y-92400390D01*
X72071428Y-92400390D02*
X72109523Y-92438485D01*
X72109523Y-92438485D02*
X72147618Y-92514676D01*
X72147618Y-92514676D02*
X72147618Y-92590866D01*
X72147618Y-92590866D02*
X72109523Y-92705152D01*
X72109523Y-92705152D02*
X71652380Y-93162295D01*
X71652380Y-93162295D02*
X72147618Y-93162295D01*
X72642857Y-92362295D02*
X72719047Y-92362295D01*
X72719047Y-92362295D02*
X72795238Y-92400390D01*
X72795238Y-92400390D02*
X72833333Y-92438485D01*
X72833333Y-92438485D02*
X72871428Y-92514676D01*
X72871428Y-92514676D02*
X72909523Y-92667057D01*
X72909523Y-92667057D02*
X72909523Y-92857533D01*
X72909523Y-92857533D02*
X72871428Y-93009914D01*
X72871428Y-93009914D02*
X72833333Y-93086104D01*
X72833333Y-93086104D02*
X72795238Y-93124200D01*
X72795238Y-93124200D02*
X72719047Y-93162295D01*
X72719047Y-93162295D02*
X72642857Y-93162295D01*
X72642857Y-93162295D02*
X72566666Y-93124200D01*
X72566666Y-93124200D02*
X72528571Y-93086104D01*
X72528571Y-93086104D02*
X72490476Y-93009914D01*
X72490476Y-93009914D02*
X72452380Y-92857533D01*
X72452380Y-92857533D02*
X72452380Y-92667057D01*
X72452380Y-92667057D02*
X72490476Y-92514676D01*
X72490476Y-92514676D02*
X72528571Y-92438485D01*
X72528571Y-92438485D02*
X72566666Y-92400390D01*
X72566666Y-92400390D02*
X72642857Y-92362295D01*
X94055714Y-79062295D02*
X93789047Y-78681342D01*
X93598571Y-79062295D02*
X93598571Y-78262295D01*
X93598571Y-78262295D02*
X93903333Y-78262295D01*
X93903333Y-78262295D02*
X93979523Y-78300390D01*
X93979523Y-78300390D02*
X94017618Y-78338485D01*
X94017618Y-78338485D02*
X94055714Y-78414676D01*
X94055714Y-78414676D02*
X94055714Y-78528961D01*
X94055714Y-78528961D02*
X94017618Y-78605152D01*
X94017618Y-78605152D02*
X93979523Y-78643247D01*
X93979523Y-78643247D02*
X93903333Y-78681342D01*
X93903333Y-78681342D02*
X93598571Y-78681342D01*
X94741428Y-78528961D02*
X94741428Y-79062295D01*
X94550952Y-78224200D02*
X94360475Y-78795628D01*
X94360475Y-78795628D02*
X94855714Y-78795628D01*
X95579523Y-79062295D02*
X95122380Y-79062295D01*
X95350952Y-79062295D02*
X95350952Y-78262295D01*
X95350952Y-78262295D02*
X95274761Y-78376580D01*
X95274761Y-78376580D02*
X95198571Y-78452771D01*
X95198571Y-78452771D02*
X95122380Y-78490866D01*
X92488238Y-112379619D02*
X92221571Y-111998666D01*
X92031095Y-112379619D02*
X92031095Y-111579619D01*
X92031095Y-111579619D02*
X92335857Y-111579619D01*
X92335857Y-111579619D02*
X92412047Y-111617714D01*
X92412047Y-111617714D02*
X92450142Y-111655809D01*
X92450142Y-111655809D02*
X92488238Y-111732000D01*
X92488238Y-111732000D02*
X92488238Y-111846285D01*
X92488238Y-111846285D02*
X92450142Y-111922476D01*
X92450142Y-111922476D02*
X92412047Y-111960571D01*
X92412047Y-111960571D02*
X92335857Y-111998666D01*
X92335857Y-111998666D02*
X92031095Y-111998666D01*
X93173952Y-111579619D02*
X93021571Y-111579619D01*
X93021571Y-111579619D02*
X92945380Y-111617714D01*
X92945380Y-111617714D02*
X92907285Y-111655809D01*
X92907285Y-111655809D02*
X92831095Y-111770095D01*
X92831095Y-111770095D02*
X92792999Y-111922476D01*
X92792999Y-111922476D02*
X92792999Y-112227238D01*
X92792999Y-112227238D02*
X92831095Y-112303428D01*
X92831095Y-112303428D02*
X92869190Y-112341524D01*
X92869190Y-112341524D02*
X92945380Y-112379619D01*
X92945380Y-112379619D02*
X93097761Y-112379619D01*
X93097761Y-112379619D02*
X93173952Y-112341524D01*
X93173952Y-112341524D02*
X93212047Y-112303428D01*
X93212047Y-112303428D02*
X93250142Y-112227238D01*
X93250142Y-112227238D02*
X93250142Y-112036762D01*
X93250142Y-112036762D02*
X93212047Y-111960571D01*
X93212047Y-111960571D02*
X93173952Y-111922476D01*
X93173952Y-111922476D02*
X93097761Y-111884381D01*
X93097761Y-111884381D02*
X92945380Y-111884381D01*
X92945380Y-111884381D02*
X92869190Y-111922476D01*
X92869190Y-111922476D02*
X92831095Y-111960571D01*
X92831095Y-111960571D02*
X92792999Y-112036762D01*
X138933333Y-90262295D02*
X138933333Y-90833723D01*
X138933333Y-90833723D02*
X138895238Y-90948009D01*
X138895238Y-90948009D02*
X138819047Y-91024200D01*
X138819047Y-91024200D02*
X138704762Y-91062295D01*
X138704762Y-91062295D02*
X138628571Y-91062295D01*
X139657143Y-90262295D02*
X139504762Y-90262295D01*
X139504762Y-90262295D02*
X139428571Y-90300390D01*
X139428571Y-90300390D02*
X139390476Y-90338485D01*
X139390476Y-90338485D02*
X139314286Y-90452771D01*
X139314286Y-90452771D02*
X139276190Y-90605152D01*
X139276190Y-90605152D02*
X139276190Y-90909914D01*
X139276190Y-90909914D02*
X139314286Y-90986104D01*
X139314286Y-90986104D02*
X139352381Y-91024200D01*
X139352381Y-91024200D02*
X139428571Y-91062295D01*
X139428571Y-91062295D02*
X139580952Y-91062295D01*
X139580952Y-91062295D02*
X139657143Y-91024200D01*
X139657143Y-91024200D02*
X139695238Y-90986104D01*
X139695238Y-90986104D02*
X139733333Y-90909914D01*
X139733333Y-90909914D02*
X139733333Y-90719438D01*
X139733333Y-90719438D02*
X139695238Y-90643247D01*
X139695238Y-90643247D02*
X139657143Y-90605152D01*
X139657143Y-90605152D02*
X139580952Y-90567057D01*
X139580952Y-90567057D02*
X139428571Y-90567057D01*
X139428571Y-90567057D02*
X139352381Y-90605152D01*
X139352381Y-90605152D02*
X139314286Y-90643247D01*
X139314286Y-90643247D02*
X139276190Y-90719438D01*
X139063333Y-54002295D02*
X139063333Y-54573723D01*
X139063333Y-54573723D02*
X139025238Y-54688009D01*
X139025238Y-54688009D02*
X138949047Y-54764200D01*
X138949047Y-54764200D02*
X138834762Y-54802295D01*
X138834762Y-54802295D02*
X138758571Y-54802295D01*
X139863333Y-54802295D02*
X139406190Y-54802295D01*
X139634762Y-54802295D02*
X139634762Y-54002295D01*
X139634762Y-54002295D02*
X139558571Y-54116580D01*
X139558571Y-54116580D02*
X139482381Y-54192771D01*
X139482381Y-54192771D02*
X139406190Y-54230866D01*
X124839296Y-61988435D02*
X124458343Y-62255102D01*
X124839296Y-62445578D02*
X124039296Y-62445578D01*
X124039296Y-62445578D02*
X124039296Y-62140816D01*
X124039296Y-62140816D02*
X124077391Y-62064626D01*
X124077391Y-62064626D02*
X124115486Y-62026531D01*
X124115486Y-62026531D02*
X124191677Y-61988435D01*
X124191677Y-61988435D02*
X124305962Y-61988435D01*
X124305962Y-61988435D02*
X124382153Y-62026531D01*
X124382153Y-62026531D02*
X124420248Y-62064626D01*
X124420248Y-62064626D02*
X124458343Y-62140816D01*
X124458343Y-62140816D02*
X124458343Y-62445578D01*
X124839296Y-61226531D02*
X124839296Y-61683674D01*
X124839296Y-61455102D02*
X124039296Y-61455102D01*
X124039296Y-61455102D02*
X124153581Y-61531293D01*
X124153581Y-61531293D02*
X124229772Y-61607483D01*
X124229772Y-61607483D02*
X124267867Y-61683674D01*
X124839296Y-60464626D02*
X124839296Y-60921769D01*
X124839296Y-60693197D02*
X124039296Y-60693197D01*
X124039296Y-60693197D02*
X124153581Y-60769388D01*
X124153581Y-60769388D02*
X124229772Y-60845578D01*
X124229772Y-60845578D02*
X124267867Y-60921769D01*
X73826467Y-101784904D02*
X73788371Y-101823000D01*
X73788371Y-101823000D02*
X73674086Y-101861095D01*
X73674086Y-101861095D02*
X73597895Y-101861095D01*
X73597895Y-101861095D02*
X73483609Y-101823000D01*
X73483609Y-101823000D02*
X73407419Y-101746809D01*
X73407419Y-101746809D02*
X73369324Y-101670619D01*
X73369324Y-101670619D02*
X73331228Y-101518238D01*
X73331228Y-101518238D02*
X73331228Y-101403952D01*
X73331228Y-101403952D02*
X73369324Y-101251571D01*
X73369324Y-101251571D02*
X73407419Y-101175380D01*
X73407419Y-101175380D02*
X73483609Y-101099190D01*
X73483609Y-101099190D02*
X73597895Y-101061095D01*
X73597895Y-101061095D02*
X73674086Y-101061095D01*
X73674086Y-101061095D02*
X73788371Y-101099190D01*
X73788371Y-101099190D02*
X73826467Y-101137285D01*
X74550276Y-101061095D02*
X74169324Y-101061095D01*
X74169324Y-101061095D02*
X74131228Y-101442047D01*
X74131228Y-101442047D02*
X74169324Y-101403952D01*
X74169324Y-101403952D02*
X74245514Y-101365857D01*
X74245514Y-101365857D02*
X74435990Y-101365857D01*
X74435990Y-101365857D02*
X74512181Y-101403952D01*
X74512181Y-101403952D02*
X74550276Y-101442047D01*
X74550276Y-101442047D02*
X74588371Y-101518238D01*
X74588371Y-101518238D02*
X74588371Y-101708714D01*
X74588371Y-101708714D02*
X74550276Y-101784904D01*
X74550276Y-101784904D02*
X74512181Y-101823000D01*
X74512181Y-101823000D02*
X74435990Y-101861095D01*
X74435990Y-101861095D02*
X74245514Y-101861095D01*
X74245514Y-101861095D02*
X74169324Y-101823000D01*
X74169324Y-101823000D02*
X74131228Y-101784904D01*
X131985714Y-77212295D02*
X131719047Y-76831342D01*
X131528571Y-77212295D02*
X131528571Y-76412295D01*
X131528571Y-76412295D02*
X131833333Y-76412295D01*
X131833333Y-76412295D02*
X131909523Y-76450390D01*
X131909523Y-76450390D02*
X131947618Y-76488485D01*
X131947618Y-76488485D02*
X131985714Y-76564676D01*
X131985714Y-76564676D02*
X131985714Y-76678961D01*
X131985714Y-76678961D02*
X131947618Y-76755152D01*
X131947618Y-76755152D02*
X131909523Y-76793247D01*
X131909523Y-76793247D02*
X131833333Y-76831342D01*
X131833333Y-76831342D02*
X131528571Y-76831342D01*
X132747618Y-77212295D02*
X132290475Y-77212295D01*
X132519047Y-77212295D02*
X132519047Y-76412295D01*
X132519047Y-76412295D02*
X132442856Y-76526580D01*
X132442856Y-76526580D02*
X132366666Y-76602771D01*
X132366666Y-76602771D02*
X132290475Y-76640866D01*
X133471428Y-76412295D02*
X133090476Y-76412295D01*
X133090476Y-76412295D02*
X133052380Y-76793247D01*
X133052380Y-76793247D02*
X133090476Y-76755152D01*
X133090476Y-76755152D02*
X133166666Y-76717057D01*
X133166666Y-76717057D02*
X133357142Y-76717057D01*
X133357142Y-76717057D02*
X133433333Y-76755152D01*
X133433333Y-76755152D02*
X133471428Y-76793247D01*
X133471428Y-76793247D02*
X133509523Y-76869438D01*
X133509523Y-76869438D02*
X133509523Y-77059914D01*
X133509523Y-77059914D02*
X133471428Y-77136104D01*
X133471428Y-77136104D02*
X133433333Y-77174200D01*
X133433333Y-77174200D02*
X133357142Y-77212295D01*
X133357142Y-77212295D02*
X133166666Y-77212295D01*
X133166666Y-77212295D02*
X133090476Y-77174200D01*
X133090476Y-77174200D02*
X133052380Y-77136104D01*
X124839296Y-66581632D02*
X124458343Y-66848299D01*
X124839296Y-67038775D02*
X124039296Y-67038775D01*
X124039296Y-67038775D02*
X124039296Y-66734013D01*
X124039296Y-66734013D02*
X124077391Y-66657823D01*
X124077391Y-66657823D02*
X124115486Y-66619728D01*
X124115486Y-66619728D02*
X124191677Y-66581632D01*
X124191677Y-66581632D02*
X124305962Y-66581632D01*
X124305962Y-66581632D02*
X124382153Y-66619728D01*
X124382153Y-66619728D02*
X124420248Y-66657823D01*
X124420248Y-66657823D02*
X124458343Y-66734013D01*
X124458343Y-66734013D02*
X124458343Y-67038775D01*
X124839296Y-66200680D02*
X124839296Y-66048299D01*
X124839296Y-66048299D02*
X124801201Y-65972109D01*
X124801201Y-65972109D02*
X124763105Y-65934013D01*
X124763105Y-65934013D02*
X124648820Y-65857823D01*
X124648820Y-65857823D02*
X124496439Y-65819728D01*
X124496439Y-65819728D02*
X124191677Y-65819728D01*
X124191677Y-65819728D02*
X124115486Y-65857823D01*
X124115486Y-65857823D02*
X124077391Y-65895918D01*
X124077391Y-65895918D02*
X124039296Y-65972109D01*
X124039296Y-65972109D02*
X124039296Y-66124490D01*
X124039296Y-66124490D02*
X124077391Y-66200680D01*
X124077391Y-66200680D02*
X124115486Y-66238775D01*
X124115486Y-66238775D02*
X124191677Y-66276871D01*
X124191677Y-66276871D02*
X124382153Y-66276871D01*
X124382153Y-66276871D02*
X124458343Y-66238775D01*
X124458343Y-66238775D02*
X124496439Y-66200680D01*
X124496439Y-66200680D02*
X124534534Y-66124490D01*
X124534534Y-66124490D02*
X124534534Y-65972109D01*
X124534534Y-65972109D02*
X124496439Y-65895918D01*
X124496439Y-65895918D02*
X124458343Y-65857823D01*
X124458343Y-65857823D02*
X124382153Y-65819728D01*
X78892380Y-122052295D02*
X78892380Y-122623723D01*
X78892380Y-122623723D02*
X78854285Y-122738009D01*
X78854285Y-122738009D02*
X78778094Y-122814200D01*
X78778094Y-122814200D02*
X78663809Y-122852295D01*
X78663809Y-122852295D02*
X78587618Y-122852295D01*
X79235237Y-122128485D02*
X79273333Y-122090390D01*
X79273333Y-122090390D02*
X79349523Y-122052295D01*
X79349523Y-122052295D02*
X79539999Y-122052295D01*
X79539999Y-122052295D02*
X79616190Y-122090390D01*
X79616190Y-122090390D02*
X79654285Y-122128485D01*
X79654285Y-122128485D02*
X79692380Y-122204676D01*
X79692380Y-122204676D02*
X79692380Y-122280866D01*
X79692380Y-122280866D02*
X79654285Y-122395152D01*
X79654285Y-122395152D02*
X79197142Y-122852295D01*
X79197142Y-122852295D02*
X79692380Y-122852295D01*
X80187619Y-122052295D02*
X80263809Y-122052295D01*
X80263809Y-122052295D02*
X80340000Y-122090390D01*
X80340000Y-122090390D02*
X80378095Y-122128485D01*
X80378095Y-122128485D02*
X80416190Y-122204676D01*
X80416190Y-122204676D02*
X80454285Y-122357057D01*
X80454285Y-122357057D02*
X80454285Y-122547533D01*
X80454285Y-122547533D02*
X80416190Y-122699914D01*
X80416190Y-122699914D02*
X80378095Y-122776104D01*
X80378095Y-122776104D02*
X80340000Y-122814200D01*
X80340000Y-122814200D02*
X80263809Y-122852295D01*
X80263809Y-122852295D02*
X80187619Y-122852295D01*
X80187619Y-122852295D02*
X80111428Y-122814200D01*
X80111428Y-122814200D02*
X80073333Y-122776104D01*
X80073333Y-122776104D02*
X80035238Y-122699914D01*
X80035238Y-122699914D02*
X79997142Y-122547533D01*
X79997142Y-122547533D02*
X79997142Y-122357057D01*
X79997142Y-122357057D02*
X80035238Y-122204676D01*
X80035238Y-122204676D02*
X80073333Y-122128485D01*
X80073333Y-122128485D02*
X80111428Y-122090390D01*
X80111428Y-122090390D02*
X80187619Y-122052295D01*
X141952380Y-116662295D02*
X141952380Y-117233723D01*
X141952380Y-117233723D02*
X141914285Y-117348009D01*
X141914285Y-117348009D02*
X141838094Y-117424200D01*
X141838094Y-117424200D02*
X141723809Y-117462295D01*
X141723809Y-117462295D02*
X141647618Y-117462295D01*
X142752380Y-117462295D02*
X142295237Y-117462295D01*
X142523809Y-117462295D02*
X142523809Y-116662295D01*
X142523809Y-116662295D02*
X142447618Y-116776580D01*
X142447618Y-116776580D02*
X142371428Y-116852771D01*
X142371428Y-116852771D02*
X142295237Y-116890866D01*
X143438095Y-116662295D02*
X143285714Y-116662295D01*
X143285714Y-116662295D02*
X143209523Y-116700390D01*
X143209523Y-116700390D02*
X143171428Y-116738485D01*
X143171428Y-116738485D02*
X143095238Y-116852771D01*
X143095238Y-116852771D02*
X143057142Y-117005152D01*
X143057142Y-117005152D02*
X143057142Y-117309914D01*
X143057142Y-117309914D02*
X143095238Y-117386104D01*
X143095238Y-117386104D02*
X143133333Y-117424200D01*
X143133333Y-117424200D02*
X143209523Y-117462295D01*
X143209523Y-117462295D02*
X143361904Y-117462295D01*
X143361904Y-117462295D02*
X143438095Y-117424200D01*
X143438095Y-117424200D02*
X143476190Y-117386104D01*
X143476190Y-117386104D02*
X143514285Y-117309914D01*
X143514285Y-117309914D02*
X143514285Y-117119438D01*
X143514285Y-117119438D02*
X143476190Y-117043247D01*
X143476190Y-117043247D02*
X143438095Y-117005152D01*
X143438095Y-117005152D02*
X143361904Y-116967057D01*
X143361904Y-116967057D02*
X143209523Y-116967057D01*
X143209523Y-116967057D02*
X143133333Y-117005152D01*
X143133333Y-117005152D02*
X143095238Y-117043247D01*
X143095238Y-117043247D02*
X143057142Y-117119438D01*
X105293809Y-89518485D02*
X105217619Y-89480390D01*
X105217619Y-89480390D02*
X105141428Y-89404200D01*
X105141428Y-89404200D02*
X105027142Y-89289914D01*
X105027142Y-89289914D02*
X104950952Y-89251819D01*
X104950952Y-89251819D02*
X104874761Y-89251819D01*
X104912857Y-89442295D02*
X104836666Y-89404200D01*
X104836666Y-89404200D02*
X104760476Y-89328009D01*
X104760476Y-89328009D02*
X104722380Y-89175628D01*
X104722380Y-89175628D02*
X104722380Y-88908961D01*
X104722380Y-88908961D02*
X104760476Y-88756580D01*
X104760476Y-88756580D02*
X104836666Y-88680390D01*
X104836666Y-88680390D02*
X104912857Y-88642295D01*
X104912857Y-88642295D02*
X105065238Y-88642295D01*
X105065238Y-88642295D02*
X105141428Y-88680390D01*
X105141428Y-88680390D02*
X105217619Y-88756580D01*
X105217619Y-88756580D02*
X105255714Y-88908961D01*
X105255714Y-88908961D02*
X105255714Y-89175628D01*
X105255714Y-89175628D02*
X105217619Y-89328009D01*
X105217619Y-89328009D02*
X105141428Y-89404200D01*
X105141428Y-89404200D02*
X105065238Y-89442295D01*
X105065238Y-89442295D02*
X104912857Y-89442295D01*
X105941428Y-88908961D02*
X105941428Y-89442295D01*
X105750952Y-88604200D02*
X105560475Y-89175628D01*
X105560475Y-89175628D02*
X106055714Y-89175628D01*
X68662667Y-93082104D02*
X68624571Y-93120200D01*
X68624571Y-93120200D02*
X68510286Y-93158295D01*
X68510286Y-93158295D02*
X68434095Y-93158295D01*
X68434095Y-93158295D02*
X68319809Y-93120200D01*
X68319809Y-93120200D02*
X68243619Y-93044009D01*
X68243619Y-93044009D02*
X68205524Y-92967819D01*
X68205524Y-92967819D02*
X68167428Y-92815438D01*
X68167428Y-92815438D02*
X68167428Y-92701152D01*
X68167428Y-92701152D02*
X68205524Y-92548771D01*
X68205524Y-92548771D02*
X68243619Y-92472580D01*
X68243619Y-92472580D02*
X68319809Y-92396390D01*
X68319809Y-92396390D02*
X68434095Y-92358295D01*
X68434095Y-92358295D02*
X68510286Y-92358295D01*
X68510286Y-92358295D02*
X68624571Y-92396390D01*
X68624571Y-92396390D02*
X68662667Y-92434485D01*
X69043619Y-93158295D02*
X69196000Y-93158295D01*
X69196000Y-93158295D02*
X69272190Y-93120200D01*
X69272190Y-93120200D02*
X69310286Y-93082104D01*
X69310286Y-93082104D02*
X69386476Y-92967819D01*
X69386476Y-92967819D02*
X69424571Y-92815438D01*
X69424571Y-92815438D02*
X69424571Y-92510676D01*
X69424571Y-92510676D02*
X69386476Y-92434485D01*
X69386476Y-92434485D02*
X69348381Y-92396390D01*
X69348381Y-92396390D02*
X69272190Y-92358295D01*
X69272190Y-92358295D02*
X69119809Y-92358295D01*
X69119809Y-92358295D02*
X69043619Y-92396390D01*
X69043619Y-92396390D02*
X69005524Y-92434485D01*
X69005524Y-92434485D02*
X68967428Y-92510676D01*
X68967428Y-92510676D02*
X68967428Y-92701152D01*
X68967428Y-92701152D02*
X69005524Y-92777342D01*
X69005524Y-92777342D02*
X69043619Y-92815438D01*
X69043619Y-92815438D02*
X69119809Y-92853533D01*
X69119809Y-92853533D02*
X69272190Y-92853533D01*
X69272190Y-92853533D02*
X69348381Y-92815438D01*
X69348381Y-92815438D02*
X69386476Y-92777342D01*
X69386476Y-92777342D02*
X69424571Y-92701152D01*
X95407285Y-112379619D02*
X95140618Y-111998666D01*
X94950142Y-112379619D02*
X94950142Y-111579619D01*
X94950142Y-111579619D02*
X95254904Y-111579619D01*
X95254904Y-111579619D02*
X95331094Y-111617714D01*
X95331094Y-111617714D02*
X95369189Y-111655809D01*
X95369189Y-111655809D02*
X95407285Y-111732000D01*
X95407285Y-111732000D02*
X95407285Y-111846285D01*
X95407285Y-111846285D02*
X95369189Y-111922476D01*
X95369189Y-111922476D02*
X95331094Y-111960571D01*
X95331094Y-111960571D02*
X95254904Y-111998666D01*
X95254904Y-111998666D02*
X94950142Y-111998666D01*
X96092999Y-111846285D02*
X96092999Y-112379619D01*
X95902523Y-111541524D02*
X95712046Y-112112952D01*
X95712046Y-112112952D02*
X96207285Y-112112952D01*
X96892999Y-111579619D02*
X96512047Y-111579619D01*
X96512047Y-111579619D02*
X96473951Y-111960571D01*
X96473951Y-111960571D02*
X96512047Y-111922476D01*
X96512047Y-111922476D02*
X96588237Y-111884381D01*
X96588237Y-111884381D02*
X96778713Y-111884381D01*
X96778713Y-111884381D02*
X96854904Y-111922476D01*
X96854904Y-111922476D02*
X96892999Y-111960571D01*
X96892999Y-111960571D02*
X96931094Y-112036762D01*
X96931094Y-112036762D02*
X96931094Y-112227238D01*
X96931094Y-112227238D02*
X96892999Y-112303428D01*
X96892999Y-112303428D02*
X96854904Y-112341524D01*
X96854904Y-112341524D02*
X96778713Y-112379619D01*
X96778713Y-112379619D02*
X96588237Y-112379619D01*
X96588237Y-112379619D02*
X96512047Y-112341524D01*
X96512047Y-112341524D02*
X96473951Y-112303428D01*
X124839296Y-59501360D02*
X124458343Y-59768027D01*
X124839296Y-59958503D02*
X124039296Y-59958503D01*
X124039296Y-59958503D02*
X124039296Y-59653741D01*
X124039296Y-59653741D02*
X124077391Y-59577551D01*
X124077391Y-59577551D02*
X124115486Y-59539456D01*
X124115486Y-59539456D02*
X124191677Y-59501360D01*
X124191677Y-59501360D02*
X124305962Y-59501360D01*
X124305962Y-59501360D02*
X124382153Y-59539456D01*
X124382153Y-59539456D02*
X124420248Y-59577551D01*
X124420248Y-59577551D02*
X124458343Y-59653741D01*
X124458343Y-59653741D02*
X124458343Y-59958503D01*
X124839296Y-58739456D02*
X124839296Y-59196599D01*
X124839296Y-58968027D02*
X124039296Y-58968027D01*
X124039296Y-58968027D02*
X124153581Y-59044218D01*
X124153581Y-59044218D02*
X124229772Y-59120408D01*
X124229772Y-59120408D02*
X124267867Y-59196599D01*
X124115486Y-58434694D02*
X124077391Y-58396598D01*
X124077391Y-58396598D02*
X124039296Y-58320408D01*
X124039296Y-58320408D02*
X124039296Y-58129932D01*
X124039296Y-58129932D02*
X124077391Y-58053741D01*
X124077391Y-58053741D02*
X124115486Y-58015646D01*
X124115486Y-58015646D02*
X124191677Y-57977551D01*
X124191677Y-57977551D02*
X124267867Y-57977551D01*
X124267867Y-57977551D02*
X124382153Y-58015646D01*
X124382153Y-58015646D02*
X124839296Y-58472789D01*
X124839296Y-58472789D02*
X124839296Y-57977551D01*
X133516667Y-119662295D02*
X133250000Y-119281342D01*
X133059524Y-119662295D02*
X133059524Y-118862295D01*
X133059524Y-118862295D02*
X133364286Y-118862295D01*
X133364286Y-118862295D02*
X133440476Y-118900390D01*
X133440476Y-118900390D02*
X133478571Y-118938485D01*
X133478571Y-118938485D02*
X133516667Y-119014676D01*
X133516667Y-119014676D02*
X133516667Y-119128961D01*
X133516667Y-119128961D02*
X133478571Y-119205152D01*
X133478571Y-119205152D02*
X133440476Y-119243247D01*
X133440476Y-119243247D02*
X133364286Y-119281342D01*
X133364286Y-119281342D02*
X133059524Y-119281342D01*
X133821428Y-118938485D02*
X133859524Y-118900390D01*
X133859524Y-118900390D02*
X133935714Y-118862295D01*
X133935714Y-118862295D02*
X134126190Y-118862295D01*
X134126190Y-118862295D02*
X134202381Y-118900390D01*
X134202381Y-118900390D02*
X134240476Y-118938485D01*
X134240476Y-118938485D02*
X134278571Y-119014676D01*
X134278571Y-119014676D02*
X134278571Y-119090866D01*
X134278571Y-119090866D02*
X134240476Y-119205152D01*
X134240476Y-119205152D02*
X133783333Y-119662295D01*
X133783333Y-119662295D02*
X134278571Y-119662295D01*
X73585714Y-83762295D02*
X73319047Y-83381342D01*
X73128571Y-83762295D02*
X73128571Y-82962295D01*
X73128571Y-82962295D02*
X73433333Y-82962295D01*
X73433333Y-82962295D02*
X73509523Y-83000390D01*
X73509523Y-83000390D02*
X73547618Y-83038485D01*
X73547618Y-83038485D02*
X73585714Y-83114676D01*
X73585714Y-83114676D02*
X73585714Y-83228961D01*
X73585714Y-83228961D02*
X73547618Y-83305152D01*
X73547618Y-83305152D02*
X73509523Y-83343247D01*
X73509523Y-83343247D02*
X73433333Y-83381342D01*
X73433333Y-83381342D02*
X73128571Y-83381342D01*
X73852380Y-82962295D02*
X74347618Y-82962295D01*
X74347618Y-82962295D02*
X74080952Y-83267057D01*
X74080952Y-83267057D02*
X74195237Y-83267057D01*
X74195237Y-83267057D02*
X74271428Y-83305152D01*
X74271428Y-83305152D02*
X74309523Y-83343247D01*
X74309523Y-83343247D02*
X74347618Y-83419438D01*
X74347618Y-83419438D02*
X74347618Y-83609914D01*
X74347618Y-83609914D02*
X74309523Y-83686104D01*
X74309523Y-83686104D02*
X74271428Y-83724200D01*
X74271428Y-83724200D02*
X74195237Y-83762295D01*
X74195237Y-83762295D02*
X73966666Y-83762295D01*
X73966666Y-83762295D02*
X73890475Y-83724200D01*
X73890475Y-83724200D02*
X73852380Y-83686104D01*
X75033333Y-82962295D02*
X74880952Y-82962295D01*
X74880952Y-82962295D02*
X74804761Y-83000390D01*
X74804761Y-83000390D02*
X74766666Y-83038485D01*
X74766666Y-83038485D02*
X74690476Y-83152771D01*
X74690476Y-83152771D02*
X74652380Y-83305152D01*
X74652380Y-83305152D02*
X74652380Y-83609914D01*
X74652380Y-83609914D02*
X74690476Y-83686104D01*
X74690476Y-83686104D02*
X74728571Y-83724200D01*
X74728571Y-83724200D02*
X74804761Y-83762295D01*
X74804761Y-83762295D02*
X74957142Y-83762295D01*
X74957142Y-83762295D02*
X75033333Y-83724200D01*
X75033333Y-83724200D02*
X75071428Y-83686104D01*
X75071428Y-83686104D02*
X75109523Y-83609914D01*
X75109523Y-83609914D02*
X75109523Y-83419438D01*
X75109523Y-83419438D02*
X75071428Y-83343247D01*
X75071428Y-83343247D02*
X75033333Y-83305152D01*
X75033333Y-83305152D02*
X74957142Y-83267057D01*
X74957142Y-83267057D02*
X74804761Y-83267057D01*
X74804761Y-83267057D02*
X74728571Y-83305152D01*
X74728571Y-83305152D02*
X74690476Y-83343247D01*
X74690476Y-83343247D02*
X74652380Y-83419438D01*
X129633333Y-90262295D02*
X129633333Y-90833723D01*
X129633333Y-90833723D02*
X129595238Y-90948009D01*
X129595238Y-90948009D02*
X129519047Y-91024200D01*
X129519047Y-91024200D02*
X129404762Y-91062295D01*
X129404762Y-91062295D02*
X129328571Y-91062295D01*
X130395238Y-90262295D02*
X130014286Y-90262295D01*
X130014286Y-90262295D02*
X129976190Y-90643247D01*
X129976190Y-90643247D02*
X130014286Y-90605152D01*
X130014286Y-90605152D02*
X130090476Y-90567057D01*
X130090476Y-90567057D02*
X130280952Y-90567057D01*
X130280952Y-90567057D02*
X130357143Y-90605152D01*
X130357143Y-90605152D02*
X130395238Y-90643247D01*
X130395238Y-90643247D02*
X130433333Y-90719438D01*
X130433333Y-90719438D02*
X130433333Y-90909914D01*
X130433333Y-90909914D02*
X130395238Y-90986104D01*
X130395238Y-90986104D02*
X130357143Y-91024200D01*
X130357143Y-91024200D02*
X130280952Y-91062295D01*
X130280952Y-91062295D02*
X130090476Y-91062295D01*
X130090476Y-91062295D02*
X130014286Y-91024200D01*
X130014286Y-91024200D02*
X129976190Y-90986104D01*
X108795714Y-79232295D02*
X108529047Y-78851342D01*
X108338571Y-79232295D02*
X108338571Y-78432295D01*
X108338571Y-78432295D02*
X108643333Y-78432295D01*
X108643333Y-78432295D02*
X108719523Y-78470390D01*
X108719523Y-78470390D02*
X108757618Y-78508485D01*
X108757618Y-78508485D02*
X108795714Y-78584676D01*
X108795714Y-78584676D02*
X108795714Y-78698961D01*
X108795714Y-78698961D02*
X108757618Y-78775152D01*
X108757618Y-78775152D02*
X108719523Y-78813247D01*
X108719523Y-78813247D02*
X108643333Y-78851342D01*
X108643333Y-78851342D02*
X108338571Y-78851342D01*
X109557618Y-79232295D02*
X109100475Y-79232295D01*
X109329047Y-79232295D02*
X109329047Y-78432295D01*
X109329047Y-78432295D02*
X109252856Y-78546580D01*
X109252856Y-78546580D02*
X109176666Y-78622771D01*
X109176666Y-78622771D02*
X109100475Y-78660866D01*
X109824285Y-78432295D02*
X110357619Y-78432295D01*
X110357619Y-78432295D02*
X110014761Y-79232295D01*
X141952380Y-108862295D02*
X141952380Y-109433723D01*
X141952380Y-109433723D02*
X141914285Y-109548009D01*
X141914285Y-109548009D02*
X141838094Y-109624200D01*
X141838094Y-109624200D02*
X141723809Y-109662295D01*
X141723809Y-109662295D02*
X141647618Y-109662295D01*
X142752380Y-109662295D02*
X142295237Y-109662295D01*
X142523809Y-109662295D02*
X142523809Y-108862295D01*
X142523809Y-108862295D02*
X142447618Y-108976580D01*
X142447618Y-108976580D02*
X142371428Y-109052771D01*
X142371428Y-109052771D02*
X142295237Y-109090866D01*
X143209523Y-109205152D02*
X143133333Y-109167057D01*
X143133333Y-109167057D02*
X143095238Y-109128961D01*
X143095238Y-109128961D02*
X143057142Y-109052771D01*
X143057142Y-109052771D02*
X143057142Y-109014676D01*
X143057142Y-109014676D02*
X143095238Y-108938485D01*
X143095238Y-108938485D02*
X143133333Y-108900390D01*
X143133333Y-108900390D02*
X143209523Y-108862295D01*
X143209523Y-108862295D02*
X143361904Y-108862295D01*
X143361904Y-108862295D02*
X143438095Y-108900390D01*
X143438095Y-108900390D02*
X143476190Y-108938485D01*
X143476190Y-108938485D02*
X143514285Y-109014676D01*
X143514285Y-109014676D02*
X143514285Y-109052771D01*
X143514285Y-109052771D02*
X143476190Y-109128961D01*
X143476190Y-109128961D02*
X143438095Y-109167057D01*
X143438095Y-109167057D02*
X143361904Y-109205152D01*
X143361904Y-109205152D02*
X143209523Y-109205152D01*
X143209523Y-109205152D02*
X143133333Y-109243247D01*
X143133333Y-109243247D02*
X143095238Y-109281342D01*
X143095238Y-109281342D02*
X143057142Y-109357533D01*
X143057142Y-109357533D02*
X143057142Y-109509914D01*
X143057142Y-109509914D02*
X143095238Y-109586104D01*
X143095238Y-109586104D02*
X143133333Y-109624200D01*
X143133333Y-109624200D02*
X143209523Y-109662295D01*
X143209523Y-109662295D02*
X143361904Y-109662295D01*
X143361904Y-109662295D02*
X143438095Y-109624200D01*
X143438095Y-109624200D02*
X143476190Y-109586104D01*
X143476190Y-109586104D02*
X143514285Y-109509914D01*
X143514285Y-109509914D02*
X143514285Y-109357533D01*
X143514285Y-109357533D02*
X143476190Y-109281342D01*
X143476190Y-109281342D02*
X143438095Y-109243247D01*
X143438095Y-109243247D02*
X143361904Y-109205152D01*
X80327724Y-108161095D02*
X80327724Y-107361095D01*
X80327724Y-107361095D02*
X80518200Y-107361095D01*
X80518200Y-107361095D02*
X80632486Y-107399190D01*
X80632486Y-107399190D02*
X80708676Y-107475380D01*
X80708676Y-107475380D02*
X80746771Y-107551571D01*
X80746771Y-107551571D02*
X80784867Y-107703952D01*
X80784867Y-107703952D02*
X80784867Y-107818238D01*
X80784867Y-107818238D02*
X80746771Y-107970619D01*
X80746771Y-107970619D02*
X80708676Y-108046809D01*
X80708676Y-108046809D02*
X80632486Y-108123000D01*
X80632486Y-108123000D02*
X80518200Y-108161095D01*
X80518200Y-108161095D02*
X80327724Y-108161095D01*
X81051533Y-107361095D02*
X81584867Y-107361095D01*
X81584867Y-107361095D02*
X81242009Y-108161095D01*
X74063967Y-105984904D02*
X74025871Y-106023000D01*
X74025871Y-106023000D02*
X73911586Y-106061095D01*
X73911586Y-106061095D02*
X73835395Y-106061095D01*
X73835395Y-106061095D02*
X73721109Y-106023000D01*
X73721109Y-106023000D02*
X73644919Y-105946809D01*
X73644919Y-105946809D02*
X73606824Y-105870619D01*
X73606824Y-105870619D02*
X73568728Y-105718238D01*
X73568728Y-105718238D02*
X73568728Y-105603952D01*
X73568728Y-105603952D02*
X73606824Y-105451571D01*
X73606824Y-105451571D02*
X73644919Y-105375380D01*
X73644919Y-105375380D02*
X73721109Y-105299190D01*
X73721109Y-105299190D02*
X73835395Y-105261095D01*
X73835395Y-105261095D02*
X73911586Y-105261095D01*
X73911586Y-105261095D02*
X74025871Y-105299190D01*
X74025871Y-105299190D02*
X74063967Y-105337285D01*
X74330633Y-105261095D02*
X74863967Y-105261095D01*
X74863967Y-105261095D02*
X74521109Y-106061095D01*
X89107285Y-112379619D02*
X88840618Y-111998666D01*
X88650142Y-112379619D02*
X88650142Y-111579619D01*
X88650142Y-111579619D02*
X88954904Y-111579619D01*
X88954904Y-111579619D02*
X89031094Y-111617714D01*
X89031094Y-111617714D02*
X89069189Y-111655809D01*
X89069189Y-111655809D02*
X89107285Y-111732000D01*
X89107285Y-111732000D02*
X89107285Y-111846285D01*
X89107285Y-111846285D02*
X89069189Y-111922476D01*
X89069189Y-111922476D02*
X89031094Y-111960571D01*
X89031094Y-111960571D02*
X88954904Y-111998666D01*
X88954904Y-111998666D02*
X88650142Y-111998666D01*
X89792999Y-111846285D02*
X89792999Y-112379619D01*
X89602523Y-111541524D02*
X89412046Y-112112952D01*
X89412046Y-112112952D02*
X89907285Y-112112952D01*
X90173951Y-111655809D02*
X90212047Y-111617714D01*
X90212047Y-111617714D02*
X90288237Y-111579619D01*
X90288237Y-111579619D02*
X90478713Y-111579619D01*
X90478713Y-111579619D02*
X90554904Y-111617714D01*
X90554904Y-111617714D02*
X90592999Y-111655809D01*
X90592999Y-111655809D02*
X90631094Y-111732000D01*
X90631094Y-111732000D02*
X90631094Y-111808190D01*
X90631094Y-111808190D02*
X90592999Y-111922476D01*
X90592999Y-111922476D02*
X90135856Y-112379619D01*
X90135856Y-112379619D02*
X90631094Y-112379619D01*
X131642295Y-57090475D02*
X130842295Y-57090475D01*
X130842295Y-57090475D02*
X130842295Y-56899999D01*
X130842295Y-56899999D02*
X130880390Y-56785713D01*
X130880390Y-56785713D02*
X130956580Y-56709523D01*
X130956580Y-56709523D02*
X131032771Y-56671428D01*
X131032771Y-56671428D02*
X131185152Y-56633332D01*
X131185152Y-56633332D02*
X131299438Y-56633332D01*
X131299438Y-56633332D02*
X131451819Y-56671428D01*
X131451819Y-56671428D02*
X131528009Y-56709523D01*
X131528009Y-56709523D02*
X131604200Y-56785713D01*
X131604200Y-56785713D02*
X131642295Y-56899999D01*
X131642295Y-56899999D02*
X131642295Y-57090475D01*
X130842295Y-55947618D02*
X130842295Y-56099999D01*
X130842295Y-56099999D02*
X130880390Y-56176190D01*
X130880390Y-56176190D02*
X130918485Y-56214285D01*
X130918485Y-56214285D02*
X131032771Y-56290475D01*
X131032771Y-56290475D02*
X131185152Y-56328571D01*
X131185152Y-56328571D02*
X131489914Y-56328571D01*
X131489914Y-56328571D02*
X131566104Y-56290475D01*
X131566104Y-56290475D02*
X131604200Y-56252380D01*
X131604200Y-56252380D02*
X131642295Y-56176190D01*
X131642295Y-56176190D02*
X131642295Y-56023809D01*
X131642295Y-56023809D02*
X131604200Y-55947618D01*
X131604200Y-55947618D02*
X131566104Y-55909523D01*
X131566104Y-55909523D02*
X131489914Y-55871428D01*
X131489914Y-55871428D02*
X131299438Y-55871428D01*
X131299438Y-55871428D02*
X131223247Y-55909523D01*
X131223247Y-55909523D02*
X131185152Y-55947618D01*
X131185152Y-55947618D02*
X131147057Y-56023809D01*
X131147057Y-56023809D02*
X131147057Y-56176190D01*
X131147057Y-56176190D02*
X131185152Y-56252380D01*
X131185152Y-56252380D02*
X131223247Y-56290475D01*
X131223247Y-56290475D02*
X131299438Y-56328571D01*
X68535714Y-98238295D02*
X68269047Y-97857342D01*
X68078571Y-98238295D02*
X68078571Y-97438295D01*
X68078571Y-97438295D02*
X68383333Y-97438295D01*
X68383333Y-97438295D02*
X68459523Y-97476390D01*
X68459523Y-97476390D02*
X68497618Y-97514485D01*
X68497618Y-97514485D02*
X68535714Y-97590676D01*
X68535714Y-97590676D02*
X68535714Y-97704961D01*
X68535714Y-97704961D02*
X68497618Y-97781152D01*
X68497618Y-97781152D02*
X68459523Y-97819247D01*
X68459523Y-97819247D02*
X68383333Y-97857342D01*
X68383333Y-97857342D02*
X68078571Y-97857342D01*
X69297618Y-98238295D02*
X68840475Y-98238295D01*
X69069047Y-98238295D02*
X69069047Y-97438295D01*
X69069047Y-97438295D02*
X68992856Y-97552580D01*
X68992856Y-97552580D02*
X68916666Y-97628771D01*
X68916666Y-97628771D02*
X68840475Y-97666866D01*
X69678571Y-98238295D02*
X69830952Y-98238295D01*
X69830952Y-98238295D02*
X69907142Y-98200200D01*
X69907142Y-98200200D02*
X69945238Y-98162104D01*
X69945238Y-98162104D02*
X70021428Y-98047819D01*
X70021428Y-98047819D02*
X70059523Y-97895438D01*
X70059523Y-97895438D02*
X70059523Y-97590676D01*
X70059523Y-97590676D02*
X70021428Y-97514485D01*
X70021428Y-97514485D02*
X69983333Y-97476390D01*
X69983333Y-97476390D02*
X69907142Y-97438295D01*
X69907142Y-97438295D02*
X69754761Y-97438295D01*
X69754761Y-97438295D02*
X69678571Y-97476390D01*
X69678571Y-97476390D02*
X69640476Y-97514485D01*
X69640476Y-97514485D02*
X69602380Y-97590676D01*
X69602380Y-97590676D02*
X69602380Y-97781152D01*
X69602380Y-97781152D02*
X69640476Y-97857342D01*
X69640476Y-97857342D02*
X69678571Y-97895438D01*
X69678571Y-97895438D02*
X69754761Y-97933533D01*
X69754761Y-97933533D02*
X69907142Y-97933533D01*
X69907142Y-97933533D02*
X69983333Y-97895438D01*
X69983333Y-97895438D02*
X70021428Y-97857342D01*
X70021428Y-97857342D02*
X70059523Y-97781152D01*
X52788095Y-100031819D02*
X53359523Y-100031819D01*
X53359523Y-100031819D02*
X53473809Y-100069914D01*
X53473809Y-100069914D02*
X53550000Y-100146105D01*
X53550000Y-100146105D02*
X53588095Y-100260390D01*
X53588095Y-100260390D02*
X53588095Y-100336581D01*
X53588095Y-99231819D02*
X53588095Y-99688962D01*
X53588095Y-99460390D02*
X52788095Y-99460390D01*
X52788095Y-99460390D02*
X52902380Y-99536581D01*
X52902380Y-99536581D02*
X52978571Y-99612771D01*
X52978571Y-99612771D02*
X53016666Y-99688962D01*
X52788095Y-98736580D02*
X52788095Y-98660390D01*
X52788095Y-98660390D02*
X52826190Y-98584199D01*
X52826190Y-98584199D02*
X52864285Y-98546104D01*
X52864285Y-98546104D02*
X52940476Y-98508009D01*
X52940476Y-98508009D02*
X53092857Y-98469914D01*
X53092857Y-98469914D02*
X53283333Y-98469914D01*
X53283333Y-98469914D02*
X53435714Y-98508009D01*
X53435714Y-98508009D02*
X53511904Y-98546104D01*
X53511904Y-98546104D02*
X53550000Y-98584199D01*
X53550000Y-98584199D02*
X53588095Y-98660390D01*
X53588095Y-98660390D02*
X53588095Y-98736580D01*
X53588095Y-98736580D02*
X53550000Y-98812771D01*
X53550000Y-98812771D02*
X53511904Y-98850866D01*
X53511904Y-98850866D02*
X53435714Y-98888961D01*
X53435714Y-98888961D02*
X53283333Y-98927057D01*
X53283333Y-98927057D02*
X53092857Y-98927057D01*
X53092857Y-98927057D02*
X52940476Y-98888961D01*
X52940476Y-98888961D02*
X52864285Y-98850866D01*
X52864285Y-98850866D02*
X52826190Y-98812771D01*
X52826190Y-98812771D02*
X52788095Y-98736580D01*
X81485714Y-73462295D02*
X81219047Y-73081342D01*
X81028571Y-73462295D02*
X81028571Y-72662295D01*
X81028571Y-72662295D02*
X81333333Y-72662295D01*
X81333333Y-72662295D02*
X81409523Y-72700390D01*
X81409523Y-72700390D02*
X81447618Y-72738485D01*
X81447618Y-72738485D02*
X81485714Y-72814676D01*
X81485714Y-72814676D02*
X81485714Y-72928961D01*
X81485714Y-72928961D02*
X81447618Y-73005152D01*
X81447618Y-73005152D02*
X81409523Y-73043247D01*
X81409523Y-73043247D02*
X81333333Y-73081342D01*
X81333333Y-73081342D02*
X81028571Y-73081342D01*
X81752380Y-72662295D02*
X82247618Y-72662295D01*
X82247618Y-72662295D02*
X81980952Y-72967057D01*
X81980952Y-72967057D02*
X82095237Y-72967057D01*
X82095237Y-72967057D02*
X82171428Y-73005152D01*
X82171428Y-73005152D02*
X82209523Y-73043247D01*
X82209523Y-73043247D02*
X82247618Y-73119438D01*
X82247618Y-73119438D02*
X82247618Y-73309914D01*
X82247618Y-73309914D02*
X82209523Y-73386104D01*
X82209523Y-73386104D02*
X82171428Y-73424200D01*
X82171428Y-73424200D02*
X82095237Y-73462295D01*
X82095237Y-73462295D02*
X81866666Y-73462295D01*
X81866666Y-73462295D02*
X81790475Y-73424200D01*
X81790475Y-73424200D02*
X81752380Y-73386104D01*
X82704761Y-73005152D02*
X82628571Y-72967057D01*
X82628571Y-72967057D02*
X82590476Y-72928961D01*
X82590476Y-72928961D02*
X82552380Y-72852771D01*
X82552380Y-72852771D02*
X82552380Y-72814676D01*
X82552380Y-72814676D02*
X82590476Y-72738485D01*
X82590476Y-72738485D02*
X82628571Y-72700390D01*
X82628571Y-72700390D02*
X82704761Y-72662295D01*
X82704761Y-72662295D02*
X82857142Y-72662295D01*
X82857142Y-72662295D02*
X82933333Y-72700390D01*
X82933333Y-72700390D02*
X82971428Y-72738485D01*
X82971428Y-72738485D02*
X83009523Y-72814676D01*
X83009523Y-72814676D02*
X83009523Y-72852771D01*
X83009523Y-72852771D02*
X82971428Y-72928961D01*
X82971428Y-72928961D02*
X82933333Y-72967057D01*
X82933333Y-72967057D02*
X82857142Y-73005152D01*
X82857142Y-73005152D02*
X82704761Y-73005152D01*
X82704761Y-73005152D02*
X82628571Y-73043247D01*
X82628571Y-73043247D02*
X82590476Y-73081342D01*
X82590476Y-73081342D02*
X82552380Y-73157533D01*
X82552380Y-73157533D02*
X82552380Y-73309914D01*
X82552380Y-73309914D02*
X82590476Y-73386104D01*
X82590476Y-73386104D02*
X82628571Y-73424200D01*
X82628571Y-73424200D02*
X82704761Y-73462295D01*
X82704761Y-73462295D02*
X82857142Y-73462295D01*
X82857142Y-73462295D02*
X82933333Y-73424200D01*
X82933333Y-73424200D02*
X82971428Y-73386104D01*
X82971428Y-73386104D02*
X83009523Y-73309914D01*
X83009523Y-73309914D02*
X83009523Y-73157533D01*
X83009523Y-73157533D02*
X82971428Y-73081342D01*
X82971428Y-73081342D02*
X82933333Y-73043247D01*
X82933333Y-73043247D02*
X82857142Y-73005152D01*
X73585714Y-81762295D02*
X73319047Y-81381342D01*
X73128571Y-81762295D02*
X73128571Y-80962295D01*
X73128571Y-80962295D02*
X73433333Y-80962295D01*
X73433333Y-80962295D02*
X73509523Y-81000390D01*
X73509523Y-81000390D02*
X73547618Y-81038485D01*
X73547618Y-81038485D02*
X73585714Y-81114676D01*
X73585714Y-81114676D02*
X73585714Y-81228961D01*
X73585714Y-81228961D02*
X73547618Y-81305152D01*
X73547618Y-81305152D02*
X73509523Y-81343247D01*
X73509523Y-81343247D02*
X73433333Y-81381342D01*
X73433333Y-81381342D02*
X73128571Y-81381342D01*
X73852380Y-80962295D02*
X74347618Y-80962295D01*
X74347618Y-80962295D02*
X74080952Y-81267057D01*
X74080952Y-81267057D02*
X74195237Y-81267057D01*
X74195237Y-81267057D02*
X74271428Y-81305152D01*
X74271428Y-81305152D02*
X74309523Y-81343247D01*
X74309523Y-81343247D02*
X74347618Y-81419438D01*
X74347618Y-81419438D02*
X74347618Y-81609914D01*
X74347618Y-81609914D02*
X74309523Y-81686104D01*
X74309523Y-81686104D02*
X74271428Y-81724200D01*
X74271428Y-81724200D02*
X74195237Y-81762295D01*
X74195237Y-81762295D02*
X73966666Y-81762295D01*
X73966666Y-81762295D02*
X73890475Y-81724200D01*
X73890475Y-81724200D02*
X73852380Y-81686104D01*
X75071428Y-80962295D02*
X74690476Y-80962295D01*
X74690476Y-80962295D02*
X74652380Y-81343247D01*
X74652380Y-81343247D02*
X74690476Y-81305152D01*
X74690476Y-81305152D02*
X74766666Y-81267057D01*
X74766666Y-81267057D02*
X74957142Y-81267057D01*
X74957142Y-81267057D02*
X75033333Y-81305152D01*
X75033333Y-81305152D02*
X75071428Y-81343247D01*
X75071428Y-81343247D02*
X75109523Y-81419438D01*
X75109523Y-81419438D02*
X75109523Y-81609914D01*
X75109523Y-81609914D02*
X75071428Y-81686104D01*
X75071428Y-81686104D02*
X75033333Y-81724200D01*
X75033333Y-81724200D02*
X74957142Y-81762295D01*
X74957142Y-81762295D02*
X74766666Y-81762295D01*
X74766666Y-81762295D02*
X74690476Y-81724200D01*
X74690476Y-81724200D02*
X74652380Y-81686104D01*
X134412295Y-106209523D02*
X135059914Y-106209523D01*
X135059914Y-106209523D02*
X135136104Y-106171428D01*
X135136104Y-106171428D02*
X135174200Y-106133333D01*
X135174200Y-106133333D02*
X135212295Y-106057142D01*
X135212295Y-106057142D02*
X135212295Y-105904761D01*
X135212295Y-105904761D02*
X135174200Y-105828571D01*
X135174200Y-105828571D02*
X135136104Y-105790476D01*
X135136104Y-105790476D02*
X135059914Y-105752380D01*
X135059914Y-105752380D02*
X134412295Y-105752380D01*
X134678961Y-105028571D02*
X135212295Y-105028571D01*
X134374200Y-105219047D02*
X134945628Y-105409524D01*
X134945628Y-105409524D02*
X134945628Y-104914285D01*
X89107285Y-121779619D02*
X88840618Y-121398666D01*
X88650142Y-121779619D02*
X88650142Y-120979619D01*
X88650142Y-120979619D02*
X88954904Y-120979619D01*
X88954904Y-120979619D02*
X89031094Y-121017714D01*
X89031094Y-121017714D02*
X89069189Y-121055809D01*
X89069189Y-121055809D02*
X89107285Y-121132000D01*
X89107285Y-121132000D02*
X89107285Y-121246285D01*
X89107285Y-121246285D02*
X89069189Y-121322476D01*
X89069189Y-121322476D02*
X89031094Y-121360571D01*
X89031094Y-121360571D02*
X88954904Y-121398666D01*
X88954904Y-121398666D02*
X88650142Y-121398666D01*
X89792999Y-121246285D02*
X89792999Y-121779619D01*
X89602523Y-120941524D02*
X89412046Y-121512952D01*
X89412046Y-121512952D02*
X89907285Y-121512952D01*
X90135856Y-120979619D02*
X90631094Y-120979619D01*
X90631094Y-120979619D02*
X90364428Y-121284381D01*
X90364428Y-121284381D02*
X90478713Y-121284381D01*
X90478713Y-121284381D02*
X90554904Y-121322476D01*
X90554904Y-121322476D02*
X90592999Y-121360571D01*
X90592999Y-121360571D02*
X90631094Y-121436762D01*
X90631094Y-121436762D02*
X90631094Y-121627238D01*
X90631094Y-121627238D02*
X90592999Y-121703428D01*
X90592999Y-121703428D02*
X90554904Y-121741524D01*
X90554904Y-121741524D02*
X90478713Y-121779619D01*
X90478713Y-121779619D02*
X90250142Y-121779619D01*
X90250142Y-121779619D02*
X90173951Y-121741524D01*
X90173951Y-121741524D02*
X90135856Y-121703428D01*
X94733333Y-102912295D02*
X94733333Y-103483723D01*
X94733333Y-103483723D02*
X94695238Y-103598009D01*
X94695238Y-103598009D02*
X94619047Y-103674200D01*
X94619047Y-103674200D02*
X94504762Y-103712295D01*
X94504762Y-103712295D02*
X94428571Y-103712295D01*
X95114286Y-103712295D02*
X95114286Y-102912295D01*
X95114286Y-102912295D02*
X95419048Y-102912295D01*
X95419048Y-102912295D02*
X95495238Y-102950390D01*
X95495238Y-102950390D02*
X95533333Y-102988485D01*
X95533333Y-102988485D02*
X95571429Y-103064676D01*
X95571429Y-103064676D02*
X95571429Y-103178961D01*
X95571429Y-103178961D02*
X95533333Y-103255152D01*
X95533333Y-103255152D02*
X95495238Y-103293247D01*
X95495238Y-103293247D02*
X95419048Y-103331342D01*
X95419048Y-103331342D02*
X95114286Y-103331342D01*
X96333333Y-103712295D02*
X95876190Y-103712295D01*
X96104762Y-103712295D02*
X96104762Y-102912295D01*
X96104762Y-102912295D02*
X96028571Y-103026580D01*
X96028571Y-103026580D02*
X95952381Y-103102771D01*
X95952381Y-103102771D02*
X95876190Y-103140866D01*
X91885714Y-109562295D02*
X91619047Y-109181342D01*
X91428571Y-109562295D02*
X91428571Y-108762295D01*
X91428571Y-108762295D02*
X91733333Y-108762295D01*
X91733333Y-108762295D02*
X91809523Y-108800390D01*
X91809523Y-108800390D02*
X91847618Y-108838485D01*
X91847618Y-108838485D02*
X91885714Y-108914676D01*
X91885714Y-108914676D02*
X91885714Y-109028961D01*
X91885714Y-109028961D02*
X91847618Y-109105152D01*
X91847618Y-109105152D02*
X91809523Y-109143247D01*
X91809523Y-109143247D02*
X91733333Y-109181342D01*
X91733333Y-109181342D02*
X91428571Y-109181342D01*
X92571428Y-109028961D02*
X92571428Y-109562295D01*
X92380952Y-108724200D02*
X92190475Y-109295628D01*
X92190475Y-109295628D02*
X92685714Y-109295628D01*
X93333333Y-108762295D02*
X93180952Y-108762295D01*
X93180952Y-108762295D02*
X93104761Y-108800390D01*
X93104761Y-108800390D02*
X93066666Y-108838485D01*
X93066666Y-108838485D02*
X92990476Y-108952771D01*
X92990476Y-108952771D02*
X92952380Y-109105152D01*
X92952380Y-109105152D02*
X92952380Y-109409914D01*
X92952380Y-109409914D02*
X92990476Y-109486104D01*
X92990476Y-109486104D02*
X93028571Y-109524200D01*
X93028571Y-109524200D02*
X93104761Y-109562295D01*
X93104761Y-109562295D02*
X93257142Y-109562295D01*
X93257142Y-109562295D02*
X93333333Y-109524200D01*
X93333333Y-109524200D02*
X93371428Y-109486104D01*
X93371428Y-109486104D02*
X93409523Y-109409914D01*
X93409523Y-109409914D02*
X93409523Y-109219438D01*
X93409523Y-109219438D02*
X93371428Y-109143247D01*
X93371428Y-109143247D02*
X93333333Y-109105152D01*
X93333333Y-109105152D02*
X93257142Y-109067057D01*
X93257142Y-109067057D02*
X93104761Y-109067057D01*
X93104761Y-109067057D02*
X93028571Y-109105152D01*
X93028571Y-109105152D02*
X92990476Y-109143247D01*
X92990476Y-109143247D02*
X92952380Y-109219438D01*
X92286104Y-93314285D02*
X92324200Y-93352381D01*
X92324200Y-93352381D02*
X92362295Y-93466666D01*
X92362295Y-93466666D02*
X92362295Y-93542857D01*
X92362295Y-93542857D02*
X92324200Y-93657143D01*
X92324200Y-93657143D02*
X92248009Y-93733333D01*
X92248009Y-93733333D02*
X92171819Y-93771428D01*
X92171819Y-93771428D02*
X92019438Y-93809524D01*
X92019438Y-93809524D02*
X91905152Y-93809524D01*
X91905152Y-93809524D02*
X91752771Y-93771428D01*
X91752771Y-93771428D02*
X91676580Y-93733333D01*
X91676580Y-93733333D02*
X91600390Y-93657143D01*
X91600390Y-93657143D02*
X91562295Y-93542857D01*
X91562295Y-93542857D02*
X91562295Y-93466666D01*
X91562295Y-93466666D02*
X91600390Y-93352381D01*
X91600390Y-93352381D02*
X91638485Y-93314285D01*
X92362295Y-92552381D02*
X92362295Y-93009524D01*
X92362295Y-92780952D02*
X91562295Y-92780952D01*
X91562295Y-92780952D02*
X91676580Y-92857143D01*
X91676580Y-92857143D02*
X91752771Y-92933333D01*
X91752771Y-92933333D02*
X91790866Y-93009524D01*
X91562295Y-92057142D02*
X91562295Y-91980952D01*
X91562295Y-91980952D02*
X91600390Y-91904761D01*
X91600390Y-91904761D02*
X91638485Y-91866666D01*
X91638485Y-91866666D02*
X91714676Y-91828571D01*
X91714676Y-91828571D02*
X91867057Y-91790476D01*
X91867057Y-91790476D02*
X92057533Y-91790476D01*
X92057533Y-91790476D02*
X92209914Y-91828571D01*
X92209914Y-91828571D02*
X92286104Y-91866666D01*
X92286104Y-91866666D02*
X92324200Y-91904761D01*
X92324200Y-91904761D02*
X92362295Y-91980952D01*
X92362295Y-91980952D02*
X92362295Y-92057142D01*
X92362295Y-92057142D02*
X92324200Y-92133333D01*
X92324200Y-92133333D02*
X92286104Y-92171428D01*
X92286104Y-92171428D02*
X92209914Y-92209523D01*
X92209914Y-92209523D02*
X92057533Y-92247619D01*
X92057533Y-92247619D02*
X91867057Y-92247619D01*
X91867057Y-92247619D02*
X91714676Y-92209523D01*
X91714676Y-92209523D02*
X91638485Y-92171428D01*
X91638485Y-92171428D02*
X91600390Y-92133333D01*
X91600390Y-92133333D02*
X91562295Y-92057142D01*
X120686295Y-57571277D02*
X121257723Y-57571277D01*
X121257723Y-57571277D02*
X121372009Y-57609372D01*
X121372009Y-57609372D02*
X121448200Y-57685563D01*
X121448200Y-57685563D02*
X121486295Y-57799848D01*
X121486295Y-57799848D02*
X121486295Y-57876039D01*
X121486295Y-56771277D02*
X121486295Y-57228420D01*
X121486295Y-56999848D02*
X120686295Y-56999848D01*
X120686295Y-56999848D02*
X120800580Y-57076039D01*
X120800580Y-57076039D02*
X120876771Y-57152229D01*
X120876771Y-57152229D02*
X120914866Y-57228420D01*
X120686295Y-56047467D02*
X120686295Y-56428419D01*
X120686295Y-56428419D02*
X121067247Y-56466515D01*
X121067247Y-56466515D02*
X121029152Y-56428419D01*
X121029152Y-56428419D02*
X120991057Y-56352229D01*
X120991057Y-56352229D02*
X120991057Y-56161753D01*
X120991057Y-56161753D02*
X121029152Y-56085562D01*
X121029152Y-56085562D02*
X121067247Y-56047467D01*
X121067247Y-56047467D02*
X121143438Y-56009372D01*
X121143438Y-56009372D02*
X121333914Y-56009372D01*
X121333914Y-56009372D02*
X121410104Y-56047467D01*
X121410104Y-56047467D02*
X121448200Y-56085562D01*
X121448200Y-56085562D02*
X121486295Y-56161753D01*
X121486295Y-56161753D02*
X121486295Y-56352229D01*
X121486295Y-56352229D02*
X121448200Y-56428419D01*
X121448200Y-56428419D02*
X121410104Y-56466515D01*
X127362295Y-75590475D02*
X126562295Y-75590475D01*
X126562295Y-75590475D02*
X126562295Y-75399999D01*
X126562295Y-75399999D02*
X126600390Y-75285713D01*
X126600390Y-75285713D02*
X126676580Y-75209523D01*
X126676580Y-75209523D02*
X126752771Y-75171428D01*
X126752771Y-75171428D02*
X126905152Y-75133332D01*
X126905152Y-75133332D02*
X127019438Y-75133332D01*
X127019438Y-75133332D02*
X127171819Y-75171428D01*
X127171819Y-75171428D02*
X127248009Y-75209523D01*
X127248009Y-75209523D02*
X127324200Y-75285713D01*
X127324200Y-75285713D02*
X127362295Y-75399999D01*
X127362295Y-75399999D02*
X127362295Y-75590475D01*
X126905152Y-74676190D02*
X126867057Y-74752380D01*
X126867057Y-74752380D02*
X126828961Y-74790475D01*
X126828961Y-74790475D02*
X126752771Y-74828571D01*
X126752771Y-74828571D02*
X126714676Y-74828571D01*
X126714676Y-74828571D02*
X126638485Y-74790475D01*
X126638485Y-74790475D02*
X126600390Y-74752380D01*
X126600390Y-74752380D02*
X126562295Y-74676190D01*
X126562295Y-74676190D02*
X126562295Y-74523809D01*
X126562295Y-74523809D02*
X126600390Y-74447618D01*
X126600390Y-74447618D02*
X126638485Y-74409523D01*
X126638485Y-74409523D02*
X126714676Y-74371428D01*
X126714676Y-74371428D02*
X126752771Y-74371428D01*
X126752771Y-74371428D02*
X126828961Y-74409523D01*
X126828961Y-74409523D02*
X126867057Y-74447618D01*
X126867057Y-74447618D02*
X126905152Y-74523809D01*
X126905152Y-74523809D02*
X126905152Y-74676190D01*
X126905152Y-74676190D02*
X126943247Y-74752380D01*
X126943247Y-74752380D02*
X126981342Y-74790475D01*
X126981342Y-74790475D02*
X127057533Y-74828571D01*
X127057533Y-74828571D02*
X127209914Y-74828571D01*
X127209914Y-74828571D02*
X127286104Y-74790475D01*
X127286104Y-74790475D02*
X127324200Y-74752380D01*
X127324200Y-74752380D02*
X127362295Y-74676190D01*
X127362295Y-74676190D02*
X127362295Y-74523809D01*
X127362295Y-74523809D02*
X127324200Y-74447618D01*
X127324200Y-74447618D02*
X127286104Y-74409523D01*
X127286104Y-74409523D02*
X127209914Y-74371428D01*
X127209914Y-74371428D02*
X127057533Y-74371428D01*
X127057533Y-74371428D02*
X126981342Y-74409523D01*
X126981342Y-74409523D02*
X126943247Y-74447618D01*
X126943247Y-74447618D02*
X126905152Y-74523809D01*
X108534380Y-114046295D02*
X108534380Y-114617723D01*
X108534380Y-114617723D02*
X108496285Y-114732009D01*
X108496285Y-114732009D02*
X108420094Y-114808200D01*
X108420094Y-114808200D02*
X108305809Y-114846295D01*
X108305809Y-114846295D02*
X108229618Y-114846295D01*
X109334380Y-114846295D02*
X108877237Y-114846295D01*
X109105809Y-114846295D02*
X109105809Y-114046295D01*
X109105809Y-114046295D02*
X109029618Y-114160580D01*
X109029618Y-114160580D02*
X108953428Y-114236771D01*
X108953428Y-114236771D02*
X108877237Y-114274866D01*
X109601047Y-114046295D02*
X110096285Y-114046295D01*
X110096285Y-114046295D02*
X109829619Y-114351057D01*
X109829619Y-114351057D02*
X109943904Y-114351057D01*
X109943904Y-114351057D02*
X110020095Y-114389152D01*
X110020095Y-114389152D02*
X110058190Y-114427247D01*
X110058190Y-114427247D02*
X110096285Y-114503438D01*
X110096285Y-114503438D02*
X110096285Y-114693914D01*
X110096285Y-114693914D02*
X110058190Y-114770104D01*
X110058190Y-114770104D02*
X110020095Y-114808200D01*
X110020095Y-114808200D02*
X109943904Y-114846295D01*
X109943904Y-114846295D02*
X109715333Y-114846295D01*
X109715333Y-114846295D02*
X109639142Y-114808200D01*
X109639142Y-114808200D02*
X109601047Y-114770104D01*
X73793571Y-98085895D02*
X73793571Y-97285895D01*
X73793571Y-97285895D02*
X73984047Y-97285895D01*
X73984047Y-97285895D02*
X74098333Y-97323990D01*
X74098333Y-97323990D02*
X74174523Y-97400180D01*
X74174523Y-97400180D02*
X74212618Y-97476371D01*
X74212618Y-97476371D02*
X74250714Y-97628752D01*
X74250714Y-97628752D02*
X74250714Y-97743038D01*
X74250714Y-97743038D02*
X74212618Y-97895419D01*
X74212618Y-97895419D02*
X74174523Y-97971609D01*
X74174523Y-97971609D02*
X74098333Y-98047800D01*
X74098333Y-98047800D02*
X73984047Y-98085895D01*
X73984047Y-98085895D02*
X73793571Y-98085895D01*
X75012618Y-98085895D02*
X74555475Y-98085895D01*
X74784047Y-98085895D02*
X74784047Y-97285895D01*
X74784047Y-97285895D02*
X74707856Y-97400180D01*
X74707856Y-97400180D02*
X74631666Y-97476371D01*
X74631666Y-97476371D02*
X74555475Y-97514466D01*
X75279285Y-97285895D02*
X75774523Y-97285895D01*
X75774523Y-97285895D02*
X75507857Y-97590657D01*
X75507857Y-97590657D02*
X75622142Y-97590657D01*
X75622142Y-97590657D02*
X75698333Y-97628752D01*
X75698333Y-97628752D02*
X75736428Y-97666847D01*
X75736428Y-97666847D02*
X75774523Y-97743038D01*
X75774523Y-97743038D02*
X75774523Y-97933514D01*
X75774523Y-97933514D02*
X75736428Y-98009704D01*
X75736428Y-98009704D02*
X75698333Y-98047800D01*
X75698333Y-98047800D02*
X75622142Y-98085895D01*
X75622142Y-98085895D02*
X75393571Y-98085895D01*
X75393571Y-98085895D02*
X75317380Y-98047800D01*
X75317380Y-98047800D02*
X75279285Y-98009704D01*
X127362295Y-79590475D02*
X126562295Y-79590475D01*
X126562295Y-79590475D02*
X126562295Y-79399999D01*
X126562295Y-79399999D02*
X126600390Y-79285713D01*
X126600390Y-79285713D02*
X126676580Y-79209523D01*
X126676580Y-79209523D02*
X126752771Y-79171428D01*
X126752771Y-79171428D02*
X126905152Y-79133332D01*
X126905152Y-79133332D02*
X127019438Y-79133332D01*
X127019438Y-79133332D02*
X127171819Y-79171428D01*
X127171819Y-79171428D02*
X127248009Y-79209523D01*
X127248009Y-79209523D02*
X127324200Y-79285713D01*
X127324200Y-79285713D02*
X127362295Y-79399999D01*
X127362295Y-79399999D02*
X127362295Y-79590475D01*
X127362295Y-78752380D02*
X127362295Y-78599999D01*
X127362295Y-78599999D02*
X127324200Y-78523809D01*
X127324200Y-78523809D02*
X127286104Y-78485713D01*
X127286104Y-78485713D02*
X127171819Y-78409523D01*
X127171819Y-78409523D02*
X127019438Y-78371428D01*
X127019438Y-78371428D02*
X126714676Y-78371428D01*
X126714676Y-78371428D02*
X126638485Y-78409523D01*
X126638485Y-78409523D02*
X126600390Y-78447618D01*
X126600390Y-78447618D02*
X126562295Y-78523809D01*
X126562295Y-78523809D02*
X126562295Y-78676190D01*
X126562295Y-78676190D02*
X126600390Y-78752380D01*
X126600390Y-78752380D02*
X126638485Y-78790475D01*
X126638485Y-78790475D02*
X126714676Y-78828571D01*
X126714676Y-78828571D02*
X126905152Y-78828571D01*
X126905152Y-78828571D02*
X126981342Y-78790475D01*
X126981342Y-78790475D02*
X127019438Y-78752380D01*
X127019438Y-78752380D02*
X127057533Y-78676190D01*
X127057533Y-78676190D02*
X127057533Y-78523809D01*
X127057533Y-78523809D02*
X127019438Y-78447618D01*
X127019438Y-78447618D02*
X126981342Y-78409523D01*
X126981342Y-78409523D02*
X126905152Y-78371428D01*
X53538695Y-119691419D02*
X54110123Y-119691419D01*
X54110123Y-119691419D02*
X54224409Y-119729514D01*
X54224409Y-119729514D02*
X54300600Y-119805705D01*
X54300600Y-119805705D02*
X54338695Y-119919990D01*
X54338695Y-119919990D02*
X54338695Y-119996181D01*
X54338695Y-118891419D02*
X54338695Y-119348562D01*
X54338695Y-119119990D02*
X53538695Y-119119990D01*
X53538695Y-119119990D02*
X53652980Y-119196181D01*
X53652980Y-119196181D02*
X53729171Y-119272371D01*
X53729171Y-119272371D02*
X53767266Y-119348562D01*
X54338695Y-118129514D02*
X54338695Y-118586657D01*
X54338695Y-118358085D02*
X53538695Y-118358085D01*
X53538695Y-118358085D02*
X53652980Y-118434276D01*
X53652980Y-118434276D02*
X53729171Y-118510466D01*
X53729171Y-118510466D02*
X53767266Y-118586657D01*
X109169333Y-124262295D02*
X109169333Y-124833723D01*
X109169333Y-124833723D02*
X109131238Y-124948009D01*
X109131238Y-124948009D02*
X109055047Y-125024200D01*
X109055047Y-125024200D02*
X108940762Y-125062295D01*
X108940762Y-125062295D02*
X108864571Y-125062295D01*
X109664571Y-124605152D02*
X109588381Y-124567057D01*
X109588381Y-124567057D02*
X109550286Y-124528961D01*
X109550286Y-124528961D02*
X109512190Y-124452771D01*
X109512190Y-124452771D02*
X109512190Y-124414676D01*
X109512190Y-124414676D02*
X109550286Y-124338485D01*
X109550286Y-124338485D02*
X109588381Y-124300390D01*
X109588381Y-124300390D02*
X109664571Y-124262295D01*
X109664571Y-124262295D02*
X109816952Y-124262295D01*
X109816952Y-124262295D02*
X109893143Y-124300390D01*
X109893143Y-124300390D02*
X109931238Y-124338485D01*
X109931238Y-124338485D02*
X109969333Y-124414676D01*
X109969333Y-124414676D02*
X109969333Y-124452771D01*
X109969333Y-124452771D02*
X109931238Y-124528961D01*
X109931238Y-124528961D02*
X109893143Y-124567057D01*
X109893143Y-124567057D02*
X109816952Y-124605152D01*
X109816952Y-124605152D02*
X109664571Y-124605152D01*
X109664571Y-124605152D02*
X109588381Y-124643247D01*
X109588381Y-124643247D02*
X109550286Y-124681342D01*
X109550286Y-124681342D02*
X109512190Y-124757533D01*
X109512190Y-124757533D02*
X109512190Y-124909914D01*
X109512190Y-124909914D02*
X109550286Y-124986104D01*
X109550286Y-124986104D02*
X109588381Y-125024200D01*
X109588381Y-125024200D02*
X109664571Y-125062295D01*
X109664571Y-125062295D02*
X109816952Y-125062295D01*
X109816952Y-125062295D02*
X109893143Y-125024200D01*
X109893143Y-125024200D02*
X109931238Y-124986104D01*
X109931238Y-124986104D02*
X109969333Y-124909914D01*
X109969333Y-124909914D02*
X109969333Y-124757533D01*
X109969333Y-124757533D02*
X109931238Y-124681342D01*
X109931238Y-124681342D02*
X109893143Y-124643247D01*
X109893143Y-124643247D02*
X109816952Y-124605152D01*
X69640895Y-116043285D02*
X69259942Y-116309952D01*
X69640895Y-116500428D02*
X68840895Y-116500428D01*
X68840895Y-116500428D02*
X68840895Y-116195666D01*
X68840895Y-116195666D02*
X68878990Y-116119476D01*
X68878990Y-116119476D02*
X68917085Y-116081381D01*
X68917085Y-116081381D02*
X68993276Y-116043285D01*
X68993276Y-116043285D02*
X69107561Y-116043285D01*
X69107561Y-116043285D02*
X69183752Y-116081381D01*
X69183752Y-116081381D02*
X69221847Y-116119476D01*
X69221847Y-116119476D02*
X69259942Y-116195666D01*
X69259942Y-116195666D02*
X69259942Y-116500428D01*
X68840895Y-115776619D02*
X68840895Y-115281381D01*
X68840895Y-115281381D02*
X69145657Y-115548047D01*
X69145657Y-115548047D02*
X69145657Y-115433762D01*
X69145657Y-115433762D02*
X69183752Y-115357571D01*
X69183752Y-115357571D02*
X69221847Y-115319476D01*
X69221847Y-115319476D02*
X69298038Y-115281381D01*
X69298038Y-115281381D02*
X69488514Y-115281381D01*
X69488514Y-115281381D02*
X69564704Y-115319476D01*
X69564704Y-115319476D02*
X69602800Y-115357571D01*
X69602800Y-115357571D02*
X69640895Y-115433762D01*
X69640895Y-115433762D02*
X69640895Y-115662333D01*
X69640895Y-115662333D02*
X69602800Y-115738524D01*
X69602800Y-115738524D02*
X69564704Y-115776619D01*
X69640895Y-114900428D02*
X69640895Y-114748047D01*
X69640895Y-114748047D02*
X69602800Y-114671857D01*
X69602800Y-114671857D02*
X69564704Y-114633761D01*
X69564704Y-114633761D02*
X69450419Y-114557571D01*
X69450419Y-114557571D02*
X69298038Y-114519476D01*
X69298038Y-114519476D02*
X68993276Y-114519476D01*
X68993276Y-114519476D02*
X68917085Y-114557571D01*
X68917085Y-114557571D02*
X68878990Y-114595666D01*
X68878990Y-114595666D02*
X68840895Y-114671857D01*
X68840895Y-114671857D02*
X68840895Y-114824238D01*
X68840895Y-114824238D02*
X68878990Y-114900428D01*
X68878990Y-114900428D02*
X68917085Y-114938523D01*
X68917085Y-114938523D02*
X68993276Y-114976619D01*
X68993276Y-114976619D02*
X69183752Y-114976619D01*
X69183752Y-114976619D02*
X69259942Y-114938523D01*
X69259942Y-114938523D02*
X69298038Y-114900428D01*
X69298038Y-114900428D02*
X69336133Y-114824238D01*
X69336133Y-114824238D02*
X69336133Y-114671857D01*
X69336133Y-114671857D02*
X69298038Y-114595666D01*
X69298038Y-114595666D02*
X69259942Y-114557571D01*
X69259942Y-114557571D02*
X69183752Y-114519476D01*
X73826467Y-99784904D02*
X73788371Y-99823000D01*
X73788371Y-99823000D02*
X73674086Y-99861095D01*
X73674086Y-99861095D02*
X73597895Y-99861095D01*
X73597895Y-99861095D02*
X73483609Y-99823000D01*
X73483609Y-99823000D02*
X73407419Y-99746809D01*
X73407419Y-99746809D02*
X73369324Y-99670619D01*
X73369324Y-99670619D02*
X73331228Y-99518238D01*
X73331228Y-99518238D02*
X73331228Y-99403952D01*
X73331228Y-99403952D02*
X73369324Y-99251571D01*
X73369324Y-99251571D02*
X73407419Y-99175380D01*
X73407419Y-99175380D02*
X73483609Y-99099190D01*
X73483609Y-99099190D02*
X73597895Y-99061095D01*
X73597895Y-99061095D02*
X73674086Y-99061095D01*
X73674086Y-99061095D02*
X73788371Y-99099190D01*
X73788371Y-99099190D02*
X73826467Y-99137285D01*
X74512181Y-99061095D02*
X74359800Y-99061095D01*
X74359800Y-99061095D02*
X74283609Y-99099190D01*
X74283609Y-99099190D02*
X74245514Y-99137285D01*
X74245514Y-99137285D02*
X74169324Y-99251571D01*
X74169324Y-99251571D02*
X74131228Y-99403952D01*
X74131228Y-99403952D02*
X74131228Y-99708714D01*
X74131228Y-99708714D02*
X74169324Y-99784904D01*
X74169324Y-99784904D02*
X74207419Y-99823000D01*
X74207419Y-99823000D02*
X74283609Y-99861095D01*
X74283609Y-99861095D02*
X74435990Y-99861095D01*
X74435990Y-99861095D02*
X74512181Y-99823000D01*
X74512181Y-99823000D02*
X74550276Y-99784904D01*
X74550276Y-99784904D02*
X74588371Y-99708714D01*
X74588371Y-99708714D02*
X74588371Y-99518238D01*
X74588371Y-99518238D02*
X74550276Y-99442047D01*
X74550276Y-99442047D02*
X74512181Y-99403952D01*
X74512181Y-99403952D02*
X74435990Y-99365857D01*
X74435990Y-99365857D02*
X74283609Y-99365857D01*
X74283609Y-99365857D02*
X74207419Y-99403952D01*
X74207419Y-99403952D02*
X74169324Y-99442047D01*
X74169324Y-99442047D02*
X74131228Y-99518238D01*
X73920467Y-103825904D02*
X73882371Y-103864000D01*
X73882371Y-103864000D02*
X73768086Y-103902095D01*
X73768086Y-103902095D02*
X73691895Y-103902095D01*
X73691895Y-103902095D02*
X73577609Y-103864000D01*
X73577609Y-103864000D02*
X73501419Y-103787809D01*
X73501419Y-103787809D02*
X73463324Y-103711619D01*
X73463324Y-103711619D02*
X73425228Y-103559238D01*
X73425228Y-103559238D02*
X73425228Y-103444952D01*
X73425228Y-103444952D02*
X73463324Y-103292571D01*
X73463324Y-103292571D02*
X73501419Y-103216380D01*
X73501419Y-103216380D02*
X73577609Y-103140190D01*
X73577609Y-103140190D02*
X73691895Y-103102095D01*
X73691895Y-103102095D02*
X73768086Y-103102095D01*
X73768086Y-103102095D02*
X73882371Y-103140190D01*
X73882371Y-103140190D02*
X73920467Y-103178285D01*
X74377609Y-103444952D02*
X74301419Y-103406857D01*
X74301419Y-103406857D02*
X74263324Y-103368761D01*
X74263324Y-103368761D02*
X74225228Y-103292571D01*
X74225228Y-103292571D02*
X74225228Y-103254476D01*
X74225228Y-103254476D02*
X74263324Y-103178285D01*
X74263324Y-103178285D02*
X74301419Y-103140190D01*
X74301419Y-103140190D02*
X74377609Y-103102095D01*
X74377609Y-103102095D02*
X74529990Y-103102095D01*
X74529990Y-103102095D02*
X74606181Y-103140190D01*
X74606181Y-103140190D02*
X74644276Y-103178285D01*
X74644276Y-103178285D02*
X74682371Y-103254476D01*
X74682371Y-103254476D02*
X74682371Y-103292571D01*
X74682371Y-103292571D02*
X74644276Y-103368761D01*
X74644276Y-103368761D02*
X74606181Y-103406857D01*
X74606181Y-103406857D02*
X74529990Y-103444952D01*
X74529990Y-103444952D02*
X74377609Y-103444952D01*
X74377609Y-103444952D02*
X74301419Y-103483047D01*
X74301419Y-103483047D02*
X74263324Y-103521142D01*
X74263324Y-103521142D02*
X74225228Y-103597333D01*
X74225228Y-103597333D02*
X74225228Y-103749714D01*
X74225228Y-103749714D02*
X74263324Y-103825904D01*
X74263324Y-103825904D02*
X74301419Y-103864000D01*
X74301419Y-103864000D02*
X74377609Y-103902095D01*
X74377609Y-103902095D02*
X74529990Y-103902095D01*
X74529990Y-103902095D02*
X74606181Y-103864000D01*
X74606181Y-103864000D02*
X74644276Y-103825904D01*
X74644276Y-103825904D02*
X74682371Y-103749714D01*
X74682371Y-103749714D02*
X74682371Y-103597333D01*
X74682371Y-103597333D02*
X74644276Y-103521142D01*
X74644276Y-103521142D02*
X74606181Y-103483047D01*
X74606181Y-103483047D02*
X74529990Y-103444952D01*
X131642295Y-59577550D02*
X130842295Y-59577550D01*
X130842295Y-59577550D02*
X130842295Y-59387074D01*
X130842295Y-59387074D02*
X130880390Y-59272788D01*
X130880390Y-59272788D02*
X130956580Y-59196598D01*
X130956580Y-59196598D02*
X131032771Y-59158503D01*
X131032771Y-59158503D02*
X131185152Y-59120407D01*
X131185152Y-59120407D02*
X131299438Y-59120407D01*
X131299438Y-59120407D02*
X131451819Y-59158503D01*
X131451819Y-59158503D02*
X131528009Y-59196598D01*
X131528009Y-59196598D02*
X131604200Y-59272788D01*
X131604200Y-59272788D02*
X131642295Y-59387074D01*
X131642295Y-59387074D02*
X131642295Y-59577550D01*
X130842295Y-58396598D02*
X130842295Y-58777550D01*
X130842295Y-58777550D02*
X131223247Y-58815646D01*
X131223247Y-58815646D02*
X131185152Y-58777550D01*
X131185152Y-58777550D02*
X131147057Y-58701360D01*
X131147057Y-58701360D02*
X131147057Y-58510884D01*
X131147057Y-58510884D02*
X131185152Y-58434693D01*
X131185152Y-58434693D02*
X131223247Y-58396598D01*
X131223247Y-58396598D02*
X131299438Y-58358503D01*
X131299438Y-58358503D02*
X131489914Y-58358503D01*
X131489914Y-58358503D02*
X131566104Y-58396598D01*
X131566104Y-58396598D02*
X131604200Y-58434693D01*
X131604200Y-58434693D02*
X131642295Y-58510884D01*
X131642295Y-58510884D02*
X131642295Y-58701360D01*
X131642295Y-58701360D02*
X131604200Y-58777550D01*
X131604200Y-58777550D02*
X131566104Y-58815646D01*
X83164098Y-79918485D02*
X83087908Y-79880390D01*
X83087908Y-79880390D02*
X83011717Y-79804200D01*
X83011717Y-79804200D02*
X82897431Y-79689914D01*
X82897431Y-79689914D02*
X82821241Y-79651819D01*
X82821241Y-79651819D02*
X82745050Y-79651819D01*
X82783146Y-79842295D02*
X82706955Y-79804200D01*
X82706955Y-79804200D02*
X82630765Y-79728009D01*
X82630765Y-79728009D02*
X82592669Y-79575628D01*
X82592669Y-79575628D02*
X82592669Y-79308961D01*
X82592669Y-79308961D02*
X82630765Y-79156580D01*
X82630765Y-79156580D02*
X82706955Y-79080390D01*
X82706955Y-79080390D02*
X82783146Y-79042295D01*
X82783146Y-79042295D02*
X82935527Y-79042295D01*
X82935527Y-79042295D02*
X83011717Y-79080390D01*
X83011717Y-79080390D02*
X83087908Y-79156580D01*
X83087908Y-79156580D02*
X83126003Y-79308961D01*
X83126003Y-79308961D02*
X83126003Y-79575628D01*
X83126003Y-79575628D02*
X83087908Y-79728009D01*
X83087908Y-79728009D02*
X83011717Y-79804200D01*
X83011717Y-79804200D02*
X82935527Y-79842295D01*
X82935527Y-79842295D02*
X82783146Y-79842295D01*
X83392669Y-79042295D02*
X83887907Y-79042295D01*
X83887907Y-79042295D02*
X83621241Y-79347057D01*
X83621241Y-79347057D02*
X83735526Y-79347057D01*
X83735526Y-79347057D02*
X83811717Y-79385152D01*
X83811717Y-79385152D02*
X83849812Y-79423247D01*
X83849812Y-79423247D02*
X83887907Y-79499438D01*
X83887907Y-79499438D02*
X83887907Y-79689914D01*
X83887907Y-79689914D02*
X83849812Y-79766104D01*
X83849812Y-79766104D02*
X83811717Y-79804200D01*
X83811717Y-79804200D02*
X83735526Y-79842295D01*
X83735526Y-79842295D02*
X83506955Y-79842295D01*
X83506955Y-79842295D02*
X83430764Y-79804200D01*
X83430764Y-79804200D02*
X83392669Y-79766104D01*
X131642295Y-64551700D02*
X130842295Y-64551700D01*
X130842295Y-64551700D02*
X130842295Y-64361224D01*
X130842295Y-64361224D02*
X130880390Y-64246938D01*
X130880390Y-64246938D02*
X130956580Y-64170748D01*
X130956580Y-64170748D02*
X131032771Y-64132653D01*
X131032771Y-64132653D02*
X131185152Y-64094557D01*
X131185152Y-64094557D02*
X131299438Y-64094557D01*
X131299438Y-64094557D02*
X131451819Y-64132653D01*
X131451819Y-64132653D02*
X131528009Y-64170748D01*
X131528009Y-64170748D02*
X131604200Y-64246938D01*
X131604200Y-64246938D02*
X131642295Y-64361224D01*
X131642295Y-64361224D02*
X131642295Y-64551700D01*
X130842295Y-63827891D02*
X130842295Y-63332653D01*
X130842295Y-63332653D02*
X131147057Y-63599319D01*
X131147057Y-63599319D02*
X131147057Y-63485034D01*
X131147057Y-63485034D02*
X131185152Y-63408843D01*
X131185152Y-63408843D02*
X131223247Y-63370748D01*
X131223247Y-63370748D02*
X131299438Y-63332653D01*
X131299438Y-63332653D02*
X131489914Y-63332653D01*
X131489914Y-63332653D02*
X131566104Y-63370748D01*
X131566104Y-63370748D02*
X131604200Y-63408843D01*
X131604200Y-63408843D02*
X131642295Y-63485034D01*
X131642295Y-63485034D02*
X131642295Y-63713605D01*
X131642295Y-63713605D02*
X131604200Y-63789796D01*
X131604200Y-63789796D02*
X131566104Y-63827891D01*
X124839296Y-57014285D02*
X124458343Y-57280952D01*
X124839296Y-57471428D02*
X124039296Y-57471428D01*
X124039296Y-57471428D02*
X124039296Y-57166666D01*
X124039296Y-57166666D02*
X124077391Y-57090476D01*
X124077391Y-57090476D02*
X124115486Y-57052381D01*
X124115486Y-57052381D02*
X124191677Y-57014285D01*
X124191677Y-57014285D02*
X124305962Y-57014285D01*
X124305962Y-57014285D02*
X124382153Y-57052381D01*
X124382153Y-57052381D02*
X124420248Y-57090476D01*
X124420248Y-57090476D02*
X124458343Y-57166666D01*
X124458343Y-57166666D02*
X124458343Y-57471428D01*
X124839296Y-56252381D02*
X124839296Y-56709524D01*
X124839296Y-56480952D02*
X124039296Y-56480952D01*
X124039296Y-56480952D02*
X124153581Y-56557143D01*
X124153581Y-56557143D02*
X124229772Y-56633333D01*
X124229772Y-56633333D02*
X124267867Y-56709524D01*
X124039296Y-55985714D02*
X124039296Y-55490476D01*
X124039296Y-55490476D02*
X124344058Y-55757142D01*
X124344058Y-55757142D02*
X124344058Y-55642857D01*
X124344058Y-55642857D02*
X124382153Y-55566666D01*
X124382153Y-55566666D02*
X124420248Y-55528571D01*
X124420248Y-55528571D02*
X124496439Y-55490476D01*
X124496439Y-55490476D02*
X124686915Y-55490476D01*
X124686915Y-55490476D02*
X124763105Y-55528571D01*
X124763105Y-55528571D02*
X124801201Y-55566666D01*
X124801201Y-55566666D02*
X124839296Y-55642857D01*
X124839296Y-55642857D02*
X124839296Y-55871428D01*
X124839296Y-55871428D02*
X124801201Y-55947619D01*
X124801201Y-55947619D02*
X124763105Y-55985714D01*
X88690476Y-106562295D02*
X88690476Y-107209914D01*
X88690476Y-107209914D02*
X88728571Y-107286104D01*
X88728571Y-107286104D02*
X88766666Y-107324200D01*
X88766666Y-107324200D02*
X88842857Y-107362295D01*
X88842857Y-107362295D02*
X88995238Y-107362295D01*
X88995238Y-107362295D02*
X89071428Y-107324200D01*
X89071428Y-107324200D02*
X89109523Y-107286104D01*
X89109523Y-107286104D02*
X89147619Y-107209914D01*
X89147619Y-107209914D02*
X89147619Y-106562295D01*
X89566666Y-107362295D02*
X89719047Y-107362295D01*
X89719047Y-107362295D02*
X89795237Y-107324200D01*
X89795237Y-107324200D02*
X89833333Y-107286104D01*
X89833333Y-107286104D02*
X89909523Y-107171819D01*
X89909523Y-107171819D02*
X89947618Y-107019438D01*
X89947618Y-107019438D02*
X89947618Y-106714676D01*
X89947618Y-106714676D02*
X89909523Y-106638485D01*
X89909523Y-106638485D02*
X89871428Y-106600390D01*
X89871428Y-106600390D02*
X89795237Y-106562295D01*
X89795237Y-106562295D02*
X89642856Y-106562295D01*
X89642856Y-106562295D02*
X89566666Y-106600390D01*
X89566666Y-106600390D02*
X89528571Y-106638485D01*
X89528571Y-106638485D02*
X89490475Y-106714676D01*
X89490475Y-106714676D02*
X89490475Y-106905152D01*
X89490475Y-106905152D02*
X89528571Y-106981342D01*
X89528571Y-106981342D02*
X89566666Y-107019438D01*
X89566666Y-107019438D02*
X89642856Y-107057533D01*
X89642856Y-107057533D02*
X89795237Y-107057533D01*
X89795237Y-107057533D02*
X89871428Y-107019438D01*
X89871428Y-107019438D02*
X89909523Y-106981342D01*
X89909523Y-106981342D02*
X89947618Y-106905152D01*
X41704819Y-79311904D02*
X42514342Y-79311904D01*
X42514342Y-79311904D02*
X42609580Y-79264285D01*
X42609580Y-79264285D02*
X42657200Y-79216666D01*
X42657200Y-79216666D02*
X42704819Y-79121428D01*
X42704819Y-79121428D02*
X42704819Y-78930952D01*
X42704819Y-78930952D02*
X42657200Y-78835714D01*
X42657200Y-78835714D02*
X42609580Y-78788095D01*
X42609580Y-78788095D02*
X42514342Y-78740476D01*
X42514342Y-78740476D02*
X41704819Y-78740476D01*
X42704819Y-77740476D02*
X42704819Y-78311904D01*
X42704819Y-78026190D02*
X41704819Y-78026190D01*
X41704819Y-78026190D02*
X41847676Y-78121428D01*
X41847676Y-78121428D02*
X41942914Y-78216666D01*
X41942914Y-78216666D02*
X41990533Y-78311904D01*
X46719104Y-83311905D02*
X46719104Y-82835715D01*
X47004819Y-83407143D02*
X46004819Y-83073810D01*
X46004819Y-83073810D02*
X47004819Y-82740477D01*
X46338152Y-82407143D02*
X47004819Y-82407143D01*
X46433390Y-82407143D02*
X46385771Y-82359524D01*
X46385771Y-82359524D02*
X46338152Y-82264286D01*
X46338152Y-82264286D02*
X46338152Y-82121429D01*
X46338152Y-82121429D02*
X46385771Y-82026191D01*
X46385771Y-82026191D02*
X46481009Y-81978572D01*
X46481009Y-81978572D02*
X47004819Y-81978572D01*
X46338152Y-81645238D02*
X46338152Y-81264286D01*
X46004819Y-81502381D02*
X46861961Y-81502381D01*
X46861961Y-81502381D02*
X46957200Y-81454762D01*
X46957200Y-81454762D02*
X47004819Y-81359524D01*
X47004819Y-81359524D02*
X47004819Y-81264286D01*
X46957200Y-80550000D02*
X47004819Y-80645238D01*
X47004819Y-80645238D02*
X47004819Y-80835714D01*
X47004819Y-80835714D02*
X46957200Y-80930952D01*
X46957200Y-80930952D02*
X46861961Y-80978571D01*
X46861961Y-80978571D02*
X46481009Y-80978571D01*
X46481009Y-80978571D02*
X46385771Y-80930952D01*
X46385771Y-80930952D02*
X46338152Y-80835714D01*
X46338152Y-80835714D02*
X46338152Y-80645238D01*
X46338152Y-80645238D02*
X46385771Y-80550000D01*
X46385771Y-80550000D02*
X46481009Y-80502381D01*
X46481009Y-80502381D02*
X46576247Y-80502381D01*
X46576247Y-80502381D02*
X46671485Y-80978571D01*
X46338152Y-80073809D02*
X47004819Y-80073809D01*
X46433390Y-80073809D02*
X46385771Y-80026190D01*
X46385771Y-80026190D02*
X46338152Y-79930952D01*
X46338152Y-79930952D02*
X46338152Y-79788095D01*
X46338152Y-79788095D02*
X46385771Y-79692857D01*
X46385771Y-79692857D02*
X46481009Y-79645238D01*
X46481009Y-79645238D02*
X47004819Y-79645238D01*
X46338152Y-79169047D02*
X47004819Y-79169047D01*
X46433390Y-79169047D02*
X46385771Y-79121428D01*
X46385771Y-79121428D02*
X46338152Y-79026190D01*
X46338152Y-79026190D02*
X46338152Y-78883333D01*
X46338152Y-78883333D02*
X46385771Y-78788095D01*
X46385771Y-78788095D02*
X46481009Y-78740476D01*
X46481009Y-78740476D02*
X47004819Y-78740476D01*
X47004819Y-77835714D02*
X46481009Y-77835714D01*
X46481009Y-77835714D02*
X46385771Y-77883333D01*
X46385771Y-77883333D02*
X46338152Y-77978571D01*
X46338152Y-77978571D02*
X46338152Y-78169047D01*
X46338152Y-78169047D02*
X46385771Y-78264285D01*
X46957200Y-77835714D02*
X47004819Y-77930952D01*
X47004819Y-77930952D02*
X47004819Y-78169047D01*
X47004819Y-78169047D02*
X46957200Y-78264285D01*
X46957200Y-78264285D02*
X46861961Y-78311904D01*
X46861961Y-78311904D02*
X46766723Y-78311904D01*
X46766723Y-78311904D02*
X46671485Y-78264285D01*
X46671485Y-78264285D02*
X46623866Y-78169047D01*
X46623866Y-78169047D02*
X46623866Y-77930952D01*
X46623866Y-77930952D02*
X46576247Y-77835714D01*
X46719104Y-76645237D02*
X46719104Y-76169047D01*
X47004819Y-76740475D02*
X46004819Y-76407142D01*
X46004819Y-76407142D02*
X47004819Y-76073809D01*
X47004819Y-75740475D02*
X46338152Y-75740475D01*
X46528628Y-75740475D02*
X46433390Y-75692856D01*
X46433390Y-75692856D02*
X46385771Y-75645237D01*
X46385771Y-75645237D02*
X46338152Y-75549999D01*
X46338152Y-75549999D02*
X46338152Y-75454761D01*
X46957200Y-74740475D02*
X47004819Y-74835713D01*
X47004819Y-74835713D02*
X47004819Y-75026189D01*
X47004819Y-75026189D02*
X46957200Y-75121427D01*
X46957200Y-75121427D02*
X46861961Y-75169046D01*
X46861961Y-75169046D02*
X46481009Y-75169046D01*
X46481009Y-75169046D02*
X46385771Y-75121427D01*
X46385771Y-75121427D02*
X46338152Y-75026189D01*
X46338152Y-75026189D02*
X46338152Y-74835713D01*
X46338152Y-74835713D02*
X46385771Y-74740475D01*
X46385771Y-74740475D02*
X46481009Y-74692856D01*
X46481009Y-74692856D02*
X46576247Y-74692856D01*
X46576247Y-74692856D02*
X46671485Y-75169046D01*
X47004819Y-73835713D02*
X46481009Y-73835713D01*
X46481009Y-73835713D02*
X46385771Y-73883332D01*
X46385771Y-73883332D02*
X46338152Y-73978570D01*
X46338152Y-73978570D02*
X46338152Y-74169046D01*
X46338152Y-74169046D02*
X46385771Y-74264284D01*
X46957200Y-73835713D02*
X47004819Y-73930951D01*
X47004819Y-73930951D02*
X47004819Y-74169046D01*
X47004819Y-74169046D02*
X46957200Y-74264284D01*
X46957200Y-74264284D02*
X46861961Y-74311903D01*
X46861961Y-74311903D02*
X46766723Y-74311903D01*
X46766723Y-74311903D02*
X46671485Y-74264284D01*
X46671485Y-74264284D02*
X46623866Y-74169046D01*
X46623866Y-74169046D02*
X46623866Y-73930951D01*
X46623866Y-73930951D02*
X46576247Y-73835713D01*
X117043333Y-124262295D02*
X117043333Y-124833723D01*
X117043333Y-124833723D02*
X117005238Y-124948009D01*
X117005238Y-124948009D02*
X116929047Y-125024200D01*
X116929047Y-125024200D02*
X116814762Y-125062295D01*
X116814762Y-125062295D02*
X116738571Y-125062295D01*
X117348095Y-124262295D02*
X117881429Y-124262295D01*
X117881429Y-124262295D02*
X117538571Y-125062295D01*
X140167295Y-76886666D02*
X140738723Y-76886666D01*
X140738723Y-76886666D02*
X140853009Y-76924761D01*
X140853009Y-76924761D02*
X140929200Y-77000952D01*
X140929200Y-77000952D02*
X140967295Y-77115237D01*
X140967295Y-77115237D02*
X140967295Y-77191428D01*
X140167295Y-76581904D02*
X140167295Y-76086666D01*
X140167295Y-76086666D02*
X140472057Y-76353332D01*
X140472057Y-76353332D02*
X140472057Y-76239047D01*
X140472057Y-76239047D02*
X140510152Y-76162856D01*
X140510152Y-76162856D02*
X140548247Y-76124761D01*
X140548247Y-76124761D02*
X140624438Y-76086666D01*
X140624438Y-76086666D02*
X140814914Y-76086666D01*
X140814914Y-76086666D02*
X140891104Y-76124761D01*
X140891104Y-76124761D02*
X140929200Y-76162856D01*
X140929200Y-76162856D02*
X140967295Y-76239047D01*
X140967295Y-76239047D02*
X140967295Y-76467618D01*
X140967295Y-76467618D02*
X140929200Y-76543809D01*
X140929200Y-76543809D02*
X140891104Y-76581904D01*
X124839296Y-69133332D02*
X124458343Y-69399999D01*
X124839296Y-69590475D02*
X124039296Y-69590475D01*
X124039296Y-69590475D02*
X124039296Y-69285713D01*
X124039296Y-69285713D02*
X124077391Y-69209523D01*
X124077391Y-69209523D02*
X124115486Y-69171428D01*
X124115486Y-69171428D02*
X124191677Y-69133332D01*
X124191677Y-69133332D02*
X124305962Y-69133332D01*
X124305962Y-69133332D02*
X124382153Y-69171428D01*
X124382153Y-69171428D02*
X124420248Y-69209523D01*
X124420248Y-69209523D02*
X124458343Y-69285713D01*
X124458343Y-69285713D02*
X124458343Y-69590475D01*
X124382153Y-68676190D02*
X124344058Y-68752380D01*
X124344058Y-68752380D02*
X124305962Y-68790475D01*
X124305962Y-68790475D02*
X124229772Y-68828571D01*
X124229772Y-68828571D02*
X124191677Y-68828571D01*
X124191677Y-68828571D02*
X124115486Y-68790475D01*
X124115486Y-68790475D02*
X124077391Y-68752380D01*
X124077391Y-68752380D02*
X124039296Y-68676190D01*
X124039296Y-68676190D02*
X124039296Y-68523809D01*
X124039296Y-68523809D02*
X124077391Y-68447618D01*
X124077391Y-68447618D02*
X124115486Y-68409523D01*
X124115486Y-68409523D02*
X124191677Y-68371428D01*
X124191677Y-68371428D02*
X124229772Y-68371428D01*
X124229772Y-68371428D02*
X124305962Y-68409523D01*
X124305962Y-68409523D02*
X124344058Y-68447618D01*
X124344058Y-68447618D02*
X124382153Y-68523809D01*
X124382153Y-68523809D02*
X124382153Y-68676190D01*
X124382153Y-68676190D02*
X124420248Y-68752380D01*
X124420248Y-68752380D02*
X124458343Y-68790475D01*
X124458343Y-68790475D02*
X124534534Y-68828571D01*
X124534534Y-68828571D02*
X124686915Y-68828571D01*
X124686915Y-68828571D02*
X124763105Y-68790475D01*
X124763105Y-68790475D02*
X124801201Y-68752380D01*
X124801201Y-68752380D02*
X124839296Y-68676190D01*
X124839296Y-68676190D02*
X124839296Y-68523809D01*
X124839296Y-68523809D02*
X124801201Y-68447618D01*
X124801201Y-68447618D02*
X124763105Y-68409523D01*
X124763105Y-68409523D02*
X124686915Y-68371428D01*
X124686915Y-68371428D02*
X124534534Y-68371428D01*
X124534534Y-68371428D02*
X124458343Y-68409523D01*
X124458343Y-68409523D02*
X124420248Y-68447618D01*
X124420248Y-68447618D02*
X124382153Y-68523809D01*
X84283714Y-100946104D02*
X84245618Y-100984200D01*
X84245618Y-100984200D02*
X84131333Y-101022295D01*
X84131333Y-101022295D02*
X84055142Y-101022295D01*
X84055142Y-101022295D02*
X83940856Y-100984200D01*
X83940856Y-100984200D02*
X83864666Y-100908009D01*
X83864666Y-100908009D02*
X83826571Y-100831819D01*
X83826571Y-100831819D02*
X83788475Y-100679438D01*
X83788475Y-100679438D02*
X83788475Y-100565152D01*
X83788475Y-100565152D02*
X83826571Y-100412771D01*
X83826571Y-100412771D02*
X83864666Y-100336580D01*
X83864666Y-100336580D02*
X83940856Y-100260390D01*
X83940856Y-100260390D02*
X84055142Y-100222295D01*
X84055142Y-100222295D02*
X84131333Y-100222295D01*
X84131333Y-100222295D02*
X84245618Y-100260390D01*
X84245618Y-100260390D02*
X84283714Y-100298485D01*
X85045618Y-101022295D02*
X84588475Y-101022295D01*
X84817047Y-101022295D02*
X84817047Y-100222295D01*
X84817047Y-100222295D02*
X84740856Y-100336580D01*
X84740856Y-100336580D02*
X84664666Y-100412771D01*
X84664666Y-100412771D02*
X84588475Y-100450866D01*
X85807523Y-101022295D02*
X85350380Y-101022295D01*
X85578952Y-101022295D02*
X85578952Y-100222295D01*
X85578952Y-100222295D02*
X85502761Y-100336580D01*
X85502761Y-100336580D02*
X85426571Y-100412771D01*
X85426571Y-100412771D02*
X85350380Y-100450866D01*
X138662295Y-83471428D02*
X137862295Y-83471428D01*
X137862295Y-83471428D02*
X137862295Y-83280952D01*
X137862295Y-83280952D02*
X137900390Y-83166666D01*
X137900390Y-83166666D02*
X137976580Y-83090476D01*
X137976580Y-83090476D02*
X138052771Y-83052381D01*
X138052771Y-83052381D02*
X138205152Y-83014285D01*
X138205152Y-83014285D02*
X138319438Y-83014285D01*
X138319438Y-83014285D02*
X138471819Y-83052381D01*
X138471819Y-83052381D02*
X138548009Y-83090476D01*
X138548009Y-83090476D02*
X138624200Y-83166666D01*
X138624200Y-83166666D02*
X138662295Y-83280952D01*
X138662295Y-83280952D02*
X138662295Y-83471428D01*
X138662295Y-82252381D02*
X138662295Y-82709524D01*
X138662295Y-82480952D02*
X137862295Y-82480952D01*
X137862295Y-82480952D02*
X137976580Y-82557143D01*
X137976580Y-82557143D02*
X138052771Y-82633333D01*
X138052771Y-82633333D02*
X138090866Y-82709524D01*
X138662295Y-81490476D02*
X138662295Y-81947619D01*
X138662295Y-81719047D02*
X137862295Y-81719047D01*
X137862295Y-81719047D02*
X137976580Y-81795238D01*
X137976580Y-81795238D02*
X138052771Y-81871428D01*
X138052771Y-81871428D02*
X138090866Y-81947619D01*
X131028571Y-83262295D02*
X131028571Y-82462295D01*
X131028571Y-82462295D02*
X131219047Y-82462295D01*
X131219047Y-82462295D02*
X131333333Y-82500390D01*
X131333333Y-82500390D02*
X131409523Y-82576580D01*
X131409523Y-82576580D02*
X131447618Y-82652771D01*
X131447618Y-82652771D02*
X131485714Y-82805152D01*
X131485714Y-82805152D02*
X131485714Y-82919438D01*
X131485714Y-82919438D02*
X131447618Y-83071819D01*
X131447618Y-83071819D02*
X131409523Y-83148009D01*
X131409523Y-83148009D02*
X131333333Y-83224200D01*
X131333333Y-83224200D02*
X131219047Y-83262295D01*
X131219047Y-83262295D02*
X131028571Y-83262295D01*
X132247618Y-83262295D02*
X131790475Y-83262295D01*
X132019047Y-83262295D02*
X132019047Y-82462295D01*
X132019047Y-82462295D02*
X131942856Y-82576580D01*
X131942856Y-82576580D02*
X131866666Y-82652771D01*
X131866666Y-82652771D02*
X131790475Y-82690866D01*
X132742857Y-82462295D02*
X132819047Y-82462295D01*
X132819047Y-82462295D02*
X132895238Y-82500390D01*
X132895238Y-82500390D02*
X132933333Y-82538485D01*
X132933333Y-82538485D02*
X132971428Y-82614676D01*
X132971428Y-82614676D02*
X133009523Y-82767057D01*
X133009523Y-82767057D02*
X133009523Y-82957533D01*
X133009523Y-82957533D02*
X132971428Y-83109914D01*
X132971428Y-83109914D02*
X132933333Y-83186104D01*
X132933333Y-83186104D02*
X132895238Y-83224200D01*
X132895238Y-83224200D02*
X132819047Y-83262295D01*
X132819047Y-83262295D02*
X132742857Y-83262295D01*
X132742857Y-83262295D02*
X132666666Y-83224200D01*
X132666666Y-83224200D02*
X132628571Y-83186104D01*
X132628571Y-83186104D02*
X132590476Y-83109914D01*
X132590476Y-83109914D02*
X132552380Y-82957533D01*
X132552380Y-82957533D02*
X132552380Y-82767057D01*
X132552380Y-82767057D02*
X132590476Y-82614676D01*
X132590476Y-82614676D02*
X132628571Y-82538485D01*
X132628571Y-82538485D02*
X132666666Y-82500390D01*
X132666666Y-82500390D02*
X132742857Y-82462295D01*
X131642295Y-62064625D02*
X130842295Y-62064625D01*
X130842295Y-62064625D02*
X130842295Y-61874149D01*
X130842295Y-61874149D02*
X130880390Y-61759863D01*
X130880390Y-61759863D02*
X130956580Y-61683673D01*
X130956580Y-61683673D02*
X131032771Y-61645578D01*
X131032771Y-61645578D02*
X131185152Y-61607482D01*
X131185152Y-61607482D02*
X131299438Y-61607482D01*
X131299438Y-61607482D02*
X131451819Y-61645578D01*
X131451819Y-61645578D02*
X131528009Y-61683673D01*
X131528009Y-61683673D02*
X131604200Y-61759863D01*
X131604200Y-61759863D02*
X131642295Y-61874149D01*
X131642295Y-61874149D02*
X131642295Y-62064625D01*
X131108961Y-60921768D02*
X131642295Y-60921768D01*
X130804200Y-61112244D02*
X131375628Y-61302721D01*
X131375628Y-61302721D02*
X131375628Y-60807482D01*
X105826667Y-96902295D02*
X105560000Y-96521342D01*
X105369524Y-96902295D02*
X105369524Y-96102295D01*
X105369524Y-96102295D02*
X105674286Y-96102295D01*
X105674286Y-96102295D02*
X105750476Y-96140390D01*
X105750476Y-96140390D02*
X105788571Y-96178485D01*
X105788571Y-96178485D02*
X105826667Y-96254676D01*
X105826667Y-96254676D02*
X105826667Y-96368961D01*
X105826667Y-96368961D02*
X105788571Y-96445152D01*
X105788571Y-96445152D02*
X105750476Y-96483247D01*
X105750476Y-96483247D02*
X105674286Y-96521342D01*
X105674286Y-96521342D02*
X105369524Y-96521342D01*
X106512381Y-96368961D02*
X106512381Y-96902295D01*
X106321905Y-96064200D02*
X106131428Y-96635628D01*
X106131428Y-96635628D02*
X106626667Y-96635628D01*
X142052380Y-90562295D02*
X142052380Y-91133723D01*
X142052380Y-91133723D02*
X142014285Y-91248009D01*
X142014285Y-91248009D02*
X141938094Y-91324200D01*
X141938094Y-91324200D02*
X141823809Y-91362295D01*
X141823809Y-91362295D02*
X141747618Y-91362295D01*
X142852380Y-91362295D02*
X142395237Y-91362295D01*
X142623809Y-91362295D02*
X142623809Y-90562295D01*
X142623809Y-90562295D02*
X142547618Y-90676580D01*
X142547618Y-90676580D02*
X142471428Y-90752771D01*
X142471428Y-90752771D02*
X142395237Y-90790866D01*
X143119047Y-90562295D02*
X143652381Y-90562295D01*
X143652381Y-90562295D02*
X143309523Y-91362295D01*
X83790476Y-89062295D02*
X83790476Y-89709914D01*
X83790476Y-89709914D02*
X83828571Y-89786104D01*
X83828571Y-89786104D02*
X83866666Y-89824200D01*
X83866666Y-89824200D02*
X83942857Y-89862295D01*
X83942857Y-89862295D02*
X84095238Y-89862295D01*
X84095238Y-89862295D02*
X84171428Y-89824200D01*
X84171428Y-89824200D02*
X84209523Y-89786104D01*
X84209523Y-89786104D02*
X84247619Y-89709914D01*
X84247619Y-89709914D02*
X84247619Y-89062295D01*
X84552380Y-89062295D02*
X85085714Y-89062295D01*
X85085714Y-89062295D02*
X84742856Y-89862295D01*
X85235714Y-73462295D02*
X84969047Y-73081342D01*
X84778571Y-73462295D02*
X84778571Y-72662295D01*
X84778571Y-72662295D02*
X85083333Y-72662295D01*
X85083333Y-72662295D02*
X85159523Y-72700390D01*
X85159523Y-72700390D02*
X85197618Y-72738485D01*
X85197618Y-72738485D02*
X85235714Y-72814676D01*
X85235714Y-72814676D02*
X85235714Y-72928961D01*
X85235714Y-72928961D02*
X85197618Y-73005152D01*
X85197618Y-73005152D02*
X85159523Y-73043247D01*
X85159523Y-73043247D02*
X85083333Y-73081342D01*
X85083333Y-73081342D02*
X84778571Y-73081342D01*
X85502380Y-72662295D02*
X85997618Y-72662295D01*
X85997618Y-72662295D02*
X85730952Y-72967057D01*
X85730952Y-72967057D02*
X85845237Y-72967057D01*
X85845237Y-72967057D02*
X85921428Y-73005152D01*
X85921428Y-73005152D02*
X85959523Y-73043247D01*
X85959523Y-73043247D02*
X85997618Y-73119438D01*
X85997618Y-73119438D02*
X85997618Y-73309914D01*
X85997618Y-73309914D02*
X85959523Y-73386104D01*
X85959523Y-73386104D02*
X85921428Y-73424200D01*
X85921428Y-73424200D02*
X85845237Y-73462295D01*
X85845237Y-73462295D02*
X85616666Y-73462295D01*
X85616666Y-73462295D02*
X85540475Y-73424200D01*
X85540475Y-73424200D02*
X85502380Y-73386104D01*
X86264285Y-72662295D02*
X86797619Y-72662295D01*
X86797619Y-72662295D02*
X86454761Y-73462295D01*
X103596667Y-97002295D02*
X103330000Y-96621342D01*
X103139524Y-97002295D02*
X103139524Y-96202295D01*
X103139524Y-96202295D02*
X103444286Y-96202295D01*
X103444286Y-96202295D02*
X103520476Y-96240390D01*
X103520476Y-96240390D02*
X103558571Y-96278485D01*
X103558571Y-96278485D02*
X103596667Y-96354676D01*
X103596667Y-96354676D02*
X103596667Y-96468961D01*
X103596667Y-96468961D02*
X103558571Y-96545152D01*
X103558571Y-96545152D02*
X103520476Y-96583247D01*
X103520476Y-96583247D02*
X103444286Y-96621342D01*
X103444286Y-96621342D02*
X103139524Y-96621342D01*
X104320476Y-96202295D02*
X103939524Y-96202295D01*
X103939524Y-96202295D02*
X103901428Y-96583247D01*
X103901428Y-96583247D02*
X103939524Y-96545152D01*
X103939524Y-96545152D02*
X104015714Y-96507057D01*
X104015714Y-96507057D02*
X104206190Y-96507057D01*
X104206190Y-96507057D02*
X104282381Y-96545152D01*
X104282381Y-96545152D02*
X104320476Y-96583247D01*
X104320476Y-96583247D02*
X104358571Y-96659438D01*
X104358571Y-96659438D02*
X104358571Y-96849914D01*
X104358571Y-96849914D02*
X104320476Y-96926104D01*
X104320476Y-96926104D02*
X104282381Y-96964200D01*
X104282381Y-96964200D02*
X104206190Y-97002295D01*
X104206190Y-97002295D02*
X104015714Y-97002295D01*
X104015714Y-97002295D02*
X103939524Y-96964200D01*
X103939524Y-96964200D02*
X103901428Y-96926104D01*
X66835514Y-100622095D02*
X66568847Y-100241142D01*
X66378371Y-100622095D02*
X66378371Y-99822095D01*
X66378371Y-99822095D02*
X66683133Y-99822095D01*
X66683133Y-99822095D02*
X66759323Y-99860190D01*
X66759323Y-99860190D02*
X66797418Y-99898285D01*
X66797418Y-99898285D02*
X66835514Y-99974476D01*
X66835514Y-99974476D02*
X66835514Y-100088761D01*
X66835514Y-100088761D02*
X66797418Y-100164952D01*
X66797418Y-100164952D02*
X66759323Y-100203047D01*
X66759323Y-100203047D02*
X66683133Y-100241142D01*
X66683133Y-100241142D02*
X66378371Y-100241142D01*
X67597418Y-100622095D02*
X67140275Y-100622095D01*
X67368847Y-100622095D02*
X67368847Y-99822095D01*
X67368847Y-99822095D02*
X67292656Y-99936380D01*
X67292656Y-99936380D02*
X67216466Y-100012571D01*
X67216466Y-100012571D02*
X67140275Y-100050666D01*
X68054561Y-100164952D02*
X67978371Y-100126857D01*
X67978371Y-100126857D02*
X67940276Y-100088761D01*
X67940276Y-100088761D02*
X67902180Y-100012571D01*
X67902180Y-100012571D02*
X67902180Y-99974476D01*
X67902180Y-99974476D02*
X67940276Y-99898285D01*
X67940276Y-99898285D02*
X67978371Y-99860190D01*
X67978371Y-99860190D02*
X68054561Y-99822095D01*
X68054561Y-99822095D02*
X68206942Y-99822095D01*
X68206942Y-99822095D02*
X68283133Y-99860190D01*
X68283133Y-99860190D02*
X68321228Y-99898285D01*
X68321228Y-99898285D02*
X68359323Y-99974476D01*
X68359323Y-99974476D02*
X68359323Y-100012571D01*
X68359323Y-100012571D02*
X68321228Y-100088761D01*
X68321228Y-100088761D02*
X68283133Y-100126857D01*
X68283133Y-100126857D02*
X68206942Y-100164952D01*
X68206942Y-100164952D02*
X68054561Y-100164952D01*
X68054561Y-100164952D02*
X67978371Y-100203047D01*
X67978371Y-100203047D02*
X67940276Y-100241142D01*
X67940276Y-100241142D02*
X67902180Y-100317333D01*
X67902180Y-100317333D02*
X67902180Y-100469714D01*
X67902180Y-100469714D02*
X67940276Y-100545904D01*
X67940276Y-100545904D02*
X67978371Y-100584000D01*
X67978371Y-100584000D02*
X68054561Y-100622095D01*
X68054561Y-100622095D02*
X68206942Y-100622095D01*
X68206942Y-100622095D02*
X68283133Y-100584000D01*
X68283133Y-100584000D02*
X68321228Y-100545904D01*
X68321228Y-100545904D02*
X68359323Y-100469714D01*
X68359323Y-100469714D02*
X68359323Y-100317333D01*
X68359323Y-100317333D02*
X68321228Y-100241142D01*
X68321228Y-100241142D02*
X68283133Y-100203047D01*
X68283133Y-100203047D02*
X68206942Y-100164952D01*
X84508512Y-57571277D02*
X85079940Y-57571277D01*
X85079940Y-57571277D02*
X85194226Y-57609372D01*
X85194226Y-57609372D02*
X85270417Y-57685563D01*
X85270417Y-57685563D02*
X85308512Y-57799848D01*
X85308512Y-57799848D02*
X85308512Y-57876039D01*
X85308512Y-56771277D02*
X85308512Y-57228420D01*
X85308512Y-56999848D02*
X84508512Y-56999848D01*
X84508512Y-56999848D02*
X84622797Y-57076039D01*
X84622797Y-57076039D02*
X84698988Y-57152229D01*
X84698988Y-57152229D02*
X84737083Y-57228420D01*
X84775178Y-56085562D02*
X85308512Y-56085562D01*
X84470417Y-56276038D02*
X85041845Y-56466515D01*
X85041845Y-56466515D02*
X85041845Y-55971276D01*
X73745514Y-108061095D02*
X73478847Y-107680142D01*
X73288371Y-108061095D02*
X73288371Y-107261095D01*
X73288371Y-107261095D02*
X73593133Y-107261095D01*
X73593133Y-107261095D02*
X73669323Y-107299190D01*
X73669323Y-107299190D02*
X73707418Y-107337285D01*
X73707418Y-107337285D02*
X73745514Y-107413476D01*
X73745514Y-107413476D02*
X73745514Y-107527761D01*
X73745514Y-107527761D02*
X73707418Y-107603952D01*
X73707418Y-107603952D02*
X73669323Y-107642047D01*
X73669323Y-107642047D02*
X73593133Y-107680142D01*
X73593133Y-107680142D02*
X73288371Y-107680142D01*
X74507418Y-108061095D02*
X74050275Y-108061095D01*
X74278847Y-108061095D02*
X74278847Y-107261095D01*
X74278847Y-107261095D02*
X74202656Y-107375380D01*
X74202656Y-107375380D02*
X74126466Y-107451571D01*
X74126466Y-107451571D02*
X74050275Y-107489666D01*
X75193133Y-107527761D02*
X75193133Y-108061095D01*
X75002657Y-107223000D02*
X74812180Y-107794428D01*
X74812180Y-107794428D02*
X75307419Y-107794428D01*
D11*
X131744452Y-54516600D02*
X131221948Y-54516600D01*
X131744452Y-53046600D02*
X131221948Y-53046600D01*
X131744452Y-52383000D02*
X131221948Y-52383000D01*
X131744452Y-50913000D02*
X131221948Y-50913000D01*
X87024000Y-54349600D02*
X87024000Y-53019600D01*
X88354000Y-54349600D02*
X87024000Y-54349600D01*
X89624000Y-54349600D02*
X97304000Y-54349600D01*
X89624000Y-54349600D02*
X89624000Y-51689600D01*
X97304000Y-54349600D02*
X97304000Y-51689600D01*
X89624000Y-51689600D02*
X97304000Y-51689600D01*
X68449800Y-110584600D02*
X68449800Y-113384600D01*
X66449800Y-110584600D02*
X68449800Y-110584600D01*
X68449800Y-113384600D02*
X66449800Y-113384600D01*
X66449800Y-113384600D02*
X66449800Y-110584600D01*
X74796800Y-118999400D02*
X77596800Y-118999400D01*
X74796800Y-120999400D02*
X74796800Y-118999400D01*
X77596800Y-118999400D02*
X77596800Y-120999400D01*
X77596800Y-120999400D02*
X74796800Y-120999400D01*
X72302736Y-119264400D02*
X72756864Y-119264400D01*
X72302736Y-120734400D02*
X72756864Y-120734400D01*
X66475200Y-108203000D02*
X66475200Y-105403000D01*
X68475200Y-108203000D02*
X66475200Y-108203000D01*
X66475200Y-105403000D02*
X68475200Y-105403000D01*
X68475200Y-105403000D02*
X68475200Y-108203000D01*
X53394000Y-58171000D02*
X53394000Y-60171000D01*
X54394000Y-56871000D02*
X54844000Y-56421000D01*
X54394000Y-61471000D02*
X54844000Y-61921000D01*
X54844000Y-56421000D02*
X57444000Y-56421000D01*
X54844000Y-61921000D02*
X57444000Y-61921000D01*
X57894000Y-56871000D02*
X57444000Y-56421000D01*
X57894000Y-61471000D02*
X57444000Y-61921000D01*
X58894000Y-58171000D02*
X58894000Y-60171000D01*
X71682000Y-66807000D02*
X71682000Y-68807000D01*
X72682000Y-65507000D02*
X73132000Y-65057000D01*
X72682000Y-70107000D02*
X73132000Y-70557000D01*
X73132000Y-65057000D02*
X75732000Y-65057000D01*
X73132000Y-70557000D02*
X75732000Y-70557000D01*
X76182000Y-65507000D02*
X75732000Y-65057000D01*
X76182000Y-70107000D02*
X75732000Y-70557000D01*
X77182000Y-66807000D02*
X77182000Y-68807000D01*
X60895000Y-52889248D02*
X60895000Y-53411752D01*
X59425000Y-52889248D02*
X59425000Y-53411752D01*
X80199000Y-65864748D02*
X80199000Y-66387252D01*
X78729000Y-65864748D02*
X78729000Y-66387252D01*
X82087064Y-97725000D02*
X81632936Y-97725000D01*
X82087064Y-99195000D02*
X81632936Y-99195000D01*
X95086571Y-118490260D02*
X95086571Y-118944388D01*
X96556571Y-118490260D02*
X96556571Y-118944388D01*
X82151252Y-102025000D02*
X81628748Y-102025000D01*
X82151252Y-103495000D02*
X81628748Y-103495000D01*
X75505000Y-111965000D02*
X73555000Y-111965000D01*
X75505000Y-111965000D02*
X77455000Y-111965000D01*
X75505000Y-117085000D02*
X73555000Y-117085000D01*
X75505000Y-117085000D02*
X77455000Y-117085000D01*
X78445000Y-117320000D02*
X77965000Y-117320000D01*
X78205000Y-116990000D01*
X78445000Y-117320000D01*
G36*
X78445000Y-117320000D02*
G01*
X77965000Y-117320000D01*
X78205000Y-116990000D01*
X78445000Y-117320000D01*
G37*
X130510001Y-65838300D02*
X129100001Y-65838300D01*
X130510001Y-67058300D02*
X129100001Y-67058300D01*
X130510001Y-67058300D02*
X130510001Y-65838300D01*
X131472936Y-110790000D02*
X135827064Y-110790000D01*
X131472936Y-114210000D02*
X135827064Y-114210000D01*
X114100000Y-100725000D02*
X114100000Y-102225000D01*
X114100000Y-102225000D02*
X115910000Y-102225000D01*
X124500000Y-100725000D02*
X124500000Y-102225000D01*
X124500000Y-102225000D02*
X122690000Y-102225000D01*
X115910000Y-104787500D02*
X115580000Y-105027500D01*
X115580000Y-104547500D01*
X115910000Y-104787500D01*
G36*
X115910000Y-104787500D02*
G01*
X115580000Y-105027500D01*
X115580000Y-104547500D01*
X115910000Y-104787500D01*
G37*
X96990000Y-105162500D02*
X96990000Y-104512500D01*
X96990000Y-105162500D02*
X96990000Y-105812500D01*
X100110000Y-105162500D02*
X100110000Y-104512500D01*
X100110000Y-105162500D02*
X100110000Y-105812500D01*
X97040000Y-106325000D02*
X96710000Y-106565000D01*
X96710000Y-106085000D01*
X97040000Y-106325000D01*
G36*
X97040000Y-106325000D02*
G01*
X96710000Y-106565000D01*
X96710000Y-106085000D01*
X97040000Y-106325000D01*
G37*
X102040000Y-92210000D02*
X100540000Y-92210000D01*
X102040000Y-92210000D02*
X103540000Y-92210000D01*
X102040000Y-95430000D02*
X100540000Y-95430000D01*
X102040000Y-95430000D02*
X103540000Y-95430000D01*
X99827500Y-92385000D02*
X99587500Y-92055000D01*
X100067500Y-92055000D01*
X99827500Y-92385000D01*
G36*
X99827500Y-92385000D02*
G01*
X99587500Y-92055000D01*
X100067500Y-92055000D01*
X99827500Y-92385000D01*
G37*
X95815000Y-98655000D02*
X95815000Y-100525000D01*
X95815000Y-100525000D02*
X99900000Y-100525000D01*
X99900000Y-98655000D02*
X95815000Y-98655000D01*
X87024000Y-61360000D02*
X87024000Y-60030000D01*
X88354000Y-61360000D02*
X87024000Y-61360000D01*
X89624000Y-58700000D02*
X97304000Y-58700000D01*
X89624000Y-61360000D02*
X89624000Y-58700000D01*
X89624000Y-61360000D02*
X97304000Y-61360000D01*
X97304000Y-61360000D02*
X97304000Y-58700000D01*
X79498752Y-94065000D02*
X78976248Y-94065000D01*
X79498752Y-95535000D02*
X78976248Y-95535000D01*
X85910000Y-123490000D02*
X87240000Y-123490000D01*
X85910000Y-124820000D02*
X85910000Y-123490000D01*
X85910000Y-126090000D02*
X85910000Y-133770000D01*
X85910000Y-126090000D02*
X88570000Y-126090000D01*
X85910000Y-133770000D02*
X88570000Y-133770000D01*
X88570000Y-126090000D02*
X88570000Y-133770000D01*
X95265000Y-92501248D02*
X95265000Y-93023752D01*
X96735000Y-92501248D02*
X96735000Y-93023752D01*
X128565000Y-107061252D02*
X128565000Y-106538748D01*
X130035000Y-107061252D02*
X130035000Y-106538748D01*
X98638748Y-96645000D02*
X99161252Y-96645000D01*
X98638748Y-98115000D02*
X99161252Y-98115000D01*
X130510001Y-68390000D02*
X129100001Y-68390000D01*
X130510001Y-69610000D02*
X129100001Y-69610000D01*
X130510001Y-69610000D02*
X130510001Y-68390000D01*
X74972936Y-94065000D02*
X75427064Y-94065000D01*
X74972936Y-95535000D02*
X75427064Y-95535000D01*
X91986571Y-118490260D02*
X91986571Y-118944388D01*
X93456571Y-118490260D02*
X93456571Y-118944388D01*
X79498752Y-91965000D02*
X78976248Y-91965000D01*
X79498752Y-93435000D02*
X78976248Y-93435000D01*
X109328421Y-83960000D02*
X114878421Y-83960000D01*
X109328421Y-89380000D02*
X114878421Y-89380000D01*
X109083421Y-84250000D02*
X108603421Y-84250000D01*
X109083421Y-83770000D01*
X109083421Y-84250000D01*
G36*
X109083421Y-84250000D02*
G01*
X108603421Y-84250000D01*
X109083421Y-83770000D01*
X109083421Y-84250000D01*
G37*
X126974065Y-63226225D02*
X126519937Y-63226225D01*
X126974065Y-64696225D02*
X126519937Y-64696225D01*
X98980000Y-113070000D02*
X100310000Y-113070000D01*
X98980000Y-114400000D02*
X98980000Y-113070000D01*
X98980000Y-115670000D02*
X98980000Y-123350000D01*
X98980000Y-115670000D02*
X101640000Y-115670000D01*
X98980000Y-123350000D02*
X101640000Y-123350000D01*
X101640000Y-115670000D02*
X101640000Y-123350000D01*
X136672936Y-74165000D02*
X137127064Y-74165000D01*
X136672936Y-75635000D02*
X137127064Y-75635000D01*
X75427064Y-91965000D02*
X74972936Y-91965000D01*
X75427064Y-93435000D02*
X74972936Y-93435000D01*
X91497064Y-77865000D02*
X91042936Y-77865000D01*
X91497064Y-79335000D02*
X91042936Y-79335000D01*
X91986571Y-114744388D02*
X91986571Y-114290260D01*
X93456571Y-114744388D02*
X93456571Y-114290260D01*
X126974065Y-60739150D02*
X126519937Y-60739150D01*
X126974065Y-62209150D02*
X126519937Y-62209150D01*
X70998548Y-100747800D02*
X71521052Y-100747800D01*
X70998548Y-102217800D02*
X71521052Y-102217800D01*
X132272936Y-77765000D02*
X132727064Y-77765000D01*
X132272936Y-79235000D02*
X132727064Y-79235000D01*
X126974065Y-65713300D02*
X126519937Y-65713300D01*
X126974065Y-67183300D02*
X126519937Y-67183300D01*
X78210000Y-123490000D02*
X79540000Y-123490000D01*
X78210000Y-124820000D02*
X78210000Y-123490000D01*
X78210000Y-126090000D02*
X78210000Y-133770000D01*
X78210000Y-126090000D02*
X80870000Y-126090000D01*
X78210000Y-133770000D02*
X80870000Y-133770000D01*
X80870000Y-126090000D02*
X80870000Y-133770000D01*
X108145000Y-82690000D02*
X102595000Y-82690000D01*
X108145000Y-88110000D02*
X102595000Y-88110000D01*
X108390000Y-88300000D02*
X108390000Y-87820000D01*
X108870000Y-87820000D01*
X108390000Y-88300000D01*
G36*
X108390000Y-88300000D02*
G01*
X108390000Y-87820000D01*
X108870000Y-87820000D01*
X108390000Y-88300000D01*
G37*
X68676248Y-93665000D02*
X69198752Y-93665000D01*
X68676248Y-95135000D02*
X69198752Y-95135000D01*
X95086571Y-114744388D02*
X95086571Y-114290260D01*
X96556571Y-114744388D02*
X96556571Y-114290260D01*
X126974065Y-58252075D02*
X126519937Y-58252075D01*
X126974065Y-59722075D02*
X126519937Y-59722075D01*
X131472936Y-114890000D02*
X135827064Y-114890000D01*
X131472936Y-118310000D02*
X135827064Y-118310000D01*
X77427064Y-82665000D02*
X76972936Y-82665000D01*
X77427064Y-84135000D02*
X76972936Y-84135000D01*
X109182936Y-79835000D02*
X109637064Y-79835000D01*
X109182936Y-81305000D02*
X109637064Y-81305000D01*
X77143200Y-108758800D02*
X80003200Y-108758800D01*
X80003200Y-106838800D02*
X77143200Y-106838800D01*
X80003200Y-108758800D02*
X80003200Y-106838800D01*
X70998548Y-104963800D02*
X71521052Y-104963800D01*
X70998548Y-106433800D02*
X71521052Y-106433800D01*
X88886571Y-114744388D02*
X88886571Y-114290260D01*
X90356571Y-114744388D02*
X90356571Y-114290260D01*
X130510001Y-55890000D02*
X129100001Y-55890000D01*
X130510001Y-57110000D02*
X129100001Y-57110000D01*
X130510001Y-57110000D02*
X130510001Y-55890000D01*
X68710436Y-95665000D02*
X69164564Y-95665000D01*
X68710436Y-97135000D02*
X69164564Y-97135000D01*
X49752000Y-91031000D02*
X57362000Y-91031000D01*
X49752000Y-107761000D02*
X49752000Y-91031000D01*
X49752000Y-107761000D02*
X57362000Y-107761000D01*
X56662000Y-108456000D02*
X57162000Y-107956000D01*
X57162000Y-107956000D02*
X57662000Y-108456000D01*
X57662000Y-108456000D02*
X56662000Y-108456000D01*
X65722000Y-91031000D02*
X60162000Y-91031000D01*
X65722000Y-107761000D02*
X60162000Y-107761000D01*
X65722000Y-107761000D02*
X65722000Y-91031000D01*
X82077064Y-73965000D02*
X81622936Y-73965000D01*
X82077064Y-75435000D02*
X81622936Y-75435000D01*
X77427064Y-80665000D02*
X76972936Y-80665000D01*
X77427064Y-82135000D02*
X76972936Y-82135000D01*
X130790000Y-105600000D02*
X130790000Y-104100000D01*
X130790000Y-105600000D02*
X130790000Y-107100000D01*
X134010000Y-105600000D02*
X134010000Y-104100000D01*
X134010000Y-105600000D02*
X134010000Y-107100000D01*
X134140000Y-103627500D02*
X133810000Y-103387500D01*
X134140000Y-103147500D01*
X134140000Y-103627500D01*
G36*
X134140000Y-103627500D02*
G01*
X133810000Y-103387500D01*
X134140000Y-103147500D01*
X134140000Y-103627500D01*
G37*
X88886571Y-118490260D02*
X88886571Y-118944388D01*
X90356571Y-118490260D02*
X90356571Y-118944388D01*
X94300000Y-104075000D02*
X96300000Y-104075000D01*
X94300000Y-106875000D02*
X94300000Y-104075000D01*
X96300000Y-104075000D02*
X96300000Y-106875000D01*
X96300000Y-106875000D02*
X94300000Y-106875000D01*
X95572936Y-108365000D02*
X96027064Y-108365000D01*
X95572936Y-109835000D02*
X96027064Y-109835000D01*
X93065000Y-92501248D02*
X93065000Y-93023752D01*
X94535000Y-92501248D02*
X94535000Y-93023752D01*
X99654000Y-52363658D02*
X120234000Y-52363658D01*
X99654000Y-61483658D02*
X99654000Y-52363658D01*
X100954000Y-53673658D02*
X107894000Y-53673658D01*
X100954000Y-60173658D02*
X100954000Y-53673658D01*
X107894000Y-53673658D02*
X107894000Y-52363658D01*
X107894000Y-53673658D02*
X107894000Y-53673658D01*
X111994000Y-52363658D02*
X111994000Y-53673658D01*
X111994000Y-53673658D02*
X118934000Y-53673658D01*
X114524000Y-50973658D02*
X115024000Y-51973658D01*
X115024000Y-51973658D02*
X115524000Y-50973658D01*
X115524000Y-50973658D02*
X114524000Y-50973658D01*
X118934000Y-53673658D02*
X118934000Y-60173658D01*
X118934000Y-60173658D02*
X100954000Y-60173658D01*
X120234000Y-52363658D02*
X120234000Y-61483658D01*
X120234000Y-61483658D02*
X99654000Y-61483658D01*
X127800000Y-75700000D02*
X127800000Y-73740000D01*
X129000000Y-73740000D02*
X127800000Y-73740000D01*
X129000000Y-75700000D02*
X129000000Y-73740000D01*
X76075000Y-97500000D02*
X76075000Y-99420000D01*
X76075000Y-99420000D02*
X78935000Y-99420000D01*
X78935000Y-97500000D02*
X76075000Y-97500000D01*
X127800000Y-78300000D02*
X127800000Y-80260000D01*
X127800000Y-80260000D02*
X129000000Y-80260000D01*
X129000000Y-78300000D02*
X129000000Y-80260000D01*
X49764000Y-110639800D02*
X57374000Y-110639800D01*
X49764000Y-127369800D02*
X49764000Y-110639800D01*
X49764000Y-127369800D02*
X57374000Y-127369800D01*
X56674000Y-128064800D02*
X57174000Y-127564800D01*
X57174000Y-127564800D02*
X57674000Y-128064800D01*
X57674000Y-128064800D02*
X56674000Y-128064800D01*
X65734000Y-110639800D02*
X60174000Y-110639800D01*
X65734000Y-127369800D02*
X60174000Y-127369800D01*
X65734000Y-127369800D02*
X65734000Y-110639800D01*
X66638600Y-115740064D02*
X66638600Y-115285936D01*
X68108600Y-115740064D02*
X68108600Y-115285936D01*
X70998548Y-98705800D02*
X71521052Y-98705800D01*
X70998548Y-100175800D02*
X71521052Y-100175800D01*
X70998548Y-102804800D02*
X71521052Y-102804800D01*
X70998548Y-104274800D02*
X71521052Y-104274800D01*
X130510001Y-58377075D02*
X129100001Y-58377075D01*
X130510001Y-59597075D02*
X129100001Y-59597075D01*
X130510001Y-59597075D02*
X130510001Y-58377075D01*
X86377789Y-77520000D02*
X85727789Y-77520000D01*
X86377789Y-77520000D02*
X87027789Y-77520000D01*
X86377789Y-80640000D02*
X85727789Y-80640000D01*
X86377789Y-80640000D02*
X87027789Y-80640000D01*
X87780289Y-80920000D02*
X87300289Y-80920000D01*
X87540289Y-80590000D01*
X87780289Y-80920000D01*
G36*
X87780289Y-80920000D02*
G01*
X87300289Y-80920000D01*
X87540289Y-80590000D01*
X87780289Y-80920000D01*
G37*
X130510001Y-63351225D02*
X129100001Y-63351225D01*
X130510001Y-64571225D02*
X129100001Y-64571225D01*
X130510001Y-64571225D02*
X130510001Y-63351225D01*
X126974065Y-55765000D02*
X126519937Y-55765000D01*
X126974065Y-57235000D02*
X126519937Y-57235000D01*
X85950000Y-97790000D02*
X86220000Y-97790000D01*
X85950000Y-104210000D02*
X85950000Y-97790000D01*
X92850000Y-97790000D02*
X92580000Y-97790000D01*
X92850000Y-104210000D02*
X92850000Y-97790000D01*
X92870000Y-96610000D02*
X92540000Y-96370000D01*
X92870000Y-96130000D01*
X92870000Y-96610000D01*
G36*
X92870000Y-96610000D02*
G01*
X92540000Y-96370000D01*
X92870000Y-96130000D01*
X92870000Y-96610000D01*
G37*
X43550000Y-69550000D02*
X50300000Y-69550000D01*
X43550000Y-87550000D02*
X43550000Y-69550000D01*
X43550000Y-87550000D02*
X50300000Y-87550000D01*
X49490000Y-69550000D02*
X49490000Y-87550000D01*
X68300000Y-69550000D02*
X69050000Y-69550000D01*
X68300000Y-87550000D02*
X69050000Y-87550000D01*
X69050000Y-69550000D02*
X69050000Y-70550000D01*
X69050000Y-87550000D02*
X69050000Y-86550000D01*
X144350000Y-71920000D02*
X146350000Y-71920000D01*
X144350000Y-81320000D02*
X146350000Y-81320000D01*
X148250000Y-71920000D02*
X150150000Y-71920000D01*
X148250000Y-81320000D02*
X150150000Y-81320000D01*
X150150000Y-81320000D02*
X150150000Y-71920000D01*
X126974065Y-68265000D02*
X126519937Y-68265000D01*
X126974065Y-69735000D02*
X126519937Y-69735000D01*
X82151252Y-99825000D02*
X81628748Y-99825000D01*
X82151252Y-101295000D02*
X81628748Y-101295000D01*
X135550000Y-84060000D02*
X135550000Y-81400000D01*
X135550000Y-84060000D02*
X137250000Y-84060000D01*
X137250000Y-84060000D02*
X137250000Y-81400000D01*
X130840000Y-80800000D02*
X130840000Y-82000000D01*
X132800000Y-80800000D02*
X130840000Y-80800000D01*
X132800000Y-82000000D02*
X130840000Y-82000000D01*
X130510001Y-60864150D02*
X129100001Y-60864150D01*
X130510001Y-62084150D02*
X129100001Y-62084150D01*
X130510001Y-62084150D02*
X130510001Y-60864150D01*
X105125000Y-98712936D02*
X105125000Y-99167064D01*
X106595000Y-98712936D02*
X106595000Y-99167064D01*
X82490000Y-81590000D02*
X82490000Y-82850000D01*
X82490000Y-88410000D02*
X82490000Y-87150000D01*
X86250000Y-81590000D02*
X82490000Y-81590000D01*
X86250000Y-88410000D02*
X82490000Y-88410000D01*
X87770000Y-88640000D02*
X87290000Y-88640000D01*
X87530000Y-88310000D01*
X87770000Y-88640000D01*
G36*
X87770000Y-88640000D02*
G01*
X87290000Y-88640000D01*
X87530000Y-88310000D01*
X87770000Y-88640000D01*
G37*
X85977064Y-73965000D02*
X85522936Y-73965000D01*
X85977064Y-75435000D02*
X85522936Y-75435000D01*
X102995000Y-98712936D02*
X102995000Y-99167064D01*
X104465000Y-98712936D02*
X104465000Y-99167064D01*
X68184800Y-102652736D02*
X68184800Y-103106864D01*
X66714800Y-102652736D02*
X66714800Y-103106864D01*
X63476217Y-52363658D02*
X84056217Y-52363658D01*
X63476217Y-61483658D02*
X63476217Y-52363658D01*
X64776217Y-53673658D02*
X71716217Y-53673658D01*
X64776217Y-60173658D02*
X64776217Y-53673658D01*
X71716217Y-53673658D02*
X71716217Y-52363658D01*
X71716217Y-53673658D02*
X71716217Y-53673658D01*
X75816217Y-52363658D02*
X75816217Y-53673658D01*
X75816217Y-53673658D02*
X82756217Y-53673658D01*
X78346217Y-50973658D02*
X78846217Y-51973658D01*
X78846217Y-51973658D02*
X79346217Y-50973658D01*
X79346217Y-50973658D02*
X78346217Y-50973658D01*
X82756217Y-53673658D02*
X82756217Y-60173658D01*
X82756217Y-60173658D02*
X64776217Y-60173658D01*
X84056217Y-52363658D02*
X84056217Y-61483658D01*
X84056217Y-61483658D02*
X63476217Y-61483658D01*
X71032736Y-107063800D02*
X71486864Y-107063800D01*
X71032736Y-108533800D02*
X71486864Y-108533800D01*
%LPC*%
D12*
X132520700Y-53781600D03*
X130445700Y-53781600D03*
X132520700Y-51648000D03*
X130445700Y-51648000D03*
D13*
X88354000Y-53019600D03*
D14*
X90894000Y-53019600D03*
X93434000Y-53019600D03*
X95974000Y-53019600D03*
D15*
X67449800Y-111259600D03*
D16*
X67449800Y-112709600D03*
D17*
X75471800Y-119999400D03*
D18*
X76921800Y-119999400D03*
D19*
X71529800Y-119999400D03*
X73529800Y-119999400D03*
D20*
X67475200Y-107528000D03*
D21*
X67475200Y-106078000D03*
D22*
X53144000Y-57296000D03*
X59144000Y-57296000D03*
X53144000Y-61046000D03*
X59144000Y-61046000D03*
X71432000Y-65932000D03*
X77432000Y-65932000D03*
X71432000Y-69682000D03*
X77432000Y-69682000D03*
D23*
X60160000Y-52113000D03*
X60160000Y-54188000D03*
X79464000Y-65088500D03*
X79464000Y-67163500D03*
D24*
X82860000Y-98460000D03*
X80860000Y-98460000D03*
D25*
X95821571Y-117717324D03*
X95821571Y-119717324D03*
D26*
X125692000Y-121244000D03*
D12*
X82927500Y-102760000D03*
X80852500Y-102760000D03*
D27*
X77980000Y-116430000D03*
X77980000Y-115160000D03*
X77980000Y-113890000D03*
X77980000Y-112620000D03*
X73030000Y-112620000D03*
X73030000Y-113890000D03*
X73030000Y-115160000D03*
X73030000Y-116430000D03*
D28*
X130000001Y-66448300D03*
X129200001Y-66448300D03*
D29*
X130600000Y-112500000D03*
X136700000Y-112500000D03*
D30*
X116760000Y-105050000D03*
D31*
X119300000Y-95900000D03*
D30*
X121840000Y-105050000D03*
D32*
X97600000Y-106100000D03*
X99500000Y-106100000D03*
X98550000Y-104225000D03*
D33*
X99927500Y-92820000D03*
X99927500Y-93320000D03*
X99927500Y-93820000D03*
X99927500Y-94320000D03*
X99927500Y-94820000D03*
X104152500Y-94820000D03*
X104152500Y-94320000D03*
X104152500Y-93820000D03*
X104152500Y-93320000D03*
X104152500Y-92820000D03*
D34*
X96862500Y-99590000D03*
X99737500Y-99590000D03*
D13*
X88354000Y-60030000D03*
D14*
X90894000Y-60030000D03*
X93434000Y-60030000D03*
X95974000Y-60030000D03*
D12*
X80275000Y-94800000D03*
X78200000Y-94800000D03*
D13*
X87240000Y-124820000D03*
D14*
X87240000Y-127360000D03*
X87240000Y-129900000D03*
X87240000Y-132440000D03*
D35*
X120300000Y-87100000D03*
D23*
X96000000Y-91725000D03*
X96000000Y-93800000D03*
D36*
X129300000Y-107837500D03*
X129300000Y-105762500D03*
D37*
X97862500Y-97380000D03*
X99937500Y-97380000D03*
D28*
X130000001Y-69000000D03*
X129200001Y-69000000D03*
D19*
X74200000Y-94800000D03*
X76200000Y-94800000D03*
D25*
X92721571Y-117717324D03*
X92721571Y-119717324D03*
D12*
X80275000Y-92700000D03*
X78200000Y-92700000D03*
D35*
X98370000Y-85030000D03*
D38*
X109353421Y-84765000D03*
X109353421Y-86035000D03*
X109353421Y-87305000D03*
X109353421Y-88575000D03*
D39*
X112568421Y-86670000D03*
D40*
X114903421Y-84765000D03*
X114903421Y-86035000D03*
X114903421Y-87305000D03*
X114903421Y-88575000D03*
D24*
X127747001Y-63961225D03*
X125747001Y-63961225D03*
D13*
X100310000Y-114400000D03*
D14*
X100310000Y-116940000D03*
X100310000Y-119480000D03*
X100310000Y-122020000D03*
D19*
X135900000Y-74900000D03*
X137900000Y-74900000D03*
D24*
X76200000Y-92700000D03*
X74200000Y-92700000D03*
X92270000Y-78600000D03*
X90270000Y-78600000D03*
D41*
X92721571Y-115517324D03*
X92721571Y-113517324D03*
D35*
X139200000Y-87200000D03*
D42*
X146070000Y-67070000D03*
X146070000Y-59070000D03*
D43*
X135070000Y-59870000D03*
X135070000Y-60970000D03*
X135070000Y-62070000D03*
X135070000Y-63170000D03*
X135070000Y-64270000D03*
X135070000Y-65370000D03*
X135070000Y-66470000D03*
X135070000Y-67570000D03*
X135070000Y-68670000D03*
D44*
X136070000Y-69870000D03*
D45*
X145670000Y-69870000D03*
D46*
X136070000Y-55270000D03*
D45*
X145670000Y-54370000D03*
D24*
X127747001Y-61474150D03*
X125747001Y-61474150D03*
D37*
X70222300Y-101482800D03*
X72297300Y-101482800D03*
D19*
X131500000Y-78500000D03*
X133500000Y-78500000D03*
D24*
X127747001Y-66448300D03*
X125747001Y-66448300D03*
D13*
X79540000Y-124820000D03*
D14*
X79540000Y-127360000D03*
X79540000Y-129900000D03*
X79540000Y-132440000D03*
D35*
X142600000Y-120500000D03*
D38*
X108120000Y-87305000D03*
X108120000Y-86035000D03*
X108120000Y-84765000D03*
X108120000Y-83495000D03*
D39*
X104905000Y-85400000D03*
D40*
X102570000Y-87305000D03*
X102570000Y-86035000D03*
X102570000Y-84765000D03*
X102570000Y-83495000D03*
D37*
X67900000Y-94400000D03*
X69975000Y-94400000D03*
D41*
X95821571Y-115517324D03*
X95821571Y-113517324D03*
D24*
X127747001Y-58987075D03*
X125747001Y-58987075D03*
D29*
X130600000Y-116600000D03*
X136700000Y-116600000D03*
D24*
X78200000Y-83400000D03*
X76200000Y-83400000D03*
D35*
X129800000Y-87200000D03*
D19*
X108410000Y-80570000D03*
X110410000Y-80570000D03*
D35*
X142600000Y-112700000D03*
D47*
X79168200Y-107798800D03*
X77118200Y-107798800D03*
D37*
X70222300Y-105698800D03*
X72297300Y-105698800D03*
D41*
X89621571Y-115517324D03*
X89621571Y-113517324D03*
D28*
X130000001Y-56500000D03*
X129200001Y-56500000D03*
D19*
X67937500Y-96400000D03*
X69937500Y-96400000D03*
D48*
X55322000Y-105746000D03*
X55322000Y-93046000D03*
D49*
X57862000Y-102956000D03*
D50*
X59642000Y-101940000D03*
X57862000Y-100924000D03*
X59642000Y-99908000D03*
X57862000Y-98892000D03*
X59642000Y-97876000D03*
X57862000Y-96860000D03*
X59642000Y-95844000D03*
X64462000Y-106256000D03*
X64462000Y-103966000D03*
X64462000Y-94826000D03*
X64462000Y-92536000D03*
D51*
X58752000Y-107526000D03*
X58752000Y-91266000D03*
D24*
X82850000Y-74700000D03*
X80850000Y-74700000D03*
X78200000Y-81400000D03*
X76200000Y-81400000D03*
D52*
X133400000Y-103400000D03*
X132900000Y-103400000D03*
X132400000Y-103400000D03*
X131900000Y-103400000D03*
X131400000Y-103400000D03*
X131400000Y-107800000D03*
X131900000Y-107800000D03*
X132400000Y-107800000D03*
X132900000Y-107800000D03*
X133400000Y-107800000D03*
D25*
X89621571Y-117717324D03*
X89621571Y-119717324D03*
D20*
X95300000Y-106200000D03*
D21*
X95300000Y-104750000D03*
D19*
X94800000Y-109100000D03*
X96800000Y-109100000D03*
D23*
X93800000Y-91725000D03*
X93800000Y-93800000D03*
D53*
X115024000Y-55653658D03*
D54*
X115024000Y-58193658D03*
X112484000Y-55653658D03*
X112484000Y-58193658D03*
X109944000Y-55653658D03*
X109944000Y-58193658D03*
X107404000Y-55653658D03*
X107404000Y-58193658D03*
X104864000Y-55653658D03*
X104864000Y-58193658D03*
D55*
X128400000Y-74300000D03*
X128400000Y-75700000D03*
D26*
X109182000Y-111084000D03*
D56*
X76910000Y-98460000D03*
X78960000Y-98460000D03*
D57*
X128400000Y-79700000D03*
X128400000Y-78300000D03*
D48*
X55334000Y-125354800D03*
X55334000Y-112654800D03*
D49*
X57874000Y-122564800D03*
D50*
X59654000Y-121548800D03*
X57874000Y-120532800D03*
X59654000Y-119516800D03*
X57874000Y-118500800D03*
X59654000Y-117484800D03*
X57874000Y-116468800D03*
X59654000Y-115452800D03*
X64474000Y-125864800D03*
X64474000Y-123574800D03*
X64474000Y-114434800D03*
X64474000Y-112144800D03*
D51*
X58764000Y-127134800D03*
X58764000Y-110874800D03*
D26*
X109436000Y-121300000D03*
D41*
X67373600Y-116513000D03*
X67373600Y-114513000D03*
D37*
X70222300Y-99440800D03*
X72297300Y-99440800D03*
X70222300Y-103539800D03*
X72297300Y-103539800D03*
D28*
X130000001Y-58987075D03*
X129200001Y-58987075D03*
D58*
X87315289Y-80030000D03*
X87315289Y-78130000D03*
X85440289Y-79080000D03*
D28*
X130000001Y-63961225D03*
X129200001Y-63961225D03*
D24*
X127747001Y-56500000D03*
X125747001Y-56500000D03*
D59*
X91680000Y-96060000D03*
D60*
X89400000Y-102360000D03*
D59*
X87120000Y-96060000D03*
D61*
X51040000Y-87300000D03*
X52310000Y-87300000D03*
X53580000Y-87300000D03*
X54850000Y-87300000D03*
X56120000Y-87300000D03*
X57390000Y-87300000D03*
X58660000Y-87300000D03*
X59930000Y-87300000D03*
X61200000Y-87300000D03*
X62470000Y-87300000D03*
X63740000Y-87300000D03*
X65010000Y-87300000D03*
X66280000Y-87300000D03*
X67550000Y-87300000D03*
D62*
X68800000Y-85535000D03*
X68800000Y-84265000D03*
X68800000Y-82995000D03*
X68800000Y-81725000D03*
X68800000Y-80455000D03*
X68800000Y-79185000D03*
X68800000Y-77915000D03*
X68800000Y-76645000D03*
X68800000Y-75375000D03*
X68800000Y-74105000D03*
X68800000Y-72835000D03*
X68800000Y-71565000D03*
D61*
X67550000Y-69800000D03*
X66280000Y-69800000D03*
X65010000Y-69800000D03*
X63740000Y-69800000D03*
X62470000Y-69800000D03*
X61200000Y-69800000D03*
X59930000Y-69800000D03*
X58660000Y-69800000D03*
X57390000Y-69800000D03*
X56120000Y-69800000D03*
X54850000Y-69800000D03*
X53580000Y-69800000D03*
X52310000Y-69800000D03*
X51040000Y-69800000D03*
D63*
X57360000Y-81450000D03*
X58760000Y-81450000D03*
X60160000Y-81450000D03*
X60160000Y-81450000D03*
X57360000Y-80050000D03*
X57360000Y-80050000D03*
X58760000Y-80050000D03*
X60160000Y-80050000D03*
X57360000Y-78650000D03*
X58760000Y-78650000D03*
X60160000Y-78650000D03*
D26*
X117310000Y-121300000D03*
D64*
X143650000Y-79510000D03*
X143650000Y-73730000D03*
D65*
X142205000Y-79870000D03*
X142205000Y-79070000D03*
D66*
X142205000Y-77870000D03*
X142205000Y-76870000D03*
X142205000Y-76370000D03*
X142205000Y-75370000D03*
D65*
X142205000Y-74170000D03*
X142205000Y-73370000D03*
X142205000Y-73370000D03*
X142205000Y-74170000D03*
D66*
X142205000Y-74870000D03*
X142205000Y-75870000D03*
X142205000Y-77370000D03*
X142205000Y-78370000D03*
D65*
X142205000Y-79070000D03*
X142205000Y-79870000D03*
D67*
X143120000Y-80940000D03*
D68*
X147300000Y-80940000D03*
D67*
X143120000Y-72300000D03*
D68*
X147300000Y-72300000D03*
D24*
X127747001Y-69000000D03*
X125747001Y-69000000D03*
D12*
X82927500Y-100560000D03*
X80852500Y-100560000D03*
D69*
X136400000Y-83500000D03*
X136400000Y-81400000D03*
D70*
X131400000Y-81400000D03*
X132800000Y-81400000D03*
D28*
X130000001Y-61474150D03*
X129200001Y-61474150D03*
D25*
X105860000Y-97940000D03*
X105860000Y-99940000D03*
D35*
X142700000Y-94400000D03*
D71*
X87550000Y-87300000D03*
X87550000Y-85000000D03*
D72*
X81250000Y-85000000D03*
D71*
X87550000Y-82700000D03*
D24*
X86750000Y-74700000D03*
X84750000Y-74700000D03*
D25*
X103730000Y-97940000D03*
X103730000Y-99940000D03*
X67449800Y-101879800D03*
X67449800Y-103879800D03*
D53*
X78846217Y-55653658D03*
D54*
X78846217Y-58193658D03*
X76306217Y-55653658D03*
X76306217Y-58193658D03*
X73766217Y-55653658D03*
X73766217Y-58193658D03*
X71226217Y-55653658D03*
X71226217Y-58193658D03*
X68686217Y-55653658D03*
X68686217Y-58193658D03*
D19*
X70259800Y-107798800D03*
X72259800Y-107798800D03*
%LPD*%
M02*
