G04 #@! TF.GenerationSoftware,KiCad,Pcbnew,8.0.4*
G04 #@! TF.CreationDate,2024-08-16T23:51:58-05:00*
G04 #@! TF.ProjectId,BatteryCo,42617474-6572-4794-936f-2e6b69636164,rev?*
G04 #@! TF.SameCoordinates,Original*
G04 #@! TF.FileFunction,Soldermask,Bot*
G04 #@! TF.FilePolarity,Negative*
%FSLAX46Y46*%
G04 Gerber Fmt 4.6, Leading zero omitted, Abs format (unit mm)*
G04 Created by KiCad (PCBNEW 8.0.4) date 2024-08-16 23:51:58*
%MOMM*%
%LPD*%
G01*
G04 APERTURE LIST*
G04 Aperture macros list*
%AMRoundRect*
0 Rectangle with rounded corners*
0 $1 Rounding radius*
0 $2 $3 $4 $5 $6 $7 $8 $9 X,Y pos of 4 corners*
0 Add a 4 corners polygon primitive as box body*
4,1,4,$2,$3,$4,$5,$6,$7,$8,$9,$2,$3,0*
0 Add four circle primitives for the rounded corners*
1,1,$1+$1,$2,$3*
1,1,$1+$1,$4,$5*
1,1,$1+$1,$6,$7*
1,1,$1+$1,$8,$9*
0 Add four rect primitives between the rounded corners*
20,1,$1+$1,$2,$3,$4,$5,0*
20,1,$1+$1,$4,$5,$6,$7,0*
20,1,$1+$1,$6,$7,$8,$9,0*
20,1,$1+$1,$8,$9,$2,$3,0*%
G04 Aperture macros list end*
%ADD10R,1.700000X1.700000*%
%ADD11O,1.700000X1.700000*%
%ADD12RoundRect,0.249999X1.950001X1.950001X-1.950001X1.950001X-1.950001X-1.950001X1.950001X-1.950001X0*%
%ADD13RoundRect,0.249999X-1.950001X-1.950001X1.950001X-1.950001X1.950001X1.950001X-1.950001X1.950001X0*%
%ADD14C,1.000000*%
%ADD15C,3.250000*%
%ADD16R,1.500000X1.500000*%
%ADD17C,1.500000*%
%ADD18C,2.300000*%
%ADD19RoundRect,0.250000X-0.600000X0.600000X-0.600000X-0.600000X0.600000X-0.600000X0.600000X0.600000X0*%
%ADD20C,1.700000*%
%ADD21C,0.650000*%
%ADD22O,2.100000X1.000000*%
%ADD23O,1.600000X1.000000*%
G04 APERTURE END LIST*
D10*
X88354000Y-53019600D03*
D11*
X90894000Y-53019600D03*
X93434000Y-53019600D03*
X95974000Y-53019600D03*
D12*
X125692000Y-121244000D03*
D10*
X88354000Y-60030000D03*
D11*
X90894000Y-60030000D03*
X93434000Y-60030000D03*
X95974000Y-60030000D03*
D10*
X87240000Y-124820000D03*
D11*
X87240000Y-127360000D03*
X87240000Y-129900000D03*
X87240000Y-132440000D03*
D13*
X120300000Y-87100000D03*
X98370000Y-85030000D03*
D10*
X100310000Y-114400000D03*
D11*
X100310000Y-116940000D03*
X100310000Y-119480000D03*
X100310000Y-122020000D03*
D13*
X139200000Y-87200000D03*
D14*
X146070000Y-67070000D03*
X146070000Y-59070000D03*
D10*
X79540000Y-124820000D03*
D11*
X79540000Y-127360000D03*
X79540000Y-129900000D03*
X79540000Y-132440000D03*
D13*
X142600000Y-120500000D03*
X129800000Y-87200000D03*
X142600000Y-112700000D03*
D15*
X55322000Y-105746000D03*
X55322000Y-93046000D03*
D16*
X57862000Y-102956000D03*
D17*
X59642000Y-101940000D03*
X57862000Y-100924000D03*
X59642000Y-99908000D03*
X57862000Y-98892000D03*
X59642000Y-97876000D03*
X57862000Y-96860000D03*
X59642000Y-95844000D03*
X64462000Y-106256000D03*
X64462000Y-103966000D03*
X64462000Y-94826000D03*
X64462000Y-92536000D03*
D18*
X58752000Y-107526000D03*
X58752000Y-91266000D03*
D19*
X115024000Y-55653658D03*
D20*
X115024000Y-58193658D03*
X112484000Y-55653658D03*
X112484000Y-58193658D03*
X109944000Y-55653658D03*
X109944000Y-58193658D03*
X107404000Y-55653658D03*
X107404000Y-58193658D03*
X104864000Y-55653658D03*
X104864000Y-58193658D03*
D12*
X109182000Y-111084000D03*
D15*
X55334000Y-125354800D03*
X55334000Y-112654800D03*
D16*
X57874000Y-122564800D03*
D17*
X59654000Y-121548800D03*
X57874000Y-120532800D03*
X59654000Y-119516800D03*
X57874000Y-118500800D03*
X59654000Y-117484800D03*
X57874000Y-116468800D03*
X59654000Y-115452800D03*
X64474000Y-125864800D03*
X64474000Y-123574800D03*
X64474000Y-114434800D03*
X64474000Y-112144800D03*
D18*
X58764000Y-127134800D03*
X58764000Y-110874800D03*
D12*
X109436000Y-121300000D03*
X117310000Y-121300000D03*
D21*
X143650000Y-79510000D03*
X143650000Y-73730000D03*
D22*
X143120000Y-80940000D03*
D23*
X147300000Y-80940000D03*
D22*
X143120000Y-72300000D03*
D23*
X147300000Y-72300000D03*
D13*
X142700000Y-94400000D03*
D19*
X78846217Y-55653658D03*
D20*
X78846217Y-58193658D03*
X76306217Y-55653658D03*
X76306217Y-58193658D03*
X73766217Y-55653658D03*
X73766217Y-58193658D03*
X71226217Y-55653658D03*
X71226217Y-58193658D03*
X68686217Y-55653658D03*
X68686217Y-58193658D03*
M02*
