M48
; DRILL file {KiCad 8.0.4} date 2024-08-16T23:52:55-0500
; FORMAT={-:-/ absolute / metric / decimal}
; #@! TF.CreationDate,2024-08-16T23:52:55-05:00
; #@! TF.GenerationSoftware,Kicad,Pcbnew,8.0.4
; #@! TF.FileFunction,Plated,1,2,PTH
FMAT,2
METRIC
; #@! TA.AperFunction,Plated,PTH,ViaDrill
T1C0.300
; #@! TA.AperFunction,Plated,PTH,ComponentDrill
T2C0.600
; #@! TA.AperFunction,Plated,PTH,ComponentDrill
T3C0.890
; #@! TA.AperFunction,Plated,PTH,ComponentDrill
T4C1.000
; #@! TA.AperFunction,Plated,PTH,ComponentDrill
T5C1.570
; #@! TA.AperFunction,Plated,PTH,ComponentDrill
T6C3.000
%
G90
G05
T1
X51.0Y-89.26
X51.012Y-71.74
X51.524Y-75.524
X51.524Y-78.826
X51.524Y-82.128
X52.032Y-95.59
X52.54Y-123.276
X52.794Y-66.126
X53.222Y-85.43
X54.318Y-97.876
X54.822Y-85.32
X54.902Y-71.892
X55.334Y-75.27
X55.334Y-81.874
X55.944Y-71.943
X56.092Y-85.33
X57.362Y-85.36
X58.632Y-85.36
X59.652Y-73.39
X59.906Y-85.43
X60.132Y-83.93
X60.414Y-73.99
X61.811Y-61.884
X61.86Y-71.86
X61.93Y-78.66
X61.938Y-91.018
X62.446Y-122.768
X62.7Y-118.45
X62.725Y-60.868
X63.462Y-91.018
X63.97Y-118.45
X64.684Y-48.679
X64.684Y-50.429
X64.732Y-97.368
X64.732Y-101.94
X65.11Y-73.74
X65.793Y-78.207
X66.002Y-73.492
X66.256Y-71.562
X66.434Y-48.679
X66.434Y-50.429
X67.5Y-81.874
X67.5Y-83.144
X68.184Y-48.679
X68.184Y-50.429
X69.177Y-113.827
X69.202Y-90.28
X69.934Y-48.679
X69.934Y-50.429
X70.472Y-114.31
X71.438Y-110.703
X71.59Y-88.732
X71.684Y-48.679
X71.684Y-50.429
X71.7Y-94.8
X72.1Y-82.8
X72.885Y-111.262
X73.434Y-48.679
X73.434Y-50.429
X73.876Y-88.732
X74.2Y-92.7
X74.924Y-86.476
X75.184Y-48.679
X75.184Y-50.429
X75.86Y-100.36
X75.86Y-101.96
X76.162Y-67.396
X76.594Y-113.88
X76.619Y-115.123
X76.934Y-48.679
X76.934Y-50.429
X77.686Y-85.43
X77.686Y-117.917
X78.194Y-111.084
X78.26Y-100.36
X78.26Y-101.96
X78.65Y-74.35
X78.684Y-48.679
X78.684Y-50.429
X79.64Y-79.4
X79.972Y-115.656
X80.434Y-48.679
X80.434Y-50.429
X80.8Y-105.2
X80.937Y-112.735
X81.2Y-79.4
X81.25Y-85.0
X82.184Y-48.679
X82.184Y-50.429
X83.934Y-48.679
X83.934Y-50.429
X84.064Y-71.968
X84.29Y-66.634
X84.447Y-64.836
X85.7Y-90.002
X85.7Y-91.602
X85.814Y-71.968
X85.944Y-48.704
X85.944Y-50.454
X86.068Y-66.634
X87.694Y-48.704
X87.694Y-50.454
X87.874Y-81.112
X88.1Y-90.002
X88.1Y-91.602
X89.444Y-48.704
X89.444Y-50.454
X89.624Y-81.112
X89.9Y-85.0
X90.894Y-66.38
X91.194Y-48.704
X91.194Y-50.454
X91.4Y-111.9
X92.926Y-82.946
X92.926Y-84.696
X92.926Y-86.446
X92.944Y-48.704
X92.944Y-50.454
X93.5Y-109.1
X93.7Y-95.9
X94.3Y-111.9
X94.694Y-48.704
X94.694Y-50.454
X95.0Y-101.5
X95.15Y-66.6
X95.45Y-76.04
X95.5Y-95.9
X96.444Y-48.704
X96.444Y-50.454
X96.482Y-133.182
X96.9Y-66.6
X97.2Y-101.5
X97.6Y-72.1
X97.6Y-73.85
X97.6Y-75.6
X98.006Y-93.812
X98.194Y-48.704
X98.194Y-50.454
X98.22Y-95.082
X98.65Y-66.6
X98.8Y-108.8
X99.35Y-72.1
X99.35Y-73.85
X99.35Y-75.6
X99.944Y-48.704
X99.944Y-50.454
X100.3Y-102.4
X100.4Y-66.6
X100.482Y-133.182
X101.1Y-72.1
X101.1Y-73.85
X101.1Y-75.6
X101.694Y-48.704
X101.694Y-50.454
X102.15Y-66.6
X102.85Y-72.1
X102.85Y-73.85
X102.85Y-75.6
X103.444Y-48.704
X103.444Y-50.454
X103.9Y-66.6
X103.99Y-83.82
X103.99Y-85.32
X103.99Y-86.82
X104.482Y-133.182
X104.6Y-72.1
X104.6Y-73.85
X104.6Y-75.6
X105.194Y-48.704
X105.194Y-50.454
X105.49Y-83.82
X105.49Y-85.32
X105.49Y-86.82
X105.65Y-66.6
X106.134Y-91.526
X106.226Y-94.066
X106.35Y-72.1
X106.35Y-73.85
X106.35Y-75.6
X107.239Y-94.485
X107.4Y-66.6
X108.1Y-72.1
X108.1Y-73.85
X108.1Y-75.6
X108.482Y-133.182
X109.15Y-66.6
X109.85Y-72.1
X109.85Y-73.85
X109.85Y-75.6
X110.9Y-66.6
X111.6Y-72.1
X111.6Y-73.85
X111.6Y-75.6
X111.7Y-85.2
X111.7Y-86.7
X111.7Y-88.2
X112.482Y-133.182
X112.65Y-66.6
X113.2Y-85.2
X113.2Y-86.7
X113.2Y-88.2
X113.35Y-72.1
X113.35Y-73.85
X113.35Y-75.6
X113.4Y-79.3
X113.4Y-81.3
X115.1Y-72.1
X115.1Y-73.85
X115.1Y-75.6
X115.4Y-79.3
X115.4Y-81.3
X116.482Y-133.182
X116.85Y-72.1
X116.85Y-73.85
X116.85Y-75.6
X117.4Y-79.3
X117.4Y-81.3
X119.4Y-79.3
X119.4Y-81.3
X120.482Y-133.182
X121.4Y-79.3
X121.4Y-81.3
X123.4Y-79.3
X123.4Y-81.3
X123.8Y-56.5
X123.8Y-59.0
X123.8Y-61.5
X123.8Y-63.9
X123.8Y-66.4
X123.8Y-69.0
X124.482Y-133.182
X125.4Y-79.3
X125.4Y-81.3
X127.114Y-54.188
X128.482Y-133.182
X131.6Y-59.0
X131.6Y-69.0
X131.9Y-105.8
X132.0Y-56.5
X132.3Y-61.5
X132.3Y-63.9
X132.3Y-66.4
X132.482Y-133.182
X136.482Y-133.182
X140.482Y-133.182
X147.79Y-87.462
X147.79Y-90.51
X147.79Y-93.304
X147.79Y-96.352
T3
X57.862Y-96.86
X57.862Y-98.892
X57.862Y-100.924
X57.862Y-102.956
X57.874Y-116.469
X57.874Y-118.501
X57.874Y-120.533
X57.874Y-122.565
X59.642Y-95.844
X59.642Y-97.876
X59.642Y-99.908
X59.642Y-101.94
X59.654Y-115.453
X59.654Y-117.485
X59.654Y-119.517
X59.654Y-121.549
X64.462Y-92.536
X64.462Y-94.826
X64.462Y-103.966
X64.462Y-106.256
X64.474Y-112.145
X64.474Y-114.435
X64.474Y-123.575
X64.474Y-125.865
T4
X68.686Y-55.654
X68.686Y-58.194
X71.226Y-55.654
X71.226Y-58.194
X73.766Y-55.654
X73.766Y-58.194
X76.306Y-55.654
X76.306Y-58.194
X78.846Y-55.654
X78.846Y-58.194
X79.54Y-124.82
X79.54Y-127.36
X79.54Y-129.9
X79.54Y-132.44
X87.24Y-124.82
X87.24Y-127.36
X87.24Y-129.9
X87.24Y-132.44
X88.354Y-53.02
X88.354Y-60.03
X90.894Y-53.02
X90.894Y-60.03
X93.434Y-53.02
X93.434Y-60.03
X95.974Y-53.02
X95.974Y-60.03
X100.31Y-114.4
X100.31Y-116.94
X100.31Y-119.48
X100.31Y-122.02
X104.864Y-55.654
X104.864Y-58.194
X107.404Y-55.654
X107.404Y-58.194
X109.944Y-55.654
X109.944Y-58.194
X112.484Y-55.654
X112.484Y-58.194
X115.024Y-55.654
X115.024Y-58.194
T5
X58.752Y-91.266
X58.752Y-107.526
X58.764Y-110.875
X58.764Y-127.135
T6
X98.37Y-85.03
X109.182Y-111.084
X109.436Y-121.3
X117.31Y-121.3
X120.3Y-87.1
X125.692Y-121.244
X129.8Y-87.2
X139.2Y-87.2
X142.6Y-112.7
X142.6Y-120.5
X142.7Y-94.4
T2
X142.57Y-72.3G85X143.67Y-72.3
G05
X142.57Y-80.94G85X143.67Y-80.94
G05
X147.0Y-72.3G85X147.6Y-72.3
G05
X147.0Y-80.94G85X147.6Y-80.94
G05
M30
