%TF.GenerationSoftware,KiCad,Pcbnew,8.0.4*%
%TF.CreationDate,2024-08-16T23:53:02-05:00*%
%TF.ProjectId,BatteryCo,42617474-6572-4794-936f-2e6b69636164,rev?*%
%TF.SameCoordinates,Original*%
%TF.FileFunction,Drillmap*%
%TF.FilePolarity,Positive*%
%FSLAX45Y45*%
G04 Gerber Fmt 4.5, Leading zero omitted, Abs format (unit mm)*
G04 Created by KiCad (PCBNEW 8.0.4) date 2024-08-16 23:53:02*
%MOMM*%
%LPD*%
G01*
G04 APERTURE LIST*
%ADD10C,0.250000*%
%ADD11C,0.200000*%
%ADD12C,0.100000*%
%ADD13C,0.157000*%
%ADD14C,0.300000*%
G04 APERTURE END LIST*
D10*
X14825000Y-4953000D02*
G75*
G02*
X14375000Y-4953000I-225000J0D01*
G01*
X14375000Y-4953000D02*
G75*
G02*
X14825000Y-4953000I225000J0D01*
G01*
X5400000Y-13553000D02*
G75*
G02*
X5000000Y-13153000I0J400000D01*
G01*
X5400000Y-13553000D02*
X14600000Y-13553000D01*
X14825000Y-13153000D02*
G75*
G02*
X14375000Y-13153000I-225000J0D01*
G01*
X14375000Y-13153000D02*
G75*
G02*
X14825000Y-13153000I225000J0D01*
G01*
X5000000Y-4953000D02*
G75*
G02*
X5400000Y-4553000I400000J0D01*
G01*
X5625000Y-4953000D02*
G75*
G02*
X5175000Y-4953000I-225000J0D01*
G01*
X5175000Y-4953000D02*
G75*
G02*
X5625000Y-4953000I225000J0D01*
G01*
X15000000Y-13153000D02*
X15000000Y-4953000D01*
X5625000Y-13153000D02*
G75*
G02*
X5175000Y-13153000I-225000J0D01*
G01*
X5175000Y-13153000D02*
G75*
G02*
X5625000Y-13153000I225000J0D01*
G01*
X5000000Y-4953000D02*
X5000000Y-13153000D01*
X14600000Y-4553000D02*
X5400000Y-4553000D01*
X14600000Y-4553000D02*
G75*
G02*
X15000000Y-4953000I0J-400000D01*
G01*
X15000000Y-13153000D02*
G75*
G02*
X14600000Y-13553000I-400000J0D01*
G01*
D11*
D12*
X5085000Y-8911000D02*
X5115000Y-8941000D01*
X5115000Y-8911000D02*
X5085000Y-8941000D01*
X5086200Y-7159000D02*
X5116200Y-7189000D01*
X5116200Y-7159000D02*
X5086200Y-7189000D01*
X5137400Y-7537400D02*
X5167400Y-7567400D01*
X5167400Y-7537400D02*
X5137400Y-7567400D01*
X5137400Y-7867600D02*
X5167400Y-7897600D01*
X5167400Y-7867600D02*
X5137400Y-7897600D01*
X5137400Y-8197800D02*
X5167400Y-8227800D01*
X5167400Y-8197800D02*
X5137400Y-8227800D01*
X5188200Y-9544000D02*
X5218200Y-9574000D01*
X5218200Y-9544000D02*
X5188200Y-9574000D01*
X5239000Y-12312600D02*
X5269000Y-12342600D01*
X5269000Y-12312600D02*
X5239000Y-12342600D01*
X5264400Y-6597600D02*
X5294400Y-6627600D01*
X5294400Y-6597600D02*
X5264400Y-6627600D01*
X5307200Y-8528000D02*
X5337200Y-8558000D01*
X5337200Y-8528000D02*
X5307200Y-8558000D01*
X5416800Y-9772600D02*
X5446800Y-9802600D01*
X5446800Y-9772600D02*
X5416800Y-9802600D01*
X5467200Y-8517000D02*
X5497200Y-8547000D01*
X5497200Y-8517000D02*
X5467200Y-8547000D01*
X5475220Y-7174180D02*
X5505220Y-7204180D01*
X5505220Y-7174180D02*
X5475220Y-7204180D01*
X5518400Y-7512000D02*
X5548400Y-7542000D01*
X5548400Y-7512000D02*
X5518400Y-7542000D01*
X5518400Y-8172400D02*
X5548400Y-8202400D01*
X5548400Y-8172400D02*
X5518400Y-8202400D01*
X5579360Y-7179260D02*
X5609360Y-7209260D01*
X5609360Y-7179260D02*
X5579360Y-7209260D01*
X5594200Y-8518000D02*
X5624200Y-8548000D01*
X5624200Y-8518000D02*
X5594200Y-8548000D01*
X5721200Y-8521000D02*
X5751200Y-8551000D01*
X5751200Y-8521000D02*
X5721200Y-8551000D01*
X5848200Y-8521000D02*
X5878200Y-8551000D01*
X5878200Y-8521000D02*
X5848200Y-8551000D01*
X5950200Y-7324000D02*
X5980200Y-7354000D01*
X5980200Y-7324000D02*
X5950200Y-7354000D01*
X5975600Y-8528000D02*
X6005600Y-8558000D01*
X6005600Y-8528000D02*
X5975600Y-8558000D01*
X5998200Y-8378000D02*
X6028200Y-8408000D01*
X6028200Y-8378000D02*
X5998200Y-8408000D01*
X6026400Y-7384000D02*
X6056400Y-7414000D01*
X6056400Y-7384000D02*
X6026400Y-7414000D01*
X6166100Y-6173420D02*
X6196100Y-6203420D01*
X6196100Y-6173420D02*
X6166100Y-6203420D01*
X6171000Y-7171000D02*
X6201000Y-7201000D01*
X6201000Y-7171000D02*
X6171000Y-7201000D01*
X6178000Y-7851000D02*
X6208000Y-7881000D01*
X6208000Y-7851000D02*
X6178000Y-7881000D01*
X6178800Y-9086800D02*
X6208800Y-9116800D01*
X6208800Y-9086800D02*
X6178800Y-9116800D01*
X6229600Y-12261800D02*
X6259600Y-12291800D01*
X6259600Y-12261800D02*
X6229600Y-12291800D01*
X6255000Y-11830000D02*
X6285000Y-11860000D01*
X6285000Y-11830000D02*
X6255000Y-11860000D01*
X6257540Y-6071820D02*
X6287540Y-6101820D01*
X6287540Y-6071820D02*
X6257540Y-6101820D01*
X6331200Y-9086800D02*
X6361200Y-9116800D01*
X6361200Y-9086800D02*
X6331200Y-9116800D01*
X6382000Y-11830000D02*
X6412000Y-11860000D01*
X6412000Y-11830000D02*
X6382000Y-11860000D01*
X6453440Y-4852880D02*
X6483440Y-4882880D01*
X6483440Y-4852880D02*
X6453440Y-4882880D01*
X6453440Y-5027880D02*
X6483440Y-5057880D01*
X6483440Y-5027880D02*
X6453440Y-5057880D01*
X6458200Y-9721800D02*
X6488200Y-9751800D01*
X6488200Y-9721800D02*
X6458200Y-9751800D01*
X6458200Y-10179000D02*
X6488200Y-10209000D01*
X6488200Y-10179000D02*
X6458200Y-10209000D01*
X6496000Y-7359000D02*
X6526000Y-7389000D01*
X6526000Y-7359000D02*
X6496000Y-7389000D01*
X6564289Y-7805711D02*
X6594289Y-7835711D01*
X6594289Y-7805711D02*
X6564289Y-7835711D01*
X6585200Y-7334200D02*
X6615200Y-7364200D01*
X6615200Y-7334200D02*
X6585200Y-7364200D01*
X6610600Y-7141160D02*
X6640600Y-7171160D01*
X6640600Y-7141160D02*
X6610600Y-7171160D01*
X6628440Y-4852880D02*
X6658440Y-4882880D01*
X6658440Y-4852880D02*
X6628440Y-4882880D01*
X6628440Y-5027880D02*
X6658440Y-5057880D01*
X6658440Y-5027880D02*
X6628440Y-5057880D01*
X6735000Y-8172400D02*
X6765000Y-8202400D01*
X6765000Y-8172400D02*
X6735000Y-8202400D01*
X6735000Y-8299400D02*
X6765000Y-8329400D01*
X6765000Y-8299400D02*
X6735000Y-8329400D01*
X6803440Y-4852880D02*
X6833440Y-4882880D01*
X6833440Y-4852880D02*
X6803440Y-4882880D01*
X6803440Y-5027880D02*
X6833440Y-5057880D01*
X6833440Y-5027880D02*
X6803440Y-5057880D01*
X6902700Y-11367720D02*
X6932700Y-11397720D01*
X6932700Y-11367720D02*
X6902700Y-11397720D01*
X6905240Y-9013000D02*
X6935240Y-9043000D01*
X6935240Y-9013000D02*
X6905240Y-9043000D01*
X6978440Y-4852880D02*
X7008440Y-4882880D01*
X7008440Y-4852880D02*
X6978440Y-4882880D01*
X6978440Y-5027880D02*
X7008440Y-5057880D01*
X7008440Y-5027880D02*
X6978440Y-5057880D01*
X7032240Y-11415980D02*
X7062240Y-11445980D01*
X7062240Y-11415980D02*
X7032240Y-11445980D01*
X7128760Y-11055300D02*
X7158760Y-11085300D01*
X7158760Y-11055300D02*
X7128760Y-11085300D01*
X7144000Y-8858200D02*
X7174000Y-8888200D01*
X7174000Y-8858200D02*
X7144000Y-8888200D01*
X7153440Y-4852880D02*
X7183440Y-4882880D01*
X7183440Y-4852880D02*
X7153440Y-4882880D01*
X7153440Y-5027880D02*
X7183440Y-5057880D01*
X7183440Y-5027880D02*
X7153440Y-5057880D01*
X7155000Y-9465000D02*
X7185000Y-9495000D01*
X7185000Y-9465000D02*
X7155000Y-9495000D01*
X7195000Y-8265000D02*
X7225000Y-8295000D01*
X7225000Y-8265000D02*
X7195000Y-8295000D01*
X7273540Y-11111180D02*
X7303540Y-11141180D01*
X7303540Y-11111180D02*
X7273540Y-11141180D01*
X7328440Y-4852880D02*
X7358440Y-4882880D01*
X7358440Y-4852880D02*
X7328440Y-4882880D01*
X7328440Y-5027880D02*
X7358440Y-5057880D01*
X7358440Y-5027880D02*
X7328440Y-5057880D01*
X7372600Y-8858200D02*
X7402600Y-8888200D01*
X7402600Y-8858200D02*
X7372600Y-8888200D01*
X7405000Y-9255000D02*
X7435000Y-9285000D01*
X7435000Y-9255000D02*
X7405000Y-9285000D01*
X7477426Y-8632574D02*
X7507426Y-8662574D01*
X7507426Y-8632574D02*
X7477426Y-8662574D01*
X7503440Y-4852880D02*
X7533440Y-4882880D01*
X7533440Y-4852880D02*
X7503440Y-4882880D01*
X7503440Y-5027880D02*
X7533440Y-5057880D01*
X7533440Y-5027880D02*
X7503440Y-5057880D01*
X7571000Y-10021000D02*
X7601000Y-10051000D01*
X7601000Y-10021000D02*
X7571000Y-10051000D01*
X7571000Y-10181000D02*
X7601000Y-10211000D01*
X7601000Y-10181000D02*
X7571000Y-10211000D01*
X7601200Y-6724600D02*
X7631200Y-6754600D01*
X7631200Y-6724600D02*
X7601200Y-6754600D01*
X7644380Y-11373000D02*
X7674380Y-11403000D01*
X7674380Y-11373000D02*
X7644380Y-11403000D01*
X7646920Y-11497260D02*
X7676920Y-11527260D01*
X7676920Y-11497260D02*
X7646920Y-11527260D01*
X7678440Y-4852880D02*
X7708440Y-4882880D01*
X7708440Y-4852880D02*
X7678440Y-4882880D01*
X7678440Y-5027880D02*
X7708440Y-5057880D01*
X7708440Y-5027880D02*
X7678440Y-5057880D01*
X7753600Y-8528000D02*
X7783600Y-8558000D01*
X7783600Y-8528000D02*
X7753600Y-8558000D01*
X7753600Y-11776660D02*
X7783600Y-11806660D01*
X7783600Y-11776660D02*
X7753600Y-11806660D01*
X7804400Y-11093400D02*
X7834400Y-11123400D01*
X7834400Y-11093400D02*
X7804400Y-11123400D01*
X7811000Y-10021000D02*
X7841000Y-10051000D01*
X7841000Y-10021000D02*
X7811000Y-10051000D01*
X7811000Y-10181000D02*
X7841000Y-10211000D01*
X7841000Y-10181000D02*
X7811000Y-10211000D01*
X7850000Y-7420000D02*
X7880000Y-7450000D01*
X7880000Y-7420000D02*
X7850000Y-7450000D01*
X7853440Y-4852880D02*
X7883440Y-4882880D01*
X7883440Y-4852880D02*
X7853440Y-4882880D01*
X7853440Y-5027880D02*
X7883440Y-5057880D01*
X7883440Y-5027880D02*
X7853440Y-5057880D01*
X7949000Y-7925000D02*
X7979000Y-7955000D01*
X7979000Y-7925000D02*
X7949000Y-7955000D01*
X7982200Y-11550600D02*
X8012200Y-11580600D01*
X8012200Y-11550600D02*
X7982200Y-11580600D01*
X8028440Y-4852880D02*
X8058440Y-4882880D01*
X8058440Y-4852880D02*
X8028440Y-4882880D01*
X8028440Y-5027880D02*
X8058440Y-5057880D01*
X8058440Y-5027880D02*
X8028440Y-5057880D01*
X8065000Y-10505000D02*
X8095000Y-10535000D01*
X8095000Y-10505000D02*
X8065000Y-10535000D01*
X8078720Y-11258500D02*
X8108720Y-11288500D01*
X8108720Y-11258500D02*
X8078720Y-11288500D01*
X8105000Y-7925000D02*
X8135000Y-7955000D01*
X8135000Y-7925000D02*
X8105000Y-7955000D01*
X8110000Y-8485000D02*
X8140000Y-8515000D01*
X8140000Y-8485000D02*
X8110000Y-8515000D01*
X8203440Y-4852880D02*
X8233440Y-4882880D01*
X8233440Y-4852880D02*
X8203440Y-4882880D01*
X8203440Y-5027880D02*
X8233440Y-5057880D01*
X8233440Y-5027880D02*
X8203440Y-5057880D01*
X8378440Y-4852880D02*
X8408440Y-4882880D01*
X8408440Y-4852880D02*
X8378440Y-4882880D01*
X8378440Y-5027880D02*
X8408440Y-5057880D01*
X8408440Y-5027880D02*
X8378440Y-5057880D01*
X8391400Y-7181800D02*
X8421400Y-7211800D01*
X8421400Y-7181800D02*
X8391400Y-7211800D01*
X8414000Y-6648400D02*
X8444000Y-6678400D01*
X8444000Y-6648400D02*
X8414000Y-6678400D01*
X8429732Y-6468552D02*
X8459732Y-6498552D01*
X8459732Y-6468552D02*
X8429732Y-6498552D01*
X8555000Y-8985200D02*
X8585000Y-9015200D01*
X8585000Y-8985200D02*
X8555000Y-9015200D01*
X8555000Y-9145200D02*
X8585000Y-9175200D01*
X8585000Y-9145200D02*
X8555000Y-9175200D01*
X8566400Y-7181800D02*
X8596400Y-7211800D01*
X8596400Y-7181800D02*
X8566400Y-7211800D01*
X8579420Y-4855420D02*
X8609420Y-4885420D01*
X8609420Y-4855420D02*
X8579420Y-4885420D01*
X8579420Y-5030420D02*
X8609420Y-5060420D01*
X8609420Y-5030420D02*
X8579420Y-5060420D01*
X8591800Y-6648400D02*
X8621800Y-6678400D01*
X8621800Y-6648400D02*
X8591800Y-6678400D01*
X8754420Y-4855420D02*
X8784420Y-4885420D01*
X8784420Y-4855420D02*
X8754420Y-4885420D01*
X8754420Y-5030420D02*
X8784420Y-5060420D01*
X8784420Y-5030420D02*
X8754420Y-5060420D01*
X8772400Y-8096200D02*
X8802400Y-8126200D01*
X8802400Y-8096200D02*
X8772400Y-8126200D01*
X8795000Y-8985200D02*
X8825000Y-9015200D01*
X8825000Y-8985200D02*
X8795000Y-9015200D01*
X8795000Y-9145200D02*
X8825000Y-9175200D01*
X8825000Y-9145200D02*
X8795000Y-9175200D01*
X8929420Y-4855420D02*
X8959420Y-4885420D01*
X8959420Y-4855420D02*
X8929420Y-4885420D01*
X8929420Y-5030420D02*
X8959420Y-5060420D01*
X8959420Y-5030420D02*
X8929420Y-5060420D01*
X8947400Y-8096200D02*
X8977400Y-8126200D01*
X8977400Y-8096200D02*
X8947400Y-8126200D01*
X8975000Y-8485000D02*
X9005000Y-8515000D01*
X9005000Y-8485000D02*
X8975000Y-8515000D01*
X9074400Y-6623000D02*
X9104400Y-6653000D01*
X9104400Y-6623000D02*
X9074400Y-6653000D01*
X9104420Y-4855420D02*
X9134420Y-4885420D01*
X9134420Y-4855420D02*
X9104420Y-4885420D01*
X9104420Y-5030420D02*
X9134420Y-5060420D01*
X9134420Y-5030420D02*
X9104420Y-5060420D01*
X9125000Y-11175000D02*
X9155000Y-11205000D01*
X9155000Y-11175000D02*
X9125000Y-11205000D01*
X9277600Y-8279600D02*
X9307600Y-8309600D01*
X9307600Y-8279600D02*
X9277600Y-8309600D01*
X9277600Y-8454600D02*
X9307600Y-8484600D01*
X9307600Y-8454600D02*
X9277600Y-8484600D01*
X9277600Y-8629600D02*
X9307600Y-8659600D01*
X9307600Y-8629600D02*
X9277600Y-8659600D01*
X9279420Y-4855420D02*
X9309420Y-4885420D01*
X9309420Y-4855420D02*
X9279420Y-4885420D01*
X9279420Y-5030420D02*
X9309420Y-5060420D01*
X9309420Y-5030420D02*
X9279420Y-5060420D01*
X9335000Y-10895000D02*
X9365000Y-10925000D01*
X9365000Y-10895000D02*
X9335000Y-10925000D01*
X9355000Y-9575000D02*
X9385000Y-9605000D01*
X9385000Y-9575000D02*
X9355000Y-9605000D01*
X9415000Y-11175000D02*
X9445000Y-11205000D01*
X9445000Y-11175000D02*
X9415000Y-11205000D01*
X9454420Y-4855420D02*
X9484420Y-4885420D01*
X9484420Y-4855420D02*
X9454420Y-4885420D01*
X9454420Y-5030420D02*
X9484420Y-5060420D01*
X9484420Y-5030420D02*
X9454420Y-5060420D01*
X9485000Y-10135000D02*
X9515000Y-10165000D01*
X9515000Y-10135000D02*
X9485000Y-10165000D01*
X9500000Y-6645000D02*
X9530000Y-6675000D01*
X9530000Y-6645000D02*
X9500000Y-6675000D01*
X9530000Y-7589000D02*
X9560000Y-7619000D01*
X9560000Y-7589000D02*
X9530000Y-7619000D01*
X9535000Y-9575000D02*
X9565000Y-9605000D01*
X9565000Y-9575000D02*
X9535000Y-9605000D01*
X9629420Y-4855420D02*
X9659420Y-4885420D01*
X9659420Y-4855420D02*
X9629420Y-4885420D01*
X9629420Y-5030420D02*
X9659420Y-5060420D01*
X9659420Y-5030420D02*
X9629420Y-5060420D01*
X9633200Y-13303200D02*
X9663200Y-13333200D01*
X9663200Y-13303200D02*
X9633200Y-13333200D01*
X9675000Y-6645000D02*
X9705000Y-6675000D01*
X9705000Y-6645000D02*
X9675000Y-6675000D01*
X9705000Y-10135000D02*
X9735000Y-10165000D01*
X9735000Y-10135000D02*
X9705000Y-10165000D01*
X9745000Y-7195000D02*
X9775000Y-7225000D01*
X9775000Y-7195000D02*
X9745000Y-7225000D01*
X9745000Y-7370000D02*
X9775000Y-7400000D01*
X9775000Y-7370000D02*
X9745000Y-7400000D01*
X9745000Y-7545000D02*
X9775000Y-7575000D01*
X9775000Y-7545000D02*
X9745000Y-7575000D01*
X9785600Y-9366200D02*
X9815600Y-9396200D01*
X9815600Y-9366200D02*
X9785600Y-9396200D01*
X9804420Y-4855420D02*
X9834420Y-4885420D01*
X9834420Y-4855420D02*
X9804420Y-4885420D01*
X9804420Y-5030420D02*
X9834420Y-5060420D01*
X9834420Y-5030420D02*
X9804420Y-5060420D01*
X9807000Y-9493200D02*
X9837000Y-9523200D01*
X9837000Y-9493200D02*
X9807000Y-9523200D01*
X9850000Y-6645000D02*
X9880000Y-6675000D01*
X9880000Y-6645000D02*
X9850000Y-6675000D01*
X9865000Y-10865000D02*
X9895000Y-10895000D01*
X9895000Y-10865000D02*
X9865000Y-10895000D01*
X9920000Y-7195000D02*
X9950000Y-7225000D01*
X9950000Y-7195000D02*
X9920000Y-7225000D01*
X9920000Y-7370000D02*
X9950000Y-7400000D01*
X9950000Y-7370000D02*
X9920000Y-7400000D01*
X9920000Y-7545000D02*
X9950000Y-7575000D01*
X9950000Y-7545000D02*
X9920000Y-7575000D01*
X9979420Y-4855420D02*
X10009420Y-4885420D01*
X10009420Y-4855420D02*
X9979420Y-4885420D01*
X9979420Y-5030420D02*
X10009420Y-5060420D01*
X10009420Y-5030420D02*
X9979420Y-5060420D01*
X10015000Y-10225000D02*
X10045000Y-10255000D01*
X10045000Y-10225000D02*
X10015000Y-10255000D01*
X10025000Y-6645000D02*
X10055000Y-6675000D01*
X10055000Y-6645000D02*
X10025000Y-6675000D01*
X10033200Y-13303200D02*
X10063200Y-13333200D01*
X10063200Y-13303200D02*
X10033200Y-13333200D01*
X10095000Y-7195000D02*
X10125000Y-7225000D01*
X10125000Y-7195000D02*
X10095000Y-7225000D01*
X10095000Y-7370000D02*
X10125000Y-7400000D01*
X10125000Y-7370000D02*
X10095000Y-7400000D01*
X10095000Y-7545000D02*
X10125000Y-7575000D01*
X10125000Y-7545000D02*
X10095000Y-7575000D01*
X10154420Y-4855420D02*
X10184420Y-4885420D01*
X10184420Y-4855420D02*
X10154420Y-4885420D01*
X10154420Y-5030420D02*
X10184420Y-5060420D01*
X10184420Y-5030420D02*
X10154420Y-5060420D01*
X10200000Y-6645000D02*
X10230000Y-6675000D01*
X10230000Y-6645000D02*
X10200000Y-6675000D01*
X10270000Y-7195000D02*
X10300000Y-7225000D01*
X10300000Y-7195000D02*
X10270000Y-7225000D01*
X10270000Y-7370000D02*
X10300000Y-7400000D01*
X10300000Y-7370000D02*
X10270000Y-7400000D01*
X10270000Y-7545000D02*
X10300000Y-7575000D01*
X10300000Y-7545000D02*
X10270000Y-7575000D01*
X10329420Y-4855420D02*
X10359420Y-4885420D01*
X10359420Y-4855420D02*
X10329420Y-4885420D01*
X10329420Y-5030420D02*
X10359420Y-5060420D01*
X10359420Y-5030420D02*
X10329420Y-5060420D01*
X10375000Y-6645000D02*
X10405000Y-6675000D01*
X10405000Y-6645000D02*
X10375000Y-6675000D01*
X10384000Y-8367000D02*
X10414000Y-8397000D01*
X10414000Y-8367000D02*
X10384000Y-8397000D01*
X10384000Y-8517000D02*
X10414000Y-8547000D01*
X10414000Y-8517000D02*
X10384000Y-8547000D01*
X10384000Y-8667000D02*
X10414000Y-8697000D01*
X10414000Y-8667000D02*
X10384000Y-8697000D01*
X10433200Y-13303200D02*
X10463200Y-13333200D01*
X10463200Y-13303200D02*
X10433200Y-13333200D01*
X10445000Y-7195000D02*
X10475000Y-7225000D01*
X10475000Y-7195000D02*
X10445000Y-7225000D01*
X10445000Y-7370000D02*
X10475000Y-7400000D01*
X10475000Y-7370000D02*
X10445000Y-7400000D01*
X10445000Y-7545000D02*
X10475000Y-7575000D01*
X10475000Y-7545000D02*
X10445000Y-7575000D01*
X10504420Y-4855420D02*
X10534420Y-4885420D01*
X10534420Y-4855420D02*
X10504420Y-4885420D01*
X10504420Y-5030420D02*
X10534420Y-5060420D01*
X10534420Y-5030420D02*
X10504420Y-5060420D01*
X10534000Y-8367000D02*
X10564000Y-8397000D01*
X10564000Y-8367000D02*
X10534000Y-8397000D01*
X10534000Y-8517000D02*
X10564000Y-8547000D01*
X10564000Y-8517000D02*
X10534000Y-8547000D01*
X10534000Y-8667000D02*
X10564000Y-8697000D01*
X10564000Y-8667000D02*
X10534000Y-8697000D01*
X10550000Y-6645000D02*
X10580000Y-6675000D01*
X10580000Y-6645000D02*
X10550000Y-6675000D01*
X10598400Y-9137600D02*
X10628400Y-9167600D01*
X10628400Y-9137600D02*
X10598400Y-9167600D01*
X10607600Y-9391600D02*
X10637600Y-9421600D01*
X10637600Y-9391600D02*
X10607600Y-9421600D01*
X10620000Y-7195000D02*
X10650000Y-7225000D01*
X10650000Y-7195000D02*
X10620000Y-7225000D01*
X10620000Y-7370000D02*
X10650000Y-7400000D01*
X10650000Y-7370000D02*
X10620000Y-7400000D01*
X10620000Y-7545000D02*
X10650000Y-7575000D01*
X10650000Y-7545000D02*
X10620000Y-7575000D01*
X10708927Y-9433474D02*
X10738927Y-9463474D01*
X10738927Y-9433474D02*
X10708927Y-9463474D01*
X10725000Y-6645000D02*
X10755000Y-6675000D01*
X10755000Y-6645000D02*
X10725000Y-6675000D01*
X10795000Y-7195000D02*
X10825000Y-7225000D01*
X10825000Y-7195000D02*
X10795000Y-7225000D01*
X10795000Y-7370000D02*
X10825000Y-7400000D01*
X10825000Y-7370000D02*
X10795000Y-7400000D01*
X10795000Y-7545000D02*
X10825000Y-7575000D01*
X10825000Y-7545000D02*
X10795000Y-7575000D01*
X10833200Y-13303200D02*
X10863200Y-13333200D01*
X10863200Y-13303200D02*
X10833200Y-13333200D01*
X10900000Y-6645000D02*
X10930000Y-6675000D01*
X10930000Y-6645000D02*
X10900000Y-6675000D01*
X10970000Y-7195000D02*
X11000000Y-7225000D01*
X11000000Y-7195000D02*
X10970000Y-7225000D01*
X10970000Y-7370000D02*
X11000000Y-7400000D01*
X11000000Y-7370000D02*
X10970000Y-7400000D01*
X10970000Y-7545000D02*
X11000000Y-7575000D01*
X11000000Y-7545000D02*
X10970000Y-7575000D01*
X11075000Y-6645000D02*
X11105000Y-6675000D01*
X11105000Y-6645000D02*
X11075000Y-6675000D01*
X11145000Y-7195000D02*
X11175000Y-7225000D01*
X11175000Y-7195000D02*
X11145000Y-7225000D01*
X11145000Y-7370000D02*
X11175000Y-7400000D01*
X11175000Y-7370000D02*
X11145000Y-7400000D01*
X11145000Y-7545000D02*
X11175000Y-7575000D01*
X11175000Y-7545000D02*
X11145000Y-7575000D01*
X11155000Y-8505000D02*
X11185000Y-8535000D01*
X11185000Y-8505000D02*
X11155000Y-8535000D01*
X11155000Y-8655000D02*
X11185000Y-8685000D01*
X11185000Y-8655000D02*
X11155000Y-8685000D01*
X11155000Y-8805000D02*
X11185000Y-8835000D01*
X11185000Y-8805000D02*
X11155000Y-8835000D01*
X11233200Y-13303200D02*
X11263200Y-13333200D01*
X11263200Y-13303200D02*
X11233200Y-13333200D01*
X11250000Y-6645000D02*
X11280000Y-6675000D01*
X11280000Y-6645000D02*
X11250000Y-6675000D01*
X11305000Y-8505000D02*
X11335000Y-8535000D01*
X11335000Y-8505000D02*
X11305000Y-8535000D01*
X11305000Y-8655000D02*
X11335000Y-8685000D01*
X11335000Y-8655000D02*
X11305000Y-8685000D01*
X11305000Y-8805000D02*
X11335000Y-8835000D01*
X11335000Y-8805000D02*
X11305000Y-8835000D01*
X11320000Y-7195000D02*
X11350000Y-7225000D01*
X11350000Y-7195000D02*
X11320000Y-7225000D01*
X11320000Y-7370000D02*
X11350000Y-7400000D01*
X11350000Y-7370000D02*
X11320000Y-7400000D01*
X11320000Y-7545000D02*
X11350000Y-7575000D01*
X11350000Y-7545000D02*
X11320000Y-7575000D01*
X11325000Y-7915000D02*
X11355000Y-7945000D01*
X11355000Y-7915000D02*
X11325000Y-7945000D01*
X11325000Y-8115000D02*
X11355000Y-8145000D01*
X11355000Y-8115000D02*
X11325000Y-8145000D01*
X11495000Y-7195000D02*
X11525000Y-7225000D01*
X11525000Y-7195000D02*
X11495000Y-7225000D01*
X11495000Y-7370000D02*
X11525000Y-7400000D01*
X11525000Y-7370000D02*
X11495000Y-7400000D01*
X11495000Y-7545000D02*
X11525000Y-7575000D01*
X11525000Y-7545000D02*
X11495000Y-7575000D01*
X11525000Y-7915000D02*
X11555000Y-7945000D01*
X11555000Y-7915000D02*
X11525000Y-7945000D01*
X11525000Y-8115000D02*
X11555000Y-8145000D01*
X11555000Y-8115000D02*
X11525000Y-8145000D01*
X11633200Y-13303200D02*
X11663200Y-13333200D01*
X11663200Y-13303200D02*
X11633200Y-13333200D01*
X11670000Y-7195000D02*
X11700000Y-7225000D01*
X11700000Y-7195000D02*
X11670000Y-7225000D01*
X11670000Y-7370000D02*
X11700000Y-7400000D01*
X11700000Y-7370000D02*
X11670000Y-7400000D01*
X11670000Y-7545000D02*
X11700000Y-7575000D01*
X11700000Y-7545000D02*
X11670000Y-7575000D01*
X11725000Y-7915000D02*
X11755000Y-7945000D01*
X11755000Y-7915000D02*
X11725000Y-7945000D01*
X11725000Y-8115000D02*
X11755000Y-8145000D01*
X11755000Y-8115000D02*
X11725000Y-8145000D01*
X11925000Y-7915000D02*
X11955000Y-7945000D01*
X11955000Y-7915000D02*
X11925000Y-7945000D01*
X11925000Y-8115000D02*
X11955000Y-8145000D01*
X11955000Y-8115000D02*
X11925000Y-8145000D01*
X12033200Y-13303200D02*
X12063200Y-13333200D01*
X12063200Y-13303200D02*
X12033200Y-13333200D01*
X12125000Y-7915000D02*
X12155000Y-7945000D01*
X12155000Y-7915000D02*
X12125000Y-7945000D01*
X12125000Y-8115000D02*
X12155000Y-8145000D01*
X12155000Y-8115000D02*
X12125000Y-8145000D01*
X12325000Y-7915000D02*
X12355000Y-7945000D01*
X12355000Y-7915000D02*
X12325000Y-7945000D01*
X12325000Y-8115000D02*
X12355000Y-8145000D01*
X12355000Y-8115000D02*
X12325000Y-8145000D01*
X12365000Y-5635000D02*
X12395000Y-5665000D01*
X12395000Y-5635000D02*
X12365000Y-5665000D01*
X12365000Y-5885000D02*
X12395000Y-5915000D01*
X12395000Y-5885000D02*
X12365000Y-5915000D01*
X12365000Y-6135000D02*
X12395000Y-6165000D01*
X12395000Y-6135000D02*
X12365000Y-6165000D01*
X12365000Y-6375000D02*
X12395000Y-6405000D01*
X12395000Y-6375000D02*
X12365000Y-6405000D01*
X12365000Y-6625000D02*
X12395000Y-6655000D01*
X12395000Y-6625000D02*
X12365000Y-6655000D01*
X12365000Y-6885000D02*
X12395000Y-6915000D01*
X12395000Y-6885000D02*
X12365000Y-6915000D01*
X12433200Y-13303200D02*
X12463200Y-13333200D01*
X12463200Y-13303200D02*
X12433200Y-13333200D01*
X12525000Y-7915000D02*
X12555000Y-7945000D01*
X12555000Y-7915000D02*
X12525000Y-7945000D01*
X12525000Y-8115000D02*
X12555000Y-8145000D01*
X12555000Y-8115000D02*
X12525000Y-8145000D01*
X12696440Y-5403800D02*
X12726440Y-5433800D01*
X12726440Y-5403800D02*
X12696440Y-5433800D01*
X12833200Y-13303200D02*
X12863200Y-13333200D01*
X12863200Y-13303200D02*
X12833200Y-13333200D01*
X13145000Y-5885000D02*
X13175000Y-5915000D01*
X13175000Y-5885000D02*
X13145000Y-5915000D01*
X13145000Y-6885000D02*
X13175000Y-6915000D01*
X13175000Y-6885000D02*
X13145000Y-6915000D01*
X13175000Y-10565000D02*
X13205000Y-10595000D01*
X13205000Y-10565000D02*
X13175000Y-10595000D01*
X13185000Y-5635000D02*
X13215000Y-5665000D01*
X13215000Y-5635000D02*
X13185000Y-5665000D01*
X13215000Y-6135000D02*
X13245000Y-6165000D01*
X13245000Y-6135000D02*
X13215000Y-6165000D01*
X13215000Y-6375000D02*
X13245000Y-6405000D01*
X13245000Y-6375000D02*
X13215000Y-6405000D01*
X13215000Y-6625000D02*
X13245000Y-6655000D01*
X13245000Y-6625000D02*
X13215000Y-6655000D01*
X13233200Y-13303200D02*
X13263200Y-13333200D01*
X13263200Y-13303200D02*
X13233200Y-13333200D01*
X13633200Y-13303200D02*
X13663200Y-13333200D01*
X13663200Y-13303200D02*
X13633200Y-13333200D01*
X14033200Y-13303200D02*
X14063200Y-13333200D01*
X14063200Y-13303200D02*
X14033200Y-13333200D01*
X14764000Y-8731200D02*
X14794000Y-8761200D01*
X14794000Y-8731200D02*
X14764000Y-8761200D01*
X14764000Y-9036000D02*
X14794000Y-9066000D01*
X14794000Y-9036000D02*
X14764000Y-9066000D01*
X14764000Y-9315400D02*
X14794000Y-9345400D01*
X14794000Y-9315400D02*
X14764000Y-9345400D01*
X14764000Y-9620200D02*
X14794000Y-9650200D01*
X14794000Y-9620200D02*
X14764000Y-9650200D01*
X14342000Y-7230000D02*
G75*
G02*
X14282000Y-7230000I-30000J0D01*
G01*
X14282000Y-7230000D02*
G75*
G02*
X14342000Y-7230000I30000J0D01*
G01*
X14257000Y-7260000D02*
X14367000Y-7260000D01*
X14367000Y-7200000D02*
G75*
G02*
X14367000Y-7260000I0J-30000D01*
G01*
X14367000Y-7200000D02*
X14257000Y-7200000D01*
X14257000Y-7200000D02*
G75*
G03*
X14257000Y-7260000I0J-30000D01*
G01*
X14342000Y-8094000D02*
G75*
G02*
X14282000Y-8094000I-30000J0D01*
G01*
X14282000Y-8094000D02*
G75*
G02*
X14342000Y-8094000I30000J0D01*
G01*
X14257000Y-8124000D02*
X14367000Y-8124000D01*
X14367000Y-8064000D02*
G75*
G02*
X14367000Y-8124000I0J-30000D01*
G01*
X14367000Y-8064000D02*
X14257000Y-8064000D01*
X14257000Y-8064000D02*
G75*
G03*
X14257000Y-8124000I0J-30000D01*
G01*
X14760000Y-7230000D02*
G75*
G02*
X14700000Y-7230000I-30000J0D01*
G01*
X14700000Y-7230000D02*
G75*
G02*
X14760000Y-7230000I30000J0D01*
G01*
X14700000Y-7260000D02*
X14760000Y-7260000D01*
X14760000Y-7200000D02*
G75*
G02*
X14760000Y-7260000I0J-30000D01*
G01*
X14760000Y-7200000D02*
X14700000Y-7200000D01*
X14700000Y-7200000D02*
G75*
G03*
X14700000Y-7260000I0J-30000D01*
G01*
X14760000Y-8094000D02*
G75*
G02*
X14700000Y-8094000I-30000J0D01*
G01*
X14700000Y-8094000D02*
G75*
G02*
X14760000Y-8094000I30000J0D01*
G01*
X14700000Y-8124000D02*
X14760000Y-8124000D01*
X14760000Y-8064000D02*
G75*
G02*
X14760000Y-8124000I0J-30000D01*
G01*
X14760000Y-8064000D02*
X14700000Y-8064000D01*
X14700000Y-8064000D02*
G75*
G03*
X14700000Y-8124000I0J-30000D01*
G01*
X5786200Y-9641500D02*
X5786200Y-9730500D01*
X5741700Y-9686000D02*
X5830700Y-9686000D01*
X5786200Y-9844700D02*
X5786200Y-9933700D01*
X5741700Y-9889200D02*
X5830700Y-9889200D01*
X5786200Y-10047900D02*
X5786200Y-10136900D01*
X5741700Y-10092400D02*
X5830700Y-10092400D01*
X5786200Y-10251100D02*
X5786200Y-10340100D01*
X5741700Y-10295600D02*
X5830700Y-10295600D01*
X5787400Y-11602380D02*
X5787400Y-11691380D01*
X5742900Y-11646880D02*
X5831900Y-11646880D01*
X5787400Y-11805580D02*
X5787400Y-11894580D01*
X5742900Y-11850080D02*
X5831900Y-11850080D01*
X5787400Y-12008780D02*
X5787400Y-12097780D01*
X5742900Y-12053280D02*
X5831900Y-12053280D01*
X5787400Y-12211980D02*
X5787400Y-12300980D01*
X5742900Y-12256480D02*
X5831900Y-12256480D01*
X5964200Y-9539900D02*
X5964200Y-9628900D01*
X5919700Y-9584400D02*
X6008700Y-9584400D01*
X5964200Y-9743100D02*
X5964200Y-9832100D01*
X5919700Y-9787600D02*
X6008700Y-9787600D01*
X5964200Y-9946300D02*
X5964200Y-10035300D01*
X5919700Y-9990800D02*
X6008700Y-9990800D01*
X5964200Y-10149500D02*
X5964200Y-10238500D01*
X5919700Y-10194000D02*
X6008700Y-10194000D01*
X5965400Y-11500780D02*
X5965400Y-11589780D01*
X5920900Y-11545280D02*
X6009900Y-11545280D01*
X5965400Y-11703980D02*
X5965400Y-11792980D01*
X5920900Y-11748480D02*
X6009900Y-11748480D01*
X5965400Y-11907180D02*
X5965400Y-11996180D01*
X5920900Y-11951680D02*
X6009900Y-11951680D01*
X5965400Y-12110380D02*
X5965400Y-12199380D01*
X5920900Y-12154880D02*
X6009900Y-12154880D01*
X6446200Y-9209100D02*
X6446200Y-9298100D01*
X6401700Y-9253600D02*
X6490700Y-9253600D01*
X6446200Y-9438100D02*
X6446200Y-9527100D01*
X6401700Y-9482600D02*
X6490700Y-9482600D01*
X6446200Y-10352100D02*
X6446200Y-10441100D01*
X6401700Y-10396600D02*
X6490700Y-10396600D01*
X6446200Y-10581100D02*
X6446200Y-10670100D01*
X6401700Y-10625600D02*
X6490700Y-10625600D01*
X6447400Y-11169980D02*
X6447400Y-11258980D01*
X6402900Y-11214480D02*
X6491900Y-11214480D01*
X6447400Y-11398980D02*
X6447400Y-11487980D01*
X6402900Y-11443480D02*
X6491900Y-11443480D01*
X6447400Y-12312980D02*
X6447400Y-12401980D01*
X6402900Y-12357480D02*
X6491900Y-12357480D01*
X6447400Y-12541980D02*
X6447400Y-12630980D01*
X6402900Y-12586480D02*
X6491900Y-12586480D01*
X6903977Y-5600721D02*
X6903977Y-5530010D01*
X6833266Y-5530010D01*
X6833266Y-5600721D01*
X6903977Y-5600721D01*
X6903977Y-5854721D02*
X6903977Y-5784010D01*
X6833266Y-5784010D01*
X6833266Y-5854721D01*
X6903977Y-5854721D01*
X7157977Y-5600721D02*
X7157977Y-5530010D01*
X7087266Y-5530010D01*
X7087266Y-5600721D01*
X7157977Y-5600721D01*
X7157977Y-5854721D02*
X7157977Y-5784010D01*
X7087266Y-5784010D01*
X7087266Y-5854721D01*
X7157977Y-5854721D01*
X7411977Y-5600721D02*
X7411977Y-5530010D01*
X7341266Y-5530010D01*
X7341266Y-5600721D01*
X7411977Y-5600721D01*
X7411977Y-5854721D02*
X7411977Y-5784010D01*
X7341266Y-5784010D01*
X7341266Y-5854721D01*
X7411977Y-5854721D01*
X7665977Y-5600721D02*
X7665977Y-5530010D01*
X7595266Y-5530010D01*
X7595266Y-5600721D01*
X7665977Y-5600721D01*
X7665977Y-5854721D02*
X7665977Y-5784010D01*
X7595266Y-5784010D01*
X7595266Y-5854721D01*
X7665977Y-5854721D01*
X7919977Y-5600721D02*
X7919977Y-5530010D01*
X7849266Y-5530010D01*
X7849266Y-5600721D01*
X7919977Y-5600721D01*
X7919977Y-5854721D02*
X7919977Y-5784010D01*
X7849266Y-5784010D01*
X7849266Y-5854721D01*
X7919977Y-5854721D01*
X7989356Y-12517356D02*
X7989356Y-12446644D01*
X7918644Y-12446644D01*
X7918644Y-12517356D01*
X7989356Y-12517356D01*
X7989356Y-12771356D02*
X7989356Y-12700644D01*
X7918644Y-12700644D01*
X7918644Y-12771356D01*
X7989356Y-12771356D01*
X7989356Y-13025356D02*
X7989356Y-12954644D01*
X7918644Y-12954644D01*
X7918644Y-13025356D01*
X7989356Y-13025356D01*
X7989356Y-13279356D02*
X7989356Y-13208644D01*
X7918644Y-13208644D01*
X7918644Y-13279356D01*
X7989356Y-13279356D01*
X8759356Y-12517356D02*
X8759356Y-12446644D01*
X8688644Y-12446644D01*
X8688644Y-12517356D01*
X8759356Y-12517356D01*
X8759356Y-12771356D02*
X8759356Y-12700644D01*
X8688644Y-12700644D01*
X8688644Y-12771356D01*
X8759356Y-12771356D01*
X8759356Y-13025356D02*
X8759356Y-12954644D01*
X8688644Y-12954644D01*
X8688644Y-13025356D01*
X8759356Y-13025356D01*
X8759356Y-13279356D02*
X8759356Y-13208644D01*
X8688644Y-13208644D01*
X8688644Y-13279356D01*
X8759356Y-13279356D01*
X8870756Y-5337316D02*
X8870756Y-5266604D01*
X8800044Y-5266604D01*
X8800044Y-5337316D01*
X8870756Y-5337316D01*
X8870756Y-6038356D02*
X8870756Y-5967644D01*
X8800044Y-5967644D01*
X8800044Y-6038356D01*
X8870756Y-6038356D01*
X9124756Y-5337316D02*
X9124756Y-5266604D01*
X9054044Y-5266604D01*
X9054044Y-5337316D01*
X9124756Y-5337316D01*
X9124756Y-6038356D02*
X9124756Y-5967644D01*
X9054044Y-5967644D01*
X9054044Y-6038356D01*
X9124756Y-6038356D01*
X9378756Y-5337316D02*
X9378756Y-5266604D01*
X9308044Y-5266604D01*
X9308044Y-5337316D01*
X9378756Y-5337316D01*
X9378756Y-6038356D02*
X9378756Y-5967644D01*
X9308044Y-5967644D01*
X9308044Y-6038356D01*
X9378756Y-6038356D01*
X9632756Y-5337316D02*
X9632756Y-5266604D01*
X9562044Y-5266604D01*
X9562044Y-5337316D01*
X9632756Y-5337316D01*
X9632756Y-6038356D02*
X9632756Y-5967644D01*
X9562044Y-5967644D01*
X9562044Y-6038356D01*
X9632756Y-6038356D01*
X10066356Y-11475356D02*
X10066356Y-11404644D01*
X9995644Y-11404644D01*
X9995644Y-11475356D01*
X10066356Y-11475356D01*
X10066356Y-11729356D02*
X10066356Y-11658644D01*
X9995644Y-11658644D01*
X9995644Y-11729356D01*
X10066356Y-11729356D01*
X10066356Y-11983356D02*
X10066356Y-11912644D01*
X9995644Y-11912644D01*
X9995644Y-11983356D01*
X10066356Y-11983356D01*
X10066356Y-12237356D02*
X10066356Y-12166644D01*
X9995644Y-12166644D01*
X9995644Y-12237356D01*
X10066356Y-12237356D01*
X10521756Y-5600721D02*
X10521756Y-5530010D01*
X10451044Y-5530010D01*
X10451044Y-5600721D01*
X10521756Y-5600721D01*
X10521756Y-5854721D02*
X10521756Y-5784010D01*
X10451044Y-5784010D01*
X10451044Y-5854721D01*
X10521756Y-5854721D01*
X10775756Y-5600721D02*
X10775756Y-5530010D01*
X10705044Y-5530010D01*
X10705044Y-5600721D01*
X10775756Y-5600721D01*
X10775756Y-5854721D02*
X10775756Y-5784010D01*
X10705044Y-5784010D01*
X10705044Y-5854721D01*
X10775756Y-5854721D01*
X11029756Y-5600721D02*
X11029756Y-5530010D01*
X10959044Y-5530010D01*
X10959044Y-5600721D01*
X11029756Y-5600721D01*
X11029756Y-5854721D02*
X11029756Y-5784010D01*
X10959044Y-5784010D01*
X10959044Y-5854721D01*
X11029756Y-5854721D01*
X11283756Y-5600721D02*
X11283756Y-5530010D01*
X11213044Y-5530010D01*
X11213044Y-5600721D01*
X11283756Y-5600721D01*
X11283756Y-5854721D02*
X11283756Y-5784010D01*
X11213044Y-5784010D01*
X11213044Y-5854721D01*
X11283756Y-5854721D01*
X11537756Y-5600721D02*
X11537756Y-5530010D01*
X11467044Y-5530010D01*
X11467044Y-5600721D01*
X11537756Y-5600721D01*
X11537756Y-5854721D02*
X11537756Y-5784010D01*
X11467044Y-5784010D01*
X11467044Y-5854721D01*
X11537756Y-5854721D01*
D13*
X5875200Y-9205100D02*
X5953700Y-9126600D01*
X5875200Y-9048100D01*
X5796700Y-9126600D01*
X5875200Y-9205100D01*
X5875200Y-10831100D02*
X5953700Y-10752600D01*
X5875200Y-10674100D01*
X5796700Y-10752600D01*
X5875200Y-10831100D01*
X5876400Y-11165980D02*
X5954900Y-11087480D01*
X5876400Y-11008980D01*
X5797900Y-11087480D01*
X5876400Y-11165980D01*
X5876400Y-12791980D02*
X5954900Y-12713480D01*
X5876400Y-12634980D01*
X5797900Y-12713480D01*
X5876400Y-12791980D01*
D14*
X9687000Y-8353000D02*
X9987000Y-8653000D01*
X9987000Y-8353000D02*
X9687000Y-8653000D01*
X9987000Y-8503000D02*
G75*
G02*
X9687000Y-8503000I-150000J0D01*
G01*
X9687000Y-8503000D02*
G75*
G02*
X9987000Y-8503000I150000J0D01*
G01*
X10768200Y-10958400D02*
X11068200Y-11258400D01*
X11068200Y-10958400D02*
X10768200Y-11258400D01*
X11068200Y-11108400D02*
G75*
G02*
X10768200Y-11108400I-150000J0D01*
G01*
X10768200Y-11108400D02*
G75*
G02*
X11068200Y-11108400I150000J0D01*
G01*
X10793600Y-11980000D02*
X11093600Y-12280000D01*
X11093600Y-11980000D02*
X10793600Y-12280000D01*
X11093600Y-12130000D02*
G75*
G02*
X10793600Y-12130000I-150000J0D01*
G01*
X10793600Y-12130000D02*
G75*
G02*
X11093600Y-12130000I150000J0D01*
G01*
X11581000Y-11980000D02*
X11881000Y-12280000D01*
X11881000Y-11980000D02*
X11581000Y-12280000D01*
X11881000Y-12130000D02*
G75*
G02*
X11581000Y-12130000I-150000J0D01*
G01*
X11581000Y-12130000D02*
G75*
G02*
X11881000Y-12130000I150000J0D01*
G01*
X11880000Y-8560000D02*
X12180000Y-8860000D01*
X12180000Y-8560000D02*
X11880000Y-8860000D01*
X12180000Y-8710000D02*
G75*
G02*
X11880000Y-8710000I-150000J0D01*
G01*
X11880000Y-8710000D02*
G75*
G02*
X12180000Y-8710000I150000J0D01*
G01*
X12419200Y-11974400D02*
X12719200Y-12274400D01*
X12719200Y-11974400D02*
X12419200Y-12274400D01*
X12719200Y-12124400D02*
G75*
G02*
X12419200Y-12124400I-150000J0D01*
G01*
X12419200Y-12124400D02*
G75*
G02*
X12719200Y-12124400I150000J0D01*
G01*
X12830000Y-8570000D02*
X13130000Y-8870000D01*
X13130000Y-8570000D02*
X12830000Y-8870000D01*
X13130000Y-8720000D02*
G75*
G02*
X12830000Y-8720000I-150000J0D01*
G01*
X12830000Y-8720000D02*
G75*
G02*
X13130000Y-8720000I150000J0D01*
G01*
X13770000Y-8570000D02*
X14070000Y-8870000D01*
X14070000Y-8570000D02*
X13770000Y-8870000D01*
X14070000Y-8720000D02*
G75*
G02*
X13770000Y-8720000I-150000J0D01*
G01*
X13770000Y-8720000D02*
G75*
G02*
X14070000Y-8720000I150000J0D01*
G01*
X14110000Y-11120000D02*
X14410000Y-11420000D01*
X14410000Y-11120000D02*
X14110000Y-11420000D01*
X14410000Y-11270000D02*
G75*
G02*
X14110000Y-11270000I-150000J0D01*
G01*
X14110000Y-11270000D02*
G75*
G02*
X14410000Y-11270000I150000J0D01*
G01*
X14110000Y-11900000D02*
X14410000Y-12200000D01*
X14410000Y-11900000D02*
X14110000Y-12200000D01*
X14410000Y-12050000D02*
G75*
G02*
X14110000Y-12050000I-150000J0D01*
G01*
X14110000Y-12050000D02*
G75*
G02*
X14410000Y-12050000I150000J0D01*
G01*
X14120000Y-9290000D02*
X14420000Y-9590000D01*
X14420000Y-9290000D02*
X14120000Y-9590000D01*
X14420000Y-9440000D02*
G75*
G02*
X14120000Y-9440000I-150000J0D01*
G01*
X14120000Y-9440000D02*
G75*
G02*
X14420000Y-9440000I150000J0D01*
G01*
D11*
X5248277Y-13876984D02*
X5248277Y-13676984D01*
X5248277Y-13676984D02*
X5295896Y-13676984D01*
X5295896Y-13676984D02*
X5324467Y-13686508D01*
X5324467Y-13686508D02*
X5343515Y-13705555D01*
X5343515Y-13705555D02*
X5353039Y-13724603D01*
X5353039Y-13724603D02*
X5362563Y-13762698D01*
X5362563Y-13762698D02*
X5362563Y-13791269D01*
X5362563Y-13791269D02*
X5353039Y-13829365D01*
X5353039Y-13829365D02*
X5343515Y-13848412D01*
X5343515Y-13848412D02*
X5324467Y-13867460D01*
X5324467Y-13867460D02*
X5295896Y-13876984D01*
X5295896Y-13876984D02*
X5248277Y-13876984D01*
X5448277Y-13876984D02*
X5448277Y-13743650D01*
X5448277Y-13781746D02*
X5457801Y-13762698D01*
X5457801Y-13762698D02*
X5467324Y-13753174D01*
X5467324Y-13753174D02*
X5486372Y-13743650D01*
X5486372Y-13743650D02*
X5505420Y-13743650D01*
X5572086Y-13876984D02*
X5572086Y-13743650D01*
X5572086Y-13676984D02*
X5562563Y-13686508D01*
X5562563Y-13686508D02*
X5572086Y-13696031D01*
X5572086Y-13696031D02*
X5581610Y-13686508D01*
X5581610Y-13686508D02*
X5572086Y-13676984D01*
X5572086Y-13676984D02*
X5572086Y-13696031D01*
X5695896Y-13876984D02*
X5676848Y-13867460D01*
X5676848Y-13867460D02*
X5667324Y-13848412D01*
X5667324Y-13848412D02*
X5667324Y-13676984D01*
X5800658Y-13876984D02*
X5781610Y-13867460D01*
X5781610Y-13867460D02*
X5772086Y-13848412D01*
X5772086Y-13848412D02*
X5772086Y-13676984D01*
X6029229Y-13876984D02*
X6029229Y-13676984D01*
X6029229Y-13676984D02*
X6095896Y-13819841D01*
X6095896Y-13819841D02*
X6162562Y-13676984D01*
X6162562Y-13676984D02*
X6162562Y-13876984D01*
X6343515Y-13876984D02*
X6343515Y-13772222D01*
X6343515Y-13772222D02*
X6333991Y-13753174D01*
X6333991Y-13753174D02*
X6314943Y-13743650D01*
X6314943Y-13743650D02*
X6276848Y-13743650D01*
X6276848Y-13743650D02*
X6257801Y-13753174D01*
X6343515Y-13867460D02*
X6324467Y-13876984D01*
X6324467Y-13876984D02*
X6276848Y-13876984D01*
X6276848Y-13876984D02*
X6257801Y-13867460D01*
X6257801Y-13867460D02*
X6248277Y-13848412D01*
X6248277Y-13848412D02*
X6248277Y-13829365D01*
X6248277Y-13829365D02*
X6257801Y-13810317D01*
X6257801Y-13810317D02*
X6276848Y-13800793D01*
X6276848Y-13800793D02*
X6324467Y-13800793D01*
X6324467Y-13800793D02*
X6343515Y-13791269D01*
X6438753Y-13743650D02*
X6438753Y-13943650D01*
X6438753Y-13753174D02*
X6457801Y-13743650D01*
X6457801Y-13743650D02*
X6495896Y-13743650D01*
X6495896Y-13743650D02*
X6514943Y-13753174D01*
X6514943Y-13753174D02*
X6524467Y-13762698D01*
X6524467Y-13762698D02*
X6533991Y-13781746D01*
X6533991Y-13781746D02*
X6533991Y-13838888D01*
X6533991Y-13838888D02*
X6524467Y-13857936D01*
X6524467Y-13857936D02*
X6514943Y-13867460D01*
X6514943Y-13867460D02*
X6495896Y-13876984D01*
X6495896Y-13876984D02*
X6457801Y-13876984D01*
X6457801Y-13876984D02*
X6438753Y-13867460D01*
X6619705Y-13857936D02*
X6629229Y-13867460D01*
X6629229Y-13867460D02*
X6619705Y-13876984D01*
X6619705Y-13876984D02*
X6610182Y-13867460D01*
X6610182Y-13867460D02*
X6619705Y-13857936D01*
X6619705Y-13857936D02*
X6619705Y-13876984D01*
X6619705Y-13753174D02*
X6629229Y-13762698D01*
X6629229Y-13762698D02*
X6619705Y-13772222D01*
X6619705Y-13772222D02*
X6610182Y-13762698D01*
X6610182Y-13762698D02*
X6619705Y-13753174D01*
X6619705Y-13753174D02*
X6619705Y-13772222D01*
D12*
X4957500Y-14190500D02*
X4987500Y-14220500D01*
X4987500Y-14190500D02*
X4957500Y-14220500D01*
D11*
X5286372Y-14096984D02*
X5305420Y-14096984D01*
X5305420Y-14096984D02*
X5324467Y-14106508D01*
X5324467Y-14106508D02*
X5333991Y-14116031D01*
X5333991Y-14116031D02*
X5343515Y-14135079D01*
X5343515Y-14135079D02*
X5353039Y-14173174D01*
X5353039Y-14173174D02*
X5353039Y-14220793D01*
X5353039Y-14220793D02*
X5343515Y-14258888D01*
X5343515Y-14258888D02*
X5333991Y-14277936D01*
X5333991Y-14277936D02*
X5324467Y-14287460D01*
X5324467Y-14287460D02*
X5305420Y-14296984D01*
X5305420Y-14296984D02*
X5286372Y-14296984D01*
X5286372Y-14296984D02*
X5267324Y-14287460D01*
X5267324Y-14287460D02*
X5257801Y-14277936D01*
X5257801Y-14277936D02*
X5248277Y-14258888D01*
X5248277Y-14258888D02*
X5238753Y-14220793D01*
X5238753Y-14220793D02*
X5238753Y-14173174D01*
X5238753Y-14173174D02*
X5248277Y-14135079D01*
X5248277Y-14135079D02*
X5257801Y-14116031D01*
X5257801Y-14116031D02*
X5267324Y-14106508D01*
X5267324Y-14106508D02*
X5286372Y-14096984D01*
X5438753Y-14277936D02*
X5448277Y-14287460D01*
X5448277Y-14287460D02*
X5438753Y-14296984D01*
X5438753Y-14296984D02*
X5429229Y-14287460D01*
X5429229Y-14287460D02*
X5438753Y-14277936D01*
X5438753Y-14277936D02*
X5438753Y-14296984D01*
X5514944Y-14096984D02*
X5638753Y-14096984D01*
X5638753Y-14096984D02*
X5572086Y-14173174D01*
X5572086Y-14173174D02*
X5600658Y-14173174D01*
X5600658Y-14173174D02*
X5619705Y-14182698D01*
X5619705Y-14182698D02*
X5629229Y-14192222D01*
X5629229Y-14192222D02*
X5638753Y-14211269D01*
X5638753Y-14211269D02*
X5638753Y-14258888D01*
X5638753Y-14258888D02*
X5629229Y-14277936D01*
X5629229Y-14277936D02*
X5619705Y-14287460D01*
X5619705Y-14287460D02*
X5600658Y-14296984D01*
X5600658Y-14296984D02*
X5543515Y-14296984D01*
X5543515Y-14296984D02*
X5524467Y-14287460D01*
X5524467Y-14287460D02*
X5514944Y-14277936D01*
X5762562Y-14096984D02*
X5781610Y-14096984D01*
X5781610Y-14096984D02*
X5800658Y-14106508D01*
X5800658Y-14106508D02*
X5810182Y-14116031D01*
X5810182Y-14116031D02*
X5819705Y-14135079D01*
X5819705Y-14135079D02*
X5829229Y-14173174D01*
X5829229Y-14173174D02*
X5829229Y-14220793D01*
X5829229Y-14220793D02*
X5819705Y-14258888D01*
X5819705Y-14258888D02*
X5810182Y-14277936D01*
X5810182Y-14277936D02*
X5800658Y-14287460D01*
X5800658Y-14287460D02*
X5781610Y-14296984D01*
X5781610Y-14296984D02*
X5762562Y-14296984D01*
X5762562Y-14296984D02*
X5743515Y-14287460D01*
X5743515Y-14287460D02*
X5733991Y-14277936D01*
X5733991Y-14277936D02*
X5724467Y-14258888D01*
X5724467Y-14258888D02*
X5714943Y-14220793D01*
X5714943Y-14220793D02*
X5714943Y-14173174D01*
X5714943Y-14173174D02*
X5724467Y-14135079D01*
X5724467Y-14135079D02*
X5733991Y-14116031D01*
X5733991Y-14116031D02*
X5743515Y-14106508D01*
X5743515Y-14106508D02*
X5762562Y-14096984D01*
X5953039Y-14096984D02*
X5972086Y-14096984D01*
X5972086Y-14096984D02*
X5991134Y-14106508D01*
X5991134Y-14106508D02*
X6000658Y-14116031D01*
X6000658Y-14116031D02*
X6010182Y-14135079D01*
X6010182Y-14135079D02*
X6019705Y-14173174D01*
X6019705Y-14173174D02*
X6019705Y-14220793D01*
X6019705Y-14220793D02*
X6010182Y-14258888D01*
X6010182Y-14258888D02*
X6000658Y-14277936D01*
X6000658Y-14277936D02*
X5991134Y-14287460D01*
X5991134Y-14287460D02*
X5972086Y-14296984D01*
X5972086Y-14296984D02*
X5953039Y-14296984D01*
X5953039Y-14296984D02*
X5933991Y-14287460D01*
X5933991Y-14287460D02*
X5924467Y-14277936D01*
X5924467Y-14277936D02*
X5914943Y-14258888D01*
X5914943Y-14258888D02*
X5905420Y-14220793D01*
X5905420Y-14220793D02*
X5905420Y-14173174D01*
X5905420Y-14173174D02*
X5914943Y-14135079D01*
X5914943Y-14135079D02*
X5924467Y-14116031D01*
X5924467Y-14116031D02*
X5933991Y-14106508D01*
X5933991Y-14106508D02*
X5953039Y-14096984D01*
X6105420Y-14296984D02*
X6105420Y-14163650D01*
X6105420Y-14182698D02*
X6114943Y-14173174D01*
X6114943Y-14173174D02*
X6133991Y-14163650D01*
X6133991Y-14163650D02*
X6162563Y-14163650D01*
X6162563Y-14163650D02*
X6181610Y-14173174D01*
X6181610Y-14173174D02*
X6191134Y-14192222D01*
X6191134Y-14192222D02*
X6191134Y-14296984D01*
X6191134Y-14192222D02*
X6200658Y-14173174D01*
X6200658Y-14173174D02*
X6219705Y-14163650D01*
X6219705Y-14163650D02*
X6248277Y-14163650D01*
X6248277Y-14163650D02*
X6267324Y-14173174D01*
X6267324Y-14173174D02*
X6276848Y-14192222D01*
X6276848Y-14192222D02*
X6276848Y-14296984D01*
X6372086Y-14296984D02*
X6372086Y-14163650D01*
X6372086Y-14182698D02*
X6381610Y-14173174D01*
X6381610Y-14173174D02*
X6400658Y-14163650D01*
X6400658Y-14163650D02*
X6429229Y-14163650D01*
X6429229Y-14163650D02*
X6448277Y-14173174D01*
X6448277Y-14173174D02*
X6457801Y-14192222D01*
X6457801Y-14192222D02*
X6457801Y-14296984D01*
X6457801Y-14192222D02*
X6467324Y-14173174D01*
X6467324Y-14173174D02*
X6486372Y-14163650D01*
X6486372Y-14163650D02*
X6514943Y-14163650D01*
X6514943Y-14163650D02*
X6533991Y-14173174D01*
X6533991Y-14173174D02*
X6543515Y-14192222D01*
X6543515Y-14192222D02*
X6543515Y-14296984D01*
X6933991Y-14087460D02*
X6762563Y-14344603D01*
X7191134Y-14096984D02*
X7210182Y-14096984D01*
X7210182Y-14096984D02*
X7229229Y-14106508D01*
X7229229Y-14106508D02*
X7238753Y-14116031D01*
X7238753Y-14116031D02*
X7248277Y-14135079D01*
X7248277Y-14135079D02*
X7257801Y-14173174D01*
X7257801Y-14173174D02*
X7257801Y-14220793D01*
X7257801Y-14220793D02*
X7248277Y-14258888D01*
X7248277Y-14258888D02*
X7238753Y-14277936D01*
X7238753Y-14277936D02*
X7229229Y-14287460D01*
X7229229Y-14287460D02*
X7210182Y-14296984D01*
X7210182Y-14296984D02*
X7191134Y-14296984D01*
X7191134Y-14296984D02*
X7172086Y-14287460D01*
X7172086Y-14287460D02*
X7162563Y-14277936D01*
X7162563Y-14277936D02*
X7153039Y-14258888D01*
X7153039Y-14258888D02*
X7143515Y-14220793D01*
X7143515Y-14220793D02*
X7143515Y-14173174D01*
X7143515Y-14173174D02*
X7153039Y-14135079D01*
X7153039Y-14135079D02*
X7162563Y-14116031D01*
X7162563Y-14116031D02*
X7172086Y-14106508D01*
X7172086Y-14106508D02*
X7191134Y-14096984D01*
X7343515Y-14277936D02*
X7353039Y-14287460D01*
X7353039Y-14287460D02*
X7343515Y-14296984D01*
X7343515Y-14296984D02*
X7333991Y-14287460D01*
X7333991Y-14287460D02*
X7343515Y-14277936D01*
X7343515Y-14277936D02*
X7343515Y-14296984D01*
X7476848Y-14096984D02*
X7495896Y-14096984D01*
X7495896Y-14096984D02*
X7514944Y-14106508D01*
X7514944Y-14106508D02*
X7524467Y-14116031D01*
X7524467Y-14116031D02*
X7533991Y-14135079D01*
X7533991Y-14135079D02*
X7543515Y-14173174D01*
X7543515Y-14173174D02*
X7543515Y-14220793D01*
X7543515Y-14220793D02*
X7533991Y-14258888D01*
X7533991Y-14258888D02*
X7524467Y-14277936D01*
X7524467Y-14277936D02*
X7514944Y-14287460D01*
X7514944Y-14287460D02*
X7495896Y-14296984D01*
X7495896Y-14296984D02*
X7476848Y-14296984D01*
X7476848Y-14296984D02*
X7457801Y-14287460D01*
X7457801Y-14287460D02*
X7448277Y-14277936D01*
X7448277Y-14277936D02*
X7438753Y-14258888D01*
X7438753Y-14258888D02*
X7429229Y-14220793D01*
X7429229Y-14220793D02*
X7429229Y-14173174D01*
X7429229Y-14173174D02*
X7438753Y-14135079D01*
X7438753Y-14135079D02*
X7448277Y-14116031D01*
X7448277Y-14116031D02*
X7457801Y-14106508D01*
X7457801Y-14106508D02*
X7476848Y-14096984D01*
X7733991Y-14296984D02*
X7619706Y-14296984D01*
X7676848Y-14296984D02*
X7676848Y-14096984D01*
X7676848Y-14096984D02*
X7657801Y-14125555D01*
X7657801Y-14125555D02*
X7638753Y-14144603D01*
X7638753Y-14144603D02*
X7619706Y-14154127D01*
X7924467Y-14296984D02*
X7810182Y-14296984D01*
X7867325Y-14296984D02*
X7867325Y-14096984D01*
X7867325Y-14096984D02*
X7848277Y-14125555D01*
X7848277Y-14125555D02*
X7829229Y-14144603D01*
X7829229Y-14144603D02*
X7810182Y-14154127D01*
X8038753Y-14182698D02*
X8019706Y-14173174D01*
X8019706Y-14173174D02*
X8010182Y-14163650D01*
X8010182Y-14163650D02*
X8000658Y-14144603D01*
X8000658Y-14144603D02*
X8000658Y-14135079D01*
X8000658Y-14135079D02*
X8010182Y-14116031D01*
X8010182Y-14116031D02*
X8019706Y-14106508D01*
X8019706Y-14106508D02*
X8038753Y-14096984D01*
X8038753Y-14096984D02*
X8076848Y-14096984D01*
X8076848Y-14096984D02*
X8095896Y-14106508D01*
X8095896Y-14106508D02*
X8105420Y-14116031D01*
X8105420Y-14116031D02*
X8114944Y-14135079D01*
X8114944Y-14135079D02*
X8114944Y-14144603D01*
X8114944Y-14144603D02*
X8105420Y-14163650D01*
X8105420Y-14163650D02*
X8095896Y-14173174D01*
X8095896Y-14173174D02*
X8076848Y-14182698D01*
X8076848Y-14182698D02*
X8038753Y-14182698D01*
X8038753Y-14182698D02*
X8019706Y-14192222D01*
X8019706Y-14192222D02*
X8010182Y-14201746D01*
X8010182Y-14201746D02*
X8000658Y-14220793D01*
X8000658Y-14220793D02*
X8000658Y-14258888D01*
X8000658Y-14258888D02*
X8010182Y-14277936D01*
X8010182Y-14277936D02*
X8019706Y-14287460D01*
X8019706Y-14287460D02*
X8038753Y-14296984D01*
X8038753Y-14296984D02*
X8076848Y-14296984D01*
X8076848Y-14296984D02*
X8095896Y-14287460D01*
X8095896Y-14287460D02*
X8105420Y-14277936D01*
X8105420Y-14277936D02*
X8114944Y-14258888D01*
X8114944Y-14258888D02*
X8114944Y-14220793D01*
X8114944Y-14220793D02*
X8105420Y-14201746D01*
X8105420Y-14201746D02*
X8095896Y-14192222D01*
X8095896Y-14192222D02*
X8076848Y-14182698D01*
X8191134Y-14096984D02*
X8191134Y-14135079D01*
X8267325Y-14096984D02*
X8267325Y-14135079D01*
X8562563Y-14373174D02*
X8553039Y-14363650D01*
X8553039Y-14363650D02*
X8533991Y-14335079D01*
X8533991Y-14335079D02*
X8524468Y-14316031D01*
X8524468Y-14316031D02*
X8514944Y-14287460D01*
X8514944Y-14287460D02*
X8505420Y-14239841D01*
X8505420Y-14239841D02*
X8505420Y-14201746D01*
X8505420Y-14201746D02*
X8514944Y-14154127D01*
X8514944Y-14154127D02*
X8524468Y-14125555D01*
X8524468Y-14125555D02*
X8533991Y-14106508D01*
X8533991Y-14106508D02*
X8553039Y-14077936D01*
X8553039Y-14077936D02*
X8562563Y-14068412D01*
X8629230Y-14116031D02*
X8638753Y-14106508D01*
X8638753Y-14106508D02*
X8657801Y-14096984D01*
X8657801Y-14096984D02*
X8705420Y-14096984D01*
X8705420Y-14096984D02*
X8724468Y-14106508D01*
X8724468Y-14106508D02*
X8733991Y-14116031D01*
X8733991Y-14116031D02*
X8743515Y-14135079D01*
X8743515Y-14135079D02*
X8743515Y-14154127D01*
X8743515Y-14154127D02*
X8733991Y-14182698D01*
X8733991Y-14182698D02*
X8619706Y-14296984D01*
X8619706Y-14296984D02*
X8743515Y-14296984D01*
X8914944Y-14163650D02*
X8914944Y-14296984D01*
X8867325Y-14087460D02*
X8819706Y-14230317D01*
X8819706Y-14230317D02*
X8943515Y-14230317D01*
X9029230Y-14296984D02*
X9067325Y-14296984D01*
X9067325Y-14296984D02*
X9086372Y-14287460D01*
X9086372Y-14287460D02*
X9095896Y-14277936D01*
X9095896Y-14277936D02*
X9114944Y-14249365D01*
X9114944Y-14249365D02*
X9124468Y-14211269D01*
X9124468Y-14211269D02*
X9124468Y-14135079D01*
X9124468Y-14135079D02*
X9114944Y-14116031D01*
X9114944Y-14116031D02*
X9105420Y-14106508D01*
X9105420Y-14106508D02*
X9086372Y-14096984D01*
X9086372Y-14096984D02*
X9048277Y-14096984D01*
X9048277Y-14096984D02*
X9029230Y-14106508D01*
X9029230Y-14106508D02*
X9019706Y-14116031D01*
X9019706Y-14116031D02*
X9010182Y-14135079D01*
X9010182Y-14135079D02*
X9010182Y-14182698D01*
X9010182Y-14182698D02*
X9019706Y-14201746D01*
X9019706Y-14201746D02*
X9029230Y-14211269D01*
X9029230Y-14211269D02*
X9048277Y-14220793D01*
X9048277Y-14220793D02*
X9086372Y-14220793D01*
X9086372Y-14220793D02*
X9105420Y-14211269D01*
X9105420Y-14211269D02*
X9114944Y-14201746D01*
X9114944Y-14201746D02*
X9124468Y-14182698D01*
X9362563Y-14296984D02*
X9362563Y-14096984D01*
X9448277Y-14296984D02*
X9448277Y-14192222D01*
X9448277Y-14192222D02*
X9438753Y-14173174D01*
X9438753Y-14173174D02*
X9419706Y-14163650D01*
X9419706Y-14163650D02*
X9391134Y-14163650D01*
X9391134Y-14163650D02*
X9372087Y-14173174D01*
X9372087Y-14173174D02*
X9362563Y-14182698D01*
X9572087Y-14296984D02*
X9553039Y-14287460D01*
X9553039Y-14287460D02*
X9543515Y-14277936D01*
X9543515Y-14277936D02*
X9533992Y-14258888D01*
X9533992Y-14258888D02*
X9533992Y-14201746D01*
X9533992Y-14201746D02*
X9543515Y-14182698D01*
X9543515Y-14182698D02*
X9553039Y-14173174D01*
X9553039Y-14173174D02*
X9572087Y-14163650D01*
X9572087Y-14163650D02*
X9600658Y-14163650D01*
X9600658Y-14163650D02*
X9619706Y-14173174D01*
X9619706Y-14173174D02*
X9629230Y-14182698D01*
X9629230Y-14182698D02*
X9638753Y-14201746D01*
X9638753Y-14201746D02*
X9638753Y-14258888D01*
X9638753Y-14258888D02*
X9629230Y-14277936D01*
X9629230Y-14277936D02*
X9619706Y-14287460D01*
X9619706Y-14287460D02*
X9600658Y-14296984D01*
X9600658Y-14296984D02*
X9572087Y-14296984D01*
X9753039Y-14296984D02*
X9733992Y-14287460D01*
X9733992Y-14287460D02*
X9724468Y-14268412D01*
X9724468Y-14268412D02*
X9724468Y-14096984D01*
X9905420Y-14287460D02*
X9886373Y-14296984D01*
X9886373Y-14296984D02*
X9848277Y-14296984D01*
X9848277Y-14296984D02*
X9829230Y-14287460D01*
X9829230Y-14287460D02*
X9819706Y-14268412D01*
X9819706Y-14268412D02*
X9819706Y-14192222D01*
X9819706Y-14192222D02*
X9829230Y-14173174D01*
X9829230Y-14173174D02*
X9848277Y-14163650D01*
X9848277Y-14163650D02*
X9886373Y-14163650D01*
X9886373Y-14163650D02*
X9905420Y-14173174D01*
X9905420Y-14173174D02*
X9914944Y-14192222D01*
X9914944Y-14192222D02*
X9914944Y-14211269D01*
X9914944Y-14211269D02*
X9819706Y-14230317D01*
X9991134Y-14287460D02*
X10010182Y-14296984D01*
X10010182Y-14296984D02*
X10048277Y-14296984D01*
X10048277Y-14296984D02*
X10067325Y-14287460D01*
X10067325Y-14287460D02*
X10076849Y-14268412D01*
X10076849Y-14268412D02*
X10076849Y-14258888D01*
X10076849Y-14258888D02*
X10067325Y-14239841D01*
X10067325Y-14239841D02*
X10048277Y-14230317D01*
X10048277Y-14230317D02*
X10019706Y-14230317D01*
X10019706Y-14230317D02*
X10000658Y-14220793D01*
X10000658Y-14220793D02*
X9991134Y-14201746D01*
X9991134Y-14201746D02*
X9991134Y-14192222D01*
X9991134Y-14192222D02*
X10000658Y-14173174D01*
X10000658Y-14173174D02*
X10019706Y-14163650D01*
X10019706Y-14163650D02*
X10048277Y-14163650D01*
X10048277Y-14163650D02*
X10067325Y-14173174D01*
X10143515Y-14373174D02*
X10153039Y-14363650D01*
X10153039Y-14363650D02*
X10172087Y-14335079D01*
X10172087Y-14335079D02*
X10181611Y-14316031D01*
X10181611Y-14316031D02*
X10191134Y-14287460D01*
X10191134Y-14287460D02*
X10200658Y-14239841D01*
X10200658Y-14239841D02*
X10200658Y-14201746D01*
X10200658Y-14201746D02*
X10191134Y-14154127D01*
X10191134Y-14154127D02*
X10181611Y-14125555D01*
X10181611Y-14125555D02*
X10172087Y-14106508D01*
X10172087Y-14106508D02*
X10153039Y-14077936D01*
X10153039Y-14077936D02*
X10143515Y-14068412D01*
D12*
X4987500Y-14469500D02*
G75*
G02*
X4927500Y-14469500I-30000J0D01*
G01*
X4927500Y-14469500D02*
G75*
G02*
X4987500Y-14469500I30000J0D01*
G01*
D11*
X5286372Y-14360984D02*
X5305420Y-14360984D01*
X5305420Y-14360984D02*
X5324467Y-14370508D01*
X5324467Y-14370508D02*
X5333991Y-14380031D01*
X5333991Y-14380031D02*
X5343515Y-14399079D01*
X5343515Y-14399079D02*
X5353039Y-14437174D01*
X5353039Y-14437174D02*
X5353039Y-14484793D01*
X5353039Y-14484793D02*
X5343515Y-14522888D01*
X5343515Y-14522888D02*
X5333991Y-14541936D01*
X5333991Y-14541936D02*
X5324467Y-14551460D01*
X5324467Y-14551460D02*
X5305420Y-14560984D01*
X5305420Y-14560984D02*
X5286372Y-14560984D01*
X5286372Y-14560984D02*
X5267324Y-14551460D01*
X5267324Y-14551460D02*
X5257801Y-14541936D01*
X5257801Y-14541936D02*
X5248277Y-14522888D01*
X5248277Y-14522888D02*
X5238753Y-14484793D01*
X5238753Y-14484793D02*
X5238753Y-14437174D01*
X5238753Y-14437174D02*
X5248277Y-14399079D01*
X5248277Y-14399079D02*
X5257801Y-14380031D01*
X5257801Y-14380031D02*
X5267324Y-14370508D01*
X5267324Y-14370508D02*
X5286372Y-14360984D01*
X5438753Y-14541936D02*
X5448277Y-14551460D01*
X5448277Y-14551460D02*
X5438753Y-14560984D01*
X5438753Y-14560984D02*
X5429229Y-14551460D01*
X5429229Y-14551460D02*
X5438753Y-14541936D01*
X5438753Y-14541936D02*
X5438753Y-14560984D01*
X5619705Y-14360984D02*
X5581610Y-14360984D01*
X5581610Y-14360984D02*
X5562563Y-14370508D01*
X5562563Y-14370508D02*
X5553039Y-14380031D01*
X5553039Y-14380031D02*
X5533991Y-14408603D01*
X5533991Y-14408603D02*
X5524467Y-14446698D01*
X5524467Y-14446698D02*
X5524467Y-14522888D01*
X5524467Y-14522888D02*
X5533991Y-14541936D01*
X5533991Y-14541936D02*
X5543515Y-14551460D01*
X5543515Y-14551460D02*
X5562563Y-14560984D01*
X5562563Y-14560984D02*
X5600658Y-14560984D01*
X5600658Y-14560984D02*
X5619705Y-14551460D01*
X5619705Y-14551460D02*
X5629229Y-14541936D01*
X5629229Y-14541936D02*
X5638753Y-14522888D01*
X5638753Y-14522888D02*
X5638753Y-14475269D01*
X5638753Y-14475269D02*
X5629229Y-14456222D01*
X5629229Y-14456222D02*
X5619705Y-14446698D01*
X5619705Y-14446698D02*
X5600658Y-14437174D01*
X5600658Y-14437174D02*
X5562563Y-14437174D01*
X5562563Y-14437174D02*
X5543515Y-14446698D01*
X5543515Y-14446698D02*
X5533991Y-14456222D01*
X5533991Y-14456222D02*
X5524467Y-14475269D01*
X5762562Y-14360984D02*
X5781610Y-14360984D01*
X5781610Y-14360984D02*
X5800658Y-14370508D01*
X5800658Y-14370508D02*
X5810182Y-14380031D01*
X5810182Y-14380031D02*
X5819705Y-14399079D01*
X5819705Y-14399079D02*
X5829229Y-14437174D01*
X5829229Y-14437174D02*
X5829229Y-14484793D01*
X5829229Y-14484793D02*
X5819705Y-14522888D01*
X5819705Y-14522888D02*
X5810182Y-14541936D01*
X5810182Y-14541936D02*
X5800658Y-14551460D01*
X5800658Y-14551460D02*
X5781610Y-14560984D01*
X5781610Y-14560984D02*
X5762562Y-14560984D01*
X5762562Y-14560984D02*
X5743515Y-14551460D01*
X5743515Y-14551460D02*
X5733991Y-14541936D01*
X5733991Y-14541936D02*
X5724467Y-14522888D01*
X5724467Y-14522888D02*
X5714943Y-14484793D01*
X5714943Y-14484793D02*
X5714943Y-14437174D01*
X5714943Y-14437174D02*
X5724467Y-14399079D01*
X5724467Y-14399079D02*
X5733991Y-14380031D01*
X5733991Y-14380031D02*
X5743515Y-14370508D01*
X5743515Y-14370508D02*
X5762562Y-14360984D01*
X5953039Y-14360984D02*
X5972086Y-14360984D01*
X5972086Y-14360984D02*
X5991134Y-14370508D01*
X5991134Y-14370508D02*
X6000658Y-14380031D01*
X6000658Y-14380031D02*
X6010182Y-14399079D01*
X6010182Y-14399079D02*
X6019705Y-14437174D01*
X6019705Y-14437174D02*
X6019705Y-14484793D01*
X6019705Y-14484793D02*
X6010182Y-14522888D01*
X6010182Y-14522888D02*
X6000658Y-14541936D01*
X6000658Y-14541936D02*
X5991134Y-14551460D01*
X5991134Y-14551460D02*
X5972086Y-14560984D01*
X5972086Y-14560984D02*
X5953039Y-14560984D01*
X5953039Y-14560984D02*
X5933991Y-14551460D01*
X5933991Y-14551460D02*
X5924467Y-14541936D01*
X5924467Y-14541936D02*
X5914943Y-14522888D01*
X5914943Y-14522888D02*
X5905420Y-14484793D01*
X5905420Y-14484793D02*
X5905420Y-14437174D01*
X5905420Y-14437174D02*
X5914943Y-14399079D01*
X5914943Y-14399079D02*
X5924467Y-14380031D01*
X5924467Y-14380031D02*
X5933991Y-14370508D01*
X5933991Y-14370508D02*
X5953039Y-14360984D01*
X6105420Y-14560984D02*
X6105420Y-14427650D01*
X6105420Y-14446698D02*
X6114943Y-14437174D01*
X6114943Y-14437174D02*
X6133991Y-14427650D01*
X6133991Y-14427650D02*
X6162563Y-14427650D01*
X6162563Y-14427650D02*
X6181610Y-14437174D01*
X6181610Y-14437174D02*
X6191134Y-14456222D01*
X6191134Y-14456222D02*
X6191134Y-14560984D01*
X6191134Y-14456222D02*
X6200658Y-14437174D01*
X6200658Y-14437174D02*
X6219705Y-14427650D01*
X6219705Y-14427650D02*
X6248277Y-14427650D01*
X6248277Y-14427650D02*
X6267324Y-14437174D01*
X6267324Y-14437174D02*
X6276848Y-14456222D01*
X6276848Y-14456222D02*
X6276848Y-14560984D01*
X6372086Y-14560984D02*
X6372086Y-14427650D01*
X6372086Y-14446698D02*
X6381610Y-14437174D01*
X6381610Y-14437174D02*
X6400658Y-14427650D01*
X6400658Y-14427650D02*
X6429229Y-14427650D01*
X6429229Y-14427650D02*
X6448277Y-14437174D01*
X6448277Y-14437174D02*
X6457801Y-14456222D01*
X6457801Y-14456222D02*
X6457801Y-14560984D01*
X6457801Y-14456222D02*
X6467324Y-14437174D01*
X6467324Y-14437174D02*
X6486372Y-14427650D01*
X6486372Y-14427650D02*
X6514943Y-14427650D01*
X6514943Y-14427650D02*
X6533991Y-14437174D01*
X6533991Y-14437174D02*
X6543515Y-14456222D01*
X6543515Y-14456222D02*
X6543515Y-14560984D01*
X6933991Y-14351460D02*
X6762563Y-14608603D01*
X7191134Y-14360984D02*
X7210182Y-14360984D01*
X7210182Y-14360984D02*
X7229229Y-14370508D01*
X7229229Y-14370508D02*
X7238753Y-14380031D01*
X7238753Y-14380031D02*
X7248277Y-14399079D01*
X7248277Y-14399079D02*
X7257801Y-14437174D01*
X7257801Y-14437174D02*
X7257801Y-14484793D01*
X7257801Y-14484793D02*
X7248277Y-14522888D01*
X7248277Y-14522888D02*
X7238753Y-14541936D01*
X7238753Y-14541936D02*
X7229229Y-14551460D01*
X7229229Y-14551460D02*
X7210182Y-14560984D01*
X7210182Y-14560984D02*
X7191134Y-14560984D01*
X7191134Y-14560984D02*
X7172086Y-14551460D01*
X7172086Y-14551460D02*
X7162563Y-14541936D01*
X7162563Y-14541936D02*
X7153039Y-14522888D01*
X7153039Y-14522888D02*
X7143515Y-14484793D01*
X7143515Y-14484793D02*
X7143515Y-14437174D01*
X7143515Y-14437174D02*
X7153039Y-14399079D01*
X7153039Y-14399079D02*
X7162563Y-14380031D01*
X7162563Y-14380031D02*
X7172086Y-14370508D01*
X7172086Y-14370508D02*
X7191134Y-14360984D01*
X7343515Y-14541936D02*
X7353039Y-14551460D01*
X7353039Y-14551460D02*
X7343515Y-14560984D01*
X7343515Y-14560984D02*
X7333991Y-14551460D01*
X7333991Y-14551460D02*
X7343515Y-14541936D01*
X7343515Y-14541936D02*
X7343515Y-14560984D01*
X7476848Y-14360984D02*
X7495896Y-14360984D01*
X7495896Y-14360984D02*
X7514944Y-14370508D01*
X7514944Y-14370508D02*
X7524467Y-14380031D01*
X7524467Y-14380031D02*
X7533991Y-14399079D01*
X7533991Y-14399079D02*
X7543515Y-14437174D01*
X7543515Y-14437174D02*
X7543515Y-14484793D01*
X7543515Y-14484793D02*
X7533991Y-14522888D01*
X7533991Y-14522888D02*
X7524467Y-14541936D01*
X7524467Y-14541936D02*
X7514944Y-14551460D01*
X7514944Y-14551460D02*
X7495896Y-14560984D01*
X7495896Y-14560984D02*
X7476848Y-14560984D01*
X7476848Y-14560984D02*
X7457801Y-14551460D01*
X7457801Y-14551460D02*
X7448277Y-14541936D01*
X7448277Y-14541936D02*
X7438753Y-14522888D01*
X7438753Y-14522888D02*
X7429229Y-14484793D01*
X7429229Y-14484793D02*
X7429229Y-14437174D01*
X7429229Y-14437174D02*
X7438753Y-14399079D01*
X7438753Y-14399079D02*
X7448277Y-14380031D01*
X7448277Y-14380031D02*
X7457801Y-14370508D01*
X7457801Y-14370508D02*
X7476848Y-14360984D01*
X7619706Y-14380031D02*
X7629229Y-14370508D01*
X7629229Y-14370508D02*
X7648277Y-14360984D01*
X7648277Y-14360984D02*
X7695896Y-14360984D01*
X7695896Y-14360984D02*
X7714944Y-14370508D01*
X7714944Y-14370508D02*
X7724467Y-14380031D01*
X7724467Y-14380031D02*
X7733991Y-14399079D01*
X7733991Y-14399079D02*
X7733991Y-14418127D01*
X7733991Y-14418127D02*
X7724467Y-14446698D01*
X7724467Y-14446698D02*
X7610182Y-14560984D01*
X7610182Y-14560984D02*
X7733991Y-14560984D01*
X7800658Y-14360984D02*
X7924467Y-14360984D01*
X7924467Y-14360984D02*
X7857801Y-14437174D01*
X7857801Y-14437174D02*
X7886372Y-14437174D01*
X7886372Y-14437174D02*
X7905420Y-14446698D01*
X7905420Y-14446698D02*
X7914944Y-14456222D01*
X7914944Y-14456222D02*
X7924467Y-14475269D01*
X7924467Y-14475269D02*
X7924467Y-14522888D01*
X7924467Y-14522888D02*
X7914944Y-14541936D01*
X7914944Y-14541936D02*
X7905420Y-14551460D01*
X7905420Y-14551460D02*
X7886372Y-14560984D01*
X7886372Y-14560984D02*
X7829229Y-14560984D01*
X7829229Y-14560984D02*
X7810182Y-14551460D01*
X7810182Y-14551460D02*
X7800658Y-14541936D01*
X8095896Y-14360984D02*
X8057801Y-14360984D01*
X8057801Y-14360984D02*
X8038753Y-14370508D01*
X8038753Y-14370508D02*
X8029229Y-14380031D01*
X8029229Y-14380031D02*
X8010182Y-14408603D01*
X8010182Y-14408603D02*
X8000658Y-14446698D01*
X8000658Y-14446698D02*
X8000658Y-14522888D01*
X8000658Y-14522888D02*
X8010182Y-14541936D01*
X8010182Y-14541936D02*
X8019706Y-14551460D01*
X8019706Y-14551460D02*
X8038753Y-14560984D01*
X8038753Y-14560984D02*
X8076848Y-14560984D01*
X8076848Y-14560984D02*
X8095896Y-14551460D01*
X8095896Y-14551460D02*
X8105420Y-14541936D01*
X8105420Y-14541936D02*
X8114944Y-14522888D01*
X8114944Y-14522888D02*
X8114944Y-14475269D01*
X8114944Y-14475269D02*
X8105420Y-14456222D01*
X8105420Y-14456222D02*
X8095896Y-14446698D01*
X8095896Y-14446698D02*
X8076848Y-14437174D01*
X8076848Y-14437174D02*
X8038753Y-14437174D01*
X8038753Y-14437174D02*
X8019706Y-14446698D01*
X8019706Y-14446698D02*
X8010182Y-14456222D01*
X8010182Y-14456222D02*
X8000658Y-14475269D01*
X8191134Y-14360984D02*
X8191134Y-14399079D01*
X8267325Y-14360984D02*
X8267325Y-14399079D01*
X8562563Y-14637174D02*
X8553039Y-14627650D01*
X8553039Y-14627650D02*
X8533991Y-14599079D01*
X8533991Y-14599079D02*
X8524468Y-14580031D01*
X8524468Y-14580031D02*
X8514944Y-14551460D01*
X8514944Y-14551460D02*
X8505420Y-14503841D01*
X8505420Y-14503841D02*
X8505420Y-14465746D01*
X8505420Y-14465746D02*
X8514944Y-14418127D01*
X8514944Y-14418127D02*
X8524468Y-14389555D01*
X8524468Y-14389555D02*
X8533991Y-14370508D01*
X8533991Y-14370508D02*
X8553039Y-14341936D01*
X8553039Y-14341936D02*
X8562563Y-14332412D01*
X8676849Y-14360984D02*
X8695896Y-14360984D01*
X8695896Y-14360984D02*
X8714944Y-14370508D01*
X8714944Y-14370508D02*
X8724468Y-14380031D01*
X8724468Y-14380031D02*
X8733991Y-14399079D01*
X8733991Y-14399079D02*
X8743515Y-14437174D01*
X8743515Y-14437174D02*
X8743515Y-14484793D01*
X8743515Y-14484793D02*
X8733991Y-14522888D01*
X8733991Y-14522888D02*
X8724468Y-14541936D01*
X8724468Y-14541936D02*
X8714944Y-14551460D01*
X8714944Y-14551460D02*
X8695896Y-14560984D01*
X8695896Y-14560984D02*
X8676849Y-14560984D01*
X8676849Y-14560984D02*
X8657801Y-14551460D01*
X8657801Y-14551460D02*
X8648277Y-14541936D01*
X8648277Y-14541936D02*
X8638753Y-14522888D01*
X8638753Y-14522888D02*
X8629230Y-14484793D01*
X8629230Y-14484793D02*
X8629230Y-14437174D01*
X8629230Y-14437174D02*
X8638753Y-14399079D01*
X8638753Y-14399079D02*
X8648277Y-14380031D01*
X8648277Y-14380031D02*
X8657801Y-14370508D01*
X8657801Y-14370508D02*
X8676849Y-14360984D01*
X8981611Y-14560984D02*
X8981611Y-14360984D01*
X9067325Y-14560984D02*
X9067325Y-14456222D01*
X9067325Y-14456222D02*
X9057801Y-14437174D01*
X9057801Y-14437174D02*
X9038753Y-14427650D01*
X9038753Y-14427650D02*
X9010182Y-14427650D01*
X9010182Y-14427650D02*
X8991134Y-14437174D01*
X8991134Y-14437174D02*
X8981611Y-14446698D01*
X9191134Y-14560984D02*
X9172087Y-14551460D01*
X9172087Y-14551460D02*
X9162563Y-14541936D01*
X9162563Y-14541936D02*
X9153039Y-14522888D01*
X9153039Y-14522888D02*
X9153039Y-14465746D01*
X9153039Y-14465746D02*
X9162563Y-14446698D01*
X9162563Y-14446698D02*
X9172087Y-14437174D01*
X9172087Y-14437174D02*
X9191134Y-14427650D01*
X9191134Y-14427650D02*
X9219706Y-14427650D01*
X9219706Y-14427650D02*
X9238753Y-14437174D01*
X9238753Y-14437174D02*
X9248277Y-14446698D01*
X9248277Y-14446698D02*
X9257801Y-14465746D01*
X9257801Y-14465746D02*
X9257801Y-14522888D01*
X9257801Y-14522888D02*
X9248277Y-14541936D01*
X9248277Y-14541936D02*
X9238753Y-14551460D01*
X9238753Y-14551460D02*
X9219706Y-14560984D01*
X9219706Y-14560984D02*
X9191134Y-14560984D01*
X9372087Y-14560984D02*
X9353039Y-14551460D01*
X9353039Y-14551460D02*
X9343515Y-14532412D01*
X9343515Y-14532412D02*
X9343515Y-14360984D01*
X9524468Y-14551460D02*
X9505420Y-14560984D01*
X9505420Y-14560984D02*
X9467325Y-14560984D01*
X9467325Y-14560984D02*
X9448277Y-14551460D01*
X9448277Y-14551460D02*
X9438753Y-14532412D01*
X9438753Y-14532412D02*
X9438753Y-14456222D01*
X9438753Y-14456222D02*
X9448277Y-14437174D01*
X9448277Y-14437174D02*
X9467325Y-14427650D01*
X9467325Y-14427650D02*
X9505420Y-14427650D01*
X9505420Y-14427650D02*
X9524468Y-14437174D01*
X9524468Y-14437174D02*
X9533992Y-14456222D01*
X9533992Y-14456222D02*
X9533992Y-14475269D01*
X9533992Y-14475269D02*
X9438753Y-14494317D01*
X9610182Y-14551460D02*
X9629230Y-14560984D01*
X9629230Y-14560984D02*
X9667325Y-14560984D01*
X9667325Y-14560984D02*
X9686373Y-14551460D01*
X9686373Y-14551460D02*
X9695896Y-14532412D01*
X9695896Y-14532412D02*
X9695896Y-14522888D01*
X9695896Y-14522888D02*
X9686373Y-14503841D01*
X9686373Y-14503841D02*
X9667325Y-14494317D01*
X9667325Y-14494317D02*
X9638753Y-14494317D01*
X9638753Y-14494317D02*
X9619706Y-14484793D01*
X9619706Y-14484793D02*
X9610182Y-14465746D01*
X9610182Y-14465746D02*
X9610182Y-14456222D01*
X9610182Y-14456222D02*
X9619706Y-14437174D01*
X9619706Y-14437174D02*
X9638753Y-14427650D01*
X9638753Y-14427650D02*
X9667325Y-14427650D01*
X9667325Y-14427650D02*
X9686373Y-14437174D01*
X9933992Y-14484793D02*
X10086373Y-14484793D01*
X10010182Y-14560984D02*
X10010182Y-14408603D01*
X10419706Y-14427650D02*
X10419706Y-14560984D01*
X10372087Y-14351460D02*
X10324468Y-14494317D01*
X10324468Y-14494317D02*
X10448277Y-14494317D01*
X10667325Y-14551460D02*
X10686373Y-14560984D01*
X10686373Y-14560984D02*
X10724468Y-14560984D01*
X10724468Y-14560984D02*
X10743516Y-14551460D01*
X10743516Y-14551460D02*
X10753039Y-14532412D01*
X10753039Y-14532412D02*
X10753039Y-14522888D01*
X10753039Y-14522888D02*
X10743516Y-14503841D01*
X10743516Y-14503841D02*
X10724468Y-14494317D01*
X10724468Y-14494317D02*
X10695896Y-14494317D01*
X10695896Y-14494317D02*
X10676849Y-14484793D01*
X10676849Y-14484793D02*
X10667325Y-14465746D01*
X10667325Y-14465746D02*
X10667325Y-14456222D01*
X10667325Y-14456222D02*
X10676849Y-14437174D01*
X10676849Y-14437174D02*
X10695896Y-14427650D01*
X10695896Y-14427650D02*
X10724468Y-14427650D01*
X10724468Y-14427650D02*
X10743516Y-14437174D01*
X10867325Y-14560984D02*
X10848277Y-14551460D01*
X10848277Y-14551460D02*
X10838754Y-14532412D01*
X10838754Y-14532412D02*
X10838754Y-14360984D01*
X10972087Y-14560984D02*
X10953039Y-14551460D01*
X10953039Y-14551460D02*
X10943516Y-14541936D01*
X10943516Y-14541936D02*
X10933992Y-14522888D01*
X10933992Y-14522888D02*
X10933992Y-14465746D01*
X10933992Y-14465746D02*
X10943516Y-14446698D01*
X10943516Y-14446698D02*
X10953039Y-14437174D01*
X10953039Y-14437174D02*
X10972087Y-14427650D01*
X10972087Y-14427650D02*
X11000658Y-14427650D01*
X11000658Y-14427650D02*
X11019706Y-14437174D01*
X11019706Y-14437174D02*
X11029230Y-14446698D01*
X11029230Y-14446698D02*
X11038754Y-14465746D01*
X11038754Y-14465746D02*
X11038754Y-14522888D01*
X11038754Y-14522888D02*
X11029230Y-14541936D01*
X11029230Y-14541936D02*
X11019706Y-14551460D01*
X11019706Y-14551460D02*
X11000658Y-14560984D01*
X11000658Y-14560984D02*
X10972087Y-14560984D01*
X11095897Y-14427650D02*
X11172087Y-14427650D01*
X11124468Y-14360984D02*
X11124468Y-14532412D01*
X11124468Y-14532412D02*
X11133992Y-14551460D01*
X11133992Y-14551460D02*
X11153039Y-14560984D01*
X11153039Y-14560984D02*
X11172087Y-14560984D01*
X11229230Y-14551460D02*
X11248277Y-14560984D01*
X11248277Y-14560984D02*
X11286373Y-14560984D01*
X11286373Y-14560984D02*
X11305420Y-14551460D01*
X11305420Y-14551460D02*
X11314944Y-14532412D01*
X11314944Y-14532412D02*
X11314944Y-14522888D01*
X11314944Y-14522888D02*
X11305420Y-14503841D01*
X11305420Y-14503841D02*
X11286373Y-14494317D01*
X11286373Y-14494317D02*
X11257801Y-14494317D01*
X11257801Y-14494317D02*
X11238754Y-14484793D01*
X11238754Y-14484793D02*
X11229230Y-14465746D01*
X11229230Y-14465746D02*
X11229230Y-14456222D01*
X11229230Y-14456222D02*
X11238754Y-14437174D01*
X11238754Y-14437174D02*
X11257801Y-14427650D01*
X11257801Y-14427650D02*
X11286373Y-14427650D01*
X11286373Y-14427650D02*
X11305420Y-14437174D01*
X11381611Y-14637174D02*
X11391135Y-14627650D01*
X11391135Y-14627650D02*
X11410182Y-14599079D01*
X11410182Y-14599079D02*
X11419706Y-14580031D01*
X11419706Y-14580031D02*
X11429230Y-14551460D01*
X11429230Y-14551460D02*
X11438754Y-14503841D01*
X11438754Y-14503841D02*
X11438754Y-14465746D01*
X11438754Y-14465746D02*
X11429230Y-14418127D01*
X11429230Y-14418127D02*
X11419706Y-14389555D01*
X11419706Y-14389555D02*
X11410182Y-14370508D01*
X11410182Y-14370508D02*
X11391135Y-14341936D01*
X11391135Y-14341936D02*
X11381611Y-14332412D01*
D12*
X4943000Y-14689000D02*
X4943000Y-14778000D01*
X4898500Y-14733500D02*
X4987500Y-14733500D01*
D11*
X5286372Y-14624984D02*
X5305420Y-14624984D01*
X5305420Y-14624984D02*
X5324467Y-14634508D01*
X5324467Y-14634508D02*
X5333991Y-14644031D01*
X5333991Y-14644031D02*
X5343515Y-14663079D01*
X5343515Y-14663079D02*
X5353039Y-14701174D01*
X5353039Y-14701174D02*
X5353039Y-14748793D01*
X5353039Y-14748793D02*
X5343515Y-14786888D01*
X5343515Y-14786888D02*
X5333991Y-14805936D01*
X5333991Y-14805936D02*
X5324467Y-14815460D01*
X5324467Y-14815460D02*
X5305420Y-14824984D01*
X5305420Y-14824984D02*
X5286372Y-14824984D01*
X5286372Y-14824984D02*
X5267324Y-14815460D01*
X5267324Y-14815460D02*
X5257801Y-14805936D01*
X5257801Y-14805936D02*
X5248277Y-14786888D01*
X5248277Y-14786888D02*
X5238753Y-14748793D01*
X5238753Y-14748793D02*
X5238753Y-14701174D01*
X5238753Y-14701174D02*
X5248277Y-14663079D01*
X5248277Y-14663079D02*
X5257801Y-14644031D01*
X5257801Y-14644031D02*
X5267324Y-14634508D01*
X5267324Y-14634508D02*
X5286372Y-14624984D01*
X5438753Y-14805936D02*
X5448277Y-14815460D01*
X5448277Y-14815460D02*
X5438753Y-14824984D01*
X5438753Y-14824984D02*
X5429229Y-14815460D01*
X5429229Y-14815460D02*
X5438753Y-14805936D01*
X5438753Y-14805936D02*
X5438753Y-14824984D01*
X5562563Y-14710698D02*
X5543515Y-14701174D01*
X5543515Y-14701174D02*
X5533991Y-14691650D01*
X5533991Y-14691650D02*
X5524467Y-14672603D01*
X5524467Y-14672603D02*
X5524467Y-14663079D01*
X5524467Y-14663079D02*
X5533991Y-14644031D01*
X5533991Y-14644031D02*
X5543515Y-14634508D01*
X5543515Y-14634508D02*
X5562563Y-14624984D01*
X5562563Y-14624984D02*
X5600658Y-14624984D01*
X5600658Y-14624984D02*
X5619705Y-14634508D01*
X5619705Y-14634508D02*
X5629229Y-14644031D01*
X5629229Y-14644031D02*
X5638753Y-14663079D01*
X5638753Y-14663079D02*
X5638753Y-14672603D01*
X5638753Y-14672603D02*
X5629229Y-14691650D01*
X5629229Y-14691650D02*
X5619705Y-14701174D01*
X5619705Y-14701174D02*
X5600658Y-14710698D01*
X5600658Y-14710698D02*
X5562563Y-14710698D01*
X5562563Y-14710698D02*
X5543515Y-14720222D01*
X5543515Y-14720222D02*
X5533991Y-14729746D01*
X5533991Y-14729746D02*
X5524467Y-14748793D01*
X5524467Y-14748793D02*
X5524467Y-14786888D01*
X5524467Y-14786888D02*
X5533991Y-14805936D01*
X5533991Y-14805936D02*
X5543515Y-14815460D01*
X5543515Y-14815460D02*
X5562563Y-14824984D01*
X5562563Y-14824984D02*
X5600658Y-14824984D01*
X5600658Y-14824984D02*
X5619705Y-14815460D01*
X5619705Y-14815460D02*
X5629229Y-14805936D01*
X5629229Y-14805936D02*
X5638753Y-14786888D01*
X5638753Y-14786888D02*
X5638753Y-14748793D01*
X5638753Y-14748793D02*
X5629229Y-14729746D01*
X5629229Y-14729746D02*
X5619705Y-14720222D01*
X5619705Y-14720222D02*
X5600658Y-14710698D01*
X5733991Y-14824984D02*
X5772086Y-14824984D01*
X5772086Y-14824984D02*
X5791134Y-14815460D01*
X5791134Y-14815460D02*
X5800658Y-14805936D01*
X5800658Y-14805936D02*
X5819705Y-14777365D01*
X5819705Y-14777365D02*
X5829229Y-14739269D01*
X5829229Y-14739269D02*
X5829229Y-14663079D01*
X5829229Y-14663079D02*
X5819705Y-14644031D01*
X5819705Y-14644031D02*
X5810182Y-14634508D01*
X5810182Y-14634508D02*
X5791134Y-14624984D01*
X5791134Y-14624984D02*
X5753039Y-14624984D01*
X5753039Y-14624984D02*
X5733991Y-14634508D01*
X5733991Y-14634508D02*
X5724467Y-14644031D01*
X5724467Y-14644031D02*
X5714943Y-14663079D01*
X5714943Y-14663079D02*
X5714943Y-14710698D01*
X5714943Y-14710698D02*
X5724467Y-14729746D01*
X5724467Y-14729746D02*
X5733991Y-14739269D01*
X5733991Y-14739269D02*
X5753039Y-14748793D01*
X5753039Y-14748793D02*
X5791134Y-14748793D01*
X5791134Y-14748793D02*
X5810182Y-14739269D01*
X5810182Y-14739269D02*
X5819705Y-14729746D01*
X5819705Y-14729746D02*
X5829229Y-14710698D01*
X5953039Y-14624984D02*
X5972086Y-14624984D01*
X5972086Y-14624984D02*
X5991134Y-14634508D01*
X5991134Y-14634508D02*
X6000658Y-14644031D01*
X6000658Y-14644031D02*
X6010182Y-14663079D01*
X6010182Y-14663079D02*
X6019705Y-14701174D01*
X6019705Y-14701174D02*
X6019705Y-14748793D01*
X6019705Y-14748793D02*
X6010182Y-14786888D01*
X6010182Y-14786888D02*
X6000658Y-14805936D01*
X6000658Y-14805936D02*
X5991134Y-14815460D01*
X5991134Y-14815460D02*
X5972086Y-14824984D01*
X5972086Y-14824984D02*
X5953039Y-14824984D01*
X5953039Y-14824984D02*
X5933991Y-14815460D01*
X5933991Y-14815460D02*
X5924467Y-14805936D01*
X5924467Y-14805936D02*
X5914943Y-14786888D01*
X5914943Y-14786888D02*
X5905420Y-14748793D01*
X5905420Y-14748793D02*
X5905420Y-14701174D01*
X5905420Y-14701174D02*
X5914943Y-14663079D01*
X5914943Y-14663079D02*
X5924467Y-14644031D01*
X5924467Y-14644031D02*
X5933991Y-14634508D01*
X5933991Y-14634508D02*
X5953039Y-14624984D01*
X6105420Y-14824984D02*
X6105420Y-14691650D01*
X6105420Y-14710698D02*
X6114943Y-14701174D01*
X6114943Y-14701174D02*
X6133991Y-14691650D01*
X6133991Y-14691650D02*
X6162563Y-14691650D01*
X6162563Y-14691650D02*
X6181610Y-14701174D01*
X6181610Y-14701174D02*
X6191134Y-14720222D01*
X6191134Y-14720222D02*
X6191134Y-14824984D01*
X6191134Y-14720222D02*
X6200658Y-14701174D01*
X6200658Y-14701174D02*
X6219705Y-14691650D01*
X6219705Y-14691650D02*
X6248277Y-14691650D01*
X6248277Y-14691650D02*
X6267324Y-14701174D01*
X6267324Y-14701174D02*
X6276848Y-14720222D01*
X6276848Y-14720222D02*
X6276848Y-14824984D01*
X6372086Y-14824984D02*
X6372086Y-14691650D01*
X6372086Y-14710698D02*
X6381610Y-14701174D01*
X6381610Y-14701174D02*
X6400658Y-14691650D01*
X6400658Y-14691650D02*
X6429229Y-14691650D01*
X6429229Y-14691650D02*
X6448277Y-14701174D01*
X6448277Y-14701174D02*
X6457801Y-14720222D01*
X6457801Y-14720222D02*
X6457801Y-14824984D01*
X6457801Y-14720222D02*
X6467324Y-14701174D01*
X6467324Y-14701174D02*
X6486372Y-14691650D01*
X6486372Y-14691650D02*
X6514943Y-14691650D01*
X6514943Y-14691650D02*
X6533991Y-14701174D01*
X6533991Y-14701174D02*
X6543515Y-14720222D01*
X6543515Y-14720222D02*
X6543515Y-14824984D01*
X6933991Y-14615460D02*
X6762563Y-14872603D01*
X7191134Y-14624984D02*
X7210182Y-14624984D01*
X7210182Y-14624984D02*
X7229229Y-14634508D01*
X7229229Y-14634508D02*
X7238753Y-14644031D01*
X7238753Y-14644031D02*
X7248277Y-14663079D01*
X7248277Y-14663079D02*
X7257801Y-14701174D01*
X7257801Y-14701174D02*
X7257801Y-14748793D01*
X7257801Y-14748793D02*
X7248277Y-14786888D01*
X7248277Y-14786888D02*
X7238753Y-14805936D01*
X7238753Y-14805936D02*
X7229229Y-14815460D01*
X7229229Y-14815460D02*
X7210182Y-14824984D01*
X7210182Y-14824984D02*
X7191134Y-14824984D01*
X7191134Y-14824984D02*
X7172086Y-14815460D01*
X7172086Y-14815460D02*
X7162563Y-14805936D01*
X7162563Y-14805936D02*
X7153039Y-14786888D01*
X7153039Y-14786888D02*
X7143515Y-14748793D01*
X7143515Y-14748793D02*
X7143515Y-14701174D01*
X7143515Y-14701174D02*
X7153039Y-14663079D01*
X7153039Y-14663079D02*
X7162563Y-14644031D01*
X7162563Y-14644031D02*
X7172086Y-14634508D01*
X7172086Y-14634508D02*
X7191134Y-14624984D01*
X7343515Y-14805936D02*
X7353039Y-14815460D01*
X7353039Y-14815460D02*
X7343515Y-14824984D01*
X7343515Y-14824984D02*
X7333991Y-14815460D01*
X7333991Y-14815460D02*
X7343515Y-14805936D01*
X7343515Y-14805936D02*
X7343515Y-14824984D01*
X7476848Y-14624984D02*
X7495896Y-14624984D01*
X7495896Y-14624984D02*
X7514944Y-14634508D01*
X7514944Y-14634508D02*
X7524467Y-14644031D01*
X7524467Y-14644031D02*
X7533991Y-14663079D01*
X7533991Y-14663079D02*
X7543515Y-14701174D01*
X7543515Y-14701174D02*
X7543515Y-14748793D01*
X7543515Y-14748793D02*
X7533991Y-14786888D01*
X7533991Y-14786888D02*
X7524467Y-14805936D01*
X7524467Y-14805936D02*
X7514944Y-14815460D01*
X7514944Y-14815460D02*
X7495896Y-14824984D01*
X7495896Y-14824984D02*
X7476848Y-14824984D01*
X7476848Y-14824984D02*
X7457801Y-14815460D01*
X7457801Y-14815460D02*
X7448277Y-14805936D01*
X7448277Y-14805936D02*
X7438753Y-14786888D01*
X7438753Y-14786888D02*
X7429229Y-14748793D01*
X7429229Y-14748793D02*
X7429229Y-14701174D01*
X7429229Y-14701174D02*
X7438753Y-14663079D01*
X7438753Y-14663079D02*
X7448277Y-14644031D01*
X7448277Y-14644031D02*
X7457801Y-14634508D01*
X7457801Y-14634508D02*
X7476848Y-14624984D01*
X7610182Y-14624984D02*
X7733991Y-14624984D01*
X7733991Y-14624984D02*
X7667325Y-14701174D01*
X7667325Y-14701174D02*
X7695896Y-14701174D01*
X7695896Y-14701174D02*
X7714944Y-14710698D01*
X7714944Y-14710698D02*
X7724467Y-14720222D01*
X7724467Y-14720222D02*
X7733991Y-14739269D01*
X7733991Y-14739269D02*
X7733991Y-14786888D01*
X7733991Y-14786888D02*
X7724467Y-14805936D01*
X7724467Y-14805936D02*
X7714944Y-14815460D01*
X7714944Y-14815460D02*
X7695896Y-14824984D01*
X7695896Y-14824984D02*
X7638753Y-14824984D01*
X7638753Y-14824984D02*
X7619706Y-14815460D01*
X7619706Y-14815460D02*
X7610182Y-14805936D01*
X7914944Y-14624984D02*
X7819706Y-14624984D01*
X7819706Y-14624984D02*
X7810182Y-14720222D01*
X7810182Y-14720222D02*
X7819706Y-14710698D01*
X7819706Y-14710698D02*
X7838753Y-14701174D01*
X7838753Y-14701174D02*
X7886372Y-14701174D01*
X7886372Y-14701174D02*
X7905420Y-14710698D01*
X7905420Y-14710698D02*
X7914944Y-14720222D01*
X7914944Y-14720222D02*
X7924467Y-14739269D01*
X7924467Y-14739269D02*
X7924467Y-14786888D01*
X7924467Y-14786888D02*
X7914944Y-14805936D01*
X7914944Y-14805936D02*
X7905420Y-14815460D01*
X7905420Y-14815460D02*
X7886372Y-14824984D01*
X7886372Y-14824984D02*
X7838753Y-14824984D01*
X7838753Y-14824984D02*
X7819706Y-14815460D01*
X7819706Y-14815460D02*
X7810182Y-14805936D01*
X8048277Y-14624984D02*
X8067325Y-14624984D01*
X8067325Y-14624984D02*
X8086372Y-14634508D01*
X8086372Y-14634508D02*
X8095896Y-14644031D01*
X8095896Y-14644031D02*
X8105420Y-14663079D01*
X8105420Y-14663079D02*
X8114944Y-14701174D01*
X8114944Y-14701174D02*
X8114944Y-14748793D01*
X8114944Y-14748793D02*
X8105420Y-14786888D01*
X8105420Y-14786888D02*
X8095896Y-14805936D01*
X8095896Y-14805936D02*
X8086372Y-14815460D01*
X8086372Y-14815460D02*
X8067325Y-14824984D01*
X8067325Y-14824984D02*
X8048277Y-14824984D01*
X8048277Y-14824984D02*
X8029229Y-14815460D01*
X8029229Y-14815460D02*
X8019706Y-14805936D01*
X8019706Y-14805936D02*
X8010182Y-14786888D01*
X8010182Y-14786888D02*
X8000658Y-14748793D01*
X8000658Y-14748793D02*
X8000658Y-14701174D01*
X8000658Y-14701174D02*
X8010182Y-14663079D01*
X8010182Y-14663079D02*
X8019706Y-14644031D01*
X8019706Y-14644031D02*
X8029229Y-14634508D01*
X8029229Y-14634508D02*
X8048277Y-14624984D01*
X8191134Y-14624984D02*
X8191134Y-14663079D01*
X8267325Y-14624984D02*
X8267325Y-14663079D01*
X8562563Y-14901174D02*
X8553039Y-14891650D01*
X8553039Y-14891650D02*
X8533991Y-14863079D01*
X8533991Y-14863079D02*
X8524468Y-14844031D01*
X8524468Y-14844031D02*
X8514944Y-14815460D01*
X8514944Y-14815460D02*
X8505420Y-14767841D01*
X8505420Y-14767841D02*
X8505420Y-14729746D01*
X8505420Y-14729746D02*
X8514944Y-14682127D01*
X8514944Y-14682127D02*
X8524468Y-14653555D01*
X8524468Y-14653555D02*
X8533991Y-14634508D01*
X8533991Y-14634508D02*
X8553039Y-14605936D01*
X8553039Y-14605936D02*
X8562563Y-14596412D01*
X8629230Y-14644031D02*
X8638753Y-14634508D01*
X8638753Y-14634508D02*
X8657801Y-14624984D01*
X8657801Y-14624984D02*
X8705420Y-14624984D01*
X8705420Y-14624984D02*
X8724468Y-14634508D01*
X8724468Y-14634508D02*
X8733991Y-14644031D01*
X8733991Y-14644031D02*
X8743515Y-14663079D01*
X8743515Y-14663079D02*
X8743515Y-14682127D01*
X8743515Y-14682127D02*
X8733991Y-14710698D01*
X8733991Y-14710698D02*
X8619706Y-14824984D01*
X8619706Y-14824984D02*
X8743515Y-14824984D01*
X8914944Y-14691650D02*
X8914944Y-14824984D01*
X8867325Y-14615460D02*
X8819706Y-14758317D01*
X8819706Y-14758317D02*
X8943515Y-14758317D01*
X9172087Y-14824984D02*
X9172087Y-14624984D01*
X9257801Y-14824984D02*
X9257801Y-14720222D01*
X9257801Y-14720222D02*
X9248277Y-14701174D01*
X9248277Y-14701174D02*
X9229230Y-14691650D01*
X9229230Y-14691650D02*
X9200658Y-14691650D01*
X9200658Y-14691650D02*
X9181611Y-14701174D01*
X9181611Y-14701174D02*
X9172087Y-14710698D01*
X9381611Y-14824984D02*
X9362563Y-14815460D01*
X9362563Y-14815460D02*
X9353039Y-14805936D01*
X9353039Y-14805936D02*
X9343515Y-14786888D01*
X9343515Y-14786888D02*
X9343515Y-14729746D01*
X9343515Y-14729746D02*
X9353039Y-14710698D01*
X9353039Y-14710698D02*
X9362563Y-14701174D01*
X9362563Y-14701174D02*
X9381611Y-14691650D01*
X9381611Y-14691650D02*
X9410182Y-14691650D01*
X9410182Y-14691650D02*
X9429230Y-14701174D01*
X9429230Y-14701174D02*
X9438753Y-14710698D01*
X9438753Y-14710698D02*
X9448277Y-14729746D01*
X9448277Y-14729746D02*
X9448277Y-14786888D01*
X9448277Y-14786888D02*
X9438753Y-14805936D01*
X9438753Y-14805936D02*
X9429230Y-14815460D01*
X9429230Y-14815460D02*
X9410182Y-14824984D01*
X9410182Y-14824984D02*
X9381611Y-14824984D01*
X9562563Y-14824984D02*
X9543515Y-14815460D01*
X9543515Y-14815460D02*
X9533992Y-14796412D01*
X9533992Y-14796412D02*
X9533992Y-14624984D01*
X9714944Y-14815460D02*
X9695896Y-14824984D01*
X9695896Y-14824984D02*
X9657801Y-14824984D01*
X9657801Y-14824984D02*
X9638753Y-14815460D01*
X9638753Y-14815460D02*
X9629230Y-14796412D01*
X9629230Y-14796412D02*
X9629230Y-14720222D01*
X9629230Y-14720222D02*
X9638753Y-14701174D01*
X9638753Y-14701174D02*
X9657801Y-14691650D01*
X9657801Y-14691650D02*
X9695896Y-14691650D01*
X9695896Y-14691650D02*
X9714944Y-14701174D01*
X9714944Y-14701174D02*
X9724468Y-14720222D01*
X9724468Y-14720222D02*
X9724468Y-14739269D01*
X9724468Y-14739269D02*
X9629230Y-14758317D01*
X9800658Y-14815460D02*
X9819706Y-14824984D01*
X9819706Y-14824984D02*
X9857801Y-14824984D01*
X9857801Y-14824984D02*
X9876849Y-14815460D01*
X9876849Y-14815460D02*
X9886373Y-14796412D01*
X9886373Y-14796412D02*
X9886373Y-14786888D01*
X9886373Y-14786888D02*
X9876849Y-14767841D01*
X9876849Y-14767841D02*
X9857801Y-14758317D01*
X9857801Y-14758317D02*
X9829230Y-14758317D01*
X9829230Y-14758317D02*
X9810182Y-14748793D01*
X9810182Y-14748793D02*
X9800658Y-14729746D01*
X9800658Y-14729746D02*
X9800658Y-14720222D01*
X9800658Y-14720222D02*
X9810182Y-14701174D01*
X9810182Y-14701174D02*
X9829230Y-14691650D01*
X9829230Y-14691650D02*
X9857801Y-14691650D01*
X9857801Y-14691650D02*
X9876849Y-14701174D01*
X9953039Y-14901174D02*
X9962563Y-14891650D01*
X9962563Y-14891650D02*
X9981611Y-14863079D01*
X9981611Y-14863079D02*
X9991134Y-14844031D01*
X9991134Y-14844031D02*
X10000658Y-14815460D01*
X10000658Y-14815460D02*
X10010182Y-14767841D01*
X10010182Y-14767841D02*
X10010182Y-14729746D01*
X10010182Y-14729746D02*
X10000658Y-14682127D01*
X10000658Y-14682127D02*
X9991134Y-14653555D01*
X9991134Y-14653555D02*
X9981611Y-14634508D01*
X9981611Y-14634508D02*
X9962563Y-14605936D01*
X9962563Y-14605936D02*
X9953039Y-14596412D01*
D12*
X4972856Y-15032856D02*
X4972856Y-14962144D01*
X4902144Y-14962144D01*
X4902144Y-15032856D01*
X4972856Y-15032856D01*
D11*
X5353039Y-15088984D02*
X5238753Y-15088984D01*
X5295896Y-15088984D02*
X5295896Y-14888984D01*
X5295896Y-14888984D02*
X5276848Y-14917555D01*
X5276848Y-14917555D02*
X5257801Y-14936603D01*
X5257801Y-14936603D02*
X5238753Y-14946127D01*
X5438753Y-15069936D02*
X5448277Y-15079460D01*
X5448277Y-15079460D02*
X5438753Y-15088984D01*
X5438753Y-15088984D02*
X5429229Y-15079460D01*
X5429229Y-15079460D02*
X5438753Y-15069936D01*
X5438753Y-15069936D02*
X5438753Y-15088984D01*
X5572086Y-14888984D02*
X5591134Y-14888984D01*
X5591134Y-14888984D02*
X5610182Y-14898508D01*
X5610182Y-14898508D02*
X5619705Y-14908031D01*
X5619705Y-14908031D02*
X5629229Y-14927079D01*
X5629229Y-14927079D02*
X5638753Y-14965174D01*
X5638753Y-14965174D02*
X5638753Y-15012793D01*
X5638753Y-15012793D02*
X5629229Y-15050888D01*
X5629229Y-15050888D02*
X5619705Y-15069936D01*
X5619705Y-15069936D02*
X5610182Y-15079460D01*
X5610182Y-15079460D02*
X5591134Y-15088984D01*
X5591134Y-15088984D02*
X5572086Y-15088984D01*
X5572086Y-15088984D02*
X5553039Y-15079460D01*
X5553039Y-15079460D02*
X5543515Y-15069936D01*
X5543515Y-15069936D02*
X5533991Y-15050888D01*
X5533991Y-15050888D02*
X5524467Y-15012793D01*
X5524467Y-15012793D02*
X5524467Y-14965174D01*
X5524467Y-14965174D02*
X5533991Y-14927079D01*
X5533991Y-14927079D02*
X5543515Y-14908031D01*
X5543515Y-14908031D02*
X5553039Y-14898508D01*
X5553039Y-14898508D02*
X5572086Y-14888984D01*
X5762562Y-14888984D02*
X5781610Y-14888984D01*
X5781610Y-14888984D02*
X5800658Y-14898508D01*
X5800658Y-14898508D02*
X5810182Y-14908031D01*
X5810182Y-14908031D02*
X5819705Y-14927079D01*
X5819705Y-14927079D02*
X5829229Y-14965174D01*
X5829229Y-14965174D02*
X5829229Y-15012793D01*
X5829229Y-15012793D02*
X5819705Y-15050888D01*
X5819705Y-15050888D02*
X5810182Y-15069936D01*
X5810182Y-15069936D02*
X5800658Y-15079460D01*
X5800658Y-15079460D02*
X5781610Y-15088984D01*
X5781610Y-15088984D02*
X5762562Y-15088984D01*
X5762562Y-15088984D02*
X5743515Y-15079460D01*
X5743515Y-15079460D02*
X5733991Y-15069936D01*
X5733991Y-15069936D02*
X5724467Y-15050888D01*
X5724467Y-15050888D02*
X5714943Y-15012793D01*
X5714943Y-15012793D02*
X5714943Y-14965174D01*
X5714943Y-14965174D02*
X5724467Y-14927079D01*
X5724467Y-14927079D02*
X5733991Y-14908031D01*
X5733991Y-14908031D02*
X5743515Y-14898508D01*
X5743515Y-14898508D02*
X5762562Y-14888984D01*
X5953039Y-14888984D02*
X5972086Y-14888984D01*
X5972086Y-14888984D02*
X5991134Y-14898508D01*
X5991134Y-14898508D02*
X6000658Y-14908031D01*
X6000658Y-14908031D02*
X6010182Y-14927079D01*
X6010182Y-14927079D02*
X6019705Y-14965174D01*
X6019705Y-14965174D02*
X6019705Y-15012793D01*
X6019705Y-15012793D02*
X6010182Y-15050888D01*
X6010182Y-15050888D02*
X6000658Y-15069936D01*
X6000658Y-15069936D02*
X5991134Y-15079460D01*
X5991134Y-15079460D02*
X5972086Y-15088984D01*
X5972086Y-15088984D02*
X5953039Y-15088984D01*
X5953039Y-15088984D02*
X5933991Y-15079460D01*
X5933991Y-15079460D02*
X5924467Y-15069936D01*
X5924467Y-15069936D02*
X5914943Y-15050888D01*
X5914943Y-15050888D02*
X5905420Y-15012793D01*
X5905420Y-15012793D02*
X5905420Y-14965174D01*
X5905420Y-14965174D02*
X5914943Y-14927079D01*
X5914943Y-14927079D02*
X5924467Y-14908031D01*
X5924467Y-14908031D02*
X5933991Y-14898508D01*
X5933991Y-14898508D02*
X5953039Y-14888984D01*
X6105420Y-15088984D02*
X6105420Y-14955650D01*
X6105420Y-14974698D02*
X6114943Y-14965174D01*
X6114943Y-14965174D02*
X6133991Y-14955650D01*
X6133991Y-14955650D02*
X6162563Y-14955650D01*
X6162563Y-14955650D02*
X6181610Y-14965174D01*
X6181610Y-14965174D02*
X6191134Y-14984222D01*
X6191134Y-14984222D02*
X6191134Y-15088984D01*
X6191134Y-14984222D02*
X6200658Y-14965174D01*
X6200658Y-14965174D02*
X6219705Y-14955650D01*
X6219705Y-14955650D02*
X6248277Y-14955650D01*
X6248277Y-14955650D02*
X6267324Y-14965174D01*
X6267324Y-14965174D02*
X6276848Y-14984222D01*
X6276848Y-14984222D02*
X6276848Y-15088984D01*
X6372086Y-15088984D02*
X6372086Y-14955650D01*
X6372086Y-14974698D02*
X6381610Y-14965174D01*
X6381610Y-14965174D02*
X6400658Y-14955650D01*
X6400658Y-14955650D02*
X6429229Y-14955650D01*
X6429229Y-14955650D02*
X6448277Y-14965174D01*
X6448277Y-14965174D02*
X6457801Y-14984222D01*
X6457801Y-14984222D02*
X6457801Y-15088984D01*
X6457801Y-14984222D02*
X6467324Y-14965174D01*
X6467324Y-14965174D02*
X6486372Y-14955650D01*
X6486372Y-14955650D02*
X6514943Y-14955650D01*
X6514943Y-14955650D02*
X6533991Y-14965174D01*
X6533991Y-14965174D02*
X6543515Y-14984222D01*
X6543515Y-14984222D02*
X6543515Y-15088984D01*
X6933991Y-14879460D02*
X6762563Y-15136603D01*
X7191134Y-14888984D02*
X7210182Y-14888984D01*
X7210182Y-14888984D02*
X7229229Y-14898508D01*
X7229229Y-14898508D02*
X7238753Y-14908031D01*
X7238753Y-14908031D02*
X7248277Y-14927079D01*
X7248277Y-14927079D02*
X7257801Y-14965174D01*
X7257801Y-14965174D02*
X7257801Y-15012793D01*
X7257801Y-15012793D02*
X7248277Y-15050888D01*
X7248277Y-15050888D02*
X7238753Y-15069936D01*
X7238753Y-15069936D02*
X7229229Y-15079460D01*
X7229229Y-15079460D02*
X7210182Y-15088984D01*
X7210182Y-15088984D02*
X7191134Y-15088984D01*
X7191134Y-15088984D02*
X7172086Y-15079460D01*
X7172086Y-15079460D02*
X7162563Y-15069936D01*
X7162563Y-15069936D02*
X7153039Y-15050888D01*
X7153039Y-15050888D02*
X7143515Y-15012793D01*
X7143515Y-15012793D02*
X7143515Y-14965174D01*
X7143515Y-14965174D02*
X7153039Y-14927079D01*
X7153039Y-14927079D02*
X7162563Y-14908031D01*
X7162563Y-14908031D02*
X7172086Y-14898508D01*
X7172086Y-14898508D02*
X7191134Y-14888984D01*
X7343515Y-15069936D02*
X7353039Y-15079460D01*
X7353039Y-15079460D02*
X7343515Y-15088984D01*
X7343515Y-15088984D02*
X7333991Y-15079460D01*
X7333991Y-15079460D02*
X7343515Y-15069936D01*
X7343515Y-15069936D02*
X7343515Y-15088984D01*
X7476848Y-14888984D02*
X7495896Y-14888984D01*
X7495896Y-14888984D02*
X7514944Y-14898508D01*
X7514944Y-14898508D02*
X7524467Y-14908031D01*
X7524467Y-14908031D02*
X7533991Y-14927079D01*
X7533991Y-14927079D02*
X7543515Y-14965174D01*
X7543515Y-14965174D02*
X7543515Y-15012793D01*
X7543515Y-15012793D02*
X7533991Y-15050888D01*
X7533991Y-15050888D02*
X7524467Y-15069936D01*
X7524467Y-15069936D02*
X7514944Y-15079460D01*
X7514944Y-15079460D02*
X7495896Y-15088984D01*
X7495896Y-15088984D02*
X7476848Y-15088984D01*
X7476848Y-15088984D02*
X7457801Y-15079460D01*
X7457801Y-15079460D02*
X7448277Y-15069936D01*
X7448277Y-15069936D02*
X7438753Y-15050888D01*
X7438753Y-15050888D02*
X7429229Y-15012793D01*
X7429229Y-15012793D02*
X7429229Y-14965174D01*
X7429229Y-14965174D02*
X7438753Y-14927079D01*
X7438753Y-14927079D02*
X7448277Y-14908031D01*
X7448277Y-14908031D02*
X7457801Y-14898508D01*
X7457801Y-14898508D02*
X7476848Y-14888984D01*
X7610182Y-14888984D02*
X7733991Y-14888984D01*
X7733991Y-14888984D02*
X7667325Y-14965174D01*
X7667325Y-14965174D02*
X7695896Y-14965174D01*
X7695896Y-14965174D02*
X7714944Y-14974698D01*
X7714944Y-14974698D02*
X7724467Y-14984222D01*
X7724467Y-14984222D02*
X7733991Y-15003269D01*
X7733991Y-15003269D02*
X7733991Y-15050888D01*
X7733991Y-15050888D02*
X7724467Y-15069936D01*
X7724467Y-15069936D02*
X7714944Y-15079460D01*
X7714944Y-15079460D02*
X7695896Y-15088984D01*
X7695896Y-15088984D02*
X7638753Y-15088984D01*
X7638753Y-15088984D02*
X7619706Y-15079460D01*
X7619706Y-15079460D02*
X7610182Y-15069936D01*
X7829229Y-15088984D02*
X7867325Y-15088984D01*
X7867325Y-15088984D02*
X7886372Y-15079460D01*
X7886372Y-15079460D02*
X7895896Y-15069936D01*
X7895896Y-15069936D02*
X7914944Y-15041365D01*
X7914944Y-15041365D02*
X7924467Y-15003269D01*
X7924467Y-15003269D02*
X7924467Y-14927079D01*
X7924467Y-14927079D02*
X7914944Y-14908031D01*
X7914944Y-14908031D02*
X7905420Y-14898508D01*
X7905420Y-14898508D02*
X7886372Y-14888984D01*
X7886372Y-14888984D02*
X7848277Y-14888984D01*
X7848277Y-14888984D02*
X7829229Y-14898508D01*
X7829229Y-14898508D02*
X7819706Y-14908031D01*
X7819706Y-14908031D02*
X7810182Y-14927079D01*
X7810182Y-14927079D02*
X7810182Y-14974698D01*
X7810182Y-14974698D02*
X7819706Y-14993746D01*
X7819706Y-14993746D02*
X7829229Y-15003269D01*
X7829229Y-15003269D02*
X7848277Y-15012793D01*
X7848277Y-15012793D02*
X7886372Y-15012793D01*
X7886372Y-15012793D02*
X7905420Y-15003269D01*
X7905420Y-15003269D02*
X7914944Y-14993746D01*
X7914944Y-14993746D02*
X7924467Y-14974698D01*
X8095896Y-14955650D02*
X8095896Y-15088984D01*
X8048277Y-14879460D02*
X8000658Y-15022317D01*
X8000658Y-15022317D02*
X8124467Y-15022317D01*
X8191134Y-14888984D02*
X8191134Y-14927079D01*
X8267325Y-14888984D02*
X8267325Y-14927079D01*
X8562563Y-15165174D02*
X8553039Y-15155650D01*
X8553039Y-15155650D02*
X8533991Y-15127079D01*
X8533991Y-15127079D02*
X8524468Y-15108031D01*
X8524468Y-15108031D02*
X8514944Y-15079460D01*
X8514944Y-15079460D02*
X8505420Y-15031841D01*
X8505420Y-15031841D02*
X8505420Y-14993746D01*
X8505420Y-14993746D02*
X8514944Y-14946127D01*
X8514944Y-14946127D02*
X8524468Y-14917555D01*
X8524468Y-14917555D02*
X8533991Y-14898508D01*
X8533991Y-14898508D02*
X8553039Y-14869936D01*
X8553039Y-14869936D02*
X8562563Y-14860412D01*
X8724468Y-14955650D02*
X8724468Y-15088984D01*
X8676849Y-14879460D02*
X8629230Y-15022317D01*
X8629230Y-15022317D02*
X8753039Y-15022317D01*
X8867325Y-14888984D02*
X8886372Y-14888984D01*
X8886372Y-14888984D02*
X8905420Y-14898508D01*
X8905420Y-14898508D02*
X8914944Y-14908031D01*
X8914944Y-14908031D02*
X8924468Y-14927079D01*
X8924468Y-14927079D02*
X8933991Y-14965174D01*
X8933991Y-14965174D02*
X8933991Y-15012793D01*
X8933991Y-15012793D02*
X8924468Y-15050888D01*
X8924468Y-15050888D02*
X8914944Y-15069936D01*
X8914944Y-15069936D02*
X8905420Y-15079460D01*
X8905420Y-15079460D02*
X8886372Y-15088984D01*
X8886372Y-15088984D02*
X8867325Y-15088984D01*
X8867325Y-15088984D02*
X8848277Y-15079460D01*
X8848277Y-15079460D02*
X8838753Y-15069936D01*
X8838753Y-15069936D02*
X8829230Y-15050888D01*
X8829230Y-15050888D02*
X8819706Y-15012793D01*
X8819706Y-15012793D02*
X8819706Y-14965174D01*
X8819706Y-14965174D02*
X8829230Y-14927079D01*
X8829230Y-14927079D02*
X8838753Y-14908031D01*
X8838753Y-14908031D02*
X8848277Y-14898508D01*
X8848277Y-14898508D02*
X8867325Y-14888984D01*
X9172087Y-15088984D02*
X9172087Y-14888984D01*
X9257801Y-15088984D02*
X9257801Y-14984222D01*
X9257801Y-14984222D02*
X9248277Y-14965174D01*
X9248277Y-14965174D02*
X9229230Y-14955650D01*
X9229230Y-14955650D02*
X9200658Y-14955650D01*
X9200658Y-14955650D02*
X9181611Y-14965174D01*
X9181611Y-14965174D02*
X9172087Y-14974698D01*
X9381611Y-15088984D02*
X9362563Y-15079460D01*
X9362563Y-15079460D02*
X9353039Y-15069936D01*
X9353039Y-15069936D02*
X9343515Y-15050888D01*
X9343515Y-15050888D02*
X9343515Y-14993746D01*
X9343515Y-14993746D02*
X9353039Y-14974698D01*
X9353039Y-14974698D02*
X9362563Y-14965174D01*
X9362563Y-14965174D02*
X9381611Y-14955650D01*
X9381611Y-14955650D02*
X9410182Y-14955650D01*
X9410182Y-14955650D02*
X9429230Y-14965174D01*
X9429230Y-14965174D02*
X9438753Y-14974698D01*
X9438753Y-14974698D02*
X9448277Y-14993746D01*
X9448277Y-14993746D02*
X9448277Y-15050888D01*
X9448277Y-15050888D02*
X9438753Y-15069936D01*
X9438753Y-15069936D02*
X9429230Y-15079460D01*
X9429230Y-15079460D02*
X9410182Y-15088984D01*
X9410182Y-15088984D02*
X9381611Y-15088984D01*
X9562563Y-15088984D02*
X9543515Y-15079460D01*
X9543515Y-15079460D02*
X9533992Y-15060412D01*
X9533992Y-15060412D02*
X9533992Y-14888984D01*
X9714944Y-15079460D02*
X9695896Y-15088984D01*
X9695896Y-15088984D02*
X9657801Y-15088984D01*
X9657801Y-15088984D02*
X9638753Y-15079460D01*
X9638753Y-15079460D02*
X9629230Y-15060412D01*
X9629230Y-15060412D02*
X9629230Y-14984222D01*
X9629230Y-14984222D02*
X9638753Y-14965174D01*
X9638753Y-14965174D02*
X9657801Y-14955650D01*
X9657801Y-14955650D02*
X9695896Y-14955650D01*
X9695896Y-14955650D02*
X9714944Y-14965174D01*
X9714944Y-14965174D02*
X9724468Y-14984222D01*
X9724468Y-14984222D02*
X9724468Y-15003269D01*
X9724468Y-15003269D02*
X9629230Y-15022317D01*
X9800658Y-15079460D02*
X9819706Y-15088984D01*
X9819706Y-15088984D02*
X9857801Y-15088984D01*
X9857801Y-15088984D02*
X9876849Y-15079460D01*
X9876849Y-15079460D02*
X9886373Y-15060412D01*
X9886373Y-15060412D02*
X9886373Y-15050888D01*
X9886373Y-15050888D02*
X9876849Y-15031841D01*
X9876849Y-15031841D02*
X9857801Y-15022317D01*
X9857801Y-15022317D02*
X9829230Y-15022317D01*
X9829230Y-15022317D02*
X9810182Y-15012793D01*
X9810182Y-15012793D02*
X9800658Y-14993746D01*
X9800658Y-14993746D02*
X9800658Y-14984222D01*
X9800658Y-14984222D02*
X9810182Y-14965174D01*
X9810182Y-14965174D02*
X9829230Y-14955650D01*
X9829230Y-14955650D02*
X9857801Y-14955650D01*
X9857801Y-14955650D02*
X9876849Y-14965174D01*
X9953039Y-15165174D02*
X9962563Y-15155650D01*
X9962563Y-15155650D02*
X9981611Y-15127079D01*
X9981611Y-15127079D02*
X9991134Y-15108031D01*
X9991134Y-15108031D02*
X10000658Y-15079460D01*
X10000658Y-15079460D02*
X10010182Y-15031841D01*
X10010182Y-15031841D02*
X10010182Y-14993746D01*
X10010182Y-14993746D02*
X10000658Y-14946127D01*
X10000658Y-14946127D02*
X9991134Y-14917555D01*
X9991134Y-14917555D02*
X9981611Y-14898508D01*
X9981611Y-14898508D02*
X9962563Y-14869936D01*
X9962563Y-14869936D02*
X9953039Y-14860412D01*
D13*
X4909000Y-15340000D02*
X4987500Y-15261500D01*
X4909000Y-15183000D01*
X4830500Y-15261500D01*
X4909000Y-15340000D01*
D11*
X5353039Y-15352984D02*
X5238753Y-15352984D01*
X5295896Y-15352984D02*
X5295896Y-15152984D01*
X5295896Y-15152984D02*
X5276848Y-15181555D01*
X5276848Y-15181555D02*
X5257801Y-15200603D01*
X5257801Y-15200603D02*
X5238753Y-15210127D01*
X5438753Y-15333936D02*
X5448277Y-15343460D01*
X5448277Y-15343460D02*
X5438753Y-15352984D01*
X5438753Y-15352984D02*
X5429229Y-15343460D01*
X5429229Y-15343460D02*
X5438753Y-15333936D01*
X5438753Y-15333936D02*
X5438753Y-15352984D01*
X5629229Y-15152984D02*
X5533991Y-15152984D01*
X5533991Y-15152984D02*
X5524467Y-15248222D01*
X5524467Y-15248222D02*
X5533991Y-15238698D01*
X5533991Y-15238698D02*
X5553039Y-15229174D01*
X5553039Y-15229174D02*
X5600658Y-15229174D01*
X5600658Y-15229174D02*
X5619705Y-15238698D01*
X5619705Y-15238698D02*
X5629229Y-15248222D01*
X5629229Y-15248222D02*
X5638753Y-15267269D01*
X5638753Y-15267269D02*
X5638753Y-15314888D01*
X5638753Y-15314888D02*
X5629229Y-15333936D01*
X5629229Y-15333936D02*
X5619705Y-15343460D01*
X5619705Y-15343460D02*
X5600658Y-15352984D01*
X5600658Y-15352984D02*
X5553039Y-15352984D01*
X5553039Y-15352984D02*
X5533991Y-15343460D01*
X5533991Y-15343460D02*
X5524467Y-15333936D01*
X5705420Y-15152984D02*
X5838753Y-15152984D01*
X5838753Y-15152984D02*
X5753039Y-15352984D01*
X5953039Y-15152984D02*
X5972086Y-15152984D01*
X5972086Y-15152984D02*
X5991134Y-15162508D01*
X5991134Y-15162508D02*
X6000658Y-15172031D01*
X6000658Y-15172031D02*
X6010182Y-15191079D01*
X6010182Y-15191079D02*
X6019705Y-15229174D01*
X6019705Y-15229174D02*
X6019705Y-15276793D01*
X6019705Y-15276793D02*
X6010182Y-15314888D01*
X6010182Y-15314888D02*
X6000658Y-15333936D01*
X6000658Y-15333936D02*
X5991134Y-15343460D01*
X5991134Y-15343460D02*
X5972086Y-15352984D01*
X5972086Y-15352984D02*
X5953039Y-15352984D01*
X5953039Y-15352984D02*
X5933991Y-15343460D01*
X5933991Y-15343460D02*
X5924467Y-15333936D01*
X5924467Y-15333936D02*
X5914943Y-15314888D01*
X5914943Y-15314888D02*
X5905420Y-15276793D01*
X5905420Y-15276793D02*
X5905420Y-15229174D01*
X5905420Y-15229174D02*
X5914943Y-15191079D01*
X5914943Y-15191079D02*
X5924467Y-15172031D01*
X5924467Y-15172031D02*
X5933991Y-15162508D01*
X5933991Y-15162508D02*
X5953039Y-15152984D01*
X6105420Y-15352984D02*
X6105420Y-15219650D01*
X6105420Y-15238698D02*
X6114943Y-15229174D01*
X6114943Y-15229174D02*
X6133991Y-15219650D01*
X6133991Y-15219650D02*
X6162563Y-15219650D01*
X6162563Y-15219650D02*
X6181610Y-15229174D01*
X6181610Y-15229174D02*
X6191134Y-15248222D01*
X6191134Y-15248222D02*
X6191134Y-15352984D01*
X6191134Y-15248222D02*
X6200658Y-15229174D01*
X6200658Y-15229174D02*
X6219705Y-15219650D01*
X6219705Y-15219650D02*
X6248277Y-15219650D01*
X6248277Y-15219650D02*
X6267324Y-15229174D01*
X6267324Y-15229174D02*
X6276848Y-15248222D01*
X6276848Y-15248222D02*
X6276848Y-15352984D01*
X6372086Y-15352984D02*
X6372086Y-15219650D01*
X6372086Y-15238698D02*
X6381610Y-15229174D01*
X6381610Y-15229174D02*
X6400658Y-15219650D01*
X6400658Y-15219650D02*
X6429229Y-15219650D01*
X6429229Y-15219650D02*
X6448277Y-15229174D01*
X6448277Y-15229174D02*
X6457801Y-15248222D01*
X6457801Y-15248222D02*
X6457801Y-15352984D01*
X6457801Y-15248222D02*
X6467324Y-15229174D01*
X6467324Y-15229174D02*
X6486372Y-15219650D01*
X6486372Y-15219650D02*
X6514943Y-15219650D01*
X6514943Y-15219650D02*
X6533991Y-15229174D01*
X6533991Y-15229174D02*
X6543515Y-15248222D01*
X6543515Y-15248222D02*
X6543515Y-15352984D01*
X6933991Y-15143460D02*
X6762563Y-15400603D01*
X7191134Y-15152984D02*
X7210182Y-15152984D01*
X7210182Y-15152984D02*
X7229229Y-15162508D01*
X7229229Y-15162508D02*
X7238753Y-15172031D01*
X7238753Y-15172031D02*
X7248277Y-15191079D01*
X7248277Y-15191079D02*
X7257801Y-15229174D01*
X7257801Y-15229174D02*
X7257801Y-15276793D01*
X7257801Y-15276793D02*
X7248277Y-15314888D01*
X7248277Y-15314888D02*
X7238753Y-15333936D01*
X7238753Y-15333936D02*
X7229229Y-15343460D01*
X7229229Y-15343460D02*
X7210182Y-15352984D01*
X7210182Y-15352984D02*
X7191134Y-15352984D01*
X7191134Y-15352984D02*
X7172086Y-15343460D01*
X7172086Y-15343460D02*
X7162563Y-15333936D01*
X7162563Y-15333936D02*
X7153039Y-15314888D01*
X7153039Y-15314888D02*
X7143515Y-15276793D01*
X7143515Y-15276793D02*
X7143515Y-15229174D01*
X7143515Y-15229174D02*
X7153039Y-15191079D01*
X7153039Y-15191079D02*
X7162563Y-15172031D01*
X7162563Y-15172031D02*
X7172086Y-15162508D01*
X7172086Y-15162508D02*
X7191134Y-15152984D01*
X7343515Y-15333936D02*
X7353039Y-15343460D01*
X7353039Y-15343460D02*
X7343515Y-15352984D01*
X7343515Y-15352984D02*
X7333991Y-15343460D01*
X7333991Y-15343460D02*
X7343515Y-15333936D01*
X7343515Y-15333936D02*
X7343515Y-15352984D01*
X7476848Y-15152984D02*
X7495896Y-15152984D01*
X7495896Y-15152984D02*
X7514944Y-15162508D01*
X7514944Y-15162508D02*
X7524467Y-15172031D01*
X7524467Y-15172031D02*
X7533991Y-15191079D01*
X7533991Y-15191079D02*
X7543515Y-15229174D01*
X7543515Y-15229174D02*
X7543515Y-15276793D01*
X7543515Y-15276793D02*
X7533991Y-15314888D01*
X7533991Y-15314888D02*
X7524467Y-15333936D01*
X7524467Y-15333936D02*
X7514944Y-15343460D01*
X7514944Y-15343460D02*
X7495896Y-15352984D01*
X7495896Y-15352984D02*
X7476848Y-15352984D01*
X7476848Y-15352984D02*
X7457801Y-15343460D01*
X7457801Y-15343460D02*
X7448277Y-15333936D01*
X7448277Y-15333936D02*
X7438753Y-15314888D01*
X7438753Y-15314888D02*
X7429229Y-15276793D01*
X7429229Y-15276793D02*
X7429229Y-15229174D01*
X7429229Y-15229174D02*
X7438753Y-15191079D01*
X7438753Y-15191079D02*
X7448277Y-15172031D01*
X7448277Y-15172031D02*
X7457801Y-15162508D01*
X7457801Y-15162508D02*
X7476848Y-15152984D01*
X7714944Y-15152984D02*
X7676848Y-15152984D01*
X7676848Y-15152984D02*
X7657801Y-15162508D01*
X7657801Y-15162508D02*
X7648277Y-15172031D01*
X7648277Y-15172031D02*
X7629229Y-15200603D01*
X7629229Y-15200603D02*
X7619706Y-15238698D01*
X7619706Y-15238698D02*
X7619706Y-15314888D01*
X7619706Y-15314888D02*
X7629229Y-15333936D01*
X7629229Y-15333936D02*
X7638753Y-15343460D01*
X7638753Y-15343460D02*
X7657801Y-15352984D01*
X7657801Y-15352984D02*
X7695896Y-15352984D01*
X7695896Y-15352984D02*
X7714944Y-15343460D01*
X7714944Y-15343460D02*
X7724467Y-15333936D01*
X7724467Y-15333936D02*
X7733991Y-15314888D01*
X7733991Y-15314888D02*
X7733991Y-15267269D01*
X7733991Y-15267269D02*
X7724467Y-15248222D01*
X7724467Y-15248222D02*
X7714944Y-15238698D01*
X7714944Y-15238698D02*
X7695896Y-15229174D01*
X7695896Y-15229174D02*
X7657801Y-15229174D01*
X7657801Y-15229174D02*
X7638753Y-15238698D01*
X7638753Y-15238698D02*
X7629229Y-15248222D01*
X7629229Y-15248222D02*
X7619706Y-15267269D01*
X7924467Y-15352984D02*
X7810182Y-15352984D01*
X7867325Y-15352984D02*
X7867325Y-15152984D01*
X7867325Y-15152984D02*
X7848277Y-15181555D01*
X7848277Y-15181555D02*
X7829229Y-15200603D01*
X7829229Y-15200603D02*
X7810182Y-15210127D01*
X8038753Y-15238698D02*
X8019706Y-15229174D01*
X8019706Y-15229174D02*
X8010182Y-15219650D01*
X8010182Y-15219650D02*
X8000658Y-15200603D01*
X8000658Y-15200603D02*
X8000658Y-15191079D01*
X8000658Y-15191079D02*
X8010182Y-15172031D01*
X8010182Y-15172031D02*
X8019706Y-15162508D01*
X8019706Y-15162508D02*
X8038753Y-15152984D01*
X8038753Y-15152984D02*
X8076848Y-15152984D01*
X8076848Y-15152984D02*
X8095896Y-15162508D01*
X8095896Y-15162508D02*
X8105420Y-15172031D01*
X8105420Y-15172031D02*
X8114944Y-15191079D01*
X8114944Y-15191079D02*
X8114944Y-15200603D01*
X8114944Y-15200603D02*
X8105420Y-15219650D01*
X8105420Y-15219650D02*
X8095896Y-15229174D01*
X8095896Y-15229174D02*
X8076848Y-15238698D01*
X8076848Y-15238698D02*
X8038753Y-15238698D01*
X8038753Y-15238698D02*
X8019706Y-15248222D01*
X8019706Y-15248222D02*
X8010182Y-15257746D01*
X8010182Y-15257746D02*
X8000658Y-15276793D01*
X8000658Y-15276793D02*
X8000658Y-15314888D01*
X8000658Y-15314888D02*
X8010182Y-15333936D01*
X8010182Y-15333936D02*
X8019706Y-15343460D01*
X8019706Y-15343460D02*
X8038753Y-15352984D01*
X8038753Y-15352984D02*
X8076848Y-15352984D01*
X8076848Y-15352984D02*
X8095896Y-15343460D01*
X8095896Y-15343460D02*
X8105420Y-15333936D01*
X8105420Y-15333936D02*
X8114944Y-15314888D01*
X8114944Y-15314888D02*
X8114944Y-15276793D01*
X8114944Y-15276793D02*
X8105420Y-15257746D01*
X8105420Y-15257746D02*
X8095896Y-15248222D01*
X8095896Y-15248222D02*
X8076848Y-15238698D01*
X8191134Y-15152984D02*
X8191134Y-15191079D01*
X8267325Y-15152984D02*
X8267325Y-15191079D01*
X8562563Y-15429174D02*
X8553039Y-15419650D01*
X8553039Y-15419650D02*
X8533991Y-15391079D01*
X8533991Y-15391079D02*
X8524468Y-15372031D01*
X8524468Y-15372031D02*
X8514944Y-15343460D01*
X8514944Y-15343460D02*
X8505420Y-15295841D01*
X8505420Y-15295841D02*
X8505420Y-15257746D01*
X8505420Y-15257746D02*
X8514944Y-15210127D01*
X8514944Y-15210127D02*
X8524468Y-15181555D01*
X8524468Y-15181555D02*
X8533991Y-15162508D01*
X8533991Y-15162508D02*
X8553039Y-15133936D01*
X8553039Y-15133936D02*
X8562563Y-15124412D01*
X8724468Y-15219650D02*
X8724468Y-15352984D01*
X8676849Y-15143460D02*
X8629230Y-15286317D01*
X8629230Y-15286317D02*
X8753039Y-15286317D01*
X8981611Y-15352984D02*
X8981611Y-15152984D01*
X9067325Y-15352984D02*
X9067325Y-15248222D01*
X9067325Y-15248222D02*
X9057801Y-15229174D01*
X9057801Y-15229174D02*
X9038753Y-15219650D01*
X9038753Y-15219650D02*
X9010182Y-15219650D01*
X9010182Y-15219650D02*
X8991134Y-15229174D01*
X8991134Y-15229174D02*
X8981611Y-15238698D01*
X9191134Y-15352984D02*
X9172087Y-15343460D01*
X9172087Y-15343460D02*
X9162563Y-15333936D01*
X9162563Y-15333936D02*
X9153039Y-15314888D01*
X9153039Y-15314888D02*
X9153039Y-15257746D01*
X9153039Y-15257746D02*
X9162563Y-15238698D01*
X9162563Y-15238698D02*
X9172087Y-15229174D01*
X9172087Y-15229174D02*
X9191134Y-15219650D01*
X9191134Y-15219650D02*
X9219706Y-15219650D01*
X9219706Y-15219650D02*
X9238753Y-15229174D01*
X9238753Y-15229174D02*
X9248277Y-15238698D01*
X9248277Y-15238698D02*
X9257801Y-15257746D01*
X9257801Y-15257746D02*
X9257801Y-15314888D01*
X9257801Y-15314888D02*
X9248277Y-15333936D01*
X9248277Y-15333936D02*
X9238753Y-15343460D01*
X9238753Y-15343460D02*
X9219706Y-15352984D01*
X9219706Y-15352984D02*
X9191134Y-15352984D01*
X9372087Y-15352984D02*
X9353039Y-15343460D01*
X9353039Y-15343460D02*
X9343515Y-15324412D01*
X9343515Y-15324412D02*
X9343515Y-15152984D01*
X9524468Y-15343460D02*
X9505420Y-15352984D01*
X9505420Y-15352984D02*
X9467325Y-15352984D01*
X9467325Y-15352984D02*
X9448277Y-15343460D01*
X9448277Y-15343460D02*
X9438753Y-15324412D01*
X9438753Y-15324412D02*
X9438753Y-15248222D01*
X9438753Y-15248222D02*
X9448277Y-15229174D01*
X9448277Y-15229174D02*
X9467325Y-15219650D01*
X9467325Y-15219650D02*
X9505420Y-15219650D01*
X9505420Y-15219650D02*
X9524468Y-15229174D01*
X9524468Y-15229174D02*
X9533992Y-15248222D01*
X9533992Y-15248222D02*
X9533992Y-15267269D01*
X9533992Y-15267269D02*
X9438753Y-15286317D01*
X9610182Y-15343460D02*
X9629230Y-15352984D01*
X9629230Y-15352984D02*
X9667325Y-15352984D01*
X9667325Y-15352984D02*
X9686373Y-15343460D01*
X9686373Y-15343460D02*
X9695896Y-15324412D01*
X9695896Y-15324412D02*
X9695896Y-15314888D01*
X9695896Y-15314888D02*
X9686373Y-15295841D01*
X9686373Y-15295841D02*
X9667325Y-15286317D01*
X9667325Y-15286317D02*
X9638753Y-15286317D01*
X9638753Y-15286317D02*
X9619706Y-15276793D01*
X9619706Y-15276793D02*
X9610182Y-15257746D01*
X9610182Y-15257746D02*
X9610182Y-15248222D01*
X9610182Y-15248222D02*
X9619706Y-15229174D01*
X9619706Y-15229174D02*
X9638753Y-15219650D01*
X9638753Y-15219650D02*
X9667325Y-15219650D01*
X9667325Y-15219650D02*
X9686373Y-15229174D01*
X9762563Y-15429174D02*
X9772087Y-15419650D01*
X9772087Y-15419650D02*
X9791134Y-15391079D01*
X9791134Y-15391079D02*
X9800658Y-15372031D01*
X9800658Y-15372031D02*
X9810182Y-15343460D01*
X9810182Y-15343460D02*
X9819706Y-15295841D01*
X9819706Y-15295841D02*
X9819706Y-15257746D01*
X9819706Y-15257746D02*
X9810182Y-15210127D01*
X9810182Y-15210127D02*
X9800658Y-15181555D01*
X9800658Y-15181555D02*
X9791134Y-15162508D01*
X9791134Y-15162508D02*
X9772087Y-15133936D01*
X9772087Y-15133936D02*
X9762563Y-15124412D01*
X4787500Y-15438500D02*
X4987500Y-15638500D01*
X4987500Y-15438500D02*
X4787500Y-15638500D01*
X4987500Y-15538500D02*
G75*
G02*
X4787500Y-15538500I-100000J0D01*
G01*
X4787500Y-15538500D02*
G75*
G02*
X4987500Y-15538500I100000J0D01*
G01*
X5229229Y-15429984D02*
X5353039Y-15429984D01*
X5353039Y-15429984D02*
X5286372Y-15506174D01*
X5286372Y-15506174D02*
X5314944Y-15506174D01*
X5314944Y-15506174D02*
X5333991Y-15515698D01*
X5333991Y-15515698D02*
X5343515Y-15525222D01*
X5343515Y-15525222D02*
X5353039Y-15544269D01*
X5353039Y-15544269D02*
X5353039Y-15591888D01*
X5353039Y-15591888D02*
X5343515Y-15610936D01*
X5343515Y-15610936D02*
X5333991Y-15620460D01*
X5333991Y-15620460D02*
X5314944Y-15629984D01*
X5314944Y-15629984D02*
X5257801Y-15629984D01*
X5257801Y-15629984D02*
X5238753Y-15620460D01*
X5238753Y-15620460D02*
X5229229Y-15610936D01*
X5438753Y-15610936D02*
X5448277Y-15620460D01*
X5448277Y-15620460D02*
X5438753Y-15629984D01*
X5438753Y-15629984D02*
X5429229Y-15620460D01*
X5429229Y-15620460D02*
X5438753Y-15610936D01*
X5438753Y-15610936D02*
X5438753Y-15629984D01*
X5572086Y-15429984D02*
X5591134Y-15429984D01*
X5591134Y-15429984D02*
X5610182Y-15439508D01*
X5610182Y-15439508D02*
X5619705Y-15449031D01*
X5619705Y-15449031D02*
X5629229Y-15468079D01*
X5629229Y-15468079D02*
X5638753Y-15506174D01*
X5638753Y-15506174D02*
X5638753Y-15553793D01*
X5638753Y-15553793D02*
X5629229Y-15591888D01*
X5629229Y-15591888D02*
X5619705Y-15610936D01*
X5619705Y-15610936D02*
X5610182Y-15620460D01*
X5610182Y-15620460D02*
X5591134Y-15629984D01*
X5591134Y-15629984D02*
X5572086Y-15629984D01*
X5572086Y-15629984D02*
X5553039Y-15620460D01*
X5553039Y-15620460D02*
X5543515Y-15610936D01*
X5543515Y-15610936D02*
X5533991Y-15591888D01*
X5533991Y-15591888D02*
X5524467Y-15553793D01*
X5524467Y-15553793D02*
X5524467Y-15506174D01*
X5524467Y-15506174D02*
X5533991Y-15468079D01*
X5533991Y-15468079D02*
X5543515Y-15449031D01*
X5543515Y-15449031D02*
X5553039Y-15439508D01*
X5553039Y-15439508D02*
X5572086Y-15429984D01*
X5762562Y-15429984D02*
X5781610Y-15429984D01*
X5781610Y-15429984D02*
X5800658Y-15439508D01*
X5800658Y-15439508D02*
X5810182Y-15449031D01*
X5810182Y-15449031D02*
X5819705Y-15468079D01*
X5819705Y-15468079D02*
X5829229Y-15506174D01*
X5829229Y-15506174D02*
X5829229Y-15553793D01*
X5829229Y-15553793D02*
X5819705Y-15591888D01*
X5819705Y-15591888D02*
X5810182Y-15610936D01*
X5810182Y-15610936D02*
X5800658Y-15620460D01*
X5800658Y-15620460D02*
X5781610Y-15629984D01*
X5781610Y-15629984D02*
X5762562Y-15629984D01*
X5762562Y-15629984D02*
X5743515Y-15620460D01*
X5743515Y-15620460D02*
X5733991Y-15610936D01*
X5733991Y-15610936D02*
X5724467Y-15591888D01*
X5724467Y-15591888D02*
X5714943Y-15553793D01*
X5714943Y-15553793D02*
X5714943Y-15506174D01*
X5714943Y-15506174D02*
X5724467Y-15468079D01*
X5724467Y-15468079D02*
X5733991Y-15449031D01*
X5733991Y-15449031D02*
X5743515Y-15439508D01*
X5743515Y-15439508D02*
X5762562Y-15429984D01*
X5953039Y-15429984D02*
X5972086Y-15429984D01*
X5972086Y-15429984D02*
X5991134Y-15439508D01*
X5991134Y-15439508D02*
X6000658Y-15449031D01*
X6000658Y-15449031D02*
X6010182Y-15468079D01*
X6010182Y-15468079D02*
X6019705Y-15506174D01*
X6019705Y-15506174D02*
X6019705Y-15553793D01*
X6019705Y-15553793D02*
X6010182Y-15591888D01*
X6010182Y-15591888D02*
X6000658Y-15610936D01*
X6000658Y-15610936D02*
X5991134Y-15620460D01*
X5991134Y-15620460D02*
X5972086Y-15629984D01*
X5972086Y-15629984D02*
X5953039Y-15629984D01*
X5953039Y-15629984D02*
X5933991Y-15620460D01*
X5933991Y-15620460D02*
X5924467Y-15610936D01*
X5924467Y-15610936D02*
X5914943Y-15591888D01*
X5914943Y-15591888D02*
X5905420Y-15553793D01*
X5905420Y-15553793D02*
X5905420Y-15506174D01*
X5905420Y-15506174D02*
X5914943Y-15468079D01*
X5914943Y-15468079D02*
X5924467Y-15449031D01*
X5924467Y-15449031D02*
X5933991Y-15439508D01*
X5933991Y-15439508D02*
X5953039Y-15429984D01*
X6105420Y-15629984D02*
X6105420Y-15496650D01*
X6105420Y-15515698D02*
X6114943Y-15506174D01*
X6114943Y-15506174D02*
X6133991Y-15496650D01*
X6133991Y-15496650D02*
X6162563Y-15496650D01*
X6162563Y-15496650D02*
X6181610Y-15506174D01*
X6181610Y-15506174D02*
X6191134Y-15525222D01*
X6191134Y-15525222D02*
X6191134Y-15629984D01*
X6191134Y-15525222D02*
X6200658Y-15506174D01*
X6200658Y-15506174D02*
X6219705Y-15496650D01*
X6219705Y-15496650D02*
X6248277Y-15496650D01*
X6248277Y-15496650D02*
X6267324Y-15506174D01*
X6267324Y-15506174D02*
X6276848Y-15525222D01*
X6276848Y-15525222D02*
X6276848Y-15629984D01*
X6372086Y-15629984D02*
X6372086Y-15496650D01*
X6372086Y-15515698D02*
X6381610Y-15506174D01*
X6381610Y-15506174D02*
X6400658Y-15496650D01*
X6400658Y-15496650D02*
X6429229Y-15496650D01*
X6429229Y-15496650D02*
X6448277Y-15506174D01*
X6448277Y-15506174D02*
X6457801Y-15525222D01*
X6457801Y-15525222D02*
X6457801Y-15629984D01*
X6457801Y-15525222D02*
X6467324Y-15506174D01*
X6467324Y-15506174D02*
X6486372Y-15496650D01*
X6486372Y-15496650D02*
X6514943Y-15496650D01*
X6514943Y-15496650D02*
X6533991Y-15506174D01*
X6533991Y-15506174D02*
X6543515Y-15525222D01*
X6543515Y-15525222D02*
X6543515Y-15629984D01*
X6933991Y-15420460D02*
X6762563Y-15677603D01*
X7191134Y-15429984D02*
X7210182Y-15429984D01*
X7210182Y-15429984D02*
X7229229Y-15439508D01*
X7229229Y-15439508D02*
X7238753Y-15449031D01*
X7238753Y-15449031D02*
X7248277Y-15468079D01*
X7248277Y-15468079D02*
X7257801Y-15506174D01*
X7257801Y-15506174D02*
X7257801Y-15553793D01*
X7257801Y-15553793D02*
X7248277Y-15591888D01*
X7248277Y-15591888D02*
X7238753Y-15610936D01*
X7238753Y-15610936D02*
X7229229Y-15620460D01*
X7229229Y-15620460D02*
X7210182Y-15629984D01*
X7210182Y-15629984D02*
X7191134Y-15629984D01*
X7191134Y-15629984D02*
X7172086Y-15620460D01*
X7172086Y-15620460D02*
X7162563Y-15610936D01*
X7162563Y-15610936D02*
X7153039Y-15591888D01*
X7153039Y-15591888D02*
X7143515Y-15553793D01*
X7143515Y-15553793D02*
X7143515Y-15506174D01*
X7143515Y-15506174D02*
X7153039Y-15468079D01*
X7153039Y-15468079D02*
X7162563Y-15449031D01*
X7162563Y-15449031D02*
X7172086Y-15439508D01*
X7172086Y-15439508D02*
X7191134Y-15429984D01*
X7343515Y-15610936D02*
X7353039Y-15620460D01*
X7353039Y-15620460D02*
X7343515Y-15629984D01*
X7343515Y-15629984D02*
X7333991Y-15620460D01*
X7333991Y-15620460D02*
X7343515Y-15610936D01*
X7343515Y-15610936D02*
X7343515Y-15629984D01*
X7543515Y-15629984D02*
X7429229Y-15629984D01*
X7486372Y-15629984D02*
X7486372Y-15429984D01*
X7486372Y-15429984D02*
X7467325Y-15458555D01*
X7467325Y-15458555D02*
X7448277Y-15477603D01*
X7448277Y-15477603D02*
X7429229Y-15487127D01*
X7733991Y-15629984D02*
X7619706Y-15629984D01*
X7676848Y-15629984D02*
X7676848Y-15429984D01*
X7676848Y-15429984D02*
X7657801Y-15458555D01*
X7657801Y-15458555D02*
X7638753Y-15477603D01*
X7638753Y-15477603D02*
X7619706Y-15487127D01*
X7848277Y-15515698D02*
X7829229Y-15506174D01*
X7829229Y-15506174D02*
X7819706Y-15496650D01*
X7819706Y-15496650D02*
X7810182Y-15477603D01*
X7810182Y-15477603D02*
X7810182Y-15468079D01*
X7810182Y-15468079D02*
X7819706Y-15449031D01*
X7819706Y-15449031D02*
X7829229Y-15439508D01*
X7829229Y-15439508D02*
X7848277Y-15429984D01*
X7848277Y-15429984D02*
X7886372Y-15429984D01*
X7886372Y-15429984D02*
X7905420Y-15439508D01*
X7905420Y-15439508D02*
X7914944Y-15449031D01*
X7914944Y-15449031D02*
X7924467Y-15468079D01*
X7924467Y-15468079D02*
X7924467Y-15477603D01*
X7924467Y-15477603D02*
X7914944Y-15496650D01*
X7914944Y-15496650D02*
X7905420Y-15506174D01*
X7905420Y-15506174D02*
X7886372Y-15515698D01*
X7886372Y-15515698D02*
X7848277Y-15515698D01*
X7848277Y-15515698D02*
X7829229Y-15525222D01*
X7829229Y-15525222D02*
X7819706Y-15534746D01*
X7819706Y-15534746D02*
X7810182Y-15553793D01*
X7810182Y-15553793D02*
X7810182Y-15591888D01*
X7810182Y-15591888D02*
X7819706Y-15610936D01*
X7819706Y-15610936D02*
X7829229Y-15620460D01*
X7829229Y-15620460D02*
X7848277Y-15629984D01*
X7848277Y-15629984D02*
X7886372Y-15629984D01*
X7886372Y-15629984D02*
X7905420Y-15620460D01*
X7905420Y-15620460D02*
X7914944Y-15610936D01*
X7914944Y-15610936D02*
X7924467Y-15591888D01*
X7924467Y-15591888D02*
X7924467Y-15553793D01*
X7924467Y-15553793D02*
X7914944Y-15534746D01*
X7914944Y-15534746D02*
X7905420Y-15525222D01*
X7905420Y-15525222D02*
X7886372Y-15515698D01*
X8114944Y-15629984D02*
X8000658Y-15629984D01*
X8057801Y-15629984D02*
X8057801Y-15429984D01*
X8057801Y-15429984D02*
X8038753Y-15458555D01*
X8038753Y-15458555D02*
X8019706Y-15477603D01*
X8019706Y-15477603D02*
X8000658Y-15487127D01*
X8191134Y-15429984D02*
X8191134Y-15468079D01*
X8267325Y-15429984D02*
X8267325Y-15468079D01*
X8562563Y-15706174D02*
X8553039Y-15696650D01*
X8553039Y-15696650D02*
X8533991Y-15668079D01*
X8533991Y-15668079D02*
X8524468Y-15649031D01*
X8524468Y-15649031D02*
X8514944Y-15620460D01*
X8514944Y-15620460D02*
X8505420Y-15572841D01*
X8505420Y-15572841D02*
X8505420Y-15534746D01*
X8505420Y-15534746D02*
X8514944Y-15487127D01*
X8514944Y-15487127D02*
X8524468Y-15458555D01*
X8524468Y-15458555D02*
X8533991Y-15439508D01*
X8533991Y-15439508D02*
X8553039Y-15410936D01*
X8553039Y-15410936D02*
X8562563Y-15401412D01*
X8743515Y-15629984D02*
X8629230Y-15629984D01*
X8686372Y-15629984D02*
X8686372Y-15429984D01*
X8686372Y-15429984D02*
X8667325Y-15458555D01*
X8667325Y-15458555D02*
X8648277Y-15477603D01*
X8648277Y-15477603D02*
X8629230Y-15487127D01*
X8933991Y-15629984D02*
X8819706Y-15629984D01*
X8876849Y-15629984D02*
X8876849Y-15429984D01*
X8876849Y-15429984D02*
X8857801Y-15458555D01*
X8857801Y-15458555D02*
X8838753Y-15477603D01*
X8838753Y-15477603D02*
X8819706Y-15487127D01*
X9172087Y-15629984D02*
X9172087Y-15429984D01*
X9257801Y-15629984D02*
X9257801Y-15525222D01*
X9257801Y-15525222D02*
X9248277Y-15506174D01*
X9248277Y-15506174D02*
X9229230Y-15496650D01*
X9229230Y-15496650D02*
X9200658Y-15496650D01*
X9200658Y-15496650D02*
X9181611Y-15506174D01*
X9181611Y-15506174D02*
X9172087Y-15515698D01*
X9381611Y-15629984D02*
X9362563Y-15620460D01*
X9362563Y-15620460D02*
X9353039Y-15610936D01*
X9353039Y-15610936D02*
X9343515Y-15591888D01*
X9343515Y-15591888D02*
X9343515Y-15534746D01*
X9343515Y-15534746D02*
X9353039Y-15515698D01*
X9353039Y-15515698D02*
X9362563Y-15506174D01*
X9362563Y-15506174D02*
X9381611Y-15496650D01*
X9381611Y-15496650D02*
X9410182Y-15496650D01*
X9410182Y-15496650D02*
X9429230Y-15506174D01*
X9429230Y-15506174D02*
X9438753Y-15515698D01*
X9438753Y-15515698D02*
X9448277Y-15534746D01*
X9448277Y-15534746D02*
X9448277Y-15591888D01*
X9448277Y-15591888D02*
X9438753Y-15610936D01*
X9438753Y-15610936D02*
X9429230Y-15620460D01*
X9429230Y-15620460D02*
X9410182Y-15629984D01*
X9410182Y-15629984D02*
X9381611Y-15629984D01*
X9562563Y-15629984D02*
X9543515Y-15620460D01*
X9543515Y-15620460D02*
X9533992Y-15601412D01*
X9533992Y-15601412D02*
X9533992Y-15429984D01*
X9714944Y-15620460D02*
X9695896Y-15629984D01*
X9695896Y-15629984D02*
X9657801Y-15629984D01*
X9657801Y-15629984D02*
X9638753Y-15620460D01*
X9638753Y-15620460D02*
X9629230Y-15601412D01*
X9629230Y-15601412D02*
X9629230Y-15525222D01*
X9629230Y-15525222D02*
X9638753Y-15506174D01*
X9638753Y-15506174D02*
X9657801Y-15496650D01*
X9657801Y-15496650D02*
X9695896Y-15496650D01*
X9695896Y-15496650D02*
X9714944Y-15506174D01*
X9714944Y-15506174D02*
X9724468Y-15525222D01*
X9724468Y-15525222D02*
X9724468Y-15544269D01*
X9724468Y-15544269D02*
X9629230Y-15563317D01*
X9800658Y-15620460D02*
X9819706Y-15629984D01*
X9819706Y-15629984D02*
X9857801Y-15629984D01*
X9857801Y-15629984D02*
X9876849Y-15620460D01*
X9876849Y-15620460D02*
X9886373Y-15601412D01*
X9886373Y-15601412D02*
X9886373Y-15591888D01*
X9886373Y-15591888D02*
X9876849Y-15572841D01*
X9876849Y-15572841D02*
X9857801Y-15563317D01*
X9857801Y-15563317D02*
X9829230Y-15563317D01*
X9829230Y-15563317D02*
X9810182Y-15553793D01*
X9810182Y-15553793D02*
X9800658Y-15534746D01*
X9800658Y-15534746D02*
X9800658Y-15525222D01*
X9800658Y-15525222D02*
X9810182Y-15506174D01*
X9810182Y-15506174D02*
X9829230Y-15496650D01*
X9829230Y-15496650D02*
X9857801Y-15496650D01*
X9857801Y-15496650D02*
X9876849Y-15506174D01*
X9953039Y-15706174D02*
X9962563Y-15696650D01*
X9962563Y-15696650D02*
X9981611Y-15668079D01*
X9981611Y-15668079D02*
X9991134Y-15649031D01*
X9991134Y-15649031D02*
X10000658Y-15620460D01*
X10000658Y-15620460D02*
X10010182Y-15572841D01*
X10010182Y-15572841D02*
X10010182Y-15534746D01*
X10010182Y-15534746D02*
X10000658Y-15487127D01*
X10000658Y-15487127D02*
X9991134Y-15458555D01*
X9991134Y-15458555D02*
X9981611Y-15439508D01*
X9981611Y-15439508D02*
X9962563Y-15410936D01*
X9962563Y-15410936D02*
X9953039Y-15401412D01*
M02*
