G04 #@! TF.GenerationSoftware,KiCad,Pcbnew,8.0.4*
G04 #@! TF.CreationDate,2024-08-16T23:51:58-05:00*
G04 #@! TF.ProjectId,BatteryCo,42617474-6572-4794-936f-2e6b69636164,rev?*
G04 #@! TF.SameCoordinates,Original*
G04 #@! TF.FileFunction,Soldermask,Top*
G04 #@! TF.FilePolarity,Negative*
%FSLAX46Y46*%
G04 Gerber Fmt 4.6, Leading zero omitted, Abs format (unit mm)*
G04 Created by KiCad (PCBNEW 8.0.4) date 2024-08-16 23:51:58*
%MOMM*%
%LPD*%
G01*
G04 APERTURE LIST*
G04 Aperture macros list*
%AMRoundRect*
0 Rectangle with rounded corners*
0 $1 Rounding radius*
0 $2 $3 $4 $5 $6 $7 $8 $9 X,Y pos of 4 corners*
0 Add a 4 corners polygon primitive as box body*
4,1,4,$2,$3,$4,$5,$6,$7,$8,$9,$2,$3,0*
0 Add four circle primitives for the rounded corners*
1,1,$1+$1,$2,$3*
1,1,$1+$1,$4,$5*
1,1,$1+$1,$6,$7*
1,1,$1+$1,$8,$9*
0 Add four rect primitives between the rounded corners*
20,1,$1+$1,$2,$3,$4,$5,0*
20,1,$1+$1,$4,$5,$6,$7,0*
20,1,$1+$1,$6,$7,$8,$9,0*
20,1,$1+$1,$8,$9,$2,$3,0*%
%AMFreePoly0*
4,1,6,1.000000,0.000000,0.500000,-0.750000,-0.500000,-0.750000,-0.500000,0.750000,0.500000,0.750000,1.000000,0.000000,1.000000,0.000000,$1*%
%AMFreePoly1*
4,1,6,0.500000,-0.750000,-0.650000,-0.750000,-0.150000,0.000000,-0.650000,0.750000,0.500000,0.750000,0.500000,-0.750000,0.500000,-0.750000,$1*%
G04 Aperture macros list end*
%ADD10RoundRect,0.250000X0.337500X0.475000X-0.337500X0.475000X-0.337500X-0.475000X0.337500X-0.475000X0*%
%ADD11R,1.700000X1.700000*%
%ADD12O,1.700000X1.700000*%
%ADD13FreePoly0,270.000000*%
%ADD14FreePoly1,270.000000*%
%ADD15FreePoly1,180.000000*%
%ADD16FreePoly0,180.000000*%
%ADD17RoundRect,0.250000X-0.350000X-0.450000X0.350000X-0.450000X0.350000X0.450000X-0.350000X0.450000X0*%
%ADD18FreePoly0,90.000000*%
%ADD19FreePoly1,90.000000*%
%ADD20R,1.000000X0.750000*%
%ADD21RoundRect,0.250000X-0.475000X0.337500X-0.475000X-0.337500X0.475000X-0.337500X0.475000X0.337500X0*%
%ADD22RoundRect,0.250000X0.350000X0.450000X-0.350000X0.450000X-0.350000X-0.450000X0.350000X-0.450000X0*%
%ADD23RoundRect,0.250000X-0.450000X0.350000X-0.450000X-0.350000X0.450000X-0.350000X0.450000X0.350000X0*%
%ADD24RoundRect,0.249999X1.950001X1.950001X-1.950001X1.950001X-1.950001X-1.950001X1.950001X-1.950001X0*%
%ADD25RoundRect,0.150000X0.825000X0.150000X-0.825000X0.150000X-0.825000X-0.150000X0.825000X-0.150000X0*%
%ADD26RoundRect,0.125000X0.125000X0.225000X-0.125000X0.225000X-0.125000X-0.225000X0.125000X-0.225000X0*%
%ADD27RoundRect,0.249999X-0.450001X-1.425001X0.450001X-1.425001X0.450001X1.425001X-0.450001X1.425001X0*%
%ADD28RoundRect,0.250000X0.300000X-2.050000X0.300000X2.050000X-0.300000X2.050000X-0.300000X-2.050000X0*%
%ADD29RoundRect,0.250002X5.149998X-4.449998X5.149998X4.449998X-5.149998X4.449998X-5.149998X-4.449998X0*%
%ADD30RoundRect,0.150000X0.150000X-0.587500X0.150000X0.587500X-0.150000X0.587500X-0.150000X-0.587500X0*%
%ADD31RoundRect,0.087500X-0.725000X-0.087500X0.725000X-0.087500X0.725000X0.087500X-0.725000X0.087500X0*%
%ADD32RoundRect,0.250000X-0.537500X-0.425000X0.537500X-0.425000X0.537500X0.425000X-0.537500X0.425000X0*%
%ADD33RoundRect,0.249999X-1.950001X-1.950001X1.950001X-1.950001X1.950001X1.950001X-1.950001X1.950001X0*%
%ADD34RoundRect,0.250000X0.475000X-0.337500X0.475000X0.337500X-0.475000X0.337500X-0.475000X-0.337500X0*%
%ADD35RoundRect,0.250000X-0.337500X-0.475000X0.337500X-0.475000X0.337500X0.475000X-0.337500X0.475000X0*%
%ADD36R,0.650000X0.500000*%
%ADD37R,4.120000X4.600000*%
%ADD38R,0.550000X0.500000*%
%ADD39RoundRect,0.250000X0.450000X-0.350000X0.450000X0.350000X-0.450000X0.350000X-0.450000X-0.350000X0*%
%ADD40C,1.000000*%
%ADD41R,1.600000X0.700000*%
%ADD42R,1.500000X1.200000*%
%ADD43R,2.200000X1.200000*%
%ADD44R,1.500000X1.600000*%
%ADD45RoundRect,0.250000X0.325000X0.450000X-0.325000X0.450000X-0.325000X-0.450000X0.325000X-0.450000X0*%
%ADD46C,3.250000*%
%ADD47R,1.500000X1.500000*%
%ADD48C,1.500000*%
%ADD49C,2.300000*%
%ADD50RoundRect,0.075000X-0.075000X0.650000X-0.075000X-0.650000X0.075000X-0.650000X0.075000X0.650000X0*%
%ADD51RoundRect,0.250000X-0.600000X0.600000X-0.600000X-0.600000X0.600000X-0.600000X0.600000X0.600000X0*%
%ADD52C,1.700000*%
%ADD53RoundRect,0.150000X0.200000X-0.150000X0.200000X0.150000X-0.200000X0.150000X-0.200000X-0.150000X0*%
%ADD54RoundRect,0.250000X-0.325000X-0.450000X0.325000X-0.450000X0.325000X0.450000X-0.325000X0.450000X0*%
%ADD55RoundRect,0.150000X-0.200000X0.150000X-0.200000X-0.150000X0.200000X-0.150000X0.200000X0.150000X0*%
%ADD56RoundRect,0.150000X0.587500X0.150000X-0.587500X0.150000X-0.587500X-0.150000X0.587500X-0.150000X0*%
%ADD57RoundRect,0.250000X-0.350000X0.850000X-0.350000X-0.850000X0.350000X-0.850000X0.350000X0.850000X0*%
%ADD58RoundRect,0.249997X-2.650003X2.950003X-2.650003X-2.950003X2.650003X-2.950003X2.650003X2.950003X0*%
%ADD59R,0.900000X1.500000*%
%ADD60R,1.500000X0.900000*%
%ADD61R,0.900000X0.900000*%
%ADD62C,0.650000*%
%ADD63R,1.450000X0.600000*%
%ADD64R,1.450000X0.300000*%
%ADD65O,2.100000X1.000000*%
%ADD66O,1.600000X1.000000*%
%ADD67RoundRect,0.112500X0.112500X-0.187500X0.112500X0.187500X-0.112500X0.187500X-0.112500X-0.187500X0*%
%ADD68RoundRect,0.150000X0.150000X0.200000X-0.150000X0.200000X-0.150000X-0.200000X0.150000X-0.200000X0*%
%ADD69RoundRect,0.375000X0.625000X0.375000X-0.625000X0.375000X-0.625000X-0.375000X0.625000X-0.375000X0*%
%ADD70RoundRect,0.500000X0.500000X1.400000X-0.500000X1.400000X-0.500000X-1.400000X0.500000X-1.400000X0*%
G04 APERTURE END LIST*
D10*
X132520700Y-53781600D03*
X130445700Y-53781600D03*
X132520700Y-51648000D03*
X130445700Y-51648000D03*
D11*
X88354000Y-53019600D03*
D12*
X90894000Y-53019600D03*
X93434000Y-53019600D03*
X95974000Y-53019600D03*
D13*
X67449800Y-111259600D03*
D14*
X67449800Y-112709600D03*
D15*
X75471800Y-119999400D03*
D16*
X76921800Y-119999400D03*
D17*
X71529800Y-119999400D03*
X73529800Y-119999400D03*
D18*
X67475200Y-107528000D03*
D19*
X67475200Y-106078000D03*
D20*
X53144000Y-57296000D03*
X59144000Y-57296000D03*
X53144000Y-61046000D03*
X59144000Y-61046000D03*
X71432000Y-65932000D03*
X77432000Y-65932000D03*
X71432000Y-69682000D03*
X77432000Y-69682000D03*
D21*
X60160000Y-52113000D03*
X60160000Y-54188000D03*
X79464000Y-65088500D03*
X79464000Y-67163500D03*
D22*
X82860000Y-98460000D03*
X80860000Y-98460000D03*
D23*
X95821571Y-117717324D03*
X95821571Y-119717324D03*
D24*
X125692000Y-121244000D03*
D10*
X82927500Y-102760000D03*
X80852500Y-102760000D03*
D25*
X77980000Y-116430000D03*
X77980000Y-115160000D03*
X77980000Y-113890000D03*
X77980000Y-112620000D03*
X73030000Y-112620000D03*
X73030000Y-113890000D03*
X73030000Y-115160000D03*
X73030000Y-116430000D03*
D26*
X130000001Y-66448300D03*
X129200001Y-66448300D03*
D27*
X130600000Y-112500000D03*
X136700000Y-112500000D03*
D28*
X116760000Y-105050000D03*
D29*
X119300000Y-95900000D03*
D28*
X121840000Y-105050000D03*
D30*
X97600000Y-106100000D03*
X99500000Y-106100000D03*
X98550000Y-104225000D03*
D31*
X99927500Y-92820000D03*
X99927500Y-93320000D03*
X99927500Y-93820000D03*
X99927500Y-94320000D03*
X99927500Y-94820000D03*
X104152500Y-94820000D03*
X104152500Y-94320000D03*
X104152500Y-93820000D03*
X104152500Y-93320000D03*
X104152500Y-92820000D03*
D32*
X96862500Y-99590000D03*
X99737500Y-99590000D03*
D11*
X88354000Y-60030000D03*
D12*
X90894000Y-60030000D03*
X93434000Y-60030000D03*
X95974000Y-60030000D03*
D10*
X80275000Y-94800000D03*
X78200000Y-94800000D03*
D11*
X87240000Y-124820000D03*
D12*
X87240000Y-127360000D03*
X87240000Y-129900000D03*
X87240000Y-132440000D03*
D33*
X120300000Y-87100000D03*
D21*
X96000000Y-91725000D03*
X96000000Y-93800000D03*
D34*
X129300000Y-107837500D03*
X129300000Y-105762500D03*
D35*
X97862500Y-97380000D03*
X99937500Y-97380000D03*
D26*
X130000001Y-69000000D03*
X129200001Y-69000000D03*
D17*
X74200000Y-94800000D03*
X76200000Y-94800000D03*
D23*
X92721571Y-117717324D03*
X92721571Y-119717324D03*
D10*
X80275000Y-92700000D03*
X78200000Y-92700000D03*
D33*
X98370000Y-85030000D03*
D36*
X109353421Y-84765000D03*
X109353421Y-86035000D03*
X109353421Y-87305000D03*
X109353421Y-88575000D03*
D37*
X112568421Y-86670000D03*
D38*
X114903421Y-84765000D03*
X114903421Y-86035000D03*
X114903421Y-87305000D03*
X114903421Y-88575000D03*
D22*
X127747001Y-63961225D03*
X125747001Y-63961225D03*
D11*
X100310000Y-114400000D03*
D12*
X100310000Y-116940000D03*
X100310000Y-119480000D03*
X100310000Y-122020000D03*
D17*
X135900000Y-74900000D03*
X137900000Y-74900000D03*
D22*
X76200000Y-92700000D03*
X74200000Y-92700000D03*
X92270000Y-78600000D03*
X90270000Y-78600000D03*
D39*
X92721571Y-115517324D03*
X92721571Y-113517324D03*
D33*
X139200000Y-87200000D03*
D40*
X146070000Y-67070000D03*
X146070000Y-59070000D03*
D41*
X135070000Y-59870000D03*
X135070000Y-60970000D03*
X135070000Y-62070000D03*
X135070000Y-63170000D03*
X135070000Y-64270000D03*
X135070000Y-65370000D03*
X135070000Y-66470000D03*
X135070000Y-67570000D03*
X135070000Y-68670000D03*
D42*
X136070000Y-69870000D03*
D43*
X145670000Y-69870000D03*
D44*
X136070000Y-55270000D03*
D43*
X145670000Y-54370000D03*
D22*
X127747001Y-61474150D03*
X125747001Y-61474150D03*
D35*
X70222300Y-101482800D03*
X72297300Y-101482800D03*
D17*
X131500000Y-78500000D03*
X133500000Y-78500000D03*
D22*
X127747001Y-66448300D03*
X125747001Y-66448300D03*
D11*
X79540000Y-124820000D03*
D12*
X79540000Y-127360000D03*
X79540000Y-129900000D03*
X79540000Y-132440000D03*
D33*
X142600000Y-120500000D03*
D36*
X108120000Y-87305000D03*
X108120000Y-86035000D03*
X108120000Y-84765000D03*
X108120000Y-83495000D03*
D37*
X104905000Y-85400000D03*
D38*
X102570000Y-87305000D03*
X102570000Y-86035000D03*
X102570000Y-84765000D03*
X102570000Y-83495000D03*
D35*
X67900000Y-94400000D03*
X69975000Y-94400000D03*
D39*
X95821571Y-115517324D03*
X95821571Y-113517324D03*
D22*
X127747001Y-58987075D03*
X125747001Y-58987075D03*
D27*
X130600000Y-116600000D03*
X136700000Y-116600000D03*
D22*
X78200000Y-83400000D03*
X76200000Y-83400000D03*
D33*
X129800000Y-87200000D03*
D17*
X108410000Y-80570000D03*
X110410000Y-80570000D03*
D33*
X142600000Y-112700000D03*
D45*
X79168200Y-107798800D03*
X77118200Y-107798800D03*
D35*
X70222300Y-105698800D03*
X72297300Y-105698800D03*
D39*
X89621571Y-115517324D03*
X89621571Y-113517324D03*
D26*
X130000001Y-56500000D03*
X129200001Y-56500000D03*
D17*
X67937500Y-96400000D03*
X69937500Y-96400000D03*
D46*
X55322000Y-105746000D03*
X55322000Y-93046000D03*
D47*
X57862000Y-102956000D03*
D48*
X59642000Y-101940000D03*
X57862000Y-100924000D03*
X59642000Y-99908000D03*
X57862000Y-98892000D03*
X59642000Y-97876000D03*
X57862000Y-96860000D03*
X59642000Y-95844000D03*
X64462000Y-106256000D03*
X64462000Y-103966000D03*
X64462000Y-94826000D03*
X64462000Y-92536000D03*
D49*
X58752000Y-107526000D03*
X58752000Y-91266000D03*
D22*
X82850000Y-74700000D03*
X80850000Y-74700000D03*
X78200000Y-81400000D03*
X76200000Y-81400000D03*
D50*
X133400000Y-103400000D03*
X132900000Y-103400000D03*
X132400000Y-103400000D03*
X131900000Y-103400000D03*
X131400000Y-103400000D03*
X131400000Y-107800000D03*
X131900000Y-107800000D03*
X132400000Y-107800000D03*
X132900000Y-107800000D03*
X133400000Y-107800000D03*
D23*
X89621571Y-117717324D03*
X89621571Y-119717324D03*
D18*
X95300000Y-106200000D03*
D19*
X95300000Y-104750000D03*
D17*
X94800000Y-109100000D03*
X96800000Y-109100000D03*
D21*
X93800000Y-91725000D03*
X93800000Y-93800000D03*
D51*
X115024000Y-55653658D03*
D52*
X115024000Y-58193658D03*
X112484000Y-55653658D03*
X112484000Y-58193658D03*
X109944000Y-55653658D03*
X109944000Y-58193658D03*
X107404000Y-55653658D03*
X107404000Y-58193658D03*
X104864000Y-55653658D03*
X104864000Y-58193658D03*
D53*
X128400000Y-74300000D03*
X128400000Y-75700000D03*
D24*
X109182000Y-111084000D03*
D54*
X76910000Y-98460000D03*
X78960000Y-98460000D03*
D55*
X128400000Y-79700000D03*
X128400000Y-78300000D03*
D46*
X55334000Y-125354800D03*
X55334000Y-112654800D03*
D47*
X57874000Y-122564800D03*
D48*
X59654000Y-121548800D03*
X57874000Y-120532800D03*
X59654000Y-119516800D03*
X57874000Y-118500800D03*
X59654000Y-117484800D03*
X57874000Y-116468800D03*
X59654000Y-115452800D03*
X64474000Y-125864800D03*
X64474000Y-123574800D03*
X64474000Y-114434800D03*
X64474000Y-112144800D03*
D49*
X58764000Y-127134800D03*
X58764000Y-110874800D03*
D24*
X109436000Y-121300000D03*
D39*
X67373600Y-116513000D03*
X67373600Y-114513000D03*
D35*
X70222300Y-99440800D03*
X72297300Y-99440800D03*
X70222300Y-103539800D03*
X72297300Y-103539800D03*
D26*
X130000001Y-58987075D03*
X129200001Y-58987075D03*
D56*
X87315289Y-80030000D03*
X87315289Y-78130000D03*
X85440289Y-79080000D03*
D26*
X130000001Y-63961225D03*
X129200001Y-63961225D03*
D22*
X127747001Y-56500000D03*
X125747001Y-56500000D03*
D57*
X91680000Y-96060000D03*
D58*
X89400000Y-102360000D03*
D57*
X87120000Y-96060000D03*
D59*
X51040000Y-87300000D03*
X52310000Y-87300000D03*
X53580000Y-87300000D03*
X54850000Y-87300000D03*
X56120000Y-87300000D03*
X57390000Y-87300000D03*
X58660000Y-87300000D03*
X59930000Y-87300000D03*
X61200000Y-87300000D03*
X62470000Y-87300000D03*
X63740000Y-87300000D03*
X65010000Y-87300000D03*
X66280000Y-87300000D03*
X67550000Y-87300000D03*
D60*
X68800000Y-85535000D03*
X68800000Y-84265000D03*
X68800000Y-82995000D03*
X68800000Y-81725000D03*
X68800000Y-80455000D03*
X68800000Y-79185000D03*
X68800000Y-77915000D03*
X68800000Y-76645000D03*
X68800000Y-75375000D03*
X68800000Y-74105000D03*
X68800000Y-72835000D03*
X68800000Y-71565000D03*
D59*
X67550000Y-69800000D03*
X66280000Y-69800000D03*
X65010000Y-69800000D03*
X63740000Y-69800000D03*
X62470000Y-69800000D03*
X61200000Y-69800000D03*
X59930000Y-69800000D03*
X58660000Y-69800000D03*
X57390000Y-69800000D03*
X56120000Y-69800000D03*
X54850000Y-69800000D03*
X53580000Y-69800000D03*
X52310000Y-69800000D03*
X51040000Y-69800000D03*
D61*
X57360000Y-81450000D03*
X58760000Y-81450000D03*
X60160000Y-81450000D03*
X60160000Y-81450000D03*
X57360000Y-80050000D03*
X57360000Y-80050000D03*
X58760000Y-80050000D03*
X60160000Y-80050000D03*
X57360000Y-78650000D03*
X58760000Y-78650000D03*
X60160000Y-78650000D03*
D24*
X117310000Y-121300000D03*
D62*
X143650000Y-79510000D03*
X143650000Y-73730000D03*
D63*
X142205000Y-79870000D03*
X142205000Y-79070000D03*
D64*
X142205000Y-77870000D03*
X142205000Y-76870000D03*
X142205000Y-76370000D03*
X142205000Y-75370000D03*
D63*
X142205000Y-74170000D03*
X142205000Y-73370000D03*
X142205000Y-73370000D03*
X142205000Y-74170000D03*
D64*
X142205000Y-74870000D03*
X142205000Y-75870000D03*
X142205000Y-77370000D03*
X142205000Y-78370000D03*
D63*
X142205000Y-79070000D03*
X142205000Y-79870000D03*
D65*
X143120000Y-80940000D03*
D66*
X147300000Y-80940000D03*
D65*
X143120000Y-72300000D03*
D66*
X147300000Y-72300000D03*
D22*
X127747001Y-69000000D03*
X125747001Y-69000000D03*
D10*
X82927500Y-100560000D03*
X80852500Y-100560000D03*
D67*
X136400000Y-83500000D03*
X136400000Y-81400000D03*
D68*
X131400000Y-81400000D03*
X132800000Y-81400000D03*
D26*
X130000001Y-61474150D03*
X129200001Y-61474150D03*
D23*
X105860000Y-97940000D03*
X105860000Y-99940000D03*
D33*
X142700000Y-94400000D03*
D69*
X87550000Y-87300000D03*
X87550000Y-85000000D03*
D70*
X81250000Y-85000000D03*
D69*
X87550000Y-82700000D03*
D22*
X86750000Y-74700000D03*
X84750000Y-74700000D03*
D23*
X103730000Y-97940000D03*
X103730000Y-99940000D03*
X67449800Y-101879800D03*
X67449800Y-103879800D03*
D51*
X78846217Y-55653658D03*
D52*
X78846217Y-58193658D03*
X76306217Y-55653658D03*
X76306217Y-58193658D03*
X73766217Y-55653658D03*
X73766217Y-58193658D03*
X71226217Y-55653658D03*
X71226217Y-58193658D03*
X68686217Y-55653658D03*
X68686217Y-58193658D03*
D17*
X70259800Y-107798800D03*
X72259800Y-107798800D03*
M02*
